<?xml version="1.0" encoding="utf-8"?>
<!DOCTYPE svg PUBLIC "-//W3C//DTD SVG 1.0//EN" "http://www.w3.org/TR/2001/REC-SVG-20010904/DTD/svg10.dtd">
<svg version="1.0" xmlns="http://www.w3.org/2000/svg" width="740px" height="740px" viewBox="0 0 740 740" preserveAspectRatio="xMidYMid meet">
 <g fill="#000000">
  <path d="M204.58 702.06 l-4.41 -4.70 -42.93 0 -42.93 0 -3.04 -5.56 c-7.44 -13.80 -19.66 -25.29 -36.13 -33.89 -3.83 -2.02 -3.97 -2.24 -4.19 -5.35 -0.36 -4.77 0.29 -5.06 13.44 -5.06 17.34 0 32.66 2.89 46.90 8.89 6.72 2.82 6.58 3.11 1.81 -5.64 -8.60 -15.54 -20.60 -29.12 -34.40 -39.02 l-4.63 -3.25 -47.04 0 -47.04 0 0 -4.34 0 -4.34 43.21 0 43.21 0 0.79 -2.24 0.87 -2.31 6.36 0.51 c3.47 0.29 9.76 1.23 13.95 2.10 6.94 1.37 10.33 1.52 38.30 1.73 l30.71 0.22 2.02 -6.36 c1.08 -3.54 3.54 -9.39 5.42 -13.15 2.67 -5.28 3.83 -6.87 5.20 -7.23 1.59 -0.43 1.16 -0.79 -3.61 -3.11 -11.35 -5.49 -20.02 -6 -31 -2.02 -6.58 2.38 -9.61 2.75 -10.77 1.37 -0.36 -0.51 -0.87 -3.83 -1.01 -7.44 -0.29 -5.49 -0.65 -7.15 -2.53 -10.84 -2.89 -5.56 -8.09 -10.55 -13.59 -13.15 -3.97 -1.88 -4.91 -2.02 -11.71 -1.81 l-7.44 0.14 0 -6.07 c0 -12.72 -3.54 -21.54 -12.21 -30.13 -6.36 -6.36 -12.07 -9.47 -20.38 -11.20 -4.91 -1.01 -6 -1.01 -10.84 0 -6.87 1.45 -14.24 5.06 -20.31 10.12 -3.47 2.89 -5.49 4.05 -7.01 4.05 -2.67 0 -3.25 -0.79 -4.70 -6.43 -3.54 -13.80 -15.18 -25.22 -28.98 -28.33 l-3.97 -0.87 0 -4.19 c0 -3.25 0.29 -4.19 1.16 -4.41 0.79 -0.14 2.17 -3.18 4.26 -9.61 13.88 -42.78 41.19 -82.24 76.96 -111.29 3.40 -2.75 10.19 -8.89 15.18 -13.73 4.99 -4.77 11.71 -10.41 14.81 -12.57 3.18 -2.17 6.07 -4.19 6.43 -4.48 0.36 -0.29 -0.72 -2.75 -2.38 -5.35 -2.67 -4.19 -10.19 -18.79 -11.06 -21.46 -0.58 -1.66 -21.90 11.49 -36.28 22.40 -22.55 17.05 -46.83 42.20 -61.50 63.59 -6.79 9.83 -7.59 9.83 -7.59 -0.14 l0 -7.52 4.48 -6.07 c22.84 -30.86 56.73 -60.41 91.78 -80 8.89 -4.99 29.27 -14.09 38.88 -17.49 l4.77 -1.59 -0.94 -5.13 c-0.51 -2.82 -1.16 -10.70 -1.37 -17.56 -0.43 -10.12 -0.36 -12.65 0.51 -13.66 0.87 -1.08 2.24 -1.16 12.57 -0.72 6.36 0.22 14.81 0.94 18.72 1.52 8.96 1.37 8.38 1.37 8.38 -0.65 0 -4.77 8.09 -31.58 10.33 -34.25 2.31 -2.82 16.19 2.38 32.23 12.07 3.32 2.02 6.29 3.69 6.50 3.69 0.22 0 1.23 -1.23 2.17 -2.75 3.76 -5.85 9.83 -13.37 16.04 -19.95 5.64 -5.93 6.87 -6.94 8.82 -6.94 1.30 0.07 3.04 0.43 3.90 0.94 2.89 1.59 15.39 15.97 20.09 23.05 1.52 2.31 2.96 4.19 3.32 4.19 0.29 0 3.61 -1.88 7.30 -4.12 3.69 -2.24 10.41 -5.85 14.89 -7.95 7.08 -3.40 8.60 -3.90 11.85 -3.69 l3.76 0.22 2.38 6.14 c1.37 3.40 3.25 9.11 4.34 12.65 1.08 3.61 2.02 6.65 2.10 6.79 0.14 0.14 2.96 -1.81 6.29 -4.26 l6.07 -4.55 -5.35 -7.88 c-7.08 -10.48 -12.79 -22.26 -12.79 -26.59 l-0.07 -3.25 5.42 -2.67 c6.72 -3.40 19.87 -8.09 25.65 -9.18 2.38 -0.51 4.70 -1.01 5.13 -1.16 0.51 -0.14 0.14 -2.96 -0.94 -8.38 -1.23 -5.93 -1.88 -11.78 -2.17 -20.67 l-0.43 -12.50 13.66 0.07 c7.52 0 16.62 0.43 20.23 0.87 l6.58 0.87 0.87 -5.78 c1.45 -9.68 5.85 -25.65 8.53 -30.86 0.79 -1.73 1.45 -2.02 3.90 -2.02 3.54 0 12.07 3.47 24.71 9.90 5.06 2.60 9.32 4.63 9.47 4.48 0.07 -0.14 1.37 -2.31 2.82 -4.77 3.32 -5.49 11.92 -16.91 15.90 -20.96 2.60 -2.75 3.40 -3.11 6.14 -3.11 3.04 0 3.40 0.29 10.84 7.80 4.26 4.26 9.97 10.55 12.65 14.02 l4.91 6.29 7.73 -5.28 c11.49 -7.73 23.05 -13.44 27.24 -13.44 l3.32 0 2.53 5.49 c3.11 6.72 8.67 23.34 9.32 27.75 l0.51 3.32 7.80 -1.59 c8.89 -1.81 24.71 -3.40 29.63 -3.04 l3.25 0.22 0.65 5.78 c0.65 5.35 -0.29 26.23 -1.45 32.59 -0.43 2.24 -0.43 2.24 3.47 2.75 2.10 0.29 6.29 1.01 9.25 1.59 l5.42 1.08 4.91 -3.25 c2.67 -1.81 6.79 -3.97 9.18 -4.84 2.38 -0.87 4.34 -2.02 4.34 -2.53 0 -3.18 -2.53 -17.99 -4.26 -25.29 -3.97 -15.97 -8.38 -27.46 -16.26 -41.84 -12.50 -22.91 -29.92 -41.55 -51.53 -55.28 -10.12 -6.43 -10.04 -7.23 0.79 -7.23 l8.17 0 7.52 5.56 c29.34 21.82 51.89 57.09 60.20 94.31 2.17 9.54 4.05 21.82 4.05 26.45 0 2.89 0.07 3.04 2.17 3.04 1.23 0 2.17 -0.07 2.17 -0.14 0 -0.14 -0.72 -2.31 -1.52 -4.91 -2.02 -6.43 -2.60 -17.56 -1.16 -24.35 1.73 -8.09 4.41 -12.86 10.48 -19.01 l5.35 -5.35 -3.04 -7.66 c-8.74 -21.75 -21.03 -41.34 -37.36 -59.76 -2.89 -3.25 -5.28 -6.36 -5.28 -7.01 0 -0.94 1.01 -1.16 6.36 -1.16 l6.29 0 4.34 5.20 c14.53 17.34 27.03 38.16 34.98 58.46 l3.04 7.59 8.60 -0.29 c9.39 -0.36 13.37 0.29 19.01 3.11 1.88 0.94 3.40 1.66 3.40 1.52 0 -0.14 -1.16 -3.69 -2.60 -7.80 -7.52 -21.61 -17.27 -41.34 -30.06 -60.34 -4.84 -7.23 -4.77 -7.44 2.24 -7.44 l5.78 0 5.49 8.82 c11.27 18.07 23.05 44.37 28.69 64.24 1.30 4.55 2.38 8.38 2.53 8.53 0.07 0.14 2.17 -1.08 4.63 -2.75 5.56 -3.69 10.26 -5.13 17.05 -5.13 2.89 0 5.28 -0.29 5.28 -0.58 0 -1.23 -5.35 -17.42 -8.82 -26.88 -4.84 -13.08 -9.61 -23.56 -15.75 -34.76 -2.75 -5.13 -5.06 -9.76 -5.06 -10.41 0 -0.94 0.87 -1.08 5.49 -0.94 l5.56 0.22 4.19 7.95 c9.68 18.21 21.10 48.20 23.99 63.09 0.43 2.46 1.08 4.48 1.37 4.48 0.36 0 0.58 2.31 0.58 5.06 0 5.93 0.22 5.85 -7.73 3.18 -6.87 -2.31 -9.97 -2.10 -16.48 1.08 -5.35 2.67 -9.47 6.94 -12.21 12.79 l-1.88 3.97 -3.32 -0.22 c-3.25 -0.22 -3.25 -0.29 -4.91 -4.26 -3.11 -7.66 -9.25 -13.66 -16.84 -16.55 -13.88 -5.28 -31.80 7.44 -34.90 24.71 -1.01 5.49 0.51 12.72 4.34 20.45 2.02 4.05 2.89 6.79 2.89 8.89 l0 3.04 -7.80 0 c-8.74 0 -14.02 1.08 -20.23 4.26 l-4.12 2.10 2.17 0.79 c6.36 2.24 7.15 3.90 4.99 10.41 -1.59 4.91 -6.72 17.27 -7.59 18.14 -0.36 0.43 -0.65 1.01 -0.65 1.30 0 0.29 27.97 0.58 62.15 0.58 l62.15 0 0 4.34 0 4.34 -65.18 0.14 -65.18 0.22 6.14 3.76 c6.50 3.97 18.50 13.30 21.82 16.84 1.45 1.66 1.95 2.96 1.95 5.06 0 2.46 -0.58 3.54 -4.19 7.73 -5.49 6.36 -17.49 16.91 -22.33 19.58 -0.94 0.58 -0.43 1.81 3.76 8.02 7.30 10.98 13.37 23.34 13.37 27.32 0 2.89 -0.22 3.32 -2.60 4.70 l-2.53 1.52 6 6.21 c17.27 17.85 29.20 34.83 40.76 58.17 3.69 7.44 6.87 13.73 6.94 13.88 0.14 0.14 2.38 -0.43 4.99 -1.23 6.72 -2.17 21.46 -2.67 29.63 -1.01 7.37 1.45 16.40 5.56 22.33 10.12 l4.34 3.32 0 6.14 c0 5.71 -0.07 6.07 -1.52 6.07 -0.87 0 -3.54 -1.81 -6.14 -4.26 -8.02 -7.52 -18.86 -12.65 -28.76 -13.59 -10.33 -0.94 -23.56 4.26 -32.66 13.01 -8.53 8.09 -13.30 17.34 -15.03 29.41 l-0.87 6.14 -2.60 0.22 c-1.73 0.14 -3.90 -0.36 -6.14 -1.52 -9.61 -4.84 -15.54 -5.13 -23.63 -1.37 -6.29 2.96 -10.04 6.58 -13.01 12.50 -3.18 6.36 -3.90 11.42 -2.31 17.63 0.65 2.53 1.16 6.14 1.16 7.95 l0 3.25 -3.25 0 c-2.10 0 -4.63 -0.65 -6.87 -1.81 -5.56 -2.82 -11.85 -4.19 -16.40 -3.61 -15.18 1.88 -27.24 12.50 -31 27.24 -1.30 5.06 -1.01 8.74 1.23 15.54 0.79 2.46 1.37 5.71 1.23 7.23 -0.22 2.60 -0.36 2.75 -3.11 2.96 -1.52 0.14 -4.77 -0.29 -7.23 -1.01 -17.42 -4.91 -36.64 5.64 -42.49 23.49 l-1.88 5.49 120.68 0.22 120.61 0.14 0 4.34 0 4.34 -124.80 -0.14 -124.88 -0.22 -0.22 -5.93 c-0.43 -11.78 3.25 -20.96 11.85 -29.63 3.83 -3.90 6.58 -5.93 10.62 -7.88 6.72 -3.18 16.04 -4.91 23.63 -4.41 l5.42 0.36 -0.22 -7.44 c-0.51 -13.37 3.18 -23.27 11.92 -31.94 4.70 -4.55 12.50 -9.11 17.27 -10.04 1.37 -0.22 2.67 -0.72 2.89 -1.08 0.58 -1.01 -3.11 -14.96 -6.14 -23.27 -4.63 -12.50 -10.77 -23.34 -19.22 -34.11 -7.52 -9.54 -11.42 -12.86 -19.15 -16.40 -3.76 -1.66 -9.61 -4.55 -13.01 -6.43 l-6.14 -3.32 -2.75 4.70 c-3.32 5.78 -6.58 10.26 -13.37 18.36 -5.20 6.29 -5.28 6.36 -8.60 6.36 -3.25 0 -3.40 -0.07 -12.50 -9.18 -5.06 -5.13 -10.77 -11.56 -12.72 -14.38 l-3.61 -5.13 -2.10 1.66 c-2.17 1.66 -2.17 1.81 -8.46 38.01 -3.47 19.95 -6.14 36.42 -6 36.64 0.22 0.14 0.94 -0.22 1.59 -0.79 2.53 -2.17 14.16 -8.74 19.66 -11.13 10.91 -4.70 17.85 -6.14 31.51 -6.58 10.77 -0.36 13.08 -0.22 18.64 1.16 11.42 2.75 22.04 8.17 30.06 15.39 2.60 2.31 2.96 3.04 2.96 5.78 0 3.04 -0.22 3.32 -7.88 10.77 -14.31 14.02 -30.35 22.98 -48.71 27.17 -3.76 0.87 -8.67 1.23 -17.49 1.23 -13.95 0 -20.81 -1.30 -30.64 -5.78 -2.96 -1.37 -5.64 -2.24 -5.85 -1.95 -0.29 0.36 -5.78 31.15 -12.14 68.51 l-11.71 68 3.11 3.40 c6 6.43 9.90 15.90 9.90 24.14 0 2.53 0.07 4.55 0.22 4.55 0.07 0 1.66 -0.43 3.47 -1.01 6.87 -2.10 19.73 -2.10 27.32 0 1.66 0.51 1.66 0.36 -0.94 -4.48 -3.69 -7.01 -9.11 -14.09 -16.12 -21.10 -5.93 -5.93 -6 -6.07 -6 -9.54 l0 -3.61 4.63 0 c11.92 0 35.77 12.07 49.50 25 3.25 3.04 5.85 5.28 5.85 5.06 0 -0.22 -1.45 -5.13 -3.25 -10.98 -6 -19.22 -15.03 -38.30 -26.45 -56.01 -4.05 -6.14 -4.99 -8.17 -4.99 -10.48 0 -3.40 1.01 -4.63 3.69 -4.63 5.49 0 23.05 7.52 33.89 14.60 11.85 7.66 23.41 18.21 31.58 28.83 4.48 5.78 12.29 18.50 14.02 22.84 1.52 3.69 2.82 4.99 2.82 2.75 0 -0.65 1.30 -5.06 2.96 -9.97 3.25 -9.90 9.11 -22.40 13.66 -29.27 l3.04 -4.55 3.76 0.22 3.69 0.22 -0.14 4.70 c-0.58 21.03 -0.43 28.76 0.72 33.96 1.73 7.66 4.26 15.90 4.84 15.90 0.22 0 2.24 -2.10 4.34 -4.70 7.44 -8.96 20.52 -19.22 31.72 -24.86 2.53 -1.30 8.53 -3.69 13.37 -5.28 7.30 -2.46 9.76 -2.96 14.89 -3.04 l6.14 -0.07 0.22 3.11 c0.22 3.11 0.07 3.32 -6.29 9.90 -7.73 7.95 -12.86 15.61 -15.90 23.49 -2.31 6 -4.63 17.42 -4.26 20.96 l0.22 2.10 7.23 -4.70 c14.60 -9.47 38.01 -19.95 47.04 -20.96 4.84 -0.58 6.07 0.29 6.07 4.34 0 2.53 -0.43 3.47 -2.60 5.56 -9.32 8.96 -16.84 23.20 -19.37 36.78 -1.45 7.66 -1.45 12.43 0.07 19.37 0.65 3.04 1.23 7.23 1.30 9.18 l0 3.61 -85.78 0.22 c-67.93 0.14 -85.85 0.36 -85.85 1.08 0 0.43 -0.79 2.60 -1.81 4.70 l-1.73 3.76 -137.23 0 -137.23 0 -4.48 -4.70z m273.31 -6.65 c3.76 -10.84 2.38 -22.04 -4.12 -33.82 -3.54 -6.21 -7.95 -10.91 -13.95 -14.89 -13.01 -8.46 -25.51 -9.03 -36.49 -1.66 -2.96 2.02 -4.26 2.46 -6.65 2.31 l-2.96 -0.22 -0.22 -3.25 c-0.14 -1.81 0.07 -5.13 0.43 -7.30 1.81 -11.63 -6.14 -25.51 -18.28 -31.87 -9.18 -4.77 -17.99 -6.07 -26.74 -3.83 -6.07 1.52 -16.62 6.87 -22.11 11.13 -3.83 3.04 -5.13 3.69 -7.59 3.69 l-2.96 0 -2.75 -5.56 c-5.64 -11.42 -17.20 -20.31 -30.06 -23.05 -5.06 -1.16 -5.85 -1.16 -10.98 0 -15.90 3.54 -27.32 14.53 -31.29 30.21 -0.94 3.54 -1.08 6.36 -0.65 13.73 l0.51 9.25 -7.66 0 c-9.90 0 -16.40 1.45 -25 5.56 -5.71 2.75 -7.88 4.26 -12.86 9.25 -13.59 13.59 -14.74 27.89 -3.25 40.18 l3.32 3.54 130.51 0 130.58 0 1.23 -3.40z m-281.98 -16.12 c-0.29 -13.08 1.30 -17.92 9.68 -29.34 1.08 -1.52 1.01 -1.81 -1.01 -5.06 -5.20 -8.60 -11.56 -27.68 -14.16 -42.49 -0.58 -3.54 -1.23 -6.58 -1.30 -6.72 -0.51 -0.51 -4.12 12.72 -5.20 18.93 -1.37 8.24 -1.37 15.18 0.07 24.71 0.58 4.12 1.01 9.25 0.87 11.27 l-0.22 3.76 -3.40 0.22 -3.32 0.22 -4.34 -5.64 c-12.21 -15.83 -31.22 -29.77 -51.09 -37.29 -10.91 -4.19 -10.91 -4.19 -1.81 5.13 9.76 9.90 16.33 18.93 22.33 30.50 5.71 11.06 8.17 18.21 7.88 22.84 l-0.22 3.54 -3.47 0.22 c-3.04 0.22 -4.19 -0.22 -9.03 -2.96 -6.94 -4.05 -13.66 -6.94 -22.55 -9.76 -7.08 -2.24 -19.01 -4.77 -20.38 -4.34 -0.36 0.14 1.01 1.66 3.18 3.32 7.73 5.93 17.42 17.27 21.25 24.93 l1.73 3.40 37.43 0 37.36 0 -0.29 -9.39z m451.73 -0.65 c-0.51 -16.19 2.10 -28.54 8.60 -40.32 l2.82 -5.28 -4.12 1.81 c-6.43 2.82 -17.71 9.39 -27.68 16.04 -7.73 5.13 -9.47 6 -12.07 6 -4.63 0 -4.91 -1.01 -4.84 -15.54 0.07 -10.77 0.29 -13.15 1.88 -19.22 2.02 -7.37 5.71 -15.46 9.68 -21.03 2.31 -3.25 2.31 -3.40 0.72 -2.75 -13.88 5.28 -32.74 20.38 -41.99 33.60 -4.26 6.07 -4.34 6.14 -7.73 6.14 -2.53 0 -2.82 -0.29 -4.48 -3.40 -4.12 -8.24 -7.95 -23.49 -8.96 -35.63 l-0.51 -6.87 -3.18 7.95 c-3.40 8.60 -6.65 20.45 -8.02 29.63 -0.51 3.18 -1.23 6.21 -1.66 6.72 -0.36 0.43 -1.88 0.87 -3.40 0.87 -1.52 0 -3.04 -0.43 -3.47 -0.87 -0.36 -0.51 -1.88 -4.48 -3.40 -8.89 -9.61 -28.83 -29.77 -52.83 -56.80 -67.79 -2.60 -1.52 -4.99 -2.67 -5.28 -2.67 -0.22 0 0.36 1.23 1.30 2.75 5.35 8.46 14.53 28.83 19.37 42.78 5.13 15.03 10.04 38.52 8.96 42.93 -0.43 1.66 -0.79 1.88 -3.90 1.88 l-3.40 0 -6.29 -7.80 c-7.01 -8.82 -15.68 -16.98 -23.70 -22.33 -4.84 -3.25 -10.98 -6.72 -11.85 -6.72 -0.14 0 1.16 2.17 2.89 4.77 3.90 5.78 8.67 15.61 9.90 20.31 0.72 2.82 1.95 4.55 6.72 9.32 4.77 4.77 6.43 7.01 9.11 12.65 4.26 8.67 5.64 14.38 5.64 23.63 l0 7.37 79.71 0 79.71 0 -0.29 -10.04z m-414.08 -45.24 c2.53 -0.58 5.56 -1.08 6.87 -1.08 2.10 0 2.31 -0.22 3.11 -3.76 0.51 -2.10 1.81 -6.36 2.96 -9.39 1.08 -3.11 1.73 -5.64 1.37 -5.64 -0.29 0 -3.61 2.02 -7.30 4.41 -6.50 4.26 -19.66 16.48 -21.46 19.95 -0.79 1.45 -0.43 1.37 4.48 -0.94 2.96 -1.30 7.44 -2.96 9.97 -3.54z m-58.39 -24.14 c0.36 -0.58 -4.48 -0.79 -17.05 -0.79 l-17.56 0.07 2.82 1.59 c7.23 4.12 18.07 11.78 23.92 16.98 l6.50 5.71 0.43 -11.42 c0.29 -6.21 0.72 -11.71 0.94 -12.14z m41.26 15.54 c9.18 -10.62 25.15 -21.03 37.58 -24.71 3.04 -0.87 4.26 -1.66 5.42 -3.54 2.10 -3.32 9.47 -10.12 13.95 -12.65 2.10 -1.23 6.29 -2.96 9.39 -3.97 4.77 -1.52 7.01 -1.81 14.74 -1.81 6.94 0 8.96 -0.22 8.74 -0.87 -0.22 -0.51 -1.73 -6.07 -3.47 -12.36 -2.89 -10.62 -3.25 -11.42 -4.63 -10.98 -13.08 3.83 -26.45 4.99 -38.16 3.32 -16.69 -2.46 -33.10 -11.35 -43.36 -23.49 -3.97 -4.77 -4.26 -5.35 -4.05 -8.38 l0.22 -3.25 7.59 -3.83 c10.91 -5.42 19.37 -7.44 32.59 -7.88 14.16 -0.51 21.97 1.16 35.77 7.44 0.58 0.22 0.36 -1.23 -0.43 -4.19 -1.01 -3.54 -10.26 -35.19 -11.06 -37.58 -0.07 -0.29 -2.17 1.95 -4.70 5.06 -2.46 3.04 -6.72 7.95 -9.39 10.84 -4.77 4.99 -5.13 5.20 -8.24 5.20 -3.25 0 -3.47 -0.14 -9.76 -6.72 -5.42 -5.71 -9.83 -11.13 -16.33 -20.31 -0.94 -1.30 -1.16 -1.23 -5.56 1.73 -2.46 1.66 -9.18 5.35 -14.81 8.02 -8.67 4.19 -10.84 4.99 -14.02 4.99 l-3.76 0 -2.46 -5.20 c-3.11 -6.94 -6.58 -17.85 -8.17 -25.94 -1.23 -6.36 -1.30 -6.50 -3.04 -6.14 -7.30 1.52 -19.80 2.60 -28.62 2.46 l-10.04 -0.22 0 -13.15 0 -13.15 -2.75 2.67 c-4.48 4.34 -14.24 16.40 -18.79 23.13 -5.20 7.88 -11.85 20.81 -15.25 29.77 -1.45 3.76 -2.60 7.23 -2.60 7.66 0 0.43 2.24 3.11 4.99 5.93 7.88 7.95 13.01 20.16 13.08 30.71 l0 3.40 3.83 0 c4.41 0 10.91 1.59 14.89 3.54 8.31 4.26 15.68 14.89 16.48 23.70 l0.36 4.26 4.84 -1.01 c6.07 -1.23 20.38 -0.79 26.45 0.87 13.51 3.76 25.37 13.51 31.44 25.94 3.40 6.94 4.48 11.63 4.19 18.64 l-0.22 5.35 -8.82 0.22 c-6.43 0.14 -8.89 0.43 -8.89 1.08 0 1.52 2.02 7.73 5.20 15.90 l2.96 7.73 1.52 -2.02 c0.87 -1.16 3.18 -3.90 5.13 -6.21z m144.03 -31.29 c4.05 -1.30 7.95 -1.88 14.09 -2.17 5.13 -0.29 8.46 -0.72 8.46 -1.16 0 -0.43 3.11 -18.86 6.87 -40.90 3.83 -22.11 7.01 -40.61 7.08 -41.12 0.07 -0.65 -1.59 -1.45 -4.91 -2.31 -25 -6.43 -45.74 -22.76 -57.16 -45.02 l-3.76 -7.30 -0.79 3.18 c-1.37 5.42 -4.41 15.18 -6.72 21.54 l-2.17 5.93 -3.47 0 c-1.88 0 -4.63 -0.51 -6.14 -1.16 -2.60 -1.08 -2.67 -1.01 -2.38 0.22 0.22 0.72 3.54 12.07 7.30 25.15 3.83 13.15 7.30 25.22 7.73 26.96 l0.79 3.18 2.17 -3.32 c10.12 -15.25 30.50 -25.73 50.15 -25.73 l6.14 0 0 5.71 c0 27.10 -17.99 51.81 -43.50 59.76 -2.31 0.72 -4.19 1.59 -4.19 1.95 0 0.65 5.49 22.11 6.14 24.21 0.22 0.58 2.24 -0.14 6.58 -2.46 3.40 -1.88 8.67 -4.19 11.71 -5.13z m-150.17 5.56 c0 -0.36 -0.79 -2.75 -1.66 -5.35 -1.73 -4.70 -6.72 -12.36 -10.19 -15.61 l-1.95 -1.73 0.43 4.26 c0.79 8.31 1.88 16.62 2.24 17.92 0.29 1.01 1.30 1.23 5.78 1.23 2.96 0 5.35 -0.29 5.35 -0.72z m191.50 -3.61 c0 -0.72 2.60 -16.19 8.31 -49.14 1.73 -10.12 6.43 -37.43 10.48 -60.70 12 -69.52 20.23 -117.29 20.67 -119.38 0.22 -1.16 0.29 -2.02 0.14 -2.02 -0.14 0 -2.67 1.30 -5.64 2.82 l-5.35 2.82 -5.20 29.92 c-2.89 16.40 -5.85 33.75 -6.72 38.52 -6.43 36.49 -18.72 107.39 -22.11 127.19 -1.81 10.77 -3.61 21.17 -3.97 23.13 -0.29 2.02 -0.36 3.69 -0.14 3.83 0.29 0.07 2.31 0.94 4.48 1.88 4.70 2.02 5.06 2.10 5.06 1.16z m-73.28 -9.03 c-0.22 -0.58 -1.88 -6.72 -3.61 -13.66 -2.96 -11.42 -8.38 -30.64 -22.40 -79.56 -2.67 -9.11 -5.06 -16.69 -5.35 -16.84 -0.29 -0.07 -2.96 -1.59 -5.93 -3.32 -2.96 -1.73 -5.49 -3.11 -5.56 -3.04 -0.14 0.07 1.16 4.55 2.75 9.90 3.76 12.43 18.79 64.97 24.43 85.49 2.46 8.74 4.48 15.90 4.55 15.97 0.14 0 1.52 0.65 3.18 1.37 1.59 0.65 3.90 2.02 5.06 2.96 2.38 2.02 3.54 2.31 2.89 0.72z m10.77 -20.96 c17.56 -6.58 31.94 -24.57 35.70 -44.59 l0.58 -3.25 -3.32 0.65 c-16.12 2.96 -29.92 11.78 -37.87 24.21 -4.05 6.21 -5.78 9.61 -5.28 10.19 0.22 0.22 5.56 -4.63 11.78 -10.77 6.29 -6.14 14.16 -13.22 17.49 -15.68 5.49 -4.05 6.43 -4.48 9.61 -4.48 l3.47 0 0 3.47 0 3.40 -5.56 4.05 c-6.87 4.99 -15.54 12.94 -25.65 23.63 -5.78 6.14 -7.59 8.46 -7.30 9.54 0.51 1.81 0.65 1.81 6.36 -0.36z m-59.19 -16.33 c5.93 -1.01 16.04 -4.12 16.62 -5.06 0.72 -1.23 -0.58 -1.73 -10.48 -4.19 -12.86 -3.18 -29.20 -5.78 -42.49 -6.79 l-11.42 -0.87 0 -3.61 0 -3.61 10.12 0.14 c5.56 0.14 14.02 0.72 18.79 1.30 8.09 1.08 27.97 4.77 31.15 5.85 2.67 0.87 -6.29 -4.84 -11.92 -7.66 -16.77 -8.38 -33.10 -8.38 -51.89 0.07 l-4.77 2.17 3.18 3.25 c13.80 14.16 35.92 22.11 53.12 19.01z m119.17 -53.91 c0.29 -1.52 0.58 -3.04 0.65 -3.47 0.43 -1.52 -16.04 -19.37 -30.50 -32.95 l-8.89 -8.38 -10.26 -0.79 c-5.56 -0.43 -10.26 -0.72 -10.41 -0.65 -0.43 0.43 5.13 10.41 8.53 15.39 6.94 9.97 20.31 21.32 32.23 27.32 3.83 1.88 15.75 6.14 17.34 6.21 0.51 0 1.08 -1.23 1.30 -2.67z m-354.90 -16.84 c4.34 -15.61 8.24 -25.80 15.61 -40.40 11.56 -23.20 25.73 -41.19 49.50 -63.02 3.61 -3.25 11.27 -14.09 10.41 -14.60 -4.26 -2.46 -14.31 -9.83 -19.01 -13.95 l-6.14 -5.35 -8.60 7.23 c-27.39 22.91 -50.73 54.27 -64.82 87.01 -4.77 11.06 -9.18 23.49 -8.74 24.64 0.14 0.43 1.59 1.23 3.11 1.66 8.02 2.38 18.50 12.21 22.62 21.25 1.37 3.04 2.75 5.28 3.04 4.99 0.29 -0.29 1.66 -4.55 3.04 -9.47z m215.71 1.95 c13.73 -15.18 22.47 -31.58 22.47 -42.20 0 -3.61 -2.10 -11.27 -3.47 -12.65 -0.36 -0.36 -2.24 -0.29 -4.26 0.14 -2.02 0.43 -6.36 1.01 -9.68 1.30 l-6.07 0.51 -0.36 20.96 -0.36 20.96 -3.18 0.22 c-2.02 0.14 -3.40 -0.07 -3.76 -0.72 -0.36 -0.51 -0.65 -10.04 -0.65 -21.25 l0 -20.31 -6.29 -0.43 c-3.54 -0.22 -7.95 -0.79 -9.90 -1.30 -3.97 -1.01 -3.90 -1.08 -6.21 4.99 -1.88 4.91 -1.81 9.61 0.07 15.75 3.47 11.27 11.63 24.14 22.26 35.19 2.24 2.24 4.19 4.05 4.48 3.97 0.29 -0.14 2.46 -2.46 4.91 -5.13z m-168.74 -1.73 c0.72 -2.31 2.82 -7.73 4.77 -12.14 8.53 -19.44 17.49 -32.45 32.59 -47.48 l9.18 -9.11 -5.49 -1.23 c-6.72 -1.45 -20.02 -5.71 -25.22 -7.95 -3.04 -1.37 -3.76 -2.02 -3.97 -3.69 -0.22 -1.95 -0.65 -1.59 -6.72 5.49 -9.47 11.06 -11.20 13.30 -17.20 22.40 -9.90 15.25 -17.92 31.94 -23.20 48.20 -1.45 4.48 -2.60 8.31 -2.60 8.46 0 0.14 1.88 -0.22 4.19 -0.87 6.21 -1.73 21.54 -1.52 27.24 0.43 2.38 0.79 4.55 1.45 4.77 1.52 0.22 0.07 0.94 -1.81 1.66 -4.05z m311.83 -5.85 c0.14 -4.48 -7.73 -17.78 -15.46 -26.02 -3.97 -4.34 -9.54 -8.96 -14.38 -12.07 l-2.02 -1.37 0.51 7.23 0.51 7.15 12.50 12.65 c6.87 6.94 13.59 13.95 14.89 15.46 2.38 2.75 2.46 2.82 2.89 1.08 0.29 -0.94 0.51 -2.82 0.58 -4.12z m-192.88 -4.63 c7.30 -3.97 13.08 -8.02 12.65 -8.89 -1.73 -4.19 -4.05 -13.44 -4.48 -18.07 l-0.58 -5.78 -4.99 12.14 -4.99 12.14 -3.32 -0.22 -3.32 -0.22 -0.22 -3.25 c-0.14 -2.60 0.58 -5.13 3.54 -12.29 2.02 -4.99 3.97 -9.83 4.34 -10.77 0.51 -1.30 -0.14 -0.94 -3.04 1.66 -3.90 3.54 -10.62 7.59 -15.39 9.18 -2.67 0.94 -2.75 1.08 -2.38 3.90 0.58 3.97 3.69 14.45 6.36 21.32 l2.17 5.71 4.12 -1.81 c2.24 -1.01 6.58 -3.11 9.54 -4.77z m108.25 -4.55 c3.18 -9.47 5.35 -18.28 4.63 -18.72 -0.29 -0.14 -1.81 -0.65 -3.40 -1.16 -3.97 -1.30 -7.95 -3.32 -12.79 -6.58 l-4.05 -2.75 3.90 9.03 c3.18 7.15 3.90 9.68 3.76 12.07 l-0.22 3.04 -3.54 0 -3.54 0 -6.21 -14.53 -6.21 -14.53 -0.07 8.74 c-0.07 8.17 -1.08 13.73 -3.47 19.22 -0.65 1.45 6.36 6.07 18.28 12 6.43 3.25 9.25 4.34 9.54 3.69 0.29 -0.51 1.81 -4.77 3.40 -9.54z m162.89 0 c11.56 -2.38 22.84 -7.23 33.46 -14.31 6.07 -4.05 17.34 -13.80 17.34 -15.10 0 -1.45 -10.55 -8.02 -16.84 -10.55 -7.59 -2.96 -17.78 -4.77 -23.99 -4.12 -11.13 1.08 -23.05 5.06 -33.96 11.20 -6.87 3.90 -13.95 8.67 -13.51 9.18 0.22 0.14 4.41 -0.51 9.25 -1.52 23.78 -4.77 55.64 -7.59 64.89 -5.78 2.10 0.43 2.24 0.65 2.24 3.90 l0 3.40 -13.15 0.43 c-20.09 0.72 -34.47 2.67 -59.47 8.17 -10.19 2.24 -12.57 3.11 -12.65 4.70 0 0.72 10.41 6.29 14.81 7.80 10.41 3.69 21.82 4.63 31.58 2.60z m-74.58 -10.41 c0 -0.72 1.30 -8.60 2.82 -17.49 1.59 -8.89 4.55 -25.80 6.58 -37.51 2.02 -11.71 3.83 -22.19 4.05 -23.20 0.29 -1.52 0.07 -2.02 -1.08 -2.31 -1.66 -0.43 -5.28 -7.80 -8.82 -17.85 -1.16 -3.40 -2.31 -6.58 -2.46 -7.08 -0.29 -0.72 -1.73 0.14 -4.91 2.60 -2.46 1.95 -6.50 4.91 -8.96 6.58 l-4.48 3.04 3.32 5.20 c1.88 2.89 5.49 9.61 8.09 14.96 3.69 7.66 4.77 10.70 4.99 13.88 l0.29 4.19 -3.47 1.52 c-6.14 2.60 -20.16 7.01 -26.38 8.24 -3.32 0.72 -6.43 1.37 -6.94 1.45 -0.58 0.22 -0.65 1.08 -0.22 3.04 0.29 1.52 0.79 4.26 1.08 6.14 0.43 3.25 0.65 3.54 4.55 5.64 9.76 5.20 21.97 16.33 27.61 25.15 3.40 5.28 4.34 6.14 4.34 3.83z m-238.62 -13.15 c19.22 -3.25 31.22 -9.90 37.14 -20.74 l2.02 -3.54 -4.26 -2.67 c-2.38 -1.45 -6.07 -4.05 -8.24 -5.78 l-3.90 -3.18 -13.30 13.30 -13.30 13.37 -3.25 -0.22 -3.25 -0.22 -0.22 -3.25 -0.22 -3.25 13.37 -13.30 13.30 -13.30 -3.54 -4.34 c-1.95 -2.46 -4.55 -6.07 -5.85 -8.17 l-2.24 -3.83 -3.61 1.81 c-4.77 2.46 -9.39 6.87 -12.43 11.78 -4.91 8.24 -9.11 24.64 -10.19 40.54 l-0.51 7.44 7.15 -0.58 c3.90 -0.22 10.84 -1.08 15.32 -1.88z m195.26 -1.16 c0 -4.63 -1.37 -16.19 -2.60 -22.26 -3.47 -17.13 -9.76 -28.11 -19.29 -33.60 -2.10 -1.16 -3.97 -2.17 -4.19 -2.17 -0.22 0 -2.24 2.67 -4.48 6 -2.31 3.25 -4.84 6.79 -5.71 7.95 l-1.59 1.95 13.51 13.59 c12.36 12.43 13.51 13.80 13.51 16.12 0 3.25 -1.08 4.26 -4.63 4.26 -2.89 0 -3.32 -0.36 -16.04 -13.51 l-13.08 -13.51 -5.93 4.48 c-3.32 2.46 -6.94 4.99 -8.09 5.56 -2.60 1.37 -2.60 2.46 -0.22 6.50 4.48 7.66 15.39 14.67 27.53 17.71 8.24 2.02 18.50 3.47 25.37 3.54 l5.93 0.07 0 -2.67z m234.29 -8.67 c0.43 -7.88 2.10 -13.51 5.49 -18.57 l2.17 -3.18 -2.82 -7.44 c-5.42 -14.67 -13.95 -29.99 -23.99 -43.29 -6.21 -8.24 -21.25 -23.63 -22.11 -22.69 -0.29 0.36 -1.16 3.76 -1.81 7.52 -0.72 3.76 -2.31 10.04 -3.61 13.95 l-2.31 7.08 4.26 4.84 c9.83 11.27 19.22 27.97 24.28 43.21 2.46 7.30 3.47 11.56 5.56 22.55 0.29 1.45 0.79 1.59 4.48 1.66 2.24 0.07 5.13 0.36 6.29 0.65 1.23 0.29 2.53 0.58 2.96 0.65 0.51 0.07 0.94 -2.38 1.16 -6.94z m-330.69 -12.14 c37.14 -6.50 65.69 -35.19 72.19 -72.41 3.32 -19.15 -1.81 -41.19 -13.88 -59.40 -17.56 -26.45 -51.09 -42.35 -80.43 -38.01 -40.40 5.85 -71.18 37.72 -75.88 78.41 -1.95 16.26 3.90 37.51 14.74 53.84 17.92 26.96 53.04 42.78 83.25 37.58z m-120.83 -24.57 c1.23 -2.75 3.25 -6.36 4.41 -7.95 1.23 -1.59 2.46 -3.25 2.75 -3.76 0.29 -0.43 -3.61 0.94 -8.67 3.11 -9.68 4.12 -14.81 5.06 -15.68 2.75 -0.79 -1.95 -0.43 -5.13 0.58 -6 0.51 -0.43 7.15 -3.40 14.60 -6.58 l13.66 -5.78 -8.53 0 c-7.15 0 -9.39 -0.29 -13.95 -1.81 -2.96 -1.01 -5.71 -1.81 -6.07 -1.81 -1.66 0 -15.61 25.29 -14.96 27.03 0.43 1.08 14.81 5.93 22.55 7.59 5.71 1.23 5.78 1.23 6.43 -0.29 0.36 -0.79 1.66 -3.69 2.89 -6.50z m476.66 4.70 c2.17 -0.43 7.30 -0.72 11.42 -0.58 4.05 0.07 7.37 0 7.37 -0.36 0 -2.02 -7.73 -20.88 -12.36 -30.13 -7.80 -15.54 -15.83 -27.68 -27.17 -41.05 l-4.55 -5.35 0 4.77 0 4.70 -2.60 0.51 c-1.45 0.29 -8.09 0.29 -14.81 0.14 l-12.21 -0.36 7.08 7.30 c15.90 16.48 28.26 36.06 36.28 57.67 l2.31 6.29 2.67 -1.30 c1.45 -0.72 4.41 -1.73 6.58 -2.24z m-236.89 -2.67 l9.83 -3.32 -3.04 -6.58 c-3.11 -6.58 -10.70 -19.51 -12 -20.31 -0.36 -0.22 -3.04 0.43 -5.93 1.52 -3.97 1.45 -7.23 2.02 -13.15 2.38 l-7.95 0.43 13.37 5.49 13.30 5.49 0 3.54 0 3.54 -3.04 0.22 c-2.38 0.14 -5.20 -0.72 -13.15 -4.05 l-10.12 -4.26 2.75 3.32 c4.19 5.13 5.93 8.31 8.96 16.84 0.36 1.08 0.79 1.08 5.35 0.07 2.67 -0.58 9.32 -2.53 14.81 -4.34z m265.72 -10.77 c2.53 -5.78 8.02 -13.30 13.08 -17.71 2.38 -2.17 4.34 -4.26 4.34 -4.70 0 -2.31 -13.73 -27.97 -20.09 -37.51 -9.18 -13.73 -14.89 -20.81 -26.02 -32.30 l-8.89 -9.11 -4.99 1.66 c-2.75 0.94 -7.44 2.24 -10.41 2.89 -3.04 0.65 -5.49 1.45 -5.49 1.73 0 0.22 0.65 3.69 1.37 7.59 l1.37 7.15 5.78 5.85 c18.43 18.93 32.45 40.25 42.42 64.68 1.73 4.19 3.54 9.03 4.05 10.77 0.51 1.66 1.08 3.04 1.30 3.04 0.22 0 1.23 -1.81 2.17 -4.05z m-162.09 -19.66 c4.55 -5.71 11.85 -16.55 11.85 -17.49 0 -0.29 -2.38 -2.96 -5.28 -5.85 -2.89 -2.96 -6.29 -7.15 -7.59 -9.32 -2.60 -4.55 -2.53 -4.91 -1.59 9.18 0.36 5.64 0.51 10.77 0.29 11.42 -0.29 0.72 -1.45 1.08 -3.90 1.08 l-3.47 0 -0.36 -3.76 c-0.29 -2.10 -0.87 -11.49 -1.37 -20.81 -0.87 -16.26 -0.94 -16.69 -1.45 -10.48 -0.94 10.48 -3.97 17.78 -10.33 24.86 l-2.75 2.96 1.95 2.89 c3.69 5.64 17.78 20.96 19.22 20.96 0.22 0 2.38 -2.53 4.77 -5.64z m-58.61 -6.58 c15.97 -8.53 29.20 -20.23 34.11 -30.13 2.24 -4.63 2.75 -6.58 2.96 -10.91 l0.29 -5.28 -2.96 0 c-1.66 0 -5.56 -0.51 -8.60 -1.23 -9.61 -2.02 -8.02 -3.76 -15.39 16.33 -3.54 9.68 -6.79 18.07 -7.23 18.57 -0.87 1.01 -4.05 1.37 -6 0.58 -2.38 -0.94 -1.30 -5.85 4.99 -23.20 3.40 -9.39 6.14 -17.13 6 -17.20 -0.14 -0.07 -2.60 -1.37 -5.56 -2.89 -2.96 -1.45 -6.65 -3.47 -8.09 -4.48 -1.52 -1.01 -3.25 -1.66 -3.83 -1.45 -1.88 0.72 -6.14 7.23 -7.66 11.78 -0.79 2.38 -1.66 6.50 -1.88 9.03 l-0.51 4.70 3.40 3.83 c3.83 4.34 4.34 7.44 1.81 10.98 -1.45 2.02 -1.45 2.24 -0.29 6.21 0.65 2.24 2.17 6.50 3.40 9.54 1.16 3.04 2.46 6.21 2.82 7.15 0.36 0.87 0.87 1.59 1.08 1.59 0.29 0 3.54 -1.59 7.15 -3.54z m-272.80 1.08 c2.89 -1.01 4.63 -2.02 4.48 -2.60 -0.65 -2.82 -2.31 -15.18 -2.31 -17.13 l0 -2.38 -20.74 -0.14 -20.81 -0.22 0 -3.61 0 -3.61 20.67 -0.22 20.74 -0.14 0.51 -6.14 c0.29 -3.40 0.87 -7.88 1.37 -10.04 l0.94 -3.97 -4.05 -1.73 c-5.85 -2.60 -8.67 -2.89 -14.31 -1.59 -10.04 2.31 -25.80 11.92 -38.81 23.70 l-4.26 3.83 5.20 4.63 c14.81 13.30 33.03 23.05 43.07 23.05 2.02 0 5.71 -0.72 8.31 -1.66z m206.17 0.65 c11.63 -3.04 26.23 -11.71 38.45 -22.98 l4.34 -3.97 -1.45 -1.59 c-2.75 -3.11 -14.45 -12.57 -20.31 -16.40 -7.23 -4.63 -13.51 -7.59 -20.16 -9.25 -5.93 -1.45 -9.76 -1.08 -15.39 1.45 -3.40 1.59 -3.90 2.02 -3.47 3.40 0.43 1.66 1.52 8.53 2.31 15.18 l0.36 3.47 20.74 0.14 20.74 0.22 0 3.61 0 3.61 -20.96 0.36 -20.96 0.36 -0.22 3.25 c-0.22 3.54 -1.45 12.43 -2.02 14.89 -0.36 1.30 0.14 1.81 2.89 2.82 7.01 2.67 9.47 2.89 15.10 1.45z m179 -10.33 c2.60 -8.46 4.99 -20.16 5.56 -27.68 0.51 -6.79 -0.65 -13.95 -3.32 -19.73 -2.24 -4.77 -6.79 -10.55 -8.38 -10.55 -0.58 0 -3.40 1.73 -6.29 3.83 -2.96 2.02 -6.50 4.34 -7.88 5.13 l-2.60 1.37 7.88 16.84 c8.53 18.43 9.54 22.26 6.07 23.13 -0.94 0.22 -2.60 0.29 -3.76 0.14 -1.88 -0.22 -2.53 -1.37 -10.19 -17.92 -4.55 -9.68 -8.31 -17.71 -8.38 -17.85 -0.14 -0.07 -2.60 0.58 -5.56 1.52 -2.96 0.94 -7.52 2.17 -10.04 2.67 l-4.55 0.87 0.43 3.69 c1.37 10.48 10.12 21.17 24.64 30.06 5.64 3.47 21.90 11.56 23.27 11.56 0.51 0 1.88 -3.18 3.11 -7.08z m45.24 -33.89 c-0.43 -6.07 -2.17 -15.83 -3.97 -22.40 l-0.87 -3.11 -7.37 0 c-6.65 0 -12.94 -1.01 -16.69 -2.53 -1.23 -0.51 2.89 3.47 13.51 13.15 3.83 3.54 4.12 3.97 4.12 7.08 l0 3.25 -3.61 0 c-3.61 0 -3.69 0 -12.43 -8.09 -6.29 -5.85 -8.38 -7.52 -7.52 -5.85 1.88 3.69 3.32 10.98 3.32 16.98 l0 5.49 4.91 0.79 c7.73 1.23 8.67 1.30 18.14 1.45 l8.96 0.07 -0.51 -6.29z m-182.98 -11.63 c0.22 -0.65 -1.37 0.65 -3.54 2.96 -2.17 2.31 -3.97 4.41 -3.97 4.70 0.07 0.29 1.23 1.37 2.75 2.38 l2.67 1.81 0.87 -5.28 c0.43 -2.96 1.01 -5.93 1.23 -6.58z m-5.71 -9.39 c-0.07 -0.14 -1.37 0.36 -2.75 1.01 -2.53 1.23 -7.73 7.80 -7.73 9.76 0 0.51 2.38 -1.66 5.35 -4.84 2.96 -3.11 5.28 -5.78 5.13 -5.93z m90.77 7.80 c26.52 -5.42 47.62 -21.10 61.14 -45.53 8.89 -16.04 12 -37 8.17 -54.56 -6.79 -31.15 -28.26 -55.50 -57.96 -65.76 -12.65 -4.41 -29.12 -5.56 -41.05 -2.96 -23.56 5.20 -42.93 18.28 -55.93 37.87 -17.63 26.52 -19.51 56.01 -5.42 84.12 4.34 8.53 8.02 13.80 14.67 20.74 20.74 21.46 49.94 31.44 76.38 26.09z m-356.56 -3.32 c4.12 -1.45 7.66 -2.02 13.15 -2.31 l7.44 -0.36 -12.14 -4.99 c-6.72 -2.82 -12.65 -5.42 -13.15 -5.85 -0.58 -0.43 -0.87 -1.88 -0.72 -3.69 0.22 -2.96 0.22 -2.96 3.47 -3.18 2.60 -0.14 5.20 0.58 12.72 3.61 l9.39 3.90 -3.76 -5.28 c-2.10 -2.89 -4.63 -7.52 -5.78 -10.33 -1.08 -2.75 -2.24 -5.06 -2.60 -5.06 -2.96 0 -26.81 7.23 -28.18 8.60 -0.79 0.65 6.07 14.53 10.41 21.10 2.10 3.18 3.83 5.71 3.97 5.71 0.07 0 2.75 -0.87 5.78 -1.88z m250.11 -4.41 c3.54 -5.64 10.98 -19.80 10.98 -21.10 0 -0.87 -4.19 -2.46 -14.60 -5.49 -11.56 -3.40 -15.03 -3.90 -15.03 -2.24 0 2.10 -4.63 11.42 -7.52 15.10 -1.52 1.95 -2.60 3.61 -2.46 3.76 0.14 0.14 4.26 -1.52 9.25 -3.69 6.87 -3.04 9.76 -3.90 11.92 -3.76 2.89 0.22 2.89 0.22 3.11 3.54 0.14 2.10 -0.14 3.54 -0.72 4.05 -0.94 0.65 -19.66 8.74 -24.43 10.48 -2.38 0.87 -1.95 0.94 6.50 1.37 6.36 0.36 10.19 0.94 13.01 1.95 2.17 0.79 4.48 1.52 5.20 1.52 0.72 0.07 2.53 -2.10 4.77 -5.49z m-207.76 -15.61 c2.17 -3.25 4.63 -6.58 5.49 -7.30 0.87 -0.79 1.52 -1.73 1.52 -2.17 0 -0.43 -6.07 -6.79 -13.44 -14.24 -13.15 -13.30 -13.37 -13.51 -13.15 -16.26 l0.22 -2.82 3.54 -0.22 3.61 -0.22 13.15 13.15 c9.39 9.39 13.44 12.94 14.09 12.50 0.58 -0.29 2.96 -2.10 5.35 -3.90 2.38 -1.88 5.56 -4.12 7.08 -4.99 1.45 -0.87 2.67 -1.81 2.67 -1.95 0 -0.22 -0.87 -2.02 -1.88 -4.05 -6.29 -12.36 -25.65 -20.74 -51.09 -22.04 l-8.46 -0.43 0.43 5.71 c0.58 8.46 2.89 21.46 4.99 28.69 2.38 8.24 5.20 13.73 9.47 18.50 3.18 3.47 9.68 8.02 11.63 8.02 0.43 0 2.60 -2.67 4.77 -6z m166.50 3.04 c6.72 -4.19 13.30 -15.32 16.55 -27.82 1.73 -6.94 3.90 -22.40 3.90 -27.89 l0 -2.75 -6.29 0.36 c-27.53 1.81 -46.90 10.04 -53.33 22.69 -1.01 2.10 -1.81 3.90 -1.66 3.97 3.40 2.02 9.68 6.36 12.36 8.60 l3.54 2.89 13.44 -13.44 c12.43 -12.43 13.73 -13.51 16.12 -13.51 3.18 0 4.26 1.08 4.26 4.26 0 2.38 -1.08 3.69 -13.51 16.12 l-13.44 13.51 2.24 2.53 c1.23 1.45 3.90 5.06 5.93 8.02 4.05 6 4.12 6 9.90 2.46z m242.31 -1.01 c9.83 -1.45 30.71 -8.02 33.46 -10.48 1.37 -1.23 -8.09 -17.63 -15.46 -26.74 -9.83 -12.14 -21.75 -19.29 -30.42 -18.21 -2.60 0.29 -2.67 0.43 -3.11 3.69 -0.22 1.81 -1.01 6.29 -1.81 9.83 -0.72 3.61 -1.23 6.58 -1.16 6.72 0.14 0.07 7.01 2.60 15.32 5.56 23.78 8.60 21.61 7.44 21.61 11.63 l0 3.54 -2.96 0.22 c-2.24 0.14 -6.72 -1.16 -18.79 -5.56 -8.67 -3.18 -16.40 -6 -17.05 -6.21 -1.01 -0.43 -1.59 0.29 -2.96 3.40 -0.94 2.10 -3.11 6.07 -4.77 8.82 -3.47 5.78 -3.47 5.71 3.25 9.83 4.19 2.53 11.85 4.91 15.83 4.99 1.23 0.07 5.28 -0.43 9.03 -1.01z m-201.19 -25.29 c2.17 -1.01 3.90 -1.88 3.90 -2.02 0 -0.14 -0.72 -2.53 -1.66 -5.28 -0.94 -2.75 -2.10 -7.01 -2.67 -9.47 l-0.94 -4.48 -3.32 0.43 c-1.81 0.22 -4.48 0.58 -5.85 0.87 l-2.53 0.51 -0.43 5.35 c-0.29 2.96 -0.87 7.37 -1.30 9.68 -0.43 2.38 -0.72 4.34 -0.58 4.41 0.36 0.36 7.52 1.66 9.39 1.73 1.16 0 3.83 -0.72 6 -1.73z m-145.90 -15.90 c3.90 -0.58 8.24 -1.16 9.61 -1.23 l2.53 -0.22 0.36 -20.60 0.36 -20.60 3.18 -0.22 c2.02 -0.14 3.40 0.07 3.76 0.72 0.36 0.51 0.65 9.97 0.65 21.03 l0 20.02 3.47 0 c1.88 0 6.14 0.51 9.54 1.08 3.40 0.58 6.36 1.08 6.58 1.08 0.87 0 3.61 -7.30 4.05 -10.70 1.16 -10.04 -8.67 -28.91 -23.70 -45.67 l-4.05 -4.48 -3.61 3.90 c-14.74 15.61 -24.28 32.81 -24.35 43.94 0 4.70 2.46 13.01 3.90 13.01 0.36 0 3.83 -0.51 7.73 -1.08z m-19.66 -12.14 c0.07 -8.31 0.29 -10.19 1.88 -14.81 l1.88 -5.28 -4.05 -2.60 c-4.63 -3.04 -22.62 -12.50 -23.70 -12.50 -0.87 0 -4.77 11.49 -7.08 20.96 -0.94 4.12 -1.73 7.52 -1.59 7.59 0.07 0.07 2.53 1.01 5.49 2.10 2.89 1.16 7.37 3.47 9.90 5.20 2.53 1.66 4.63 2.96 4.63 2.89 0 -0.07 -1.66 -3.83 -3.61 -8.38 -3.11 -6.94 -3.61 -8.82 -3.47 -11.92 0.22 -3.61 0.22 -3.61 2.82 -3.83 1.66 -0.14 3.04 0.22 3.69 0.87 0.65 0.58 3.83 7.44 7.15 15.18 3.32 7.80 6.07 14.16 6.07 14.16 0 0 0 -4.34 0 -9.61z m94.45 -2.67 c3.18 -1.59 6.21 -2.89 6.79 -2.89 0.51 0 1.08 -0.29 1.37 -0.72 0.65 -1.01 -1.45 -9.25 -5.13 -20.38 l-3.32 -9.90 -8.09 4.05 c-6.29 3.11 -16.69 9.25 -18.36 10.70 -0.14 0.14 0.65 2.82 1.73 5.93 1.52 4.34 2.10 7.37 2.31 13.08 l0.29 7.52 5.20 -12.57 5.13 -12.50 3.61 0 3.61 0 -0.07 3.61 c0 2.67 -1.08 6.07 -4.12 13.37 -2.24 5.35 -4.12 9.83 -4.12 9.97 0 0.14 1.66 -1.23 3.69 -3.04 2.02 -1.81 6.29 -4.63 9.47 -6.21z m308.29 -7.59 l7.52 -7.23 -5.13 -4.19 c-2.82 -2.31 -8.24 -6.29 -12.07 -8.82 l-6.87 -4.63 -5.28 5.20 c-3.25 3.32 -7.01 6.21 -9.97 7.73 -2.67 1.37 -4.77 2.60 -4.63 2.67 0.14 0.14 5.78 -0.14 12.65 -0.51 9.39 -0.58 12.79 -0.58 13.51 0.07 1.08 0.94 1.37 6.14 0.36 6.72 -0.29 0.22 -6.94 0.79 -14.60 1.23 -7.73 0.43 -14.81 1.08 -15.83 1.37 -1.73 0.58 -1.73 0.58 0.43 0.65 5.71 0.14 16.91 5.85 21.90 11.20 l1.73 1.81 4.34 -3.04 c2.38 -1.66 7.73 -6.29 11.92 -10.26z m-242.09 1.30 c-1.52 -0.14 -3.97 -0.14 -5.42 0 -1.52 0.14 -0.29 0.29 2.67 0.29 2.96 0 4.19 -0.14 2.75 -0.29z m-41.34 -1.30 c3.18 -0.58 9.61 -1.23 14.31 -1.52 l8.46 -0.51 -3.47 -1.95 c-1.88 -1.08 -4.99 -3.32 -6.79 -4.99 l-3.40 -2.96 -2.89 2.02 c-3.11 2.10 -13.15 10.26 -13.15 10.70 0 0.43 0.58 0.36 6.94 -0.79z m42.64 -7.30 c1.30 -0.36 1.59 -1.16 1.95 -4.99 0.22 -2.53 1.01 -6.87 1.66 -9.68 0.72 -2.82 1.08 -5.20 0.94 -5.35 -0.14 -0.14 -7.30 -2.75 -15.83 -5.85 -22.04 -8.02 -21.68 -7.88 -21.68 -10.48 0 -3.83 0.58 -4.41 4.41 -4.41 3.18 0 12.65 3.04 31.87 10.41 l4.77 1.81 0.79 -2.31 c0.51 -1.30 2.53 -5.20 4.55 -8.82 l3.69 -6.43 -3.40 -3.11 c-5.35 -4.77 -10.04 -6.29 -19.95 -6.29 -6.79 -0.07 -9.76 0.36 -16.26 2.02 -7.44 1.88 -23.85 7.80 -25.22 9.11 -0.29 0.29 0.65 2.82 2.17 5.56 12.65 22.84 24.14 34.54 37.36 38.16 4.19 1.08 5.93 1.23 8.17 0.65z m195.77 -9.32 c12 -3.11 23.41 -15.46 33.17 -35.84 5.49 -11.35 5.49 -11.42 -0.29 -13.51 -7.73 -2.82 -17.13 -5.13 -24.64 -6.07 -13.44 -1.66 -25.80 1.66 -32.66 8.67 l-2.75 2.82 3.83 5.35 c2.10 2.96 4.48 6.58 5.28 8.09 0.79 1.45 1.66 2.67 1.95 2.67 0.29 0 7.66 -3.32 16.26 -7.37 13.01 -6.07 16.40 -7.30 19.37 -7.37 l3.61 -0.07 0.22 3.40 c0.29 4.19 1.66 3.25 -19.44 12.86 l-16.33 7.44 1.95 6.29 c1.08 3.47 2.24 7.66 2.53 9.47 0.29 1.73 0.65 3.40 0.87 3.76 0.43 0.79 2.31 0.65 7.08 -0.58z m-192.44 -60.92 l-8.96 -8.46 0.29 -3.25 0.22 -3.25 3.04 -0.22 c2.96 -0.22 3.25 0 11.20 7.37 4.48 4.19 8.24 7.52 8.31 7.37 0.14 -0.14 -0.22 -1.52 -0.79 -3.18 -1.16 -3.32 -2.60 -12.50 -2.60 -16.69 l0 -2.75 -4.12 -0.87 c-6.43 -1.23 -16.62 -2.24 -22.55 -2.24 l-5.35 0 0.51 6 c0.51 6.14 2.60 17.20 4.26 22.91 l0.94 3.25 9.68 0.43 c5.35 0.22 10.55 0.79 11.56 1.23 3.76 1.59 3.04 0.58 -5.64 -7.66z m40.69 -1.66 c3.61 -2.38 6.43 -4.70 6.29 -5.06 -0.07 -0.43 -3.40 -7.73 -7.37 -16.26 -6.14 -13.08 -7.23 -16.04 -7.23 -19.08 l0 -3.61 3.54 0 3.47 0 2.75 6 c3.11 6.79 13.59 28.91 13.88 29.34 0.14 0.14 3.04 -0.58 6.50 -1.66 3.54 -1.01 7.80 -2.17 9.61 -2.46 2.82 -0.51 3.25 -0.79 3.47 -2.53 0.36 -3.11 -1.73 -9.18 -4.77 -13.88 -3.61 -5.56 -9.25 -11.13 -16.04 -15.68 -6.50 -4.41 -25.65 -13.88 -26.96 -13.37 -1.01 0.36 -4.84 12.14 -6.72 20.74 -1.81 8.53 -2.17 22.62 -0.65 27.89 1.73 5.93 4.48 10.84 7.88 13.73 2.67 2.31 2.96 2.38 4.34 1.37 0.87 -0.65 4.48 -3.11 8.02 -5.49z m145.62 -1.30 l6.87 -0.43 0.94 -4.70 c0.51 -2.60 1.08 -9.90 1.37 -16.19 l0.43 -11.49 -6.07 0.51 c-6.87 0.58 -14.74 2.02 -21.39 3.76 l-4.55 1.23 0 8.02 c0 4.41 -0.43 9.83 -0.94 12.07 l-1.01 3.97 4.84 -5.06 c2.60 -2.82 6.21 -6.72 7.95 -8.60 2.96 -3.25 3.32 -3.47 6.43 -3.25 l3.32 0.22 0.22 3.04 c0.22 2.96 0 3.32 -6.36 10.26 -3.61 3.97 -6.87 7.44 -7.23 7.66 -0.43 0.22 -1.01 1.01 -1.37 1.73 -0.58 1.08 -0.07 1.01 4.48 -0.51 3.25 -1.08 7.80 -1.95 12.07 -2.24z m-35.34 -2.89 c7.23 -10.98 6.50 -25.44 -2.67 -50.30 -1.81 -4.99 -3.69 -9.03 -4.12 -9.03 -1.16 0 -10.98 5.49 -17.49 9.83 -15.39 10.12 -24.21 20.67 -26.52 31.44 -1.45 7.01 -1.16 7.30 8.24 8.89 4.48 0.72 8.96 1.45 9.97 1.66 1.73 0.29 2.02 -0.14 7.88 -16.19 8.09 -21.90 7.08 -20.02 10.84 -20.31 6.58 -0.51 6.36 0.58 -5.42 32.16 -1.37 3.69 -2.46 6.94 -2.46 7.37 0 0.36 2.67 1.95 6 3.61 3.25 1.59 7.08 3.76 8.46 4.70 2.31 1.59 2.60 1.66 3.83 0.58 0.65 -0.58 2.24 -2.60 3.47 -4.41z m-57.23 -28.33 c1.52 -4.05 7.37 -13.08 9.68 -15.03 1.08 -0.87 0.94 -1.37 -1.66 -5.06 -1.59 -2.24 -6.21 -7.59 -10.33 -12 -6.65 -7.08 -7.66 -7.80 -8.74 -6.94 -1.81 1.52 -10.84 13.66 -13.66 18.36 l-2.53 4.12 5.28 5.28 c2.82 2.82 6.21 7.01 7.52 9.18 l2.24 3.97 -0.14 -12.65 -0.22 -12.65 2.96 -0.22 c1.81 -0.14 3.25 0.14 3.69 0.72 0.43 0.51 1.08 7.44 1.59 15.39 0.51 7.95 1.08 16.91 1.37 19.87 l0.51 5.42 0.43 -6.87 c0.29 -4.19 1.08 -8.46 2.02 -10.91z"/>
  <path d="M255.96 680.81 c-3.54 -0.94 -7.88 -4.05 -10.04 -7.37 -1.52 -2.31 -1.95 -3.97 -2.17 -8.46 -0.29 -4.99 -0.14 -5.93 1.73 -9.54 1.30 -2.60 3.25 -4.91 5.64 -6.65 5.35 -4.05 9.54 -5.28 18.07 -5.28 8.46 0 11.56 1.16 15.10 5.64 2.02 2.60 2.24 3.32 2.46 9.11 0.36 7.73 -1.30 12.29 -5.93 16.55 -4.84 4.48 -9.18 6.21 -16.33 6.43 -3.40 0.07 -7.23 -0.14 -8.53 -0.43z m11.85 -9.39 c5.78 -2.60 10.41 -7.95 10.41 -11.92 0 -2.38 -3.11 -5.93 -6.21 -6.94 -3.32 -1.08 -7.15 -0.36 -11.71 2.24 -3.90 2.24 -8.09 7.08 -8.09 9.39 0 1.81 4.19 6.43 6.87 7.59 2.96 1.30 5.28 1.23 8.74 -0.36z"/>
  <path d="M376 677.56 c-1.73 -1.52 -2.02 -2.31 -2.24 -6.72 -0.22 -3.04 0.07 -5.71 0.58 -6.65 1.52 -2.89 4.99 -4.41 9.97 -4.41 7.66 0 10.26 2.38 10.26 9.47 0 7.44 -2.89 10.04 -10.98 10.04 -4.84 0 -5.85 -0.22 -7.59 -1.73z m8.53 -7.88 c-0.07 -0.87 -1.08 -0.65 -1.37 0.29 -0.22 0.43 0.07 0.72 0.58 0.58 0.43 -0.22 0.79 -0.58 0.79 -0.87z"/>
  <path d="M439.16 675.39 c-5.64 -2.10 -7.73 -5.42 -7.73 -12.43 0 -8.74 4.41 -12.57 14.89 -13.15 7.66 -0.43 12.79 1.01 16.19 4.55 2.38 2.46 2.53 2.96 2.75 8.17 0.22 4.84 0.07 5.85 -1.45 8.02 -2.89 4.34 -5.71 5.42 -14.31 5.71 -5.20 0.07 -8.46 -0.14 -10.33 -0.87z m15.90 -9.97 c1.45 -1.52 1.66 -2.10 1.01 -3.25 -0.94 -1.81 -5.06 -3.83 -7.66 -3.83 -2.53 0 -6.72 2.02 -7.59 3.69 -2.67 4.99 9.68 7.95 14.24 3.40z"/>
  <path d="M306.70 661.95 c-0.87 -0.29 -2.24 -1.52 -3.18 -2.67 -1.37 -1.73 -1.52 -2.67 -1.30 -7.01 0.29 -4.70 0.43 -5.06 3.18 -7.66 2.17 -2.02 3.76 -2.82 6.36 -3.18 3.54 -0.58 8.53 0 10.70 1.08 3.97 2.10 4.77 12.50 1.30 16.26 -1.01 1.01 -2.67 2.31 -3.76 2.89 -2.17 1.08 -10.84 1.30 -13.30 0.29z m8.60 -8.96 c1.59 -1.23 1.59 -2.60 -0.07 -2.60 -1.88 0 -4.05 1.81 -3.47 2.75 0.65 1.08 1.95 1.08 3.54 -0.14z"/>
  <path d="M286.89 641.36 c-6.07 -2.75 -8.24 -6.58 -8.24 -14.45 0 -6.79 1.59 -10.48 5.85 -14.02 4.19 -3.40 8.53 -4.55 16.33 -4.26 12.14 0.43 17.13 4.70 17.13 14.60 0 8.24 -2.89 12.65 -11.13 16.84 -3.04 1.59 -4.84 1.95 -10.55 2.17 -5.13 0.22 -7.52 -0.07 -9.39 -0.87z m13.22 -8.74 c3.83 -1.95 6.94 -4.55 8.17 -6.94 1.08 -2.10 1.08 -2.31 -0.22 -4.12 -1.81 -2.46 -5.71 -4.41 -8.74 -4.41 -4.41 0 -10.04 3.90 -11.56 7.95 -0.87 2.38 -0.07 4.41 2.75 6.72 2.67 2.24 6.14 2.53 9.61 0.79z"/>
  <path d="M334.88 641.07 c-2.89 -1.81 -4.19 -5.42 -3.76 -10.98 0.36 -5.13 1.95 -7.59 6.43 -9.90 2.75 -1.45 4.05 -1.66 9.54 -1.45 6.21 0.22 6.50 0.29 8.53 2.60 1.81 2.02 2.10 2.89 2.10 6.72 0 6.36 -2.31 10.41 -7.37 13.01 -3.76 1.95 -12.36 1.88 -15.46 0z m11.42 -9.32 c1.52 -1.37 2.10 -2.46 1.81 -3.25 -0.72 -1.88 -3.83 -1.45 -6.43 0.87 -2.02 1.81 -2.17 2.24 -1.37 3.25 1.45 1.73 3.40 1.45 6 -0.87z"/>
  <path d="M241.29 366.03 c-5.20 -1.30 -11.06 -3.90 -14.96 -6.79 -2.96 -2.24 -3.11 -2.46 -2.89 -5.71 l0.22 -3.40 3.04 -0.22 c2.46 -0.22 3.69 0.22 6.72 2.31 4.34 2.96 9.83 5.13 16.04 6.29 9.76 1.81 21.97 -2.67 30.42 -11.06 4.05 -4.05 5.28 -4.91 7.23 -4.91 2.96 0 4.12 1.08 4.12 3.76 0 3.11 -1.66 5.71 -6 9.68 -8.31 7.66 -18.50 11.20 -31.87 11.06 -4.41 0 -9.83 -0.51 -12.07 -1.01z"/>
  <path d="M208.92 348.10 c-2.75 -1.37 -4.55 -4.48 -4.91 -8.24 -0.72 -7.30 3.25 -11.78 10.48 -11.78 2.10 0 4.84 0.51 6 1.16 6 3.04 5.64 16.26 -0.51 18.79 -2.96 1.23 -8.74 1.30 -11.06 0.07z"/>
  <path d="M287.76 335.60 c-5.28 -3.69 -4.91 -15.18 0.65 -17.99 2.67 -1.37 9.54 -1.37 12.21 0 3.25 1.66 4.55 4.84 4.19 10.33 -0.29 4.19 -0.58 4.91 -2.60 6.72 -2.10 1.88 -2.82 2.10 -7.59 2.10 -3.61 0 -5.78 -0.36 -6.87 -1.16z"/>
  <path d="M466.26 251.48 c-7.15 -1.88 -13.30 -5.35 -18.64 -10.26 -6.50 -6.07 -8.38 -9.11 -8.09 -12.94 l0.22 -3.18 3.32 -0.22 c3.25 -0.22 3.40 -0.14 6 3.40 5.78 7.88 14.53 13.37 24.71 15.68 7.01 1.52 12.86 0.65 20.60 -3.04 3.90 -1.88 6 -2.46 8.17 -2.31 l2.96 0.22 0 3.61 c0 3.40 -0.14 3.61 -2.89 5.20 -6.36 3.61 -11.06 4.70 -21.32 4.99 -8.09 0.22 -10.70 0.07 -15.03 -1.16z"/>
  <path d="M509.62 235.22 c-4.05 -1.73 -5.78 -8.89 -3.47 -14.38 1.59 -3.76 3.61 -4.77 9.61 -4.77 4.77 0 5.49 0.22 7.59 2.10 2.02 1.81 2.31 2.53 2.60 6.72 0.36 5.78 -1.01 8.89 -4.55 10.41 -3.18 1.30 -8.67 1.23 -11.78 -0.07z"/>
  <path d="M428.61 217.59 c-2.17 -2.02 -2.24 -2.31 -2.24 -7.80 0.07 -8.24 2.10 -10.33 10.26 -10.33 7.15 0 9.97 2.96 9.97 10.48 0 7.52 -2.31 9.68 -10.19 9.76 -5.13 0 -5.71 -0.14 -7.80 -2.10z"/>
  <path d="M700.90 265.50 c-6.94 -7.30 -19.29 -15.90 -29.20 -20.31 -9.76 -4.41 -23.56 -7.44 -33.96 -7.44 -4.41 0 -5.42 -0.87 -5.42 -4.41 0 -3.32 1.23 -4.63 6.87 -7.23 6.94 -3.25 12.07 -4.26 21.68 -4.26 13.37 0 22.76 3.18 31.44 10.55 l3.76 3.18 5.06 -4.70 c8.89 -8.24 18.64 -11.92 31.44 -11.92 l7.44 0 0 4.55 -0.07 4.48 -4.05 2.89 c-2.17 1.59 -5.85 4.84 -8.09 7.30 -7.15 7.59 -10.70 13.59 -16.69 28.33 -0.58 1.30 -1.23 1.59 -4.19 1.59 -3.04 0 -3.76 -0.29 -6 -2.60z m12.14 -25.73 c1.73 -2.60 3.83 -5.35 4.63 -6.07 2.53 -2.31 1.37 -2.53 -2.31 -0.51 -3.69 2.02 -9.54 7.30 -14.38 13.01 l-2.60 3.04 3.25 2.53 3.25 2.46 2.46 -4.77 c1.37 -2.67 3.90 -7.01 5.71 -9.68z m-30.50 -1.73 c-4.70 -3.69 -15.61 -7.59 -20.67 -7.44 -1.81 0 -0.87 0.51 3.69 1.73 3.40 0.94 8.74 2.82 11.92 4.19 6.65 2.89 7.01 3.04 5.06 1.52z"/>
  <path d="M84.84 196.13 c-0.29 -1.08 0.07 -4.41 0.79 -7.52 0.87 -3.76 1.16 -7.23 0.94 -10.33 -1.01 -12.50 -12.43 -24.28 -24.71 -25.58 -4.12 -0.43 -12.65 1.66 -16.04 3.83 -1.01 0.72 -2.89 1.01 -5.13 0.87 l-3.47 -0.22 -0.22 -3.25 c-0.22 -3.25 -0.14 -3.32 4.34 -6.87 8.46 -6.72 13.44 -16.62 12.65 -25.15 -0.51 -6 -4.55 -13.95 -9.03 -17.85 -4.19 -3.76 -7.37 -5.35 -13.66 -7.08 l-4.91 -1.37 -0.22 -3.69 -0.22 -3.76 5.28 0 c6.36 0 13.08 -1.52 18.36 -4.12 7.66 -3.76 14.96 -14.02 15.90 -22.33 0.58 -4.48 -1.59 -11.27 -5.56 -17.34 -4.34 -6.65 -3.83 -11.13 1.30 -11.13 1.88 0 3.47 0.87 6.94 3.76 7.88 6.58 16.77 9.47 23.92 7.73 12.57 -2.96 21.46 -12.86 23.56 -26.23 0.43 -2.75 0.94 -5.28 1.16 -5.64 0.22 -0.29 1.95 -0.58 3.97 -0.58 3.18 0 3.54 0.14 3.54 1.66 0.07 3.40 2.17 11.42 4.05 15.25 5.06 10.41 18.79 17.92 28.62 15.68 5.64 -1.23 10.55 -3.76 15.54 -7.88 3.47 -2.89 5.06 -3.76 6.94 -3.76 5.28 0 5.64 4.48 0.79 11.92 -5.85 9.03 -6.72 16.26 -2.82 24.43 3.61 7.66 10.91 14.16 18.93 16.69 2.02 0.65 6.87 1.45 10.84 1.73 l7.08 0.51 0 3.61 0 3.54 -4.99 1.37 c-6.72 1.73 -11.49 4.41 -15.32 8.67 -11.35 12.65 -10.04 26.52 3.83 40.04 5.78 5.64 6.07 6.07 5.85 8.67 -0.22 2.67 -0.29 2.75 -3.40 2.96 -2.46 0.22 -4.48 -0.36 -8.31 -2.17 -4.41 -2.02 -5.93 -2.31 -10.91 -2.38 -5.13 0 -6.36 0.29 -10.62 2.38 -5.71 2.82 -11.49 8.74 -14.24 14.60 -2.02 4.41 -2.31 9.54 -1.16 21.90 l0.58 6.36 -3.54 -0.22 -3.54 -0.22 -2.60 -4.84 c-5.20 -9.47 -11.20 -14.74 -19.66 -17.34 -4.55 -1.37 -5.64 -1.45 -9.11 -0.72 -9.54 2.02 -17.27 8.24 -22.19 17.71 l-2.82 5.56 -3.40 0 c-3.11 0 -3.47 -0.22 -3.90 -1.88z m13.80 -23.70 c6.14 -4.70 10.26 -5.85 21.68 -5.85 11.42 0 15.54 1.16 21.68 5.85 1.81 1.37 3.40 2.46 3.54 2.46 0.14 0 0.43 -1.73 0.65 -3.76 0.65 -5.49 4.41 -12.50 9.11 -17.27 6.36 -6.36 15.39 -10.04 24.50 -10.04 2.60 0 3.04 -0.14 2.38 -1.01 -1.73 -2.10 -3.76 -9.76 -4.19 -15.68 -0.79 -11.92 2.38 -21.97 9.25 -29.05 1.95 -2.02 3.54 -3.76 3.54 -3.83 0 -0.07 -0.94 -0.36 -2.02 -0.65 -2.38 -0.51 -8.89 -4.63 -11.92 -7.44 -3.04 -2.89 -6.58 -8.60 -8.46 -13.51 -1.30 -3.54 -1.59 -5.85 -1.66 -12.50 l0 -8.17 -2.24 0.58 c-1.23 0.29 -6.79 0.58 -12.36 0.58 -10.12 0 -10.12 -0.07 -15.61 -2.60 -6.21 -2.96 -10.62 -6.65 -13.95 -11.63 l-2.31 -3.40 -2.02 3.25 c-3.97 6.29 -10.98 11.20 -19.51 13.66 -3.25 0.94 -6.07 1.16 -13.01 0.87 -4.77 -0.14 -9.47 -0.58 -10.26 -0.87 -1.59 -0.51 -1.59 -0.36 -1.88 8.82 -0.29 8.89 -0.36 9.47 -2.89 14.67 -1.37 2.96 -3.76 6.79 -5.20 8.38 -2.96 3.47 -8.89 7.59 -12.86 9.03 -1.52 0.51 -2.75 1.16 -2.75 1.37 0 0.22 0.94 1.16 2.02 1.95 2.96 2.17 7.37 9.11 8.82 13.88 2.82 9.03 2.38 20.60 -1.01 29.05 l-1.73 4.26 3.11 0 c12.86 0 25.22 7.66 30.64 18.93 1.23 2.67 2.53 6.50 2.75 8.53 0.22 1.95 0.51 3.61 0.65 3.61 0.14 0 1.73 -1.08 3.54 -2.46z"/>
  <path d="M108.76 152.84 c-16.04 -3.54 -28.33 -14.16 -34.18 -29.85 -1.52 -4.12 -1.88 -6.36 -2.17 -14.96 -0.51 -17.13 2.89 -26.59 13.15 -36.86 6.43 -6.50 12.86 -10.19 21.39 -12.43 5.71 -1.45 19.44 -1.59 25.65 -0.29 12.72 2.67 24.86 12.21 30.57 23.92 7.73 15.75 6.87 36.06 -2.02 50.22 -6.21 9.76 -17.85 17.85 -29.27 20.23 -6.21 1.30 -17.27 1.30 -23.13 0z m22.76 -9.32 c13.88 -4.77 23.78 -15.54 27.53 -29.85 4.99 -19.08 -9.32 -41.41 -30.13 -46.83 -26.38 -6.87 -54.42 20.74 -47.62 46.90 3.83 14.74 15.83 26.74 30.71 30.79 6.65 1.81 12.36 1.52 19.51 -1.01z"/>
  <path d="M112.45 133.33 c-5.13 -1.81 -6.58 -3.40 -6.58 -6.94 l0 -3.18 3.40 -0.22 c2.31 -0.14 4.19 0.22 6.07 1.23 1.52 0.87 3.83 1.73 5.13 1.95 3.32 0.65 9.54 -2.38 12.57 -6.14 2.17 -2.75 2.67 -3.04 5.35 -2.82 l2.89 0.22 0.22 3.76 c0.22 3.32 0 3.97 -2.17 6.43 -1.30 1.45 -4.34 3.61 -6.72 4.77 -3.76 1.73 -5.13 2.02 -10.84 2.02 -3.69 -0.07 -7.73 -0.51 -9.32 -1.08z"/>
  <path d="M95.17 126.68 c-0.29 -0.22 -0.51 -2.17 -0.51 -4.26 0 -4.41 2.02 -7.37 6.58 -9.68 3.47 -1.81 11.27 -1.95 14.45 -0.29 2.02 1.01 2.17 1.37 1.95 4.48 l-0.22 3.40 -5.42 0 c-2.96 0 -5.85 0.29 -6.36 0.58 -0.51 0.36 -1.73 1.88 -2.75 3.47 -1.52 2.46 -2.10 2.82 -4.48 2.82 -1.52 0 -3.04 -0.22 -3.25 -0.51z"/>
  <path d="M126.25 115.84 c-0.29 -0.22 -0.51 -1.81 -0.51 -3.47 0 -3.54 2.53 -6.43 6.58 -7.59 3.90 -1.16 12 -0.87 14.81 0.43 2.46 1.16 2.53 1.30 2.31 4.91 -0.22 3.61 -0.22 3.69 -2.75 3.90 -1.45 0.14 -3.69 -0.29 -5.06 -0.87 -2.24 -0.94 -2.75 -0.87 -5.20 0.36 -1.45 0.72 -2.82 1.66 -3.11 2.10 -0.51 0.79 -6.36 1.01 -7.08 0.22z"/>
  <path d="M290.51 74.07 c-0.51 -0.58 -1.88 -3.11 -3.04 -5.56 -4.55 -9.68 -12.65 -18.64 -21.61 -23.92 -3.90 -2.24 -9.90 -4.48 -20.88 -7.59 -1.52 -0.43 -1.81 -1.01 -2.02 -3.90 -0.29 -4.34 0.58 -4.84 10.19 -5.71 19.37 -1.88 36.06 3.54 48.78 15.68 l3.32 3.18 5.20 -1.08 c6.79 -1.37 16.91 -1.37 22.33 0.07 7.88 2.02 14.09 6.65 19.15 14.24 2.31 3.47 2.89 4.91 2.75 6.94 -0.22 2.60 -0.29 2.60 -3.83 2.82 -2.82 0.14 -4.77 -0.29 -8.53 -2.02 -5.93 -2.67 -12.57 -4.34 -17.78 -4.34 -7.80 0 -17.78 3.76 -24.93 9.47 -3.76 3.04 -7.44 3.76 -9.11 1.73z m10.12 -14.45 c4.70 -2.46 4.70 -2.53 2.10 -2.53 -2.17 0 -2.89 -0.51 -4.99 -3.18 -3.11 -4.26 -10.04 -9.83 -15.68 -12.65 -2.46 -1.23 -4.63 -2.24 -4.77 -2.24 -0.14 0 2.67 3.04 6.29 6.72 3.90 3.90 7.73 8.67 9.39 11.56 1.52 2.67 2.82 4.84 2.89 4.84 0.07 0 2.24 -1.16 4.77 -2.53z m20.60 -5.20 c7.95 -0.51 8.38 -1.45 0.72 -1.59 -3.54 -0.07 -10.91 1.52 -11.85 2.53 -0.22 0.29 0.36 0.29 1.37 0 1.01 -0.29 5.42 -0.72 9.76 -0.94z"/>
 </g>
 <g fill="#ffffff">
  <path d="M0 673.15 l0 -66.85 48.13 0 48.13 0 4.63 3.25 c10.98 7.88 20.96 18.28 28.83 29.99 4.63 6.94 11.42 19.80 12.29 23.27 l0.51 1.88 -5.35 -2.53 c-17.85 -8.53 -34.47 -12.50 -52.68 -12.50 -13.08 0 -15.10 2.10 -6.29 6.58 7.80 3.90 14.09 8.38 20.38 14.45 7.44 7.08 10.91 11.49 14.89 18.93 l3.04 5.56 42.93 0 42.93 0 4.41 4.70 4.48 4.70 135.06 0 135.06 0 1.73 -3.76 c1.01 -2.10 1.81 -4.26 1.81 -4.70 0 -0.72 17.63 -0.94 85.56 -0.94 54.42 0 85.78 -0.29 86.07 -0.72 0.22 -0.36 -0.07 -2.53 -0.72 -4.84 -0.65 -2.31 -1.37 -7.73 -1.59 -12.14 -0.94 -18.79 6.07 -36.86 19.87 -51.16 2.82 -2.82 3.25 -3.61 2.53 -4.70 -1.01 -1.66 -3.32 -1.37 -11.78 1.45 -9.61 3.25 -27.75 12.50 -38.52 19.58 -5.06 3.32 -9.32 5.93 -9.54 5.71 -0.79 -0.79 -0.29 -11.78 0.72 -17.85 2.31 -13.30 8.09 -23.92 19.22 -35.41 7.88 -8.17 8.09 -9.54 1.52 -8.74 -5.06 0.58 -19.29 5.28 -25.51 8.46 -11.92 6 -24.43 16.04 -33.17 26.59 -2.82 3.40 -5.06 6.36 -5.06 6.72 0 0.29 -0.29 0.58 -0.58 0.58 -0.79 0 -4.84 -13.01 -6.43 -20.60 -1.23 -5.93 -1.66 -21.61 -0.94 -32.88 0.36 -5.13 0.29 -5.42 -1.16 -5.64 -4.48 -0.65 -19.29 31.22 -22.11 47.55 -0.51 2.75 -1.08 5.06 -1.30 5.06 -0.29 0 -0.94 -1.37 -1.45 -3.04 -1.45 -5.06 -6.87 -15.68 -11.63 -22.98 -12.86 -19.87 -29.99 -34.90 -51.16 -45.02 -12.94 -6.21 -19.58 -7.80 -19.58 -4.63 0 0.43 2.24 4.19 4.99 8.38 14.38 22.19 24.57 46.03 30.79 71.62 1.01 4.19 1.81 7.88 1.81 8.17 0 0.29 -1.59 -1.30 -3.47 -3.61 -9.11 -10.91 -22.33 -21.17 -35.12 -27.32 -8.53 -4.05 -18.64 -7.59 -21.82 -7.59 -3.97 0 -3.18 2.17 3.54 8.82 3.32 3.32 7.73 8.31 9.83 11.06 3.54 4.77 12.21 21.03 11.49 21.68 -0.14 0.14 -3.18 -0.72 -6.72 -1.95 -8.46 -2.89 -18.28 -3.11 -25.65 -0.65 -2.60 0.94 -4.99 1.95 -5.42 2.31 -1.45 1.45 -1.81 0.43 -1.81 -4.99 0 -9.47 -3.61 -18.50 -10.12 -25.51 -2.31 -2.53 -3.32 -4.12 -3.18 -5.20 1.23 -7.73 24.35 -141.86 24.57 -142.07 0.07 -0.14 1.23 0.51 2.38 1.37 3.83 2.67 12.43 6.29 19.22 8.02 8.24 2.10 23.78 2.31 31.94 0.43 18.21 -4.19 34.40 -13.15 48.71 -27.17 4.34 -4.19 7.88 -8.09 7.88 -8.60 0 -2.53 -13.08 -11.85 -21.39 -15.32 -9.90 -4.12 -16.69 -5.28 -28.11 -4.84 -11.27 0.43 -19.29 2.24 -29.34 6.58 -6.21 2.75 -16.04 8.46 -22.62 13.22 -2.38 1.66 -4.41 2.96 -4.55 2.82 -0.14 -0.14 1.66 -11.27 4.05 -24.71 2.31 -13.51 5.56 -31.80 7.08 -40.61 l2.75 -16.19 3.32 -2.46 c1.88 -1.37 3.54 -2.46 3.76 -2.46 0.22 0 2.24 2.67 4.55 6 4.55 6.58 21.82 24.35 23.63 24.35 2.17 0 15.83 -17.42 20.88 -26.52 l2.89 -5.28 2.96 2.10 c3.25 2.17 14.74 8.09 21.82 11.27 8.67 3.76 21.97 19.95 30.71 37.22 4.70 9.32 10.12 26.09 11.92 37 l0.43 2.60 -4.19 1.23 c-9.61 2.82 -19.08 10.12 -23.92 18.57 -3.54 6.14 -5.49 14.74 -4.99 21.90 0.22 3.18 0.79 6.72 1.23 7.88 0.72 2.02 0.72 2.02 -1.59 1.66 -10.55 -1.88 -19.73 -0.79 -28.54 3.40 -6.65 3.18 -14.67 10.91 -18.14 17.49 -2.82 5.35 -4.63 12.94 -4.34 17.92 l0.22 3.69 123.79 0.22 123.72 0.14 0 103.70 0 103.70 -370 0 -370 0 0 -66.85z"/>
  <path d="M210.08 697.44 c-6.50 -6.94 -9.32 -15.61 -7.80 -24.35 1.45 -8.17 4.34 -13.44 11.06 -20.16 4.99 -4.99 7.15 -6.50 12.86 -9.25 8.60 -4.12 15.10 -5.56 24.86 -5.56 l7.59 0 -0.43 -9.18 c-0.43 -10.55 0.36 -14.96 4.26 -23.13 2.96 -6.14 10.04 -13.44 16.26 -16.69 5.35 -2.82 14.24 -5.20 19.37 -5.20 5.13 0 14.02 2.38 19.37 5.20 6.65 3.47 14.81 11.85 18.21 18.86 1.52 3.04 3.11 5.56 3.54 5.56 0.43 0 2.89 -1.66 5.42 -3.69 5.49 -4.26 16.04 -9.61 22.11 -11.13 5.56 -1.45 15.97 -1.37 21.61 0.07 6.43 1.66 13.95 5.85 18.28 10.26 7.37 7.52 11.20 18.79 9.68 28.33 -1.45 8.60 -0.79 9.32 4.84 5.49 5.85 -3.90 10.26 -5.13 18.57 -5.13 8.82 0 14.45 1.73 22.26 6.79 6 3.97 10.41 8.67 13.95 14.96 6.87 12.21 8.31 26.09 4.12 38.08 l-1.23 3.40 -132.75 0 -132.68 0 -3.32 -3.54z m62.15 -20.38 c4.91 -2.38 9.18 -6.58 11.06 -10.91 3.32 -7.66 0.79 -15.46 -6.21 -19.01 -3.61 -1.81 -11.49 -1.95 -16.55 -0.14 -8.96 3.11 -15.32 11.06 -14.53 18.14 0.65 6.07 5.93 11.92 12.14 13.51 3.83 0.94 10.33 0.22 14.09 -1.59z m116.42 -1.08 c1.88 -1.30 3.76 -4.70 3.76 -6.72 0 -6 -7.15 -9.32 -12.79 -5.85 -3.11 1.88 -4.05 3.90 -3.61 7.52 0.58 4.12 3.11 6.21 7.59 6.21 1.95 0 4.12 -0.51 5.06 -1.16z m68.87 -3.61 c6.29 -3.69 7.52 -10.98 2.75 -15.90 -4.70 -4.84 -14.53 -5.93 -20.88 -2.38 -8.60 4.84 -7.44 15.68 1.95 19.15 3.90 1.45 13.01 0.94 16.19 -0.87z m-139.69 -12.86 c4.99 -2.60 7.08 -7.66 4.91 -11.85 -1.73 -3.32 -4.05 -4.19 -10.04 -3.90 -3.18 0.22 -7.73 4.91 -8.24 8.46 -0.58 4.84 2.89 8.17 8.67 8.24 1.52 0.07 3.61 -0.36 4.70 -0.94z m-13.15 -21.61 c7.30 -3.69 11.13 -8.74 11.13 -14.67 -0.07 -11.78 -18.50 -16.91 -29.12 -8.17 -6.87 5.64 -7.73 15.90 -1.81 21.39 4.63 4.34 12.94 4.91 19.80 1.45z m43.14 1.23 c3.25 -1.66 4.77 -3.18 6.36 -6.21 1.95 -3.83 1.73 -6.65 -0.65 -9.32 -1.66 -1.88 -2.75 -2.38 -5.78 -2.67 -9.47 -0.87 -16.48 6.14 -13.88 13.95 1.59 4.91 8.53 7.01 13.95 4.26z"/>
  <path d="M256.90 673.95 c-1.23 -0.51 -3.25 -2.17 -4.55 -3.61 -4.84 -5.49 -2.24 -13.22 6.14 -17.92 6.36 -3.61 14.81 -3.69 19.01 -0.14 6.50 5.49 3.11 15.97 -6.72 20.81 -4.19 2.10 -10.19 2.46 -13.88 0.87z"/>
  <path d="M381.42 672.65 c-2.96 -2.46 -1.37 -6.36 2.60 -6.36 1.23 0 2.67 0.36 3.18 0.87 1.37 1.37 1.01 3.97 -0.72 5.20 -1.95 1.37 -3.54 1.45 -5.06 0.29z"/>
  <path d="M444.65 669.90 c-4.26 -0.87 -5.64 -1.81 -6.72 -4.34 -2.10 -5.06 2.75 -9.39 10.48 -9.39 4.99 0 8.74 1.66 10.12 4.41 1.52 2.82 1.37 3.83 -0.72 6.29 -2.38 2.82 -7.80 4.05 -13.15 3.04z"/>
  <path d="M310.16 655.74 c-4.34 -3.04 0.94 -9.39 6.72 -7.95 4.12 1.01 3.69 5.93 -0.72 8.02 -2.96 1.37 -3.97 1.37 -6 -0.07z"/>
  <path d="M292.10 635.94 c-1.37 -0.29 -3.40 -1.45 -4.55 -2.60 -5.06 -4.84 -2.89 -13.22 4.48 -16.91 3.32 -1.73 10.33 -1.95 13.95 -0.43 6.87 2.82 7.37 11.06 1.01 15.83 -5.13 3.83 -10.26 5.28 -14.89 4.12z"/>
  <path d="M338.85 635.36 c-3.83 -3.18 -0.51 -9.54 5.56 -10.70 8.02 -1.52 9.11 7.73 1.30 10.98 -3.25 1.37 -4.84 1.30 -6.87 -0.29z"/>
  <path d="M117.50 687.46 c-5.42 -10.77 -17.63 -23.49 -29.70 -30.93 l-4.34 -2.67 7.59 0.43 c16.84 0.87 36.28 6.72 50.22 15.18 7.30 4.41 8.82 3.25 6.14 -4.91 -2.38 -7.37 -10.04 -22.11 -15.75 -30.06 -5.85 -8.31 -16.98 -19.95 -24.71 -26.09 -3.18 -2.46 -5.64 -4.63 -5.49 -4.77 0.43 -0.43 13.01 2.46 18.93 4.48 11.35 3.76 27.39 12.50 36.78 20.09 6.36 5.13 14.09 13.01 18.50 18.79 6.72 8.67 7.95 7.66 6.14 -5.13 -2.67 -19.15 -0.36 -36.49 6.94 -52.83 l1.81 -3.90 1.16 9.18 c0.72 5.06 2.38 13.51 3.76 18.93 3.90 15.10 11.92 33.31 14.24 32.38 0.51 -0.14 2.53 -2.82 4.55 -5.93 4.55 -7.01 15.68 -18.28 22.98 -23.20 5.64 -3.76 15.25 -8.74 16.91 -8.74 0.51 0 -0.36 2.53 -2.31 6.36 -1.81 3.47 -4.12 9.47 -5.20 13.37 -1.95 6.87 -1.95 7.01 -4.19 7.01 -3.90 0 -11.27 2.17 -17.27 4.91 -12.50 5.85 -22.33 16.40 -25.73 27.46 -1.73 5.64 -1.95 14.96 -0.36 20.09 0.58 1.95 1.08 3.61 1.08 3.76 0 0.07 -18.21 0.14 -40.47 0.14 l-40.47 0 -1.73 -3.40z"/>
  <path d="M486.35 683.49 c0 -9.25 -1.37 -14.96 -5.64 -23.63 -2.67 -5.64 -4.34 -7.88 -9.11 -12.65 -4.91 -4.91 -6 -6.43 -6.79 -9.47 -2.10 -8.17 -9.54 -20.74 -19.37 -32.74 l-1.95 -2.38 3.69 1.45 c17.63 6.94 32.59 18.14 44.80 33.46 8.60 10.70 10.26 10.48 8.38 -1.01 -3.83 -24.14 -16.33 -56.73 -29.99 -78.41 -2.31 -3.76 -4.26 -6.94 -4.26 -7.08 0 -0.51 11.71 4.70 15.90 7.01 26.59 15.03 46.54 38.95 56.01 67.42 3.04 8.96 3.97 10.48 5.71 9.03 0.65 -0.51 1.16 -1.52 1.16 -2.31 0 -3.32 3.83 -20.23 6.21 -27.32 2.17 -6.43 9.83 -23.85 10.55 -23.85 0.14 0 0.22 4.99 0.29 11.06 0 12.07 1.01 18.43 4.77 30.13 2.24 7.08 5.28 13.73 6.21 13.73 1.01 0 2.10 -1.16 5.56 -6.14 7.95 -11.42 23.27 -24.50 36.13 -30.93 4.05 -2.02 16.91 -7.01 18.07 -7.01 0.22 0 -1.95 2.82 -4.70 6.29 -6.36 7.88 -11.13 17.13 -13.51 26.09 -1.52 5.78 -1.88 8.74 -1.95 17.13 -0.07 10.77 0.65 13.80 3.11 13.15 0.72 -0.14 5.13 -2.89 9.90 -6.07 11.71 -7.80 21.46 -13.22 32.38 -17.92 5.06 -2.17 9.32 -3.97 9.54 -3.97 0.14 0 -1.23 2.02 -3.04 4.48 -10.62 14.45 -15.32 29.85 -14.45 47.19 0.22 4.77 0.65 9.54 0.87 10.70 l0.43 1.95 -82.46 0 -82.46 0 0 -7.37z"/>
  <path d="M169.39 633.55 c-10.04 -10.19 -22.91 -19.15 -35.70 -24.79 l-5.42 -2.46 25.22 0 c21.90 0 25.08 0.14 24.71 1.08 -1.16 3.18 -2.02 14.74 -1.66 23.70 0.22 5.42 0.29 9.90 0.29 9.83 -0.07 0 -3.40 -3.40 -7.44 -7.37z"/>
  <path d="M208.27 636.15 c-2.53 -5.06 -6.94 -17.13 -8.46 -23.34 l-1.59 -6.14 9.47 -0.36 9.47 -0.36 0.22 -3.11 c0.36 -4.63 -1.08 -10.19 -4.19 -16.55 -6.14 -12.57 -17.92 -22.19 -31.80 -26.02 -6.79 -1.88 -20.52 -1.73 -26.23 0.29 -4.77 1.66 -4.55 1.88 -5.13 -4.48 -0.79 -8.74 -8.09 -19.29 -16.40 -23.56 -3.97 -1.95 -10.48 -3.54 -14.89 -3.54 l-3.83 0 0 -3.40 c0 -5.78 -2.02 -13.30 -5.20 -19.73 -2.31 -4.77 -4.26 -7.37 -8.60 -11.71 l-5.64 -5.49 1.01 -3.18 c5.56 -18.14 15.39 -36.06 28.47 -51.89 5.56 -6.65 15.54 -16.62 16.77 -16.62 0.29 0 0.14 1.37 -0.22 3.11 -0.43 1.66 -0.79 8.60 -0.87 15.32 l-0.07 12.29 7.88 0.22 c8.02 0.22 21.68 -1.23 28.47 -2.96 3.69 -1.01 3.76 -0.94 4.05 0.51 2.75 13.73 6.65 26.74 10.26 33.82 1.30 2.53 2.17 3.47 3.32 3.47 2.38 0 21.68 -9.61 28.11 -14.02 3.18 -2.24 6.07 -4.05 6.29 -4.05 0.29 0 1.30 1.37 2.24 3.11 4.63 8.09 21.32 27.24 23.78 27.24 1.81 0 17.13 -16.98 21.03 -23.34 0.94 -1.52 1.81 -2.60 2.02 -2.46 0.14 0.22 2.02 6.29 4.12 13.59 2.10 7.30 5.71 19.58 7.95 27.32 2.24 7.66 4.05 14.09 3.90 14.16 -0.14 0.14 -2.31 -1.08 -4.84 -2.60 -19.58 -11.85 -44.23 -12.29 -66.56 -1.23 -4.19 2.10 -7.66 4.34 -7.80 4.91 -0.58 3.11 13.51 16.26 23.05 21.61 17.13 9.54 39.46 11.35 57.88 4.70 2.82 -1.01 5.28 -1.59 5.56 -1.23 0.65 0.72 8.96 30.64 8.60 30.93 -0.14 0.14 -1.52 0 -3.11 -0.36 -1.59 -0.36 -5.85 -0.72 -9.54 -0.72 -7.52 0 -15.18 2.02 -21.68 5.78 -4.48 2.53 -11.85 9.32 -13.95 12.65 -1.16 1.88 -2.38 2.67 -5.42 3.54 -15.83 4.63 -34.33 18.43 -44.15 33.03 l-2.38 3.61 -1.37 -2.75z"/>
  <path d="M249.68 632.18 c1.01 -3.69 3.54 -10.19 3.69 -9.54 0.07 0.36 0.29 3.04 0.51 5.93 l0.29 5.20 -2.46 0 c-2.24 0 -2.46 -0.14 -2.02 -1.59z"/>
  <path d="M340.73 606.16 c-0.58 -1.81 -7.80 -29.85 -7.88 -30.79 -0.07 -0.51 2.60 -1.81 6.43 -3.11 7.59 -2.53 11.06 -4.41 18.21 -9.83 5.35 -4.05 11.27 -10.84 15.32 -17.42 4.99 -8.31 8.74 -21.25 8.74 -29.99 l0 -3.61 -6.29 0.43 c-20.09 1.37 -38.88 13.01 -48.49 30.06 l-2.24 3.90 -1.08 -3.90 c-4.63 -16.69 -11.27 -40.04 -14.60 -51.09 -2.24 -7.30 -3.90 -13.44 -3.69 -13.59 0.14 -0.14 2.75 0.87 5.78 2.24 7.88 3.61 7.95 3.61 10.48 -3.40 4.55 -12.72 8.09 -25.80 8.09 -30.21 0 -2.53 1.23 -1.59 2.53 2.02 2.67 6.94 8.31 17.42 12.57 23.13 12.57 16.62 32.66 29.27 53.62 33.68 1.88 0.43 1.88 0.51 1.23 3.83 -1.23 6.79 -14.31 83.11 -14.31 83.83 0 0.43 -3.32 0.94 -8.46 1.16 -12.14 0.58 -20.96 3.61 -31.51 10.70 -2.82 1.95 -4.26 2.53 -4.48 1.95z"/>
  <path d="M111 600.74 c-4.26 -0.87 -10.62 -1.88 -14.02 -2.31 -5.49 -0.72 -6.36 -0.65 -7.15 0.36 -0.43 0.65 -0.65 1.59 -0.43 2.17 0.29 0.87 -6.29 1.01 -44.52 1.01 l-44.88 0 0 -68.29 0 -68.29 2.10 0 c1.16 0 4.12 0.65 6.65 1.45 13.01 3.97 23.05 14.45 26.38 27.53 1.73 6.94 1.88 6.94 7.37 2.38 8.17 -6.72 19.15 -11.13 27.97 -11.13 4.77 0 12.72 2.02 17.71 4.48 6.79 3.32 14.89 11.56 18.28 18.64 3.11 6.65 4.12 11.27 4.12 19.01 l0 6 7.44 -0.07 c6.58 0 7.80 0.22 11.71 2.02 5.49 2.60 10.70 7.59 13.59 13.15 1.88 3.69 2.24 5.35 2.53 10.84 0.14 3.61 0.65 6.87 1.01 7.37 0.51 0.58 2.17 0.22 6.58 -1.37 11.56 -4.34 23.78 -3.47 35.55 2.31 10.77 5.35 19.01 14.67 22.40 25.44 2.82 8.96 3.18 8.53 -6.07 8.53 -6.21 0 -7.95 -0.22 -8.24 -1.08 -0.29 -0.58 -0.79 -4.55 -1.30 -8.82 -0.43 -4.26 -1.01 -9.76 -1.30 -12.14 -0.43 -3.97 -0.58 -4.34 -2.24 -4.34 -1.52 0 -2.24 0.94 -5.20 6.79 -1.88 3.76 -4.34 9.68 -5.42 13.15 l-2.02 6.36 -30.42 0.22 c-28.91 0.22 -30.79 0.14 -38.16 -1.37z"/>
  <path d="M399.99 599.01 c-1.16 -0.79 -4.05 -2.10 -6.29 -2.89 -4.99 -1.88 -4.84 -1.37 -2.75 -14.02 2.75 -16.40 16.69 -96.55 25.37 -145.98 0.87 -4.77 3.83 -22.11 6.72 -38.52 l5.20 -29.85 6.14 -3.25 c3.32 -1.81 7.15 -3.97 8.53 -4.84 l2.46 -1.52 -0.43 1.81 c-0.22 0.94 -0.94 4.84 -1.59 8.60 -0.65 3.76 -3.90 22.62 -7.23 41.91 -3.32 19.29 -9.39 54.05 -13.37 77.32 -4.05 23.27 -8.74 50.59 -10.48 60.70 -1.73 10.12 -4.34 25.22 -5.78 33.53 -2.89 16.91 -3.18 18.50 -3.90 18.43 -0.22 0 -1.37 -0.65 -2.60 -1.45z"/>
  <path d="M328.66 592.22 c-3.76 -3.47 -9.90 -7.52 -13.44 -8.74 -0.07 0 -2.10 -7.15 -4.55 -15.90 -5.56 -20.23 -20.45 -72.27 -25.08 -87.73 -4.48 -15.10 -4.70 -15.90 -3.76 -15.90 0.43 0 2.67 1.23 4.91 2.75 2.24 1.52 6.07 3.83 8.46 5.20 2.38 1.30 4.41 2.46 4.55 2.53 0.36 0.29 23.27 80.72 26.52 93.22 1.45 5.56 3.76 14.31 5.13 19.37 1.45 5.13 2.46 9.39 2.31 9.54 -0.14 0.14 -2.38 -1.81 -5.06 -4.34z"/>
  <path d="M331.34 569.96 c-0.14 -0.51 -0.58 -1.95 -1.01 -3.32 -1.01 -3.18 -0.58 -3.83 8.46 -13.30 9.76 -10.19 18.36 -18.07 24.93 -22.84 5.42 -3.90 7.15 -6.58 4.26 -6.58 -2.67 0 -13.80 9.18 -26.59 22.04 l-13.15 13.08 -0.79 -2.60 c-1.37 -4.70 -0.94 -6.72 3.04 -13.37 3.90 -6.65 9.90 -13.30 15.39 -17.05 7.80 -5.35 18.64 -9.47 27.82 -10.48 4.26 -0.51 4.26 -0.51 4.26 1.45 0 3.69 -2.31 13.08 -4.48 18.36 -4.55 10.91 -12.50 20.60 -22.19 27.17 -7.01 4.70 -19.37 9.32 -19.95 7.44z"/>
  <path d="M260.37 551.10 c-9.32 -1.81 -18.72 -5.64 -26.23 -10.77 -4.26 -2.96 -14.45 -12.72 -14.45 -13.88 0 -1.23 12.07 -6.50 19.29 -8.46 8.46 -2.24 24.43 -2.31 32.23 0 6.36 1.81 14.02 5.42 20.45 9.61 3.40 2.24 4.55 3.40 5.20 5.49 0.43 1.45 0.72 2.75 0.58 2.89 -0.14 0.14 -4.26 -0.72 -9.18 -1.95 -18.79 -4.55 -51.60 -8.60 -53.55 -6.65 -2.10 2.10 0 2.75 11.42 3.54 6.36 0.51 16.40 1.73 22.33 2.75 10.62 1.81 28.33 5.85 29.92 6.87 0.51 0.22 1.01 1.59 1.23 3.04 0.43 2.38 0.29 2.60 -2.53 3.69 -10.41 4.19 -26.09 5.85 -36.71 3.83z"/>
  <path d="M496.46 526.09 c0 -1.23 0.87 -4.77 1.88 -7.88 3.69 -11.13 12.29 -19.58 23.63 -23.27 6.65 -2.17 16.69 -2.31 23.49 -0.29 6.07 1.73 6.58 1.16 4.55 -4.84 -6.58 -18.86 2.96 -38.59 22.04 -45.46 3.32 -1.23 6 -1.59 12.21 -1.66 7.23 -0.07 8.38 0.14 12.65 1.95 7.95 3.47 8.60 3.69 9.11 3.18 0.29 -0.29 -0.07 -3.11 -0.79 -6.21 -1.81 -7.88 -1.23 -15.18 1.66 -21.32 3.04 -6.43 6.58 -10.12 12.94 -13.22 4.55 -2.24 6.29 -2.67 11.35 -2.96 6.50 -0.36 10.55 0.58 17.27 3.97 1.88 0.94 3.69 1.52 4.05 1.37 0.29 -0.22 0.79 -2.60 1.08 -5.28 1.16 -11.35 6.58 -22.26 15.10 -30.35 18.93 -17.99 46.68 -17.56 66.34 1.01 l4.99 4.70 0 74.36 0 74.36 -121.77 0 -121.77 0 0 -2.17z"/>
  <path d="M391.75 498.92 c-20.60 -6.07 -38.88 -20.45 -49.86 -39.17 -2.31 -3.97 -6.79 -13.95 -6.36 -14.31 0.07 -0.14 2.82 0.22 5.93 0.79 3.18 0.51 9.25 1.16 13.44 1.45 l7.66 0.51 8.96 8.46 c15.61 14.67 31 31.44 31 33.75 0 0.65 -0.36 3.32 -0.79 5.85 -0.94 5.42 -0.87 5.35 -9.97 2.67z"/>
  <path d="M39.02 492.27 c0 -0.72 -1.30 -3.97 -2.89 -7.30 -4.77 -9.83 -14.38 -18.64 -23.56 -21.54 -2.17 -0.65 -3.90 -1.45 -3.90 -1.73 0 -0.22 1.45 -4.63 3.18 -9.76 11.63 -34.04 29.85 -63.81 54.63 -89.46 7.95 -8.24 25.58 -23.85 28.04 -24.79 0.43 -0.22 2.89 1.52 5.35 3.76 6.29 5.85 10.77 9.32 17.92 13.95 3.40 2.24 6.21 4.05 6.36 4.19 0.43 0.29 -8.46 13.73 -10.48 15.68 -1.08 1.16 -7.23 7.15 -13.66 13.37 -6.65 6.50 -14.16 14.67 -17.56 19.08 -17.56 22.98 -30.21 49.65 -37.65 79.06 -0.51 2.10 -1.52 3.61 -3.25 4.91 -2.24 1.73 -2.53 1.81 -2.53 0.58z"/>
  <path d="M248.88 484.04 c-12.86 -13.51 -21.17 -27.53 -23.85 -40.54 -1.30 -6.21 -0.65 -11.27 2.24 -17.71 l1.88 -4.19 5.20 1.30 c2.89 0.72 8.24 1.52 11.92 1.81 l6.65 0.43 0 20.31 c0 11.20 0.29 20.74 0.65 21.32 0.36 0.58 1.16 0.79 1.81 0.58 1.01 -0.36 1.16 -3.04 1.30 -21.25 l0.22 -20.81 6.36 -0.51 c3.47 -0.29 8.46 -1.01 11.06 -1.66 2.60 -0.58 5.13 -1.08 5.64 -1.08 1.30 0 3.90 6.50 4.70 11.71 1.88 11.13 -4.19 26.45 -16.40 41.77 -3.97 4.91 -12.65 14.45 -13.22 14.45 -0.22 0 -3.04 -2.67 -6.14 -5.93z"/>
  <path d="M49.86 485.12 c0 -2.38 6.50 -21.97 10.19 -30.50 6.36 -14.81 16.84 -32.88 25.22 -43.58 6.21 -7.88 15.75 -18.43 20.09 -22.11 l4.48 -3.90 -2.17 5.06 c-1.23 2.82 -2.17 5.49 -2.17 5.93 0 1.81 18.43 8.24 30.64 10.77 3.90 0.79 7.30 1.66 7.59 1.88 0.22 0.29 -1.16 1.81 -3.18 3.47 -21.46 17.85 -38.30 42.35 -46.90 68.29 -1.08 3.25 -2.17 5.93 -2.46 5.93 -0.22 0 -2.46 -0.79 -4.91 -1.81 -10.91 -4.34 -22.26 -3.90 -35.12 1.45 -1.01 0.36 -1.30 0.14 -1.30 -0.87z"/>
  <path d="M399.34 480.06 c-4.48 -5.20 -14.09 -15.18 -24.93 -25.73 -5.42 -5.35 -6.36 -6.58 -5.56 -7.37 0.72 -0.79 0.87 -3.04 0.58 -9.83 l-0.36 -8.74 4.26 2.67 c13.88 8.89 23.13 19.15 30.28 33.68 l2.75 5.49 -1.37 7.37 -1.37 7.44 -4.26 -4.99z"/>
  <path d="M193.09 473.20 c-2.82 -6.94 -5.56 -15.54 -6.94 -22.40 -1.52 -7.15 -1.45 -8.53 0.07 -8.53 0.72 0 3.97 -1.37 7.37 -3.04 8.31 -4.12 14.31 -9.97 17.85 -17.49 2.67 -5.56 3.40 -6.21 5.56 -4.55 1.01 0.79 0.43 2.67 -6.43 19.29 -4.12 10.12 -7.44 18.86 -7.37 19.51 0.14 0.58 0.72 1.16 1.37 1.30 0.94 0.14 2.96 -4.19 8.96 -18.79 4.26 -10.48 7.88 -19.15 8.02 -19.29 0.14 -0.14 1.08 0.07 2.02 0.51 l1.73 0.79 -1.81 4.41 c-2.53 6.29 -3.32 12.29 -2.46 17.99 0.79 5.06 2.75 11.35 4.70 15.18 0.65 1.23 1.01 2.60 0.79 2.96 -1.01 1.66 -12.43 8.53 -21.10 12.72 -5.20 2.53 -9.61 4.63 -9.83 4.63 -0.22 0 -1.37 -2.38 -2.53 -5.20z"/>
  <path d="M309.66 474.71 c-7.80 -3.54 -20.74 -10.77 -24.06 -13.51 l-2.38 -1.95 1.81 -3.97 c1.01 -2.17 2.38 -6.87 3.04 -10.33 1.08 -5.42 1.16 -7.23 0.43 -11.78 -0.51 -2.96 -1.66 -7.01 -2.75 -9.03 -1.01 -2.02 -1.73 -3.76 -1.59 -3.83 0.72 -0.58 4.99 -2.02 5.13 -1.81 0.14 0.14 3.83 8.74 8.17 19.08 7.73 18.07 9.61 21.32 10.84 18.21 0.22 -0.58 -3.25 -9.39 -7.66 -19.73 -7.30 -16.98 -7.88 -18.79 -6.79 -19.58 1.66 -1.23 2.17 -0.72 3.47 3.25 3.11 9.32 11.78 17.13 23.85 21.54 5.20 1.88 5.42 2.31 3.69 10.26 -1.16 5.49 -7.30 24.64 -8.24 25.58 -0.22 0.29 -3.32 -0.79 -6.94 -2.38z"/>
  <path d="M456.72 465.75 c-6.94 -1.52 -12.72 -3.76 -18.57 -7.08 -4.99 -2.82 -5.28 -3.04 -5.28 -5.49 0 -1.45 0.29 -2.96 0.58 -3.47 0.29 -0.43 5.71 -2.02 12.07 -3.40 25 -5.49 39.38 -7.44 59.47 -8.17 12 -0.43 13.15 -0.58 13.15 -1.73 0 -1.88 -4.70 -2.38 -16.55 -1.81 -17.92 0.94 -37.07 3.69 -57.52 8.31 -5.13 1.16 -9.47 2.02 -9.68 1.88 -2.10 -2.17 19.08 -16.33 32.59 -21.90 17.27 -7.15 35.48 -7.59 50.95 -1.30 6.21 2.53 14.53 7.73 17.42 10.77 l1.73 1.81 -4.55 4.55 c-13.08 12.79 -28.11 21.61 -44.52 26.09 -7.37 1.95 -24.28 2.53 -31.29 0.94z"/>
  <path d="M405.84 460.48 c-5.93 -12.43 -20.31 -27.32 -33.10 -34.11 -3.90 -2.10 -4.12 -2.38 -4.55 -5.64 -0.29 -1.88 -0.94 -5.49 -1.52 -8.02 -0.58 -2.53 -0.94 -4.77 -0.72 -4.91 0.14 -0.14 3.40 -0.94 7.15 -1.73 6.94 -1.37 21.10 -5.78 27.53 -8.53 3.32 -1.45 3.47 -1.66 3.04 -3.76 -0.72 -3.83 -9.47 -21.25 -14.16 -28.18 -2.38 -3.61 -4.34 -6.65 -4.19 -6.79 0.14 -0.07 1.52 -0.87 3.11 -1.81 4.26 -2.53 13.08 -9.11 16.77 -12.50 1.73 -1.59 3.32 -2.67 3.54 -2.46 0.22 0.22 1.66 4.05 3.18 8.60 1.52 4.48 3.97 10.77 5.49 13.95 2.60 5.42 2.96 5.78 4.84 5.56 1.16 -0.14 1.88 0.07 1.66 0.43 -0.43 0.79 -3.54 17.92 -13.80 77.76 -1.37 7.88 -2.60 14.45 -2.75 14.60 -0.14 0.14 -0.79 -0.94 -1.52 -2.46z"/>
  <path d="M0 416.47 l0 -44.66 5.56 -7.95 c8.31 -11.92 16.69 -21.90 28.76 -34.25 20.23 -20.60 37.36 -34.11 61.50 -48.35 10.12 -6 11.13 -6.43 11.13 -5.13 0 1.88 8.74 19.08 12.79 25.08 2.17 3.32 3.69 6.29 3.40 6.58 -0.36 0.36 -3.76 2.67 -7.52 5.20 -3.76 2.53 -10.91 8.53 -15.90 13.30 -4.99 4.84 -11.78 10.98 -15.18 13.73 -35.77 29.05 -63.09 68.58 -76.96 111.29 -3.04 9.25 -3.11 9.39 -5.35 9.61 l-2.24 0.22 0 -44.66z"/>
  <path d="M144.03 435.33 c0.87 -16.98 4.99 -34.18 10.26 -43 3.04 -4.91 7.73 -9.32 12.43 -11.71 6.79 -3.40 6.79 -3.40 10.98 3.04 2.02 3.11 5.13 7.30 6.94 9.32 1.81 1.95 3.25 3.90 3.25 4.26 0 0.29 -6.36 6.94 -14.09 14.67 -7.73 7.73 -14.09 14.53 -14.09 15.03 0 0.51 0.51 1.08 1.16 1.37 0.79 0.29 5.20 -3.61 15.39 -13.80 7.80 -7.80 14.45 -14.16 14.74 -14.16 0.29 0 2.75 1.88 5.49 4.19 2.67 2.24 6.94 5.28 9.39 6.65 4.12 2.31 4.41 2.67 4.05 4.63 -0.58 3.32 -4.55 9.61 -8.38 13.37 -8.60 8.53 -25.73 13.73 -48.85 14.96 l-9.11 0.51 0.43 -9.32z"/>
  <path d="M353.38 443.71 c-27.32 -2.10 -45.17 -9.90 -51.45 -22.55 -3.40 -6.79 -3.40 -7.08 1.30 -9.90 2.31 -1.37 6.72 -4.55 9.90 -7.15 l5.78 -4.63 14.24 14.53 c7.80 7.95 14.53 14.53 14.96 14.53 0.43 0 1.16 -0.51 1.66 -1.08 0.79 -1.01 -1.16 -3.25 -13.66 -15.83 l-14.67 -14.74 4.34 -5.42 c2.38 -3.04 5.56 -7.44 7.01 -9.83 l2.67 -4.26 3.25 1.08 c15.90 5.42 25.15 24.64 26.74 55.86 l0.43 9.18 -2.38 0.43 c-1.30 0.29 -2.53 0.43 -2.82 0.43 -0.22 -0.07 -3.54 -0.36 -7.30 -0.65z"/>
  <path d="M596.19 439.95 c-2.17 -0.79 -6.50 -1.59 -9.61 -1.81 -4.99 -0.36 -5.64 -0.58 -5.85 -1.95 -4.84 -26.02 -14.09 -46.90 -27.97 -63.23 -2.17 -2.53 -4.63 -5.56 -5.56 -6.65 l-1.66 -2.02 2.96 -8.74 c1.59 -4.84 3.69 -12.79 4.55 -17.78 0.87 -4.91 1.81 -8.96 2.10 -8.96 1.08 0 20.23 19.66 24.57 25.29 11.92 15.46 20.67 31.72 27.03 50.15 l1.73 4.99 -2.60 3.90 c-4.41 6.72 -5.64 10.98 -5.71 20.31 0 4.41 0 8.02 0 8.02 0 -0.07 -1.81 -0.72 -3.97 -1.52z"/>
  <path d="M239.78 420.15 c-29.12 -5.28 -53.91 -24.64 -65.54 -51.09 -10.55 -24.06 -10.33 -49.65 0.58 -72.48 13.37 -27.97 37.72 -46.11 68 -50.59 26.74 -3.90 54.05 5.35 73.71 25 30.64 30.57 34.69 77.40 9.90 113.38 -12.65 18.21 -34.25 31.80 -57.16 35.84 -7.80 1.30 -21.82 1.30 -29.48 -0.07z m25 -56.66 c7.01 -1.81 13.30 -5.13 18.28 -9.68 4.77 -4.34 6.43 -7.15 4.99 -8.38 -0.79 -0.65 -2.02 0.22 -6 4.12 -10.12 10.12 -24.14 13.95 -38.01 10.41 -5.85 -1.52 -10.33 -3.54 -14.02 -6.43 -1.30 -0.94 -2.89 -1.59 -3.47 -1.30 -4.41 1.66 6.29 9.03 16.91 11.63 6.07 1.45 14.81 1.30 21.32 -0.36z m-46.97 -17.63 c2.31 -0.94 4.77 -4.70 4.77 -7.23 0 -4.19 -4.12 -8.38 -8.09 -8.38 -4.84 0 -9.32 5.93 -7.80 10.41 1.66 5.20 6.14 7.30 11.13 5.20z m82.02 -13.15 c7.30 -6.14 -0.72 -17.42 -9.25 -12.94 -2.02 1.01 -4.41 4.91 -4.41 7.23 0 1.81 1.95 5.20 3.76 6.43 2.60 1.81 7.30 1.45 9.90 -0.72z"/>
  <path d="M611.80 405.27 c-1.66 -5.71 -6.72 -17.99 -10.55 -25.51 -8.67 -17.20 -18.28 -30.13 -32.88 -44.37 l-8.38 -8.24 4.19 0.43 c7.80 0.87 25.94 1.45 28.69 0.94 l2.82 -0.51 -0.43 -7.37 -0.43 -7.37 3.97 4.34 c19.95 21.46 36.06 49.07 44.80 76.82 1.30 4.05 2.10 7.37 1.88 7.37 -0.29 0 -2.10 -0.51 -4.05 -1.08 -4.48 -1.37 -12.65 -1.37 -17.63 -0.07 -2.10 0.58 -5.56 2.02 -7.73 3.25 -2.82 1.59 -4.12 2.02 -4.26 1.37z"/>
  <path d="M134.41 402.38 c-5.85 -1.30 -19.95 -5.78 -22.55 -7.15 -0.72 -0.43 -1.30 -1.16 -1.30 -1.66 0 -1.66 9.90 -20.74 13.59 -26.09 2.46 -3.61 3.83 -5.06 4.84 -4.91 0.79 0.07 4.34 1.16 7.88 2.38 5.93 2.17 6.94 2.24 14.09 2.02 6.21 -0.22 8.53 -0.58 12.14 -2.10 l4.48 -1.88 0.87 2.10 c0.43 1.16 0.65 2.24 0.43 2.53 -0.29 0.22 -8.46 3.76 -18.28 7.88 -9.76 4.12 -18.21 7.80 -18.72 8.24 -1.08 0.94 -0.65 2.89 0.65 2.89 0.43 0 8.96 -3.40 18.79 -7.59 9.90 -4.19 18.43 -7.59 18.86 -7.59 0.87 0 1.81 1.52 1.81 2.82 0 0.29 -1.37 1.01 -3.04 1.52 -4.55 1.30 -8.89 4.12 -12.86 8.09 -3.40 3.47 -8.38 12 -10.12 17.42 -0.72 2.38 -1.08 2.67 -3.11 2.60 -1.30 -0.07 -5.06 -0.72 -8.46 -1.52z"/>
  <path d="M363.42 401.29 c-4.99 -13.80 -11.85 -21.90 -21.68 -25.51 -2.31 -0.87 -4.26 -1.88 -4.26 -2.17 0 -1.37 0.94 -2.89 1.81 -2.89 0.51 0 9.11 3.47 19.15 7.66 10.04 4.19 18.72 7.44 19.29 7.23 3.18 -1.23 -0.07 -3.11 -18.21 -10.62 -10.33 -4.26 -18.86 -8.17 -19.01 -8.74 -0.07 -0.51 0.22 -1.52 0.72 -2.24 0.87 -1.16 1.23 -1.08 5.64 0.79 4.19 1.73 5.56 1.95 12.65 1.95 7.44 -0.07 8.38 -0.22 15.03 -2.82 8.24 -3.18 6.79 -3.83 13.30 6.43 4.63 7.37 11.35 21.61 10.84 22.98 -0.72 1.81 -27.17 9.90 -32.52 9.90 -1.52 0 -2.17 -0.43 -2.75 -1.95z"/>
  <path d="M649.45 398.18 c-0.22 -0.58 -1.30 -3.83 -2.31 -7.23 -9.18 -28.83 -25.73 -56.15 -47.48 -78.48 l-5.71 -5.78 -1.81 -8.89 c-0.94 -4.84 -1.81 -9.18 -1.95 -9.61 -0.07 -0.43 2.75 -1.52 6.36 -2.38 3.61 -0.87 9.25 -2.46 12.57 -3.61 l6.14 -2.02 9.47 9.68 c11.56 11.85 17.20 18.86 26.45 32.66 7.15 10.77 16.55 28.40 19.95 37.22 l1.73 4.77 -2.02 1.52 c-9.03 6.50 -16.12 16.62 -19.44 27.82 -0.87 2.96 -1.81 4.91 -1.95 4.34z"/>
  <path d="M478.25 368.92 c-6.72 -6.58 -14.74 -16.19 -16.91 -20.23 l-1.30 -2.46 3.40 -3.61 c7.44 -7.95 10.91 -16.12 10.91 -25.87 l0 -6 2.60 0 2.67 0 0.87 16.84 c1.16 22.62 1.37 24.35 2.96 24.35 0.72 0 1.45 -0.36 1.59 -0.79 0.22 -0.72 -1.01 -23.92 -1.88 -35.48 l-0.43 -5.64 1.81 0 c1.66 0 1.81 0.29 1.81 3.18 0 10.12 3.61 17.78 12.50 26.67 6.36 6.36 6.43 6.43 5.49 8.60 -2.17 5.20 -17.71 26.59 -19.29 26.59 -0.36 0 -3.40 -2.75 -6.79 -6.14z"/>
  <path d="M738.48 371.73 c-2.24 -2.67 -9.76 -7.80 -15.32 -10.41 -12.43 -5.78 -26.38 -6.58 -39.38 -2.17 -3.76 1.23 -6.87 2.17 -6.94 2.02 -0.07 -0.14 -0.94 -2.02 -1.81 -4.19 -3.40 -8.09 -12.50 -25.29 -17.63 -33.39 -9.32 -14.53 -17.27 -24.50 -30.06 -37.58 -4.12 -4.26 -7.44 -7.88 -7.23 -8.02 0.14 -0.07 1.88 -0.87 3.76 -1.81 1.88 -0.87 3.61 -2.02 3.83 -2.60 0.87 -2.24 -9.32 -21.17 -16.33 -30.42 -2.02 -2.60 -3.61 -4.99 -3.61 -5.28 0 -0.29 1.52 -1.45 3.47 -2.67 7.44 -4.70 21.39 -17.63 25.22 -23.27 1.01 -1.52 1.01 -1.88 0 -3.40 -1.73 -2.53 -16.33 -14.02 -23.41 -18.36 -3.47 -2.02 -6.36 -3.90 -6.50 -4.05 -0.14 -0.14 0.14 -1.08 0.58 -2.17 l0.87 -1.88 66.05 0 65.98 0 0 19.73 0 19.66 -6.07 -0.22 c-11.92 -0.43 -22.26 3.76 -31.72 12.94 -3.25 3.11 -6.07 5.71 -6.21 5.71 -0.14 0 -1.88 -1.52 -3.76 -3.40 -4.55 -4.48 -11.27 -8.53 -17.27 -10.48 -6.50 -2.10 -18.36 -2.60 -24.64 -1.01 -5.71 1.45 -14.81 5.78 -15.39 7.37 -0.79 2.02 0.94 3.18 4.91 3.18 10.48 0 24.28 3.04 34.04 7.44 9.90 4.41 22.26 13.01 29.20 20.31 2.89 2.96 4.84 3.32 5.85 1.01 4.12 -10.19 6.21 -14.38 9.11 -18.86 3.90 -5.85 12.50 -14.74 18.21 -18.79 l3.76 -2.67 0 74.43 c0 40.97 -0.14 74.43 -0.29 74.43 -0.14 0 -0.72 -0.51 -1.23 -1.16z"/>
  <path d="M420.59 362.48 c-2.38 -5.71 -6.29 -16.62 -7.23 -20.38 -0.94 -3.54 -0.87 -3.83 0.94 -6.21 1.08 -1.37 1.95 -2.75 1.95 -2.96 0 -0.29 -1.52 -2.17 -3.32 -4.26 l-3.40 -3.76 0.43 -6.87 c0.58 -10.26 3.69 -17.71 9.68 -23.34 l2.02 -1.95 4.63 2.89 c2.53 1.59 7.23 4.19 10.48 5.85 3.18 1.59 5.93 2.96 6 3.04 0.14 0.14 -2.89 8.67 -6.65 19.01 -3.76 10.33 -6.87 19.15 -6.87 19.58 0 1.52 2.17 1.52 3.18 -0.07 0.58 -0.87 3.83 -9.54 7.37 -19.29 3.47 -9.76 6.43 -17.78 6.43 -17.92 0.07 -0.07 3.18 0.65 6.94 1.66 3.76 1.01 9.11 2.02 11.92 2.31 l5.20 0.43 0.36 3.47 c0.65 5.20 -0.58 11.20 -3.54 17.13 -3.18 6.50 -11.56 15.25 -20.88 21.82 -6.36 4.48 -21.68 13.01 -23.41 13.01 -0.43 0 -1.45 -1.45 -2.24 -3.18z"/>
  <path d="M0 181.89 l0 -181.89 272.66 0 272.66 0 8.67 5.64 c25.65 16.84 43.43 37.87 57.16 67.71 7.15 15.61 13.95 43 13.95 56.37 0 2.96 -0.14 3.18 -2.67 4.05 -4.19 1.30 -9.03 3.90 -12.86 6.79 l-3.47 2.67 -7.37 -1.52 c-4.12 -0.79 -9.25 -1.73 -11.49 -1.95 -2.24 -0.29 -4.05 -0.79 -4.05 -1.08 0 -0.36 0.51 -3.83 1.16 -7.73 1.45 -8.74 1.81 -30.71 0.51 -32.01 -1.66 -1.66 -23.41 1.08 -38.95 4.91 -1.37 0.29 -1.59 -0.07 -2.02 -3.54 -1.16 -8.96 -10.77 -33.82 -13.08 -33.82 -3.32 0 -29.41 15.25 -33.17 19.44 -0.79 0.87 -1.59 1.52 -1.88 1.52 -0.29 0 -2.89 -3.18 -5.85 -7.01 -6 -7.88 -20.88 -23.34 -22.55 -23.34 -2.24 0 -15.90 16.98 -21.10 26.38 -1.45 2.60 -2.75 4.70 -2.89 4.70 -0.14 0 -2.02 -1.01 -4.12 -2.24 -5.71 -3.40 -18.28 -9.54 -25 -12.29 -5.85 -2.38 -6.07 -2.38 -7.08 -1.08 -2.31 3.25 -7.52 21.82 -9.03 32.45 -0.79 5.35 -1.08 6.21 -2.17 5.93 -3.69 -1.23 -18.36 -2.53 -28.04 -2.53 l-11.13 0 0.43 9.97 c0.43 9.76 1.66 18.21 3.90 26.38 0.65 2.31 0.94 4.34 0.72 4.55 -0.22 0.22 -3.11 1.01 -6.43 1.73 -9.32 2.02 -29.85 9.97 -31.15 12.07 -1.16 1.88 8.82 20.45 16.26 30.35 l4.19 5.64 -1.59 1.08 c-3.76 2.53 -11.27 8.31 -13.73 10.70 -1.95 1.88 -2.82 2.31 -3.04 1.52 -0.14 -0.58 -1.30 -4.41 -2.53 -8.60 -1.23 -4.19 -3.25 -10.33 -4.63 -13.73 -1.88 -4.99 -2.67 -6.21 -4.05 -6.36 -2.10 -0.29 -20.02 8.53 -28.18 13.95 -3.32 2.17 -6.29 3.97 -6.58 3.97 -0.29 0 -2.10 -2.38 -3.97 -5.20 -5.49 -8.38 -17.78 -22.55 -20.88 -24.21 -1.59 -0.79 -2.10 -0.51 -7.01 4.70 -7.30 7.52 -11.27 12.36 -16.19 19.66 -2.31 3.40 -4.26 6.29 -4.34 6.36 -0.14 0.14 -3.47 -1.73 -7.37 -4.19 -7.23 -4.55 -24.43 -13.22 -27.82 -14.09 -1.52 -0.36 -2.10 -0.14 -2.96 1.23 -2.46 3.76 -7.66 21.68 -10.26 34.98 -0.29 1.45 -0.36 1.45 -6.65 0.14 -8.67 -1.73 -30.28 -3.32 -31.87 -2.24 -1.08 0.65 -1.23 2.10 -1.08 10.98 0.14 8.46 1.37 20.02 2.75 24.64 0.22 0.79 -1.01 1.52 -4.63 2.67 -8.60 2.75 -30.21 12.36 -39.67 17.63 -35.77 19.95 -69.16 49.29 -92.86 81.52 l-5.56 7.52 0 -181.82z m91.49 10.91 c5.64 -12.65 16.98 -20.81 28.83 -20.81 8.09 0 17.49 4.55 22.91 11.20 1.23 1.45 3.40 4.77 4.84 7.44 1.52 2.82 3.18 4.91 3.97 5.06 1.30 0.29 1.30 0 0.72 -3.90 -0.36 -2.38 -0.65 -7.80 -0.65 -12.21 0 -7.01 0.22 -8.38 1.88 -11.92 2.75 -5.93 8.53 -11.78 14.24 -14.60 4.55 -2.24 5.28 -2.38 12.79 -2.38 7.44 0 8.24 0.14 12.94 2.38 2.67 1.23 5.35 2.31 5.93 2.31 2.46 0 1.37 -1.95 -4.26 -7.44 -6.87 -6.72 -10.12 -12.29 -11.42 -19.87 -1.52 -8.38 1.37 -17.56 7.59 -24.50 3.83 -4.26 8.60 -6.94 15.32 -8.67 4.05 -1.08 4.99 -1.59 4.99 -2.75 0 -1.30 -0.65 -1.52 -7.08 -1.95 -11.56 -0.79 -18.36 -3.83 -24.71 -10.84 -4.84 -5.42 -7.08 -10.62 -7.44 -17.63 -0.43 -7.44 0.87 -12 5.35 -18.93 3.04 -4.77 3.25 -5.42 2.24 -6.43 -1.01 -1.01 -1.52 -0.72 -5.56 2.60 -5.06 4.26 -8.17 5.93 -13.66 7.59 -13.22 3.90 -29.05 -2.89 -35.05 -15.18 -1.88 -3.83 -3.97 -11.85 -4.05 -15.25 0 -1.16 -0.43 -1.66 -1.37 -1.66 -1.88 0 -2.02 0.36 -2.96 6.21 -2.82 17.56 -17.42 28.98 -34.25 26.52 -6.72 -0.94 -11.92 -3.32 -17.63 -8.09 -4.19 -3.47 -4.70 -3.76 -5.78 -2.75 -1.01 1.01 -0.79 1.59 1.88 5.71 6.58 10.19 7.66 20.23 3.18 29.70 -5.56 11.92 -16.91 18.50 -31.80 18.57 -4.99 0 -5.28 0.07 -5.06 1.59 0.14 1.23 1.16 1.81 5.13 2.89 9.97 2.67 15.68 7.15 19.80 15.54 2.31 4.70 2.67 6.21 2.96 11.78 0.22 4.84 0 7.37 -1.01 10.55 -1.81 5.85 -6.36 12.29 -11.49 16.40 -2.38 1.88 -4.41 3.90 -4.55 4.48 -0.43 1.81 2.02 2.10 5.13 0.51 8.96 -4.41 19.66 -4.99 27.46 -1.37 13.95 6.36 20.60 22.69 15.83 39.17 -1.45 4.91 1.81 5.64 3.90 0.94z m206.61 -123.14 c12.36 -9.97 30.57 -11.78 46.32 -4.63 8.24 3.69 9.54 2.89 5.35 -3.47 -7.30 -10.91 -17.42 -15.97 -30.35 -15.10 -3.40 0.22 -8.24 1.08 -10.77 1.88 l-4.55 1.45 -3.76 -3.83 c-8.96 -9.18 -20.74 -14.81 -33.68 -16.26 -6.72 -0.72 -17.71 0 -20.16 1.37 -2.02 1.08 -1.66 3.04 0.65 3.76 11.20 3.18 16.98 5.35 20.88 7.59 8.96 5.28 17.05 14.24 21.61 23.92 3.54 7.44 3.40 7.44 8.46 3.32z"/>
  <path d="M92.64 175.53 c-1.16 -7.80 -4.26 -14.31 -9.47 -19.51 -7.23 -7.23 -18.14 -11.06 -27.10 -9.54 -2.24 0.43 -4.05 0.65 -4.05 0.51 0 -0.07 1.16 -1.81 2.53 -3.90 3.61 -5.42 5.56 -12.07 5.56 -19.51 0 -11.20 -4.55 -20.60 -12.86 -26.67 l-4.48 -3.18 5.06 -1.73 c9.97 -3.32 16.26 -8.89 20.67 -18.28 2.17 -4.55 2.60 -6.36 2.89 -11.71 0.29 -5.56 -0.29 -10.04 -1.66 -13.73 -0.29 -0.79 1.01 -0.58 5.56 1.01 17.20 5.78 35.63 -1.37 42.93 -16.55 l2.17 -4.48 1.95 4.26 c3.11 6.72 8.31 11.78 15.54 15.32 5.71 2.75 6.72 3.04 13.44 3.32 7.15 0.29 11.35 -0.58 18.64 -3.76 1.08 -0.51 1.08 -0.29 0.14 2.96 -1.66 5.42 -1.37 14.96 0.51 20.16 4.05 10.84 12.43 18.86 22.76 21.68 2.53 0.65 4.63 1.45 4.63 1.66 0 0.22 -1.52 1.23 -3.32 2.17 -9.11 4.91 -15.68 18.79 -14.45 30.86 0.72 7.01 4.77 16.91 7.66 18.72 1.81 1.16 0.36 1.52 -3.32 0.87 -8.96 -1.52 -19.87 2.31 -27.10 9.54 -5.28 5.28 -8.38 11.63 -9.47 19.44 l-0.79 5.93 -4.12 -3.90 c-6.50 -6.21 -13.73 -9.11 -22.76 -9.11 -9.03 0 -16.26 2.89 -22.76 9.11 l-4.12 3.90 -0.79 -5.85z m37.07 -24.86 c15.61 -3.25 28.91 -15.18 34.04 -30.50 7.23 -21.46 -2.96 -46.18 -22.91 -55.72 -7.30 -3.47 -12.65 -4.70 -20.88 -4.70 -12.72 0.07 -23.13 4.41 -32.23 13.59 -6.58 6.58 -10.19 12.94 -12.29 21.68 -1.73 7.37 -1.08 19.29 1.30 25.80 8.24 22.11 30.42 34.54 52.97 29.85z"/>
  <path d="M109.84 146.70 c-14.89 -4.05 -26.88 -16.04 -30.71 -30.79 -1.45 -5.49 -1.37 -15.18 0.07 -20.81 3.76 -14.53 15.83 -26.59 30.35 -30.35 5.64 -1.45 16.04 -1.52 21.54 -0.07 17.20 4.48 29.99 20.09 31.29 38.37 1.08 14.81 -6.36 29.63 -18.86 37.79 -10.19 6.65 -22.69 8.82 -33.68 5.85z m20.60 -16.48 c4.63 -2.24 9.03 -6.50 9.03 -8.82 0 -2.67 -1.59 -2.38 -4.41 0.87 -5.42 6.36 -14.09 8.02 -21.75 4.26 -5.06 -2.60 -7.59 -0.87 -3.40 2.24 5.35 3.97 13.88 4.55 20.52 1.45z m-29.63 -8.09 c2.24 -3.54 5.49 -5.35 8.60 -4.70 4.41 0.87 5.78 0.79 6.07 -0.51 0.29 -1.59 -3.32 -3.47 -6.72 -3.47 -4.99 0 -11.92 5.20 -11.92 8.96 0 3.54 1.66 3.40 3.97 -0.29z m31.87 -9.76 c3.69 -2.46 5.78 -2.89 9.25 -1.88 4.55 1.30 5.13 1.30 5.35 -0.36 0.43 -3.11 -6.87 -4.84 -12.94 -3.18 -3.11 0.87 -6.79 4.48 -6.21 6.07 0.65 1.59 1.45 1.45 4.55 -0.65z"/>
  <path d="M293.33 64.17 c-1.81 -4.34 -7.73 -12.50 -12.29 -16.98 -4.84 -4.70 -15.10 -11.35 -18.72 -12.14 -4.12 -0.87 -2.38 -1.95 2.38 -1.45 14.31 1.52 28.11 8.60 35.27 18.14 1.52 2.02 2.82 3.11 3.54 2.89 0.58 -0.14 3.04 -1.08 5.42 -1.95 3.61 -1.45 5.71 -1.73 12.65 -1.73 7.95 0 8.60 0.14 13.08 2.31 4.84 2.38 9.90 6.72 6.72 5.71 -15.32 -4.70 -30.13 -2.82 -43 5.42 -1.81 1.16 -3.47 2.10 -3.69 2.10 -0.22 0 -0.79 -1.01 -1.37 -2.31z"/>
  <path d="M139.04 361.76 c-6.65 -2.17 -15.03 -6.65 -23.05 -12.43 -7.59 -5.35 -17.71 -14.45 -17.71 -15.75 0 -0.51 2.60 -3.25 5.71 -6.14 18.57 -16.77 35.92 -25.51 48.42 -24.35 6 0.51 14.09 4.12 13.51 6 -1.23 3.97 -2.60 11.42 -3.04 16.62 l-0.51 6 -20.67 0.14 c-20.09 0.22 -20.67 0.29 -20.67 1.66 0 1.37 0.58 1.45 20.67 1.66 l20.60 0.14 0.87 7.80 c0.51 4.26 1.37 9.61 2.02 12 0.58 2.31 0.94 4.34 0.79 4.55 -0.22 0.14 -2.60 1.08 -5.28 2.02 -6.65 2.38 -14.53 2.38 -21.68 0.07z"/>
  <path d="M351.36 362.34 c-4.41 -1.16 -8.09 -2.96 -8.09 -3.90 0 -0.36 0.51 -2.75 1.08 -5.35 0.65 -2.60 1.37 -7.59 1.66 -11.06 l0.51 -6.36 20.96 -0.36 c20.38 -0.36 20.96 -0.43 20.96 -1.81 0 -1.37 -0.58 -1.45 -20.67 -1.66 l-20.74 -0.14 -0.43 -2.24 c-0.22 -1.30 -0.43 -3.47 -0.43 -4.91 0 -1.45 -0.51 -4.84 -1.16 -7.66 -2.24 -10.26 -2.46 -9.25 2.67 -11.56 11.06 -4.91 24.35 -2.38 39.96 7.80 6.29 4.12 17.27 13.08 21.39 17.49 l2.53 2.67 -5.42 5.06 c-15.97 15.03 -35.19 25.29 -47.33 25.08 -1.95 0 -5.35 -0.51 -7.44 -1.08z"/>
  <path d="M535.49 358.15 c-29.85 -13.01 -44.23 -26.59 -45.31 -43 l-0.43 -5.56 6.07 -1.30 c3.32 -0.72 8.67 -2.24 11.78 -3.40 3.18 -1.16 5.85 -1.95 6 -1.88 0.14 0.14 3.97 8.38 8.60 18.28 4.55 9.90 8.60 18.28 8.89 18.57 0.65 0.65 2.96 -0.14 2.96 -1.01 0 -0.36 -3.76 -8.74 -8.31 -18.64 -4.55 -9.83 -8.31 -18.28 -8.31 -18.72 0 -0.43 1.81 -1.81 4.05 -3.04 2.17 -1.30 6.58 -4.26 9.76 -6.58 l5.78 -4.34 2.75 2.17 c10.41 8.24 13.80 22.76 10.19 43.94 -2.31 13.22 -6.43 27.03 -8.17 26.88 -0.51 0 -3.32 -1.08 -6.29 -2.38z"/>
  <path d="M574.15 324.47 c-4.77 -0.29 -11.06 -0.94 -13.88 -1.45 l-5.28 -0.87 0 -5.49 c0 -11.13 -3.69 -20.38 -10.84 -27.82 -3.32 -3.40 -4.12 -4.63 -3.54 -5.35 1.45 -1.66 2.75 -1.01 8.46 4.34 16.04 15.10 23.34 21.46 24.71 21.46 2.46 0 1.59 -2.02 -2.31 -5.71 -2.10 -1.88 -8.24 -7.44 -13.59 -12.36 -14.53 -13.22 -13.15 -11.63 -11.49 -13.66 l1.37 -1.66 3.76 3.47 c7.15 6.36 16.33 9.32 27.89 8.89 l6.58 -0.29 1.81 7.59 c1.73 7.30 2.67 13.59 3.69 24.06 l0.51 4.84 -3.61 0 c-2.02 0 -4.05 0.14 -4.63 0.22 -0.51 0.14 -4.84 0.07 -9.61 -0.22z"/>
  <path d="M402.88 319.70 c-1.59 -1.37 -4.41 -3.47 -6.36 -4.70 l-3.40 -2.24 4.26 -4.84 c10.04 -11.27 17.56 -19.22 18.43 -19.44 0.51 -0.14 1.37 0.29 1.88 0.94 0.79 1.01 0.58 1.52 -1.59 3.83 -6.07 6.29 -8.96 13.08 -9.83 23.20 l-0.51 5.71 -2.89 -2.46z"/>
  <path d="M387.20 308.36 l-2.60 -1.66 3.90 -5.71 c3.18 -4.70 4.70 -6.14 8.02 -7.95 2.31 -1.16 6.21 -4.12 8.74 -6.43 l4.55 -4.26 1.59 1.52 c1.16 1.16 1.37 1.88 0.87 2.60 -1.30 1.81 -21.68 23.56 -22.04 23.56 -0.22 0 -1.59 -0.79 -3.04 -1.66z"/>
  <path d="M459.25 304.96 c-12.94 -2.75 -25.51 -8.31 -35.41 -15.75 -6.94 -5.13 -16.33 -14.74 -20.38 -20.74 -6.87 -10.26 -12.21 -23.56 -14.38 -35.77 -1.73 -10.04 -1.08 -26.09 1.45 -35.55 7.80 -29.20 29.92 -53.26 57.45 -62.37 10.33 -3.40 15.61 -4.19 27.89 -4.26 12.36 -0.07 18.72 0.87 28.40 4.26 20.09 6.94 36.57 20.45 47.70 38.95 3.97 6.65 8.31 17.92 10.26 26.81 2.46 10.91 2.38 26.09 -0.14 36.93 -2.10 8.89 -4.63 15.90 -8.02 21.97 -13.51 24.43 -34.62 40.11 -61.14 45.53 -9.54 1.95 -24.43 1.95 -33.68 0z m33.60 -56.22 c8.60 -3.04 12.14 -5.64 10.26 -7.52 -0.58 -0.58 -2.31 -0.14 -6.43 1.73 -9.68 4.48 -16.91 5.20 -26.52 2.75 -9.83 -2.46 -17.63 -7.66 -23.20 -15.18 -2.67 -3.69 -4.41 -4.48 -5.13 -2.53 -1.08 2.75 9.39 13.59 16.84 17.56 7.30 3.90 13.73 5.28 22.62 4.91 4.99 -0.22 8.96 -0.79 11.56 -1.73z m26.38 -15.61 c5.20 -2.17 6.14 -9.32 1.73 -13.01 -2.82 -2.38 -7.52 -2.60 -10.26 -0.36 -4.48 3.47 -3.83 11.13 1.08 13.30 3.04 1.30 4.41 1.30 7.44 0.07z m-77.97 -16.91 c5.85 -4.70 2.75 -14.60 -4.63 -14.60 -5.06 0 -8.02 3.04 -8.09 8.17 0 3.04 0.29 3.83 2.24 5.64 1.81 1.66 2.89 2.10 5.64 2.10 2.02 0 3.90 -0.51 4.84 -1.30z"/>
  <path d="M123.50 299.76 c-4.05 -5.78 -11.92 -21.32 -12.65 -24.86 l-0.43 -2.24 6.43 -2.38 c6.36 -2.31 24.57 -7.23 26.88 -7.23 0.79 0 1.73 1.52 2.89 4.77 2.10 5.93 7.88 14.67 11.56 17.56 2.89 2.31 11.27 6.58 12.94 6.58 1.08 0 1.08 1.45 -0.07 2.96 -0.79 1.08 -2.82 0.36 -19.22 -6.29 -10.12 -4.12 -18.79 -7.52 -19.29 -7.52 -1.45 0 -2.02 1.52 -0.94 2.53 0.94 0.94 18.93 8.53 31.58 13.37 5.42 2.10 5.93 2.46 5.49 3.83 -0.79 2.75 -1.52 2.89 -6.36 0.94 -9.11 -3.69 -20.02 -3.11 -29.99 1.37 -2.10 1.01 -4.12 1.81 -4.48 1.81 -0.36 0 -2.31 -2.38 -4.34 -5.20z"/>
  <path d="M373.97 301.85 c-5.28 -2.02 -6.58 -2.24 -14.45 -2.24 -8.02 -0.07 -8.96 0.07 -13.01 1.95 -4.05 1.88 -4.34 1.95 -5.20 0.79 -2.10 -2.89 -1.30 -3.61 9.76 -8.09 25.87 -10.62 28.33 -12 26.38 -13.95 -0.65 -0.65 -3.18 0.14 -10.48 3.32 -5.28 2.31 -13.80 5.93 -18.93 8.02 -8.67 3.69 -9.39 3.83 -10.26 2.67 -1.23 -1.66 -1.23 -2.38 -0.07 -2.38 2.10 0 11.20 -5.06 14.09 -7.88 5.06 -4.91 9.25 -12.14 12 -20.60 0.36 -1.16 0.94 -1.23 3.90 -0.79 8.53 1.23 30.42 7.95 31 9.54 0.51 1.37 -8.89 20.31 -13.30 26.59 -1.88 2.75 -3.97 5.06 -4.55 5.13 -0.58 0.07 -3.69 -0.87 -6.87 -2.10z"/>
  <path d="M398.62 282.92 c1.73 -3.76 3.18 -7.15 3.18 -7.59 0 -0.36 0.29 -0.72 0.65 -0.72 0.72 0 4.41 4.12 4.41 4.99 0 0.79 -7.95 8.31 -9.90 9.32 -1.37 0.79 -1.16 0.07 1.66 -6z"/>
  <path d="M170.76 287.98 c-7.37 -2.24 -14.38 -8.46 -18.36 -16.40 -4.34 -8.60 -8.02 -25.29 -8.96 -40.97 l-0.51 -8.24 10.70 0.43 c27.89 1.08 47.33 9.39 53.77 23.05 2.89 6 2.82 7.15 -0.51 8.89 -1.52 0.79 -5.78 3.83 -9.54 6.72 l-6.79 5.35 -14.16 -14.16 c-7.80 -7.80 -14.74 -14.16 -15.39 -14.16 -0.65 0 -1.45 0.36 -1.66 0.79 -0.29 0.36 6.07 7.37 14.09 15.54 l14.67 14.74 -2.67 3.11 c-1.45 1.66 -4.48 5.78 -6.72 9.18 -2.24 3.40 -4.26 6.36 -4.48 6.58 -0.22 0.29 -1.81 0.07 -3.47 -0.43z"/>
  <path d="M331.55 283.06 c-1.88 -2.82 -5.06 -7.15 -7.01 -9.54 l-3.61 -4.34 14.60 -14.60 c13.88 -13.95 14.53 -14.74 13.30 -15.90 -1.16 -1.23 -1.95 -0.51 -15.90 13.37 l-14.67 14.67 -5.13 -4.26 c-2.82 -2.38 -7.08 -5.49 -9.54 -7.01 -2.46 -1.52 -4.41 -3.25 -4.41 -3.90 0 -0.65 0.94 -3.18 2.17 -5.71 6.50 -13.80 25.87 -22.04 55.50 -23.63 l8.82 -0.51 0 4.91 c0 7.59 -1.88 22.26 -3.90 30.21 -3.90 15.25 -11.78 26.52 -20.88 29.92 -2.31 0.87 -4.55 1.59 -5.06 1.59 -0.51 0 -2.38 -2.38 -4.26 -5.28z"/>
  <path d="M567.79 283.57 c-6.29 -1.52 -13.88 -5.85 -16.12 -9.32 -1.08 -1.66 -1.01 -1.95 1.16 -5.13 2.89 -4.12 8.67 -15.39 8.67 -16.77 0 -0.58 0.43 -0.87 0.94 -0.72 0.43 0.22 9.25 3.40 19.51 7.08 13.59 4.91 18.86 6.50 19.44 5.93 1.52 -1.52 -0.14 -2.89 -6.43 -5.13 -21.54 -7.73 -30.93 -11.20 -31.15 -11.35 -0.14 -0.07 0.58 -3.97 1.59 -8.67 1.01 -4.77 2.02 -10.12 2.24 -12 l0.43 -3.32 4.19 -0.51 c16.12 -1.88 33.46 13.08 47.48 40.90 1.81 3.61 3.11 7.01 2.96 7.44 -0.22 0.51 -3.76 2.24 -7.88 3.83 -19.15 7.66 -36.06 10.41 -47.04 7.73z"/>
  <path d="M392.19 265.21 c-3.11 -1.08 -5.78 -2.17 -6 -2.38 -0.22 -0.14 1.37 -1.01 3.40 -1.88 2.02 -0.94 3.97 -1.37 4.26 -1.01 0.65 0.72 4.48 7.44 4.19 7.37 -0.14 -0.07 -2.75 -1.01 -5.85 -2.10z"/>
  <path d="M371.81 259.58 c-3.18 -0.58 -5.85 -1.16 -6 -1.30 -0.14 -0.07 0.29 -3.04 1.01 -6.50 0.65 -3.54 1.37 -8.89 1.66 -11.85 l0.43 -5.35 2.53 -0.58 c1.37 -0.29 4.99 -0.72 8.02 -1.01 l5.49 -0.43 0.94 4.55 c0.79 3.97 3.76 13.37 5.42 17.42 0.43 1.08 -0.51 1.73 -4.99 3.83 -6.07 2.82 -6.29 2.82 -14.53 1.23z"/>
  <path d="M704.95 258.64 c-1.08 -1.73 -14.81 -12.07 -20.23 -15.25 -9.83 -5.71 -22.76 -10.12 -32.88 -11.20 -2.38 -0.22 -4.55 -0.65 -4.70 -1.01 -0.22 -0.29 1.88 -1.01 4.63 -1.66 14.53 -3.32 28.26 0.79 38.81 11.63 2.82 2.89 5.49 5.28 5.93 5.28 0.43 0 2.24 -1.95 4.12 -4.26 5.56 -7.30 13.51 -12.72 21.68 -14.89 7.23 -1.88 7.37 -1.52 1.66 4.19 -2.89 2.89 -6.79 7.52 -8.60 10.26 -3.54 5.35 -8.60 14.81 -8.60 16.12 0 1.16 -1.30 1.73 -1.81 0.79z"/>
  <path d="M212.39 248.09 c-3.25 -10.26 -10.55 -17.20 -23.34 -22.40 -5.49 -2.17 -5.85 -2.46 -5.64 -4.34 0.65 -6 7.15 -28.76 9.25 -32.09 0.72 -1.16 27.68 13.15 31.87 16.84 l1.52 1.45 -1.73 3.69 c-4.41 9.61 -4.99 21.54 -1.45 29.92 1.01 2.46 1.88 4.63 1.88 4.84 0 0.22 -4.12 1.88 -4.70 1.88 -0.14 0 -3.69 -8.17 -7.95 -18.14 -7.59 -17.71 -9.18 -20.60 -10.55 -19.80 -1.30 0.87 -0.51 3.25 7.23 21.17 7.30 16.84 7.80 18.28 6.58 18.93 -1.95 1.01 -1.95 1.01 -2.96 -1.95z"/>
  <path d="M292.82 249.89 c-1.95 -1.01 -2.46 0.58 6.14 -20.31 3.76 -9.25 7.01 -17.34 7.23 -17.99 0.51 -1.73 -1.88 -2.60 -3.04 -1.08 -0.43 0.65 -4.05 9.18 -7.95 18.93 -7.01 17.34 -7.23 17.78 -9.03 17.34 -1.01 -0.29 -1.88 -0.58 -1.95 -0.65 -0.14 -0.14 0.65 -2.31 1.66 -4.84 3.69 -8.96 3.11 -20.23 -1.52 -30.79 -1.01 -2.24 -1.81 -4.34 -1.81 -4.63 0 -1.16 11.56 -8.24 21.61 -13.30 7.44 -3.69 9.83 -4.63 10.26 -3.83 2.02 3.25 9.97 30.42 10.04 34.33 0 0.43 -1.23 1.23 -2.67 1.66 -10.84 3.47 -19.95 11.20 -24.06 20.45 -1.37 3.04 -2.67 5.56 -2.89 5.49 -0.22 0 -1.08 -0.36 -2.02 -0.79z"/>
  <path d="M228 243.32 c-0.58 -0.87 -1.73 -3.61 -2.60 -6.14 -4.77 -14.38 3.40 -33.24 24.35 -56.01 l4.70 -5.20 4.70 5.06 c12.07 13.08 21.82 28.76 24.57 39.38 1.66 6.65 1.16 14.31 -1.37 19.80 -1.88 4.12 -2.02 4.19 -4.34 3.83 -1.23 -0.22 -5.06 -0.94 -8.46 -1.52 -3.40 -0.65 -7.66 -1.16 -9.54 -1.16 l-3.47 0 0 -20.02 c0 -11.06 -0.29 -20.52 -0.65 -21.10 -0.36 -0.58 -1.16 -0.79 -1.81 -0.58 -1.01 0.43 -1.16 2.82 -1.16 20.74 0 15.61 -0.22 20.31 -0.87 20.52 -0.51 0.14 -4.19 0.65 -8.17 1.08 -3.97 0.43 -8.96 1.30 -11.06 1.81 -3.61 1.01 -3.83 0.94 -4.84 -0.51z"/>
  <path d="M601.90 232.26 c-3.83 -3.97 -12.57 -9.54 -17.13 -10.91 -2.60 -0.72 -6.43 -1.16 -10.41 -1.16 l-6.36 0.07 0 -2.31 0 -2.31 20.38 -1.23 c11.20 -0.65 20.74 -1.59 21.10 -1.95 0.51 -0.51 0.36 -1.08 -0.29 -1.73 -0.94 -0.79 -3.54 -0.79 -16.62 0 -8.53 0.51 -17.56 0.94 -19.95 0.94 -4.19 0.07 -4.48 0 -4.77 -1.73 -0.36 -1.66 -0.22 -1.81 2.67 -1.81 10.19 0 18.93 -4.05 27.53 -12.79 l5.85 -5.93 4.91 2.89 c8.74 5.13 23.49 16.62 23.49 18.28 0 1.30 -13.88 14.67 -19.51 18.79 -7.88 5.78 -8.02 5.85 -10.91 2.89z"/>
  <path d="M369.28 228.50 c0 -2.67 1.08 -3.04 9.25 -3.04 5.78 0 5.93 0.07 5.93 1.73 0 1.59 -0.29 1.66 -5.93 2.17 -3.32 0.29 -6.72 0.65 -7.59 0.94 -1.45 0.29 -1.66 0.07 -1.66 -1.81z"/>
  <path d="M328.09 219.83 c0 -2.53 0.43 -3.18 4.19 -6.36 5.28 -4.55 9.18 -7.59 12.65 -9.61 l2.67 -1.66 4.55 4.12 c4.70 4.26 12.36 8.46 17.85 9.68 1.81 0.43 5.64 0.79 8.53 0.79 l5.20 0 0 2.53 0 2.53 -4.99 0 c-2.75 0 -6 0.22 -7.23 0.43 -2.10 0.43 -2.24 0.36 -2.24 -1.81 l0 -2.24 -6.79 0 c-10.55 0 -26.30 1.95 -33.10 4.05 -1.08 0.29 -1.30 -0.07 -1.30 -2.46z"/>
  <path d="M370.22 212.10 c-8.53 -2.31 -16.40 -8.09 -23.92 -17.56 -7.95 -9.97 -18.43 -28.40 -16.98 -29.77 1.30 -1.37 17.63 -7.44 25.51 -9.61 7.52 -2.02 9.32 -2.24 19.15 -2.24 13.22 -0.07 16.77 1.01 23.49 7.23 l4.26 3.97 -2.89 4.48 c-1.59 2.46 -4.26 7.15 -5.85 10.48 -1.59 3.25 -3.25 5.93 -3.76 5.93 -0.43 0 -3.40 -1.01 -6.58 -2.24 -12.29 -4.77 -29.41 -10.77 -30.64 -10.77 -2.31 0 -2.38 2.02 -0.22 3.11 1.08 0.58 9.83 3.90 19.51 7.37 13.80 5.06 17.49 6.65 17.27 7.52 -2.17 7.59 -3.47 13.59 -3.90 17.56 -0.36 4.05 -0.65 4.84 -1.95 5.20 -2.60 0.72 -8.60 0.36 -12.50 -0.65z"/>
  <path d="M567 203.64 c-0.14 -0.51 -0.94 -3.83 -1.81 -7.44 -0.87 -3.54 -2.38 -8.38 -3.32 -10.77 -0.94 -2.38 -1.66 -4.41 -1.59 -4.48 0.07 -0.07 8.09 -3.83 17.85 -8.24 9.76 -4.48 18.14 -8.53 18.72 -9.11 0.51 -0.51 0.79 -1.45 0.51 -2.10 -0.58 -1.59 -0.65 -1.59 -21.17 7.95 l-17.49 8.17 -3.25 -5.64 c-1.81 -3.11 -4.77 -7.52 -6.58 -9.76 -2.24 -2.75 -3.18 -4.48 -2.89 -5.35 0.72 -2.38 7.52 -8.02 12.14 -10.19 2.46 -1.16 6.94 -2.46 9.90 -2.96 6.58 -1.01 18.50 -0.51 26.38 1.16 7.15 1.45 23.49 6.79 23.49 7.66 0 1.16 -4.34 11.49 -7.30 17.49 -6.65 13.22 -16.33 25.37 -23.92 29.92 -6.29 3.83 -18.93 6.14 -19.66 3.69z"/>
  <path d="M611.37 177.27 c0 -0.36 0.87 -2.02 1.88 -3.83 2.31 -4.05 5.71 -11.85 7.88 -18.28 l1.73 -4.84 -1.59 -1.01 c-0.87 -0.51 -3.61 -1.66 -6.07 -2.60 -4.55 -1.59 -4.55 -1.59 -2.89 -2.89 2.75 -2.17 10.48 -5.78 14.74 -6.87 2.46 -0.65 7.37 -1.08 11.92 -1.08 5.64 0 7.80 -0.22 7.80 -0.87 0 -0.51 -1.30 -3.54 -2.96 -6.79 -3.97 -8.09 -5.49 -15.97 -4.48 -23.20 1.59 -10.84 8.17 -20.02 17.85 -24.79 4.19 -2.10 5.93 -2.53 11.20 -2.75 5.13 -0.22 6.94 0 10.41 1.30 7.59 2.82 13.73 8.89 16.84 16.55 2.17 5.42 3.40 5.49 5.78 0.51 2.82 -5.93 6.87 -10.12 12.43 -12.86 4.41 -2.17 5.42 -2.38 11.35 -2.31 4.99 0 7.44 0.36 10.70 1.66 l4.12 1.59 0 46.97 0 46.90 -64.32 0 c-35.34 0 -64.32 -0.22 -64.32 -0.51z"/>
  <path d="M402.01 159.49 c-2.24 -2.89 -7.95 -6.79 -12.29 -8.53 -3.25 -1.23 -6.36 -1.66 -13.95 -2.02 l-9.76 -0.43 -1.88 -7.59 c-2.10 -8.31 -3.54 -18.28 -3.54 -24.71 l0 -4.19 7.23 0 c7.95 0 19.44 1.08 25.22 2.38 l3.76 0.87 0.29 6.14 c0.65 12.14 3.47 19.15 10.55 26.09 4.70 4.70 4.77 4.84 3.40 6 -0.79 0.72 -1.66 1.16 -2.02 1.01 -0.29 -0.14 -7.15 -6.36 -15.18 -13.80 -8.02 -7.52 -14.96 -13.44 -15.39 -13.30 -2.31 0.72 -0.72 3.04 7.95 11.06 5.06 4.77 11.85 11.13 15.03 14.16 5.71 5.49 5.71 5.56 4.41 7.01 -1.73 1.95 -2.17 1.88 -3.83 -0.14z"/>
  <path d="M540.69 152.99 l-1.52 -1.59 12.65 -13.73 c6.94 -7.59 13.15 -14.45 13.73 -15.32 1.16 -1.66 0.87 -3.11 -0.72 -3.11 -0.51 0 -5.64 5.13 -11.35 11.35 -18.28 20.02 -16.69 18.50 -18.57 17.20 l-1.66 -1.23 3.61 -3.90 c6.50 -7.08 8.74 -14.02 8.74 -26.96 l0 -7.80 4.55 -1.23 c7.80 -2.10 15.83 -3.32 23.92 -3.83 l7.88 -0.43 -0.43 13.66 c-0.22 7.52 -0.87 15.75 -1.37 18.36 l-0.94 4.70 -6.87 0.51 c-11.78 0.79 -19.51 4.19 -26.30 11.42 -1.88 2.02 -3.47 3.61 -3.61 3.61 -0.07 0 -0.87 -0.72 -1.73 -1.66z"/>
  <path d="M410.32 145.11 c-5.64 -5.35 -8.09 -10.55 -9.25 -19.73 -0.72 -5.71 0.14 -18.43 1.81 -26.45 1.73 -8.46 6.29 -22.33 7.30 -22.33 3.04 0 25.37 11.13 32.45 16.26 8.96 6.36 15.90 14.96 18.07 22.33 1.37 4.48 1.45 11.92 0.22 12.29 -0.51 0.14 -3.76 0.87 -7.23 1.73 -3.47 0.79 -8.24 2.31 -10.70 3.25 l-4.34 1.81 -3.69 -7.73 c-2.02 -4.19 -5.93 -12.65 -8.74 -18.64 -3.90 -8.38 -5.49 -11.06 -6.50 -11.06 -0.79 0 -1.30 0.51 -1.30 1.45 0 0.79 3.61 9.18 8.02 18.57 4.41 9.47 8.17 17.56 8.38 17.99 0.14 0.43 -2.02 2.17 -4.77 3.83 -2.82 1.66 -7.23 4.63 -9.83 6.58 -2.53 2.02 -4.91 3.61 -5.28 3.61 -0.36 0 -2.38 -1.73 -4.63 -3.76z"/>
  <path d="M527.54 141.93 c-3.69 -2.60 -12.21 -7.23 -15.32 -8.31 -1.52 -0.51 -2.75 -1.16 -2.75 -1.45 0 -0.65 3.69 -11.06 9.25 -26.30 4.19 -11.42 4.63 -13.66 2.46 -13.22 -1.52 0.29 -1.59 0.43 -8.89 20.31 -3.61 9.83 -6.72 17.85 -6.87 17.85 -0.14 0 -2.53 -0.58 -5.20 -1.37 -2.67 -0.72 -7.73 -1.73 -11.35 -2.24 -3.54 -0.58 -6.72 -1.30 -7.01 -1.73 -1.08 -1.52 -0.58 -9.76 0.87 -14.24 3.90 -12.65 19.08 -26.38 41.77 -37.79 l5.28 -2.67 1.81 4.12 c2.96 6.79 8.02 22.62 9.25 29.12 1.66 8.60 1.52 19.01 -0.29 24.86 -1.66 5.28 -5.06 10.70 -8.31 13.15 l-2.17 1.66 -2.53 -1.73z"/>
  <path d="M629.43 128.49 c0 -1.73 -0.51 -6.43 -1.08 -10.55 -6.94 -49 -31.36 -88.53 -71.90 -116.64 -1.73 -1.16 -0.51 -1.23 23.63 -1.23 l25.44 -0.07 5.28 6 c17.13 19.22 31 41.99 39.24 64.39 2.46 6.79 2.60 7.23 1.30 7.88 -3.04 1.66 -10.91 10.48 -12.79 14.45 -2.24 4.84 -4.05 12.36 -4.05 17.13 0 4.63 1.81 12.50 3.97 17.13 1.01 2.24 1.81 4.12 1.81 4.26 0 0.14 -2.46 0.29 -5.42 0.29 l-5.42 0 0 -3.04z"/>
  <path d="M465.39 123.29 c0 -10.19 -3.61 -17.92 -12.43 -26.67 l-6.43 -6.36 3.04 -5.06 c4.55 -7.80 16.19 -22.98 17.63 -23.05 1.59 0 17.78 17.42 22.33 24.14 l2.82 4.12 -2.53 2.67 c-7.95 8.24 -11.56 16.19 -11.85 26.16 -0.22 6.79 -0.29 6.87 -2.17 7.08 -1.08 0.14 -2.17 0 -2.53 -0.36 -0.29 -0.29 -1.16 -9.32 -1.81 -20.09 -1.23 -19.80 -1.88 -22.91 -4.05 -20.74 -0.65 0.65 -0.58 4.99 0.36 19.08 1.59 23.56 1.66 22.26 -0.58 22.26 -1.66 0 -1.81 -0.29 -1.81 -3.18z"/>
  <path d="M699.53 86.43 c0 -2.67 -4.63 -18.21 -8.74 -29.20 -6.21 -16.77 -18.72 -41.19 -27.10 -53.12 -1.37 -1.88 -2.46 -3.54 -2.46 -3.76 0 -0.22 8.89 -0.36 19.80 -0.36 l19.80 0 1.66 2.75 c9.97 16.62 24.21 51.45 28.33 69.16 l1.01 4.34 -7.30 0 c-6.87 0 -7.66 0.14 -12.21 2.38 -2.67 1.37 -6.50 4.05 -8.46 6 -1.95 1.95 -3.76 3.54 -3.97 3.54 -0.22 0 -0.36 -0.79 -0.36 -1.73z"/>
  <path d="M691.73 81.88 c-7.52 -7.59 -20.67 -10.91 -30.93 -7.80 -4.41 1.30 -4.63 1.30 -4.63 0.07 0 -1.95 -6.58 -17.42 -11.78 -27.46 -7.59 -14.89 -16.62 -28.11 -29.27 -43 l-3.18 -3.69 21.75 0 21.68 0 3.54 5.28 c10.33 15.39 19.15 32.16 25.65 48.56 4.19 10.70 10.19 28.91 9.76 29.92 -0.14 0.29 -1.30 -0.51 -2.60 -1.88z"/>
  <path d="M737.47 78.19 c-0.43 -0.29 -1.16 -2.46 -1.66 -4.84 -1.16 -5.71 -6.43 -22.62 -10.12 -32.16 -4.55 -11.85 -7.73 -19.08 -13.59 -30.13 -2.96 -5.71 -5.35 -10.48 -5.35 -10.70 0 -0.22 7.52 -0.36 16.62 -0.36 l16.62 0 0 39.38 c0 40.18 0 40.61 -2.53 38.81z"/>
 </g>
</svg>