<?xml version="1.0" encoding="UTF-8"?>
<svg xmlns="http://www.w3.org/2000/svg" viewBox="0 0 740 740" width="740" height="740">
<path d="M0.25 0.25C182.54 0.22 364.82 0.19 547.11 0.17C555.28 6.18 564.23 10.71 571.86 17.62C604.18 46.92 625.26 89.65 625.97 133.5C621.51 135.4 616.92 136.71 612.71 139.2C610.63 140.43 607.75 143.61 605.45 144.01C602.7 144.49 599.12 142.76 596.41 142.24C591.8 141.36 587.08 141.04 582.5 140.03C582.45 136.52 583.53 133.02 583.97 129.5C585.15 119.98 586.38 108.9 584.23 99.5C572.08 97.11 556.5 102.36 544.5 104.8C541.09 94.06 538.11 75.33 530.5 66.97C517.85 72.2 506.04 79.4 495.5 88.1C492.22 85.75 489.97 81.4 487.44 78.11C482.06 71.13 474.53 61.63 466.5 57.86C456.82 66.41 450.03 77.99 443.5 88.96C431.54 84.2 420.79 74.19 407.5 72.85C401.58 85.14 400.49 98.49 397.4 111.5C385.72 110.42 368.81 106.26 357.5 109.58C355.9 118.89 358.36 130.15 360.27 139.38C361.01 142.91 362.51 146.5 362.5 150.03C350.07 153.7 335.52 155.7 324.75 163.5C327.29 175.1 337.64 189.43 345.27 198.5C339.01 203.72 332.76 208.95 326.5 214.17C322.83 204.22 319.17 194.28 315.5 184.33C306.95 185.98 297.93 191.45 290.54 195.99C286.88 198.24 283.45 201.27 279.5 202.78C273.19 191.97 264.64 179.84 254.5 172.3C243.03 178.87 235.82 194.85 227.5 204.47C216.48 196.25 204.27 190.21 191.5 185.23C188.81 187.74 187.86 191.75 186.63 195.21C183.42 204.29 181.66 213.49 179.5 222.82C167 221.71 153.09 216.7 140.5 219.69C138.5 231.55 142.03 243.7 142.97 255.5C131.37 260.99 118.29 264.16 107.12 270.58C83.73 284.03 61.44 298.64 41.5 316.98C31.45 326.22 22.09 336.41 13.48 347C9.09 352.39 5.33 359.63 0.17 364.12C0.19 242.83 0.22 121.54 0.25 0.25ZM552.87 0.17C570.95 0.17 589.02 0.17 607.1 0.17C612.04 6.3 617.58 11.88 622.37 18.17C635.92 35.95 646.61 56.26 653.57 77.5C651.21 79.67 648.4 81.33 646.11 83.62C637.79 91.94 634.54 103.96 636.05 115.5C636.85 121.61 640.09 126.77 641.53 132.5C637.26 132.5 633 132.5 628.73 132.5C625.97 92.03 610.71 53.63 582.42 24.08C577.04 18.46 571.14 13.19 564.89 8.55C561.05 5.69 556.24 3.43 552.87 0.17ZM611.01 0.17C626.31 0.17 641.61 0.17 656.91 0.17C659.28 6.45 664.75 12.41 668.23 18.28C677.24 33.46 684.61 49.64 690.13 66.41C692.21 72.75 695.32 80.23 695.5 86.87C682.57 75.31 674.76 69.69 656.5 76.34C653.9 72.28 652.68 67.19 650.8 62.7C647.33 54.44 643.43 46.34 638.98 38.56C634.22 30.22 628.85 22.17 622.99 14.56C619.2 9.64 614.5 5.25 611.01 0.17ZM659.98 0.17C674 0.17 688.02 0.17 702.03 0.17C711.22 17.56 719.87 34.7 726.14 53.41C728.65 60.9 732.27 69.5 732.5 77.4C722.58 75.75 713.38 77.41 705.7 84.17C703.4 86.2 701.76 88.94 699.5 90.83C693.86 71.84 689.08 53.19 680.33 35.22C676.46 27.27 672.15 19.51 667.49 12C665.07 8.09 661.86 4.33 659.98 0.17ZM705.05 0.17C716.62 0.19 728.18 0.22 739.75 0.25C739.78 26.87 739.81 53.49 739.83 80.11C738.5 79.72 737.08 79.48 736.11 78.31C734.37 76.2 731.66 62.49 730.59 58.86C724.46 38.18 715.09 19.16 705.05 0.17ZM120.5 14.65C118.88 16.55 120.39 13.5 119.14 15.65C118.35 17 118.76 19.52 118.52 21.07C117.76 25.91 116.08 30.7 113.28 34.76C104.67 47.31 87.73 51.96 73.93 45.53C68.77 43.13 65.33 38.33 60.5 35.97C60.11 39.42 62.61 41.16 64.33 44.18C66.51 48.03 67.75 52.08 68.35 56.45C70.37 71.21 59.34 85.83 45.27 89.66C39.66 91.18 33.5 89.82 28.23 91.5C31.08 94.52 39.04 95.38 43.31 98.15C56.55 106.75 60.94 124.16 53.61 138.16C51.64 141.91 48.96 145.46 45.74 148.23C43.34 150.31 40.29 151.59 39.5 154.45C42.48 154.84 45.13 152.56 47.99 151.5C51.97 150.03 56.24 149.17 60.5 149.27C75.74 149.64 88.43 162.55 89.74 177.51C90.27 183.54 88.52 188.73 87.5 194.54C89.59 194.39 87.44 195.52 89.31 194.9C90.14 194.63 90.49 193 90.8 192.3C92.3 188.91 94.1 185.8 96.47 182.94C101.76 176.53 109.28 172.18 117.64 171.38C127.35 170.46 137.71 175.11 143.73 182.75C145.12 184.52 150.35 194.54 150.78 194.82C152.28 195.78 150.77 194.45 152.5 195.14C152.54 189.74 150.03 184.44 150.45 178.75C151.62 162.9 164.14 149.39 180.5 149.27C184.45 149.24 188.45 150.08 192.15 151.43C195.19 152.55 197.69 154.7 200.85 154.5C199.44 150.8 190.43 144.79 187.25 139.27C179.28 125.45 183.15 107.77 196.17 98.65C200.87 95.36 208.64 94.77 212.08 91.5C206.65 89.93 200.53 91.21 194.8 89.6C179.61 85.32 169.82 70.05 172.16 54.51C172.77 50.48 174.47 46.56 176.61 43.11C177.93 40.97 180.44 39 180.2 36.5C176.97 36.75 175.03 39.87 172.36 41.91C168.85 44.59 164.61 46.69 160.29 47.67C146.14 50.88 131.06 43.92 124.7 30.78C122.2 25.6 122.1 19.98 120.5 14.65ZM120.5 27.25C128.77 49.73 150.69 56.32 171.5 45.86C171.16 51.1 168.93 55.97 169.25 61.5C170.36 80.53 182.96 88.27 199.22 93.5C195.14 96.6 190.76 98.88 187.52 103.06C176.05 117.86 180.02 133.45 189.75 147.5C185.06 147.71 180.38 146.42 175.54 147.15C162.8 149.09 152.15 159.12 149.04 171.54C148.1 175.29 148.15 179.14 147.5 182.88C144.99 180.43 142.8 177.64 139.99 175.49C129.64 167.54 114.99 166.74 103.73 173.23C99.25 175.82 96.27 179.69 92.5 182.95C92.05 178.76 92.12 174.66 90.94 170.55C87.47 158.46 77.03 148.91 64.48 147.12C59.73 146.44 55.18 147.35 50.5 147.64C53.01 143.16 56.3 139.51 57.99 134.46C62.39 121.26 58.29 106.78 47.58 97.94C45.52 96.24 43.11 95.09 41 93.5C57.1 88.44 69.95 80.2 71.06 61.5C71.39 55.93 69.49 51.23 68.5 45.96C71.85 47.24 75.01 49.06 78.54 49.92C90.48 52.84 104.22 49.46 112.57 40.08C115.94 36.29 117.28 30.58 120.5 27.25ZM304.5 51.4C301.58 49.2 299.32 46.29 296.48 43.99C286.26 35.7 273.66 30.92 260.5 30.86C255.62 30.84 249.73 30.7 245.69 33.5C270.91 38.58 282.35 48.9 293.5 71.58C296.02 69.98 298.2 67.86 300.72 66.22C310.79 59.66 323.65 57.97 335.2 60.4C340.97 61.61 346.43 66.09 351.5 66.84C347.8 62.11 343.08 56.12 337.94 52.54C328.4 45.89 314.74 47.63 304.5 51.4ZM303.5 52.72C320.86 48.44 332.85 45.7 345.29 61.5C340.06 61.81 334.02 58.81 328.47 58.28C316.47 57.13 303.32 61.51 294.5 69.69C292.64 67.19 291.57 64.32 290.01 61.57C286.13 54.75 280.69 48.76 274.47 43.99C270.24 40.75 265.39 38.09 260.43 36.14C257.33 34.93 253.99 34.29 251.52 32.5C272.34 29.85 289.44 37.91 303.5 52.72ZM114.8 60.43C108.22 61.28 101.97 63.35 96.3 66.82C56.45 91.2 76.54 155.24 123.5 150.95C130.26 150.34 136.66 148.34 142.6 145.09C185.32 121.72 163.34 54.19 114.8 60.43ZM467.5 61.23C476.55 69.75 487.26 79.16 492.76 90.5C482 101.57 476.62 111.1 478.77 126.98C476.68 126.98 474.59 126.98 472.5 126.98C470.18 118.16 470.67 107.68 470.24 98.5C470.04 94.1 470.88 88.66 468.5 84.93C466.39 87.65 467.5 91.05 467.69 94.5C468.09 101.82 468.61 109.17 468.84 116.5C468.91 118.88 470.34 125.28 468.77 127.15C468.2 127.82 467.23 127.54 466.5 127.72C465.38 126.74 466.06 128.46 465.24 127.21C464.43 125.97 465.14 122.95 465.06 121.5C464.83 117.9 463.97 114.21 462.59 110.88C458.9 101.96 451.34 97.64 445.78 90.5C449.6 83.1 460.48 64.96 467.5 61.23ZM111.76 63.4C117.94 62.26 124.46 62.34 130.53 63.94C174.09 75.39 173.14 139.61 128.43 147.72C122.14 148.86 115.64 148.81 109.45 147.12C66.17 135.29 67.2 71.65 111.76 63.4ZM529.5 70.26C533.28 75.2 535.32 82.39 537.27 88.27C543.58 107.38 547.5 129.95 530.5 144.56C523.13 140.54 515.76 136.52 508.39 132.5C512.02 122.86 515.41 113.14 518.98 103.48C519.72 101.49 522.96 95.65 521.88 93.68C521 92.05 521.72 94.18 520.5 92.88C515.5 105.89 510.5 118.89 505.5 131.9C497.5 130.23 489.5 128.57 481.5 126.9C475.77 99.99 507.86 78.78 529.5 70.26ZM409.5 75.63C431.2 82.7 465.67 100.16 462.22 127.5C454.32 129.96 446.41 132.42 438.5 134.88C433.16 126.73 429.78 116.7 425.62 107.88C423.94 104.32 422.66 99.57 419.5 97.26C418.55 101.37 421.87 105.95 423.66 109.79C427.64 118.28 433.38 127.45 435.59 136.5C428.9 140.95 422.2 145.4 415.5 149.85C394.86 139.19 399.01 109.85 403.9 91.45C405.3 86.17 406.55 80.23 409.5 75.63ZM739.83 83.1C739.83 115.01 739.83 146.93 739.83 178.84C696.71 178.73 653.6 178.61 610.48 178.5C614.32 169.17 618.16 159.83 622 150.5C617.76 148.83 613.52 147.17 609.28 145.5C613.33 139.26 625.33 135.8 632.5 135.15C637.01 134.74 641.38 135.48 645.8 135.5C645.47 131.77 642.84 128.8 641.36 125.21C638.73 118.85 637.46 111.61 638.43 104.74C641.29 84.45 663.6 69.02 682.81 79.68C687.74 82.41 692.27 86.57 694.91 91.61C696.3 94.25 696.63 97.05 698.5 99.16C700.68 96.58 701.6 93.05 703.7 90.22C709.38 82.57 718.96 78.12 728.46 79.24C732.56 79.73 736.03 81.92 739.83 83.1ZM581.5 101.56C584.76 113.22 581.95 128.02 579.5 139.69C561.47 141.16 554.76 141.69 542.5 155.58C541.19 154.22 539.88 152.86 538.57 151.5C545.05 143.61 552.36 136.31 559.17 128.7C561.65 125.93 566.01 123.1 565.5 119.3C561.77 120.67 559.18 124.96 556.41 127.9C549.69 135.03 543.52 142.83 536.5 149.64C535.22 148.6 533.94 147.55 532.65 146.5C538.98 139.54 543.85 133.26 545 123.5C545.62 118.18 544.8 112.77 545.27 107.5C557.16 103.77 569.12 102.45 581.5 101.56ZM147.11 110.5C143.39 104.85 127.63 106.36 128.56 113.5C131.76 112.74 134.06 109.82 137.68 109.4C141.09 108.99 143.92 110.95 147.11 110.5ZM397.16 114.5C398.06 118.71 397.43 123.18 398.08 127.49C399.6 137.58 404.67 145.51 412.78 151.5C411.68 152.82 410.59 154.14 409.5 155.46C401.47 149.2 394.23 141.68 386.7 134.82C383.86 132.24 381.03 127.84 377.17 128.5C378.92 132.15 382.93 134.76 385.9 137.59C392.97 144.31 400.44 150.65 407.37 157.5C406.08 158.9 404.79 160.31 403.5 161.71C392.55 148.87 381.52 149.54 365.99 149.5C361.73 140.59 358.28 120.96 360.41 111.5C372.57 110.77 385.37 111.37 397.16 114.5ZM114.75 117.5C111.71 109.58 97.13 115.91 97.5 124.19C100.52 122.67 101.49 118.88 104.91 117.46C108.43 116 111.38 117.83 114.75 117.5ZM138.5 119.89C132.81 123.34 130.2 128.88 122.5 129.38C119.54 129.57 116.46 128.96 113.79 127.67C112.82 127.2 110.63 125.28 109.52 125.55C109.24 125.62 108.62 126.31 108.5 126.38C112.85 136.83 140.06 131.08 138.5 119.89ZM464.63 130.35C476.24 128.85 488.3 129.77 499.54 132.95C511.02 136.19 522.05 141.56 531.34 149.11C540.21 156.3 547.79 165.17 553.36 175.14C584.18 230.25 549.02 297.88 487.29 306.62C475.82 308.24 463.57 307.14 452.47 304.04C392.4 287.24 366.36 213.23 406.12 163.68C413.32 154.7 421.98 147.21 431.93 141.45C441.91 135.67 453.2 131.83 464.63 130.35ZM618.5 151.4C618.47 157.52 613.74 165.09 610.99 170.52C601.97 188.35 588.84 206.92 566.5 204.61C564.13 196.9 561.75 189.2 559.38 181.5C563.45 177.41 580.4 171.02 586.58 168.12C590.13 166.46 595.65 165.21 596.75 161.5C592.57 161.37 587.85 164.72 584 166.49C575.52 170.4 567.16 174.74 558.5 178.23C553.88 171.32 549.26 164.41 544.64 157.5C561.59 134.02 595.47 142.66 618.5 151.4ZM401.97 164.5C398.15 171.59 394.32 178.69 390.5 185.78C380.79 183.9 371 179.13 361.67 175.76C358.23 174.51 354.06 171.99 350.5 172.68C351.5 175.95 357.2 176.79 360.51 178.01C370.01 181.52 379.72 184.63 389.08 188.5C387.56 196.58 386.03 204.65 384.5 212.73C362.48 219.4 345.18 196.43 335.47 180.03C332.6 175.18 329.29 169.97 327.94 164.5C342.61 156.7 360.79 150.97 377.5 151.78C386.82 152.24 397.12 156.01 401.97 164.5ZM254.5 175.8C267.24 187.42 279.89 203.49 284.17 220.45C286.25 228.71 285.56 238.97 279.64 245.5C271.63 244.17 263.63 242.83 255.63 241.5C254.79 230.7 257.58 208.55 254.5 199.79C253.01 201.48 254.3 198.74 253.18 200.68C252.16 202.44 252.93 210.14 252.93 212.5C252.93 221.99 254.18 232.57 252.5 241.86C244.5 243.09 236.5 244.32 228.5 245.55C216.37 227.16 228.37 206.65 239.97 191.42C244.12 185.97 248.78 179.62 254.5 175.8ZM739.83 181.02C739.83 245.65 739.83 310.29 739.83 374.92C726.02 363.04 714.05 354.66 694.5 357.05C688.05 357.84 682.56 360.96 676.5 362.65C662 329.79 643.9 303.75 618.43 278.5C621.33 276.83 624.23 275.17 627.13 273.5C625.23 264.22 618.41 254.3 612.95 246.62C610.81 243.6 608.15 240.83 606.67 237.5C617.5 230.42 629.22 221.23 636.68 210.5C631.89 201.93 613.84 191.42 605.15 186.5C606.08 184.83 607 183.17 607.93 181.5C651.9 181.34 695.86 181.18 739.83 181.02ZM313.5 187.28C316.04 189.75 317.06 193.89 318.24 197.28C321.23 205.88 323.36 214.52 324.86 223.5C321.13 226.4 315.74 227.48 311.58 230.01C303.05 235.21 298.9 242.33 295.5 251.45C293.77 250.47 292.04 249.48 290.31 248.5C295.38 235.68 300.44 222.86 305.5 210.04C303.61 210.59 305.41 209.24 303.75 210.14C302.12 211.02 300.95 216.05 300.26 217.74C297.47 224.63 294.63 231.5 291.83 238.39C289.53 244.04 289.95 249.09 283.2 246.5C284.98 240.78 287.76 235.75 287.87 229.5C288.03 220.67 283.85 213.58 281.43 205.5C291.46 197.93 302.28 192.75 313.5 187.28ZM192.5 188.32C203.89 192.95 217.82 198.44 226.41 207.5C222.65 216.03 219.58 224.98 221.14 234.46C221.86 238.81 224.44 242.39 225.5 246.52C223.5 247.21 221.5 247.9 219.5 248.6C214.98 239.7 211.45 230.18 207.51 221C205.93 217.31 204.92 212.65 201.5 210.66C201.2 216.83 210.16 233.8 213.04 240.47C215.03 245.06 219.08 249.04 213.5 251.63C210.22 246.78 209.2 241.06 205.01 236.51C198.63 229.59 189.93 227.97 182.2 223.5C183.42 214.26 187.04 195.75 192.5 188.32ZM603.5 188.68C613.77 193.99 626.08 201.32 633.3 210.5C625.71 220.31 615.09 229.32 604.5 235.71C590.17 223.46 587.13 220.59 567.32 220.93C567.32 219.03 567.32 217.13 567.32 215.23C577.28 213.9 587.47 213.92 597.5 213.32C601.61 213.08 606.23 213.88 609.41 211.5C606.45 209.86 602.96 210.75 599.5 210.85C592.16 211.07 584.84 211.69 577.5 211.89C571.86 212.05 567.01 214.72 567.04 207.5C577.39 207.42 585.96 205.42 594 198.52C597.49 195.52 600.01 191.52 603.5 188.68ZM347.5 201.26C360.88 213.41 366.08 216.32 384.67 216.03C384.67 218.16 384.67 220.28 384.67 222.4C379.62 222.4 374.56 222.4 369.5 222.4C368.83 221.23 368.17 220.07 367.5 218.9C352.59 218.9 341.85 221.1 327.5 223.08C327.14 221.36 326.43 219.46 327.06 217.71C327.63 216.09 330.37 214.25 331.62 213.1C336.37 208.7 341.82 204.4 347.5 201.26ZM434.74 202.36C425 204.05 428.48 219.23 438.43 216.9C447.51 214.78 443.83 200.79 434.74 202.36ZM515.6 218.49C506.11 218.73 506.01 233.13 515.5 233.3C525.39 233.49 525.48 218.25 515.6 218.49ZM365.52 221.5C366.35 227.43 365.93 233.56 365.21 239.51C362.96 257.99 357.43 286.48 334.5 289.08C329.71 282.55 324.93 276.03 320.14 269.5C326.63 262.14 334.05 255.45 340.99 248.5C343.94 245.54 348.37 242.59 348.56 238.5C345.16 238.89 341.92 243.62 339.53 246.03C332.54 253.08 325.21 259.87 318.5 267.18C311.83 262.52 305.17 257.86 298.5 253.2C298.25 230.91 333.82 223.26 350.5 222.05C355.45 221.69 360.58 220.94 365.52 221.5ZM210.5 252.54C203.83 257.59 197.17 262.64 190.5 267.69C183.21 260.77 176.22 253.5 169.11 246.39C167.81 245.1 162.81 239.26 161.37 239.06C160.74 238.96 160.14 239.44 159.5 239.45C169.15 249.46 178.79 259.48 188.44 269.5C183.6 276.17 178.77 282.83 173.94 289.5C146.65 285.76 142.16 243.85 142.52 222.5C149.41 220.7 157.44 222.12 164.5 223.02C184.41 225.55 204.15 231.42 210.5 252.54ZM738.08 222.5C726.06 219.68 712.4 225.99 703.58 234.06C700.53 236.86 698.57 240.73 695.5 243.31C684.6 228.74 666.98 221.81 649.2 226.61C644.7 227.83 638.48 229.74 635.5 233.56C639.11 234.14 642.76 233.8 646.4 234.26C658.64 235.79 670.98 239.61 681.82 245.66C687.24 248.68 692.56 252.1 697.33 256.08C700.69 258.88 703.72 262.86 707.5 264.83C711.85 252.44 718.24 241.4 727.54 232.04C730.9 228.66 734.82 225.92 738.08 222.5ZM623.91 272.5C604.3 282.69 564.95 295.45 549.82 272.5C553.71 265.39 557.61 258.28 561.5 251.17C571.21 253.11 580.95 257.9 590.3 261.28C593.7 262.51 598.18 265.22 601.5 264.05C600.36 261.05 594.58 260.1 591.5 258.98C581.94 255.49 572.29 252.21 562.82 248.5C564.38 240.38 565.94 232.27 567.5 224.15C589.45 217.47 606.85 240.77 616.48 257.03C619.32 261.83 622.69 267.06 623.91 272.5ZM735.24 223.5C727.5 230 720.54 237.15 715.09 245.69C711.61 251.14 709.83 257.45 706.5 262.86C693.85 250.46 678.65 240.82 661.44 236.12C653.95 234.07 646.38 233.75 638.82 232.5C658.07 218.39 682.58 228.12 695.5 245.32C698.93 242.7 701.27 238.21 704.53 235.03C712.22 227.52 724.39 221.66 735.24 223.5ZM384.71 229.5C379.32 230.02 373.94 230.55 368.56 231.07C368.56 229.21 368.56 227.36 368.56 225.5C370.8 225.25 382.98 224 384.25 225.03C385.52 226.05 384.79 228.19 384.71 229.5ZM442.5 227.3C442.15 231.65 446.88 235.71 449.88 238.61C459.54 247.93 473.95 251.98 487.08 249.53C491.56 248.69 501.81 246.71 502.5 241.77C499.34 241.44 495.4 244.62 492.23 245.64C484.9 247.99 477.32 248.32 469.81 246.58C462.91 244.99 456.32 241.17 451.21 236.29C448.3 233.5 446.07 228.49 442.5 227.3ZM385.5 232.33C387.59 240.39 389.68 248.44 391.78 256.5C388.32 258.06 384.07 261.13 380.34 261.73C376.91 262.28 367.83 259.78 364.5 258.5C365.9 250.5 367.31 242.5 368.71 234.5C374.3 232.16 379.49 231.73 385.5 232.33ZM252.55 244.49C264.45 244.2 276.51 246.47 287.53 250.95C297.34 254.93 306.86 260.62 314.43 268.07C326.17 279.61 335.04 292.71 339.75 308.63C351.87 349.62 331.41 394.13 293.52 413C284 417.74 273.13 421.01 262.5 421.79C249.07 422.78 235.77 421.06 223.16 416.37C212.71 412.49 202.88 406.39 194.64 398.89C186.51 391.49 179.81 382.43 174.89 372.61C145.88 314.67 188.42 246.03 252.55 244.49ZM143.91 258.5C142.44 260.18 141.59 260.46 139.06 260.5C140.68 259.83 142.29 259.17 143.91 258.5ZM393.5 258.68C395.28 261.62 397.06 264.56 398.85 267.5C394.96 267.76 387.64 265.11 384.93 262.5C387.79 261.23 390.64 259.95 393.5 258.68ZM144.5 262.34C148.68 267.8 149.89 275.52 154.96 281.52C159.95 287.43 166.21 289.03 172.67 292.5C171.95 293.93 171.22 295.36 170.5 296.8C157.5 291.73 144.5 286.66 131.5 281.59C131.71 283 130.87 281.94 131.38 283.19C131.82 284.27 139.44 286.96 140.92 287.58C150.29 291.54 160.03 294.97 169.14 299.5C168.59 301.22 168.05 302.95 167.5 304.67C162.84 302.95 158.59 300.64 153.5 300.07C144.14 299.04 135.96 302.77 127.5 306.04C120.64 299.01 110.53 282.16 109.16 272.5C120.64 267.54 132.3 264.78 144.5 262.34ZM363.5 262.11C375.19 261.57 388.7 266.79 399.33 271.5C399.41 274.68 397.13 278.36 395.76 281.29C391.81 289.7 387.1 297.71 381.5 305.13C376.05 304.2 371.05 301.14 365.45 300.18C356.7 298.67 349.31 300.73 341.5 304.41C340.86 302.44 340.21 300.47 339.57 298.5C348.84 294.63 358.07 290.68 367.34 286.82C370.28 285.59 376.05 284.31 377.5 281.39C374.82 279.9 371.71 282.17 368.86 283.37C361.83 286.35 354.77 289.26 347.75 292.26C342.76 294.39 339.04 298.35 336.14 292.5C339.44 289.87 344.33 289.1 347.96 286.48C356.1 280.59 360.35 271.34 363.5 262.11ZM402.5 273.15C404.06 275.27 405.62 277.38 407.18 279.5C403.95 284.17 399.84 288.5 394.5 290.65C397.17 284.82 399.83 278.99 402.5 273.15ZM0.17 461.92C0.17 430.96 0.17 399.99 0.17 369.02C3.59 365.41 6.2 360.75 9.23 356.73C13.35 351.25 17.78 345.97 22.22 340.73C39 320.96 59.34 303.71 80.92 289.45C88.81 284.24 97.52 277.79 106.5 274.82C112.11 286.24 117.75 296.85 124.73 307.5C117.33 313.09 109.5 317.77 102.52 324.01C98.78 327.36 95.85 331.43 92.32 334.85C85.43 341.52 77.21 347.04 70.18 353.68C58.13 365.06 47.46 377.95 37.99 391.53C23 413.01 12.84 436.71 4.79 461.5C3.25 461.64 1.71 461.78 0.17 461.92ZM547.5 275.25C551.42 277.6 554.38 281.57 558.67 283.84C567.49 288.49 576.46 287.29 585.95 287.5C590.18 296.44 593.56 315.96 591.5 325.47C579.94 326.02 565.32 326.65 554.5 322.13C553.03 305.94 553.46 295.91 539.13 285.5C540.25 284.13 541.38 282.77 542.5 281.4C550.31 288.09 557.55 295.44 565.26 302.24C568.01 304.67 570.91 309.17 574.64 308.5C573.17 304.88 568.96 302.19 566.09 299.42C559.03 292.62 551.61 286.17 544.42 279.5C545.44 278.08 546.47 276.67 547.5 275.25ZM615.5 279.39C633.85 296.2 649.45 316.18 661.59 337.88C666.27 346.23 671.54 355.25 674.11 364.5C665.82 371.18 658.81 377.92 654.32 387.8C652.23 392.4 651.93 398.24 649.5 402.32C642.6 378.06 632.15 355.58 617.49 335.04C612.82 328.49 607.66 322.19 602.1 316.39C599.62 313.8 595.43 310.94 593.72 307.81C592.43 305.44 589.4 289.68 589.5 286.82C598.17 284.34 606.83 281.87 615.5 279.39ZM409.5 281.36C410.73 282.74 411.97 284.12 413.2 285.5C405.63 293.9 398.07 302.3 390.5 310.7C388.27 309.3 386.04 307.9 383.82 306.5C386.2 303.1 388.55 297.82 391.61 295.09C393.68 293.24 397.13 292.58 399.52 291.03C403.64 288.35 406.09 284.68 409.5 281.36ZM415.5 287.24C416.74 288.33 417.97 289.41 419.21 290.5C408.84 301.52 407.32 308 406.5 323.05C401.9 319.53 397.3 316.02 392.7 312.5C400.3 304.08 407.9 295.66 415.5 287.24ZM536.5 287.12C556.62 298.24 552.98 326.02 548.21 344.59C546.79 350.14 545.47 356.37 542.5 361.28C520.65 354.95 486.42 336.35 489.62 309.5C497.58 307.05 505.54 304.59 513.5 302.14C518.57 310.59 522.1 320.27 526.32 329.19C527.95 332.64 529.21 337.71 532.5 339.58C533.32 335.74 530.23 331.46 528.59 327.9C524.52 319.1 518.7 309.85 516.26 300.5C523.01 296.04 529.75 291.58 536.5 287.12ZM421.5 292.32C428.81 296.38 436.12 300.44 443.42 304.5C440.31 313.47 436.97 322.37 433.73 331.3C432.2 335.5 429.65 339.87 430.5 344.15C433.3 341.77 434.17 337.51 435.47 333.92C438.34 326.01 441.95 311.51 446.5 305.1C454.5 306.79 462.5 308.47 470.5 310.16C475.49 338.52 444.54 356.76 422.5 366.75C416.58 359.37 414.07 347.47 411.54 338.5C412.77 336.83 414.01 335.17 415.25 333.5C413.91 330.79 410.48 328.9 409.5 326.09C408.81 324.13 409.11 321.55 409.11 319.5C409.11 308.3 413.2 299.68 421.5 292.32ZM166.44 307.5C165.13 315.7 163.81 323.91 162.5 332.11C152.83 332.2 143.17 332.14 133.5 332.14C129.45 332.14 123.99 331.12 120.87 333.5C124.01 335.73 129.49 334.76 133.5 334.76C143.17 334.76 152.83 334.68 162.5 334.79C163.83 343.02 165.17 351.25 166.5 359.48C160.98 362.65 155.26 364.82 148.77 364.51C132.33 363.74 106.7 346.54 96.9 333.5C106.75 320.5 132.95 302.65 149.51 302.34C155.56 302.23 161.36 304.39 166.44 307.5ZM411.9 333.5C395.93 349.4 365.68 375.17 342.5 359C343.72 350.83 344.94 342.67 346.17 334.5C356.09 333.47 366.5 334.27 376.5 334.27C378.14 334.27 386.42 334.75 387.3 333.92C387.84 333.42 387.65 332.47 388.06 331.87C374.01 331.87 359.96 331.87 345.9 331.87C344.66 323.75 343.42 315.62 342.18 307.5C359.48 294.16 382.16 307.84 396.55 318.99C401.7 322.99 408.83 327.73 411.9 333.5ZM485.5 309.2C486.65 310.35 485.86 308.42 486.68 309.79C486.87 310.11 487.66 321.98 489.04 325.46C492.35 333.8 498.82 340.12 505.79 345.5C504.42 353.23 491.09 371.43 484.5 375.84C475.4 366.96 465.03 357.99 459.17 346.5C465.13 340.06 471.05 333.34 473.01 324.49C474.11 319.49 473.25 314.8 473.5 309.87C475.5 309.87 477.5 309.87 479.5 309.87C481.42 319.41 481.11 329.77 481.72 339.5C481.97 343.59 480.94 348.76 483.5 351.99C485.45 349.34 484.33 345.82 484.21 342.5C483.94 334.82 483.34 327.18 483.07 319.5C482.92 315.28 480.71 310.42 485.5 309.2ZM594.5 312.51C613.2 328.62 628.9 354.64 638.25 377.27C641.47 385.07 646.4 394.84 646.5 403.3C633.52 398.82 623.07 400.18 611.5 407.37C605.75 394.2 601.57 380.97 594.01 368.55C583.47 351.27 571.48 340.39 557.35 326.5C562.39 325.75 568.32 327.41 573.5 327.87C580.29 328.46 587.8 328.66 594.5 327.5C594.5 322.5 594.5 317.51 594.5 312.51ZM292.73 319.35C283.03 321.08 286.59 336.05 296.44 333.92C305.62 331.92 301.97 317.7 292.73 319.35ZM554.5 327.89C579.05 344.72 601.93 380.9 609.07 409.5C605.03 416.27 601.2 421.89 600.53 430.11C600.19 434.25 601.65 438.6 601.2 442.5C594.15 440.64 588 438.84 580.5 439.4C579.01 435.28 578.77 430.85 577.83 426.56C576.58 420.83 574.9 415.12 572.84 409.63C566.05 391.63 556.12 379.14 544.21 364.5C547.94 357.15 550.15 348.48 551.86 340.45C552.75 336.25 552.97 331.86 554.5 327.89ZM212.64 331.24C202.97 332.87 206.34 348.17 216.36 345.79C225.44 343.64 221.68 329.71 212.64 331.24ZM95.5 336.19C104.65 345.16 114.35 352.48 125.02 359.5C122.71 364.14 118.37 371.57 114.99 375.46C109.82 381.42 102.44 386.48 96.84 392.32C86.24 403.37 76.9 415.44 69.02 428.57C61.66 440.85 55.69 454.08 51.22 467.66C49.61 472.54 47.02 486.4 45.18 489.63C44.04 491.62 41.17 493.14 39.5 494.77C36.65 491.73 35.26 484.33 32.41 480.14C26.21 471 17.53 466.46 7.5 462.64C7.96 453.54 15.98 437.09 19.97 428.45C32.43 401.42 49.98 377.47 71.08 356.57C77.72 349.99 87.19 340.18 95.5 336.19ZM408.5 340.44C410.93 342.61 415.19 357.9 417.12 362.38C419.07 366.9 419.12 369.81 424.46 369.5C418.8 401.16 413.15 432.82 407.5 464.48C400.7 453.68 394.93 443.87 385.08 435.43C381.84 432.65 369.54 425.83 368.25 424.19C367 422.59 365.35 410.46 364.7 407.5C368.42 405.22 374.1 405.18 378.5 404.04C386.78 401.9 395.08 399.22 402.8 395.5C402.18 387.03 394.58 374.88 389.97 367.59C388.14 364.7 385.5 361.89 384.5 358.75C392.94 353.1 401.24 347.63 408.5 340.44ZM287.5 345.93C283.9 347.65 281.54 351.35 278.28 353.8C271.09 359.19 262.47 362.03 253.5 361.99C247.6 361.97 241.74 360.66 236.41 358.11C232.81 356.39 229.6 352.93 225.88 353.5C227.76 356.63 231.17 358.41 234.5 360.03C247.15 366.18 262.33 366.01 274.69 359.19C279.29 356.66 287.93 351.57 287.5 345.93ZM739.83 531.11C739.83 581.79 739.83 632.47 739.83 683.14C711.06 683.01 682.28 682.89 653.5 682.76C650.98 666.9 655.71 650.11 664.11 636.66C667.44 631.32 673.57 626.97 676.05 621.5C670.43 620.66 663.33 624.34 658.01 626.5C647.72 630.68 637.93 636.07 628.54 641.98C624.52 644.51 620.7 647.52 616.5 649.71C612.22 634.04 618.97 614.67 628.61 602.14C632.07 597.63 640.37 591.68 642.18 587.5C635.95 586.43 628.17 589.46 622.22 591.65C606.15 597.55 592.27 607.69 580.96 620.45C578.31 623.45 576.16 626.87 573.5 629.85C566.93 621.07 564.74 599.29 564.93 588.5C564.99 584.67 567.19 571.93 565.5 569.66C557.14 575.5 548.86 598.63 546.04 608.54C544.63 613.49 544.33 620.48 541.5 624.36C532.22 596.05 512.27 571.95 486.73 556.77C479.77 552.63 467.07 545.46 459.07 545.5C459.87 551.26 469.98 563.98 473.32 570.19C482.25 586.78 495.92 618.29 496.5 636.79C491.69 633.12 488.05 627.22 483.52 622.97C474.01 614.04 462.83 606.63 450.73 601.72C445.27 599.51 438.43 596.3 432.68 597.5C435.17 601.66 439.97 604.55 443.32 608.19C450.31 615.8 460.27 629.51 461.5 639.88C443.57 633.4 437.75 631.84 419.5 639.26C419.59 621.5 417.68 616.53 405.96 603.5C414.45 555.17 422.95 506.83 431.44 458.5C442.24 463.62 448.88 468.53 461.5 470C483.85 472.61 505.6 463.84 523.25 450.74C529.4 446.17 537.46 440.34 541.08 433.5C525.63 415.28 497.78 409.97 475.56 416.14C460.67 420.27 447.79 428.8 435.5 437.86C434.23 430.54 437.66 420.94 438.96 413.5C441.29 400.16 443.61 386.83 445.94 373.49C446.84 368.35 447.07 359.24 449.34 354.76C450.47 352.52 454.5 350.32 456.5 348.77C459.33 351.2 461.32 354.79 463.65 357.81C469.22 365.06 477.02 375.41 485.5 379.1C495.06 370.15 501.58 358.87 508.5 347.93C513.82 350.39 518.68 353.92 524.01 356.49C528.56 358.69 534.36 360.12 538.44 363.02C543.47 366.6 547.59 372.33 551.45 377.07C565.61 394.44 575.43 417.1 577.21 439.5C571.22 441.43 565.33 442.9 560.05 446.53C545.48 456.57 542.09 474.63 546.5 490.81C538.33 490.81 530.8 489.21 522.54 491.09C506.41 494.76 488.79 513.92 493.5 531.33C575.61 531.26 657.72 531.19 739.83 531.11ZM445.5 357.17C431.38 438.61 417.25 520.06 403.13 601.5C398.19 599.5 393.25 597.5 388.31 595.5C401.37 519.5 414.43 443.5 427.48 367.5C433.49 364.06 439.49 360.61 445.5 357.17ZM739.83 378.95C739.83 428.96 739.83 478.97 739.83 528.98C658.3 528.82 576.76 528.66 495.23 528.5C495.73 508.91 511.37 493.8 530.57 492.38C537.4 491.88 543.87 494.74 550.29 494.5C550.46 491.21 547.99 487.63 547.37 484.26C546.74 480.79 546.81 477.01 547.12 473.5C548.77 454.77 565.48 442.24 583.5 441.82C588.55 441.71 593.56 442.38 598.24 444.31C600.67 445.32 602.98 447.63 605.5 447.03C605.06 439.53 601.68 436.16 603.46 426.85C606.5 410.85 621.54 400.81 637.46 403.22C642.7 404.01 646.85 407 651.5 409.1C652.59 405.76 652.62 402.21 653.34 398.69C654.68 392.14 657.74 385.59 661.67 380.19C674.9 362.05 698.21 354.03 719.23 363.31C727.68 367.04 733.31 372.77 739.83 378.95ZM381.5 360.46C389.61 369.18 396.32 382.23 399.92 393.5C393.62 398.37 371.34 404.33 363.5 403.6C358.56 388.66 351.62 379.5 336.41 374.5C337.1 372.95 337.8 371.39 338.5 369.84C348.26 372.68 357.68 377.59 367.08 381.46C368.78 382.15 375.92 385.7 377.28 384.88C378.72 384.01 376.84 384.67 377.94 383.5C369.33 378.53 359.16 375.29 349.94 371.53C348.44 370.91 340.73 368.21 340.18 367.2C339.27 365.54 340.75 363.43 341.5 362C359.04 368.96 364.5 366.77 381.5 360.46ZM127.5 361.33C134.29 362.75 140.31 366.42 147.5 367C154.9 367.6 160.93 365 167.5 362.2C168.24 363.97 168.97 365.73 169.71 367.5C156.91 373.17 144.11 378.83 131.32 384.5C133.74 387.32 138.61 383.81 141.89 382.44C151.42 378.44 160.87 374.18 170.5 370.41C171.25 371.78 172.01 373.14 172.76 374.5C169.41 376.09 165.76 376.99 162.58 379C153.45 384.76 148.75 394.6 145.39 404.5C137.73 405.19 115.45 399.18 109.2 394.5C113.89 382.57 120.06 371.72 127.5 361.33ZM174.5 377.49C179.23 384.16 183.97 390.83 188.7 397.5C182.22 403.91 175.77 410.37 169.33 416.83C166.07 420.11 161.78 423.35 159.85 427.5C163.62 427.65 166.41 423.4 169.15 420.65C176.26 413.52 183.4 406.4 190.5 399.26C197.2 404.01 203.89 408.75 210.59 413.5C208.14 436.86 175.41 443.87 156.5 444.81C152.17 445.02 147.83 445.09 143.5 445.01C142.34 439.5 142.84 432.97 143.6 427.34C145.98 409.54 151.69 379.27 174.5 377.49ZM334.5 377.32C357.57 378.31 364.85 412.54 365.86 430.5C366.12 435.16 366.44 439.86 366 444.5C360.2 445.37 354.33 444.61 348.5 444.08C328.9 442.29 302.87 436.01 298.42 413.5C305.11 408.69 311.81 403.89 318.5 399.08C328.5 408.77 338.5 418.46 348.5 428.14C349.08 424.01 344.41 421.06 341.42 418.08C334.92 411.6 325.28 404.01 320.37 396.5C325.85 390.6 330.5 384.32 334.5 377.32ZM110.5 382.95C108.99 387.13 107.48 391.32 105.97 395.5C111.45 400.85 126.91 404.25 134.54 405.85C137.9 406.55 141.62 406.63 144.27 408.5C141.67 413.25 135.91 416.68 131.98 420.47C125.54 426.68 119.67 433.73 114.5 441.01C107.97 450.2 102.41 460.15 98.05 470.55C95.8 475.93 94.7 482.88 91.5 487.66C80.76 482.31 69.25 480.72 57.62 484.18C54.59 485.08 51.75 486.66 48.78 487.5C49.9 477.2 53.96 466.88 57.76 457.29C68.99 428.97 87.33 402.78 110.5 382.95ZM142.5 415.14C142.46 424.36 137.6 439.01 141.27 447.5C154.78 448.74 168 445.54 181.17 443.5C185.59 456.04 185.72 470.77 193.5 482.19C205.83 479.6 218.51 471.13 228.5 463.67C231.15 466.07 232.86 469.5 234.98 472.49C240.29 480.03 246.82 489.01 254.5 494.22C264.11 488.76 271.02 476.64 277.5 467.94C283.34 487.13 289.18 506.31 295.02 525.5C288.09 523.38 281.37 517.55 273.25 515.3C256.63 510.69 228.32 513.05 215.07 525.5C226.31 546.25 256.24 557 278.5 554.99C286.58 554.26 293.86 551.42 301.5 549.04C304.55 560.19 307.6 571.35 310.66 582.5C307.61 582.21 304.6 581.22 301.5 580.98C290.67 580.14 279.17 583.41 270.49 589.97C267.69 592.08 265.06 594.63 262.93 597.41C261.97 598.67 261.28 600.5 260.01 601.49C258.1 602.97 254.96 603.39 252.71 604.24C248.3 605.89 243.98 608.06 239.91 610.43C227.13 617.89 218.08 628.22 209.5 640.02C204.1 633.95 198.26 613.35 197.2 605.07C203.74 605.07 210.28 605.07 216.82 605.07C216.68 582.62 197.26 563.18 175.5 560.05C166.3 558.73 158.3 560.7 149.5 562.92C147.45 548.21 143.61 535.68 127.37 531.2C122.83 529.94 118.21 530.29 113.71 529.5C114.53 513.55 107.41 498.83 94.45 489.5C97.85 469.24 114.04 443.41 128.05 428.56C132.34 424.02 137 418.05 142.5 415.14ZM213.5 415.22C215.16 415.98 216.82 416.74 218.48 417.5C215.46 426.58 211.35 435.41 207.73 444.28C206.17 448.11 203.28 452.69 203.5 456.76C206.73 455.72 207.23 452.18 208.52 449C211.41 441.9 214.32 434.8 217.27 427.72C219.24 423.01 219.6 416.6 225.86 420.5C219.16 434.89 220.17 446.52 227.6 460.5C221.82 467.44 203.3 477.3 194.5 478.99C189.49 467.97 184.56 454.67 184.29 442.5C201.84 435.33 205.8 432.59 213.5 415.22ZM295.5 415.09C297.75 418.93 298.71 423.36 301.44 427.06C307.93 435.83 317.37 438.29 326.5 443.02C326.23 452.62 321.8 470.03 316.5 478.1C304.34 474.25 292.51 467.35 282.52 459.5C287.62 445.18 291.25 434.88 283.25 420.5C285.33 419.73 287.42 418.95 289.5 418.18C293.87 427.25 297.58 436.7 301.51 445.97C303.03 449.53 304.05 454.39 307.5 456.04C307.88 450.24 298.73 432.93 295.99 426.51C295.32 424.94 291.82 418.05 292.38 416.79C292.83 415.76 294.59 415.47 295.5 415.09ZM537.66 433.5C533.51 440.29 525.51 445.99 519.08 450.55C493.36 468.76 459.06 475.29 432.28 455.5C432.28 453.5 432.28 451.5 432.28 449.5C438.6 446.29 446.57 445.48 453.49 443.96C465.9 441.25 478.78 438.86 491.5 438.18C497.49 437.87 503.5 437.64 509.5 437.72C512.86 437.77 515.75 438.57 518.12 436.5C512.54 433.36 502.84 434.99 496.53 435.4C482.35 436.33 468.45 438.37 454.51 441.07C447.9 442.36 440.05 445.86 433.4 445.5C434.62 439.25 448.43 431.77 453.95 428.46C480.58 412.49 514.21 410.45 537.66 433.5ZM228.5 421.43C236.57 422.46 244.64 423.48 252.71 424.5C254.78 433.86 253.39 444.85 253.39 454.5C253.39 458.51 252.44 463.66 254.5 467.06C257.06 463.97 256 458.54 256 454.5C256 444.68 254.99 434.17 256.46 424.5C264.47 423.41 272.49 422.33 280.5 421.24C293.36 440.14 279.17 462.4 267.05 477.59C263.4 482.17 259.28 487.52 254.5 490.87C236.5 474.49 214.61 446.13 228.5 421.43ZM368.5 427.93C382.14 433.05 393.88 446.12 401.02 458.43C402.91 461.68 406.09 465.94 406.72 469.69C407.32 473.29 405.13 481.94 403.96 485.5C400.15 483.46 395.09 476.14 391.9 472.62C384.14 464.07 375.8 455.92 366.96 448.5C371.05 443.09 367.95 434.46 368.5 427.93ZM329.63 443.5C332.62 445.87 333.35 450.01 334.98 453.5C337.77 459.43 341.07 465.19 345.04 470.41C359.09 488.92 378.27 499.19 400.5 504.61C395.35 534.57 390.2 564.54 385.05 594.5C377.72 594.89 370.85 594.02 363.54 596.04C354.78 598.47 348.34 603.95 340.5 607.9C337.51 596.77 334.53 585.63 331.54 574.5C337.92 571.55 344.73 570.14 350.87 566.41C365.43 557.56 375.37 543.19 379.35 526.72C380.52 521.89 381.68 516.79 380.5 511.97C362.71 511.98 344.44 519.65 332.97 533.48C329.56 537.58 327.22 542.29 324.5 546.84C317.5 523.39 310.5 499.93 303.5 476.48C308.5 477.93 313.5 479.38 318.5 480.82C322.02 473.04 324.88 464.74 326.8 456.41C327.76 452.27 327.92 447.31 329.63 443.5ZM334.5 445.16C340.17 445.16 345.81 446.58 351.5 447.01C354.55 447.24 358.27 446.59 361.22 447.43C364.86 448.48 368.75 453.49 371.44 456.05C379.13 463.39 386.69 470.8 393.86 478.66C395.84 480.83 402.45 487.08 403.05 489.56C403.88 492.97 402.13 498.13 401.39 501.5C394.39 501.87 386.47 498.31 380.15 495.38C360.64 486.32 340.04 466.57 334.5 445.16ZM335.5 600.65C331.2 597.04 328.15 592.37 323.46 588.99C320.84 587.1 315.98 585.89 314.14 583.33C311.87 580.17 308.37 562.51 306.95 557.54C301.65 538.87 296.53 520.14 290.97 501.54C288.59 493.57 286.2 485.59 283.8 477.63C282.32 472.73 279.82 467.6 280.5 462.54C283.45 462.69 286.51 465.83 289.06 467.45C292.15 469.41 297.32 471.11 299.71 473.81C302.26 476.69 304.33 487.83 305.53 491.92C312.93 517.38 320.35 542.82 327.16 568.44C329.63 577.72 334.81 591.55 335.5 600.65ZM0.17 464.04C13.62 465.87 25.8 472.96 32.35 485.16C34.79 489.71 35.42 494.74 37.5 499.34C45.46 495.03 48.81 489.33 58.88 486.46C79.57 480.55 101.09 491.74 108.67 511.77C111.38 518.95 110 526.02 111.5 533.1C126.82 531.89 140.94 536.23 145.58 552.81C146.88 557.47 145.99 561.95 146.7 566.5C150.15 566.35 153.32 564.27 156.78 563.4C161.59 562.19 166.56 561.84 171.5 562.14C189.79 563.26 215.94 582.36 213.5 602.5C207.83 602.4 202.17 602.31 196.5 602.21C195.17 593.4 193.83 584.58 192.5 575.77C185.49 580.65 182.91 594.76 179.5 602.41C159.39 603.85 138.67 602.65 118.5 602.57C111.13 602.54 104.02 600.45 96.71 599.6C93.43 599.22 88.61 597.8 90.27 602.5C60.24 602.62 30.2 602.74 0.17 602.86C0.17 556.58 0.17 510.31 0.17 464.04ZM298.33 536.5C293.1 536.59 287.58 534.34 282.42 533.21C270.48 530.58 244.97 524.97 233.86 528.5C235.37 529.9 232.96 528.77 234.71 529.82C236.07 530.65 238.95 530.1 240.5 530.12C245.53 530.21 250.49 530.73 255.5 531.17C270.44 532.47 285.9 535.96 300.19 540.42C300.19 542.39 300.19 544.36 300.19 546.32C273.81 561.18 236.3 550.22 218.82 526.5C222.62 522.55 229.06 520.4 234.29 518.75C249.78 513.85 266.55 514.13 281.35 521.17C285.24 523.02 294.26 527.3 296.59 530.83C297.61 532.38 297.9 534.74 298.33 536.5ZM378.5 515.13C378.31 536.49 364.21 556.5 345.75 566.26C341.07 568.73 335.76 570.92 330.5 570.87C329.9 568.66 328.57 565.87 329.01 563.56C329.54 560.81 334.04 557.41 335.87 555.34C342.53 547.8 349.87 540.54 357.75 534.26C361.26 531.47 367.22 528.49 368.87 524.5C364.49 524.08 359.22 529.53 355.89 532.41C349.44 537.98 343.28 543.72 337.39 549.88C334.36 553.04 331.22 557.76 327.5 559.73C326.87 557.45 325.2 554.1 325.47 551.74C325.94 547.71 329.72 542.67 331.94 539.38C341.41 525.33 361.07 512.98 378.5 515.13ZM542.5 634.01C545.49 630.46 545.96 618.85 547.3 613.66C550.43 601.58 554.75 587.75 562.5 577.77C563.05 582.61 562.17 587.58 562.34 592.5C562.81 606.06 565.1 622.55 572.5 634.26C577.56 631.59 581.2 624.08 585.15 619.68C594.31 609.51 605.94 601.41 618.44 595.93C623.28 593.8 629.69 590.7 634.83 591.5C623.29 602.61 615.85 616.28 613.58 632.23C612.66 638.71 611.63 647.84 615.15 653.5C620.07 651.9 624.77 647.48 629.21 644.69C641 637.27 654.85 628.27 668.67 625.5C667.39 628.41 664.83 630.81 662.99 633.53C660.38 637.37 658.18 641.56 656.34 645.82C649.04 662.71 650.26 675.3 652.69 692.82C596.87 692.82 541.06 692.82 485.24 692.82C485.32 678.79 484.67 666.06 476.47 654.05C474.46 651.11 472.18 648.34 469.5 645.97C468.34 644.95 466.59 644.1 465.7 642.83C464.14 640.63 463.72 637.23 462.77 634.72C460.92 629.85 458.61 625.06 455.91 620.61C453.45 616.56 450.68 612.53 447.55 608.95C445.31 606.4 442.18 604.12 440.5 601.26C456.44 603.27 475.28 618.01 486.07 629.42C490.01 633.6 494.99 642.28 499.5 644.78C501.27 638.3 497.18 625.87 495.45 619.13C491.21 602.57 484.86 586.71 477 571.54C473.1 564.01 467.61 557.11 464.06 549.5C470.69 550.34 477.76 554.71 483.56 557.99C503.89 569.48 520.83 587.1 531.71 607.75C534.31 612.69 536.62 617.82 538.43 623.09C539.68 626.69 540.23 631.02 542.5 634.01ZM190.5 582.66C192.37 587.57 192.21 593.26 193.06 598.5C195.35 612.68 200.32 632.57 208.5 644.54C212.51 643.04 215.18 636.1 218.1 632.63C225.5 623.82 234.27 616.41 244.4 610.92C248.03 608.96 252.19 606.5 256.24 606.5C251.09 615.44 248.26 624.78 245.08 634.5C239.05 636.41 232.77 636.93 226.8 639.32C211.6 645.41 198.95 659.62 198.22 676.5C197.97 682.33 200.22 687.35 201.55 692.8C173.99 692.8 146.43 692.8 118.86 692.8C113.09 681.42 106.06 671.52 96.04 663.46C91.57 659.86 85.3 657.52 81.41 653.5C97.01 651.36 114.95 656.26 129.24 662.31C135.27 664.86 141.29 669.72 147.5 671.15C147.96 664.79 143.35 656.79 140.47 651.06C134.01 638.24 125.44 626.38 114.95 616.54C109.51 611.45 102.99 607.53 97.66 602.5C119.16 602.24 147.5 618.18 163.31 632.16C168.19 636.48 177.49 649.05 181.5 651.18C182.55 645.44 179.44 635.22 179.27 628.5C178.87 613.05 182.51 596.02 190.5 582.66ZM338.5 612.47C346.36 609.13 352.41 602.55 361.02 599.52C380.48 592.67 405.58 599.07 414.41 619.1C416.55 623.95 417.53 629.2 417.21 634.5C417.01 637.73 414.94 641.78 416.3 644.5C419.39 643.5 422.06 640.96 425.09 639.57C432.02 636.38 439.84 635.87 447.27 637.37C467.66 641.5 482.35 661.15 482.96 681.5C483.15 688.07 482.98 696.43 478.5 701.69C418.52 702.53 358.48 701.74 298.5 701.74C279.17 701.74 259.83 701.74 240.5 701.74C233.86 701.74 219.47 703.03 213.72 701.63C210.82 700.92 208.21 697.22 206.53 694.96C198.95 684.73 199.39 671.02 205.81 660.32C212.99 648.35 225.89 640.49 239.55 638.25C245.54 637.27 252.52 638.25 258.06 636.5C256.43 625.83 256.55 614.8 261.44 604.9C270.2 587.21 292.66 579.48 311 585.51C326.8 590.7 330.52 599.81 338.5 612.47ZM0.17 605.02C22.26 605.49 44.4 605.07 66.5 605.07C72.7 605.07 91.47 603.88 96.26 605.3C99.5 606.26 102.95 609.9 105.55 611.99C114.93 619.53 123.29 628.44 130.01 638.44C133.88 644.21 143.95 660.02 143.5 666.55C127.55 657.74 109.85 651.55 91.5 650.89C86.13 650.7 77.86 649.43 73.54 652.5C77.45 655.99 83.22 657.8 87.73 660.76C96.49 666.52 104.17 673.84 110.1 682.5C103.21 684.98 83.92 683.43 75.5 683.43C58.83 683.43 42.17 683.43 25.5 683.43C17.17 683.43 8.41 684.17 0.17 683.14C0.17 657.1 0.17 631.06 0.17 605.02ZM178.91 605.1C178.29 611.96 176.89 618.56 176.85 625.5C176.83 631.29 178.2 637.5 177.5 643.11C168.51 633.11 158.88 624.15 147.41 617.05C140.7 612.91 129.06 609.1 123.9 605.1C142.24 605.1 160.58 605.1 178.91 605.1ZM292.74 613.28C284.15 615.61 278.85 628.09 285.53 634.96C289.28 638.83 295.39 638.94 300.25 637.71C307.4 635.89 317.96 626.77 312.98 618.64C309.29 612.62 298.9 611.62 292.74 613.28ZM293.63 614.24C299.15 612.93 310.84 613.87 312.69 620.75C314.72 628.36 305.84 635.09 299.39 636.77C281.35 641.46 278.46 617.83 293.63 614.24ZM254.74 615.43C254.74 621.86 254.74 628.3 254.74 634.74C252.55 634.74 250.37 634.74 248.18 634.74C250.37 628.3 252.55 621.86 254.74 615.43ZM346.58 622.48C338.49 622.55 328.94 632.07 337.85 637.58C349.2 644.61 362.32 622.33 346.58 622.48ZM342.58 624.2C343.8 623.87 345.23 623.57 346.5 623.59C359.34 623.75 350.04 639.2 340.77 637.62C332.4 636.2 336.05 625.98 342.58 624.2ZM311.85 645.42C305.27 647.65 302.18 658.64 311.5 658.88C314.83 658.96 320.88 657.12 321.87 653.43C323.55 647.2 317.13 643.63 311.85 645.42ZM320.5 653.79C315.99 658.28 308.21 659.95 306.13 652.5C310.62 645.15 322.61 642.4 320.5 653.79ZM267.7 647.44C261.66 647.89 254.59 650.3 250.48 655C244.29 662.09 247.35 672.09 255.62 675.91C265.67 680.54 280.59 673.52 282.79 662.39C284.68 652.85 276.55 646.78 267.7 647.44ZM268.72 648.44C276.53 648.16 283.35 654.14 281.64 662.26C279.39 672.97 264.58 679.53 255.18 674.37C252.4 672.84 250.27 670.41 249.04 667.52C244.19 656.1 259.66 648.76 268.72 648.44ZM445.68 653.38C437.8 654.32 430.11 662.76 437.45 670.03C442.18 674.71 452.88 674.11 458.09 670.58C469.99 662.51 456.43 652.09 445.68 653.38ZM446.62 654.27C454.41 653.5 468.03 661.92 457.83 669.41C452.86 673.06 442.19 673.55 437.89 668.64C431.63 661.51 439.73 654.96 446.62 654.27ZM391.01 668.5C387.29 661.39 375.18 662.53 376.98 671.47C378.72 680.09 389.6 675.12 391.01 668.5ZM389.77 668.5C388.7 674.06 382.74 676.75 378.5 672.42C377.24 663.78 385.86 662.26 389.77 668.5ZM0.17 686.02C37.61 686.12 75.06 686.22 112.5 686.31C114.17 689.27 115.83 692.23 117.5 695.19C146.17 695.27 174.83 695.36 203.5 695.45C205.5 698.11 208.47 702.59 211.75 703.75C216.53 705.43 226.19 704.15 231.5 704.15C245.83 704.15 260.17 704.15 274.5 704.15C319.83 704.15 365.17 704.15 410.5 704.15C433.8 704.15 457.21 704.8 480.5 704.05C481.79 701.2 483.08 698.35 484.36 695.5C541.6 695.17 598.84 694.83 656.07 694.5C655.45 691.83 654.83 689.17 654.2 686.5C682.75 686.34 711.29 686.18 739.83 686.02C739.81 703.93 739.78 721.84 739.75 739.75C493.25 739.75 246.75 739.75 0.25 739.75C0.22 721.84 0.19 703.93 0.17 686.02Z" fill="#FFFFFF" fill-rule="evenodd" stroke="#FFFFFF" stroke-width="0.25" stroke-linejoin="round"/>
<path d="M547.11 0.17C549.03 0.17 550.95 0.17 552.87 0.17C556.24 3.43 561.05 5.69 564.89 8.55C571.14 13.19 577.04 18.46 582.42 24.08C610.71 53.63 625.97 92.03 628.73 132.5C633 132.5 637.26 132.5 641.53 132.5C640.09 126.77 636.85 121.61 636.05 115.5C634.54 103.96 637.79 91.94 646.11 83.62C648.4 81.33 651.21 79.67 653.57 77.5C646.61 56.26 635.92 35.95 622.37 18.17C617.58 11.88 612.04 6.3 607.1 0.17C608.4 0.17 609.71 0.17 611.01 0.17C614.5 5.25 619.2 9.64 622.99 14.56C628.85 22.17 634.22 30.22 638.98 38.56C643.43 46.34 647.33 54.44 650.8 62.7C652.68 67.19 653.9 72.28 656.5 76.34C674.76 69.69 682.57 75.31 695.5 86.87C695.32 80.23 692.21 72.75 690.13 66.41C684.61 49.64 677.24 33.46 668.23 18.28C664.75 12.41 659.28 6.45 656.91 0.17C657.93 0.17 658.96 0.17 659.98 0.17C661.86 4.33 665.07 8.09 667.49 12C672.15 19.51 676.46 27.27 680.33 35.22C689.08 53.19 693.86 71.84 699.5 90.83C701.76 88.94 703.4 86.2 705.7 84.17C713.38 77.41 722.58 75.75 732.5 77.4C732.27 69.5 728.65 60.9 726.14 53.41C719.87 34.7 711.22 17.56 702.03 0.17C703.04 0.17 704.05 0.17 705.05 0.17C715.09 19.16 724.46 38.18 730.59 58.86C731.66 62.49 734.37 76.2 736.11 78.31C737.08 79.48 738.5 79.72 739.83 80.11C739.83 81.11 739.83 82.1 739.83 83.1C736.03 81.92 732.56 79.73 728.46 79.24C718.96 78.12 709.38 82.57 703.7 90.22C701.6 93.05 700.68 96.58 698.5 99.16C696.63 97.05 696.3 94.25 694.91 91.61C692.27 86.57 687.74 82.41 682.81 79.68C663.6 69.02 641.29 84.45 638.43 104.74C637.46 111.61 638.73 118.85 641.36 125.21C642.84 128.8 645.47 131.77 645.8 135.5C641.38 135.48 637.01 134.74 632.5 135.15C625.33 135.8 613.33 139.26 609.28 145.5C613.52 147.17 617.76 148.83 622 150.5C618.16 159.83 614.32 169.17 610.48 178.5C653.6 178.61 696.71 178.73 739.83 178.84C739.83 179.57 739.83 180.29 739.83 181.02C695.86 181.18 651.9 181.34 607.93 181.5C607 183.17 606.08 184.83 605.15 186.5C613.84 191.42 631.89 201.93 636.68 210.5C629.22 221.23 617.5 230.42 606.67 237.5C608.15 240.83 610.81 243.6 612.95 246.62C618.41 254.3 625.23 264.22 627.13 273.5C624.23 275.17 621.33 276.83 618.43 278.5C643.9 303.75 662 329.79 676.5 362.65C682.56 360.96 688.05 357.84 694.5 357.05C714.05 354.66 726.02 363.04 739.83 374.92C739.83 376.26 739.83 377.61 739.83 378.95C733.31 372.77 727.68 367.04 719.23 363.31C698.21 354.03 674.9 362.05 661.67 380.19C657.74 385.59 654.68 392.14 653.34 398.69C652.62 402.21 652.59 405.76 651.5 409.1C646.85 407 642.7 404.01 637.46 403.22C621.54 400.81 606.5 410.85 603.46 426.85C601.68 436.16 605.06 439.53 605.5 447.03C602.98 447.63 600.67 445.32 598.24 444.31C593.56 442.38 588.55 441.71 583.5 441.82C565.48 442.24 548.77 454.77 547.12 473.5C546.81 477.01 546.74 480.79 547.37 484.26C547.99 487.63 550.46 491.21 550.29 494.5C543.87 494.74 537.4 491.88 530.57 492.38C511.37 493.8 495.73 508.91 495.23 528.5C576.76 528.66 658.3 528.82 739.83 528.98C739.83 529.69 739.83 530.4 739.83 531.11C657.72 531.19 575.61 531.26 493.5 531.33C488.79 513.92 506.41 494.76 522.54 491.09C530.8 489.21 538.33 490.81 546.5 490.81C542.09 474.63 545.48 456.57 560.05 446.53C565.33 442.9 571.22 441.43 577.21 439.5C575.43 417.1 565.61 394.44 551.45 377.07C547.59 372.33 543.47 366.6 538.44 363.02C534.36 360.12 528.56 358.69 524.01 356.49C518.68 353.92 513.82 350.39 508.5 347.93C501.58 358.87 495.06 370.15 485.5 379.1C477.02 375.41 469.22 365.06 463.65 357.81C461.32 354.79 459.33 351.2 456.5 348.77C454.5 350.32 450.47 352.52 449.34 354.76C447.07 359.24 446.84 368.35 445.94 373.49C443.61 386.83 441.29 400.16 438.96 413.5C437.66 420.94 434.23 430.54 435.5 437.86C447.79 428.8 460.67 420.27 475.56 416.14C497.78 409.97 525.63 415.28 541.08 433.5C537.46 440.34 529.4 446.17 523.25 450.74C505.6 463.84 483.85 472.61 461.5 470C448.88 468.53 442.24 463.62 431.44 458.5C422.95 506.83 414.45 555.17 405.96 603.5C417.68 616.53 419.59 621.5 419.5 639.26C437.75 631.84 443.57 633.4 461.5 639.88C460.27 629.51 450.31 615.8 443.32 608.19C439.97 604.55 435.17 601.66 432.68 597.5C438.43 596.3 445.27 599.51 450.73 601.72C462.83 606.63 474.01 614.04 483.52 622.97C488.05 627.22 491.69 633.12 496.5 636.79C495.92 618.29 482.25 586.78 473.32 570.19C469.98 563.98 459.87 551.26 459.07 545.5C467.07 545.46 479.77 552.63 486.73 556.77C512.27 571.95 532.22 596.05 541.5 624.36C544.33 620.48 544.63 613.49 546.04 608.54C548.86 598.63 557.14 575.5 565.5 569.66C567.19 571.93 564.99 584.67 564.93 588.5C564.74 599.29 566.93 621.07 573.5 629.85C576.16 626.87 578.31 623.45 580.96 620.45C592.27 607.69 606.15 597.55 622.22 591.65C628.17 589.46 635.95 586.43 642.18 587.5C640.37 591.68 632.07 597.63 628.61 602.14C618.97 614.67 612.22 634.04 616.5 649.71C620.7 647.52 624.52 644.51 628.54 641.98C637.93 636.07 647.72 630.68 658.01 626.5C663.33 624.34 670.43 620.66 676.05 621.5C673.57 626.97 667.44 631.32 664.11 636.66C655.71 650.11 650.98 666.9 653.5 682.76C682.28 682.89 711.06 683.01 739.83 683.14C739.83 684.1 739.83 685.06 739.83 686.02C711.29 686.18 682.75 686.34 654.2 686.5C654.83 689.17 655.45 691.83 656.07 694.5C598.84 694.83 541.6 695.17 484.36 695.5C483.08 698.35 481.79 701.2 480.5 704.05C457.21 704.8 433.8 704.15 410.5 704.15C365.17 704.15 319.83 704.15 274.5 704.15C260.17 704.15 245.83 704.15 231.5 704.15C226.19 704.15 216.53 705.43 211.75 703.75C208.47 702.59 205.5 698.11 203.5 695.45C174.83 695.36 146.17 695.27 117.5 695.19C115.83 692.23 114.17 689.27 112.5 686.31C75.06 686.22 37.61 686.12 0.17 686.02C0.17 685.06 0.17 684.1 0.17 683.14C8.41 684.17 17.17 683.43 25.5 683.43C42.17 683.43 58.83 683.43 75.5 683.43C83.92 683.43 103.21 684.98 110.1 682.5C104.17 673.84 96.49 666.52 87.73 660.76C83.22 657.8 77.45 655.99 73.54 652.5C77.86 649.43 86.13 650.7 91.5 650.89C109.85 651.55 127.55 657.74 143.5 666.55C143.95 660.02 133.88 644.21 130.01 638.44C123.29 628.44 114.93 619.53 105.55 611.99C102.95 609.9 99.5 606.26 96.26 605.3C91.47 603.88 72.7 605.07 66.5 605.07C44.4 605.07 22.26 605.49 0.17 605.02C0.17 604.3 0.17 603.58 0.17 602.86C30.2 602.74 60.24 602.62 90.27 602.5C88.61 597.8 93.43 599.22 96.71 599.6C104.02 600.45 111.13 602.54 118.5 602.57C138.67 602.65 159.39 603.85 179.5 602.41C182.91 594.76 185.49 580.65 192.5 575.77C193.83 584.58 195.17 593.4 196.5 602.21C202.17 602.31 207.83 602.4 213.5 602.5C215.94 582.36 189.79 563.26 171.5 562.14C166.56 561.84 161.59 562.19 156.78 563.4C153.32 564.27 150.15 566.35 146.7 566.5C145.99 561.95 146.88 557.47 145.58 552.81C140.94 536.23 126.82 531.89 111.5 533.1C110 526.02 111.38 518.95 108.67 511.77C101.09 491.74 79.57 480.55 58.88 486.46C48.81 489.33 45.46 495.03 37.5 499.34C35.42 494.74 34.79 489.71 32.35 485.16C25.8 472.96 13.62 465.87 0.17 464.04C0.17 463.33 0.17 462.63 0.17 461.92C1.71 461.78 3.25 461.64 4.79 461.5C12.84 436.71 23 413.01 37.99 391.53C47.46 377.95 58.13 365.06 70.18 353.68C77.21 347.04 85.43 341.52 92.32 334.85C95.85 331.43 98.78 327.36 102.52 324.01C109.5 317.77 117.33 313.09 124.73 307.5C117.75 296.85 112.11 286.24 106.5 274.82C97.52 277.79 88.81 284.24 80.92 289.45C59.34 303.71 39 320.96 22.22 340.73C17.78 345.97 13.35 351.25 9.23 356.73C6.2 360.75 3.59 365.41 0.17 369.02C0.17 367.39 0.17 365.76 0.17 364.12C5.33 359.63 9.09 352.39 13.48 347C22.09 336.41 31.45 326.22 41.5 316.98C61.44 298.64 83.73 284.03 107.12 270.58C118.29 264.16 131.37 260.99 142.97 255.5C142.03 243.7 138.5 231.55 140.5 219.69C153.09 216.7 167 221.71 179.5 222.82C181.66 213.49 183.42 204.29 186.63 195.21C187.86 191.75 188.81 187.74 191.5 185.23C204.27 190.21 216.48 196.25 227.5 204.47C235.82 194.85 243.03 178.87 254.5 172.3C264.64 179.84 273.19 191.97 279.5 202.78C283.45 201.27 286.88 198.24 290.54 195.99C297.93 191.45 306.95 185.98 315.5 184.33C319.17 194.28 322.83 204.22 326.5 214.17C332.76 208.95 339.01 203.72 345.27 198.5C337.64 189.43 327.29 175.1 324.75 163.5C335.52 155.7 350.07 153.7 362.5 150.03C362.51 146.5 361.01 142.91 360.27 139.38C358.36 130.15 355.9 118.89 357.5 109.58C368.81 106.26 385.72 110.42 397.4 111.5C400.49 98.49 401.58 85.14 407.5 72.85C420.79 74.19 431.54 84.2 443.5 88.96C450.03 77.99 456.82 66.41 466.5 57.86C474.53 61.63 482.06 71.13 487.44 78.11C489.97 81.4 492.22 85.75 495.5 88.1C506.04 79.4 517.85 72.2 530.5 66.97C538.11 75.33 541.09 94.06 544.5 104.8C556.5 102.36 572.08 97.11 584.23 99.5C586.38 108.9 585.15 119.98 583.97 129.5C583.53 133.02 582.45 136.52 582.5 140.03C587.08 141.04 591.8 141.36 596.41 142.24C599.12 142.76 602.7 144.49 605.45 144.01C607.75 143.61 610.63 140.43 612.71 139.2C616.92 136.71 621.51 135.4 625.97 133.5C625.26 89.65 604.18 46.92 571.86 17.62C564.23 10.71 555.28 6.18 547.11 0.17ZM120.5 14.65C122.1 19.98 122.2 25.6 124.7 30.78C131.06 43.92 146.14 50.88 160.29 47.67C164.61 46.69 168.85 44.59 172.36 41.91C175.03 39.87 176.97 36.75 180.2 36.5C180.44 39 177.93 40.97 176.61 43.11C174.47 46.56 172.77 50.48 172.16 54.51C169.82 70.05 179.61 85.32 194.8 89.6C200.53 91.21 206.65 89.93 212.08 91.5C208.64 94.77 200.87 95.36 196.17 98.65C183.15 107.77 179.28 125.45 187.25 139.27C190.43 144.79 199.44 150.8 200.85 154.5C197.69 154.7 195.19 152.55 192.15 151.43C188.45 150.08 184.45 149.24 180.5 149.27C164.14 149.39 151.62 162.9 150.45 178.75C150.03 184.44 152.54 189.74 152.5 195.14C150.77 194.45 152.28 195.78 150.78 194.82C150.35 194.54 145.12 184.52 143.73 182.75C137.71 175.11 127.35 170.46 117.64 171.38C109.28 172.18 101.76 176.53 96.47 182.94C94.1 185.8 92.3 188.91 90.8 192.3C90.49 193 90.14 194.63 89.31 194.9C87.44 195.52 89.59 194.39 87.5 194.54C88.52 188.73 90.27 183.54 89.74 177.51C88.43 162.55 75.74 149.64 60.5 149.27C56.24 149.17 51.97 150.03 47.99 151.5C45.13 152.56 42.48 154.84 39.5 154.45C40.29 151.59 43.34 150.31 45.74 148.23C48.96 145.46 51.64 141.91 53.61 138.16C60.94 124.16 56.55 106.75 43.31 98.15C39.04 95.38 31.08 94.52 28.23 91.5C33.5 89.82 39.66 91.18 45.27 89.66C59.34 85.83 70.37 71.21 68.35 56.45C67.75 52.08 66.51 48.03 64.33 44.18C62.61 41.16 60.11 39.42 60.5 35.97C65.33 38.33 68.77 43.13 73.93 45.53C87.73 51.96 104.67 47.31 113.28 34.76C116.08 30.7 117.76 25.91 118.52 21.07C118.76 19.52 118.35 17 119.14 15.65C120.39 13.5 118.88 16.55 120.5 14.65ZM120.5 27.25C117.28 30.58 115.94 36.29 112.57 40.08C104.22 49.46 90.48 52.84 78.54 49.92C75.01 49.06 71.85 47.24 68.5 45.96C69.49 51.23 71.39 55.93 71.06 61.5C69.95 80.2 57.1 88.44 41 93.5C43.11 95.09 45.52 96.24 47.58 97.94C58.29 106.78 62.39 121.26 57.99 134.46C56.3 139.51 53.01 143.16 50.5 147.64C55.18 147.35 59.73 146.44 64.48 147.12C77.03 148.91 87.47 158.46 90.94 170.55C92.12 174.66 92.05 178.76 92.5 182.95C96.27 179.69 99.25 175.82 103.73 173.23C114.99 166.74 129.64 167.54 139.99 175.49C142.8 177.64 144.99 180.43 147.5 182.88C148.15 179.14 148.1 175.29 149.04 171.54C152.15 159.12 162.8 149.09 175.54 147.15C180.38 146.42 185.06 147.71 189.75 147.5C180.02 133.45 176.05 117.86 187.52 103.06C190.76 98.88 195.14 96.6 199.22 93.5C182.96 88.27 170.36 80.53 169.25 61.5C168.93 55.97 171.16 51.1 171.5 45.86C150.69 56.32 128.77 49.73 120.5 27.25ZM304.5 51.4C314.74 47.63 328.4 45.89 337.94 52.54C343.08 56.12 347.8 62.11 351.5 66.84C346.43 66.09 340.97 61.61 335.2 60.4C323.65 57.97 310.79 59.66 300.72 66.22C298.2 67.86 296.02 69.98 293.5 71.58C282.35 48.9 270.91 38.58 245.69 33.5C249.73 30.7 255.62 30.84 260.5 30.86C273.66 30.92 286.26 35.7 296.48 43.99C299.32 46.29 301.58 49.2 304.5 51.4ZM303.5 52.72C289.44 37.91 272.34 29.85 251.52 32.5C253.99 34.29 257.33 34.93 260.43 36.14C265.39 38.09 270.24 40.75 274.47 43.99C280.69 48.76 286.13 54.75 290.01 61.57C291.57 64.32 292.64 67.19 294.5 69.69C303.32 61.51 316.47 57.13 328.47 58.28C334.02 58.81 340.06 61.81 345.29 61.5C332.85 45.7 320.86 48.44 303.5 52.72ZM114.8 60.43C163.34 54.19 185.32 121.72 142.6 145.09C136.66 148.34 130.26 150.34 123.5 150.95C76.54 155.24 56.45 91.2 96.3 66.82C101.97 63.35 108.22 61.28 114.8 60.43ZM467.5 61.23C460.48 64.96 449.6 83.1 445.78 90.5C451.34 97.64 458.9 101.96 462.59 110.88C463.97 114.21 464.83 117.9 465.06 121.5C465.14 122.95 464.43 125.97 465.24 127.21C466.06 128.46 465.38 126.74 466.5 127.72C467.23 127.54 468.2 127.82 468.77 127.15C470.34 125.28 468.91 118.88 468.84 116.5C468.61 109.17 468.09 101.82 467.69 94.5C467.5 91.05 466.39 87.65 468.5 84.93C470.88 88.66 470.04 94.1 470.24 98.5C470.67 107.68 470.18 118.16 472.5 126.98C474.59 126.98 476.68 126.98 478.77 126.98C476.62 111.1 482 101.57 492.76 90.5C487.26 79.16 476.55 69.75 467.5 61.23ZM111.76 63.4C67.2 71.65 66.17 135.29 109.45 147.12C115.64 148.81 122.14 148.86 128.43 147.72C173.14 139.61 174.09 75.39 130.53 63.94C124.46 62.34 117.94 62.26 111.76 63.4ZM529.5 70.26C507.86 78.78 475.77 99.99 481.5 126.9C489.5 128.57 497.5 130.23 505.5 131.9C510.5 118.89 515.5 105.89 520.5 92.88C521.72 94.18 521 92.05 521.88 93.68C522.96 95.65 519.72 101.49 518.98 103.48C515.41 113.14 512.02 122.86 508.39 132.5C515.76 136.52 523.13 140.54 530.5 144.56C547.5 129.95 543.58 107.38 537.27 88.27C535.32 82.39 533.28 75.2 529.5 70.26ZM409.5 75.63C406.55 80.23 405.3 86.17 403.9 91.45C399.01 109.85 394.86 139.19 415.5 149.85C422.2 145.4 428.9 140.95 435.59 136.5C433.38 127.45 427.64 118.28 423.66 109.79C421.87 105.95 418.55 101.37 419.5 97.26C422.66 99.57 423.94 104.32 425.62 107.88C429.78 116.7 433.16 126.73 438.5 134.88C446.41 132.42 454.32 129.96 462.22 127.5C465.67 100.16 431.2 82.7 409.5 75.63ZM581.5 101.56C569.12 102.45 557.16 103.77 545.27 107.5C544.8 112.77 545.62 118.18 545 123.5C543.85 133.26 538.98 139.54 532.65 146.5C533.94 147.55 535.22 148.6 536.5 149.64C543.52 142.83 549.69 135.03 556.41 127.9C559.18 124.96 561.77 120.67 565.5 119.3C566.01 123.1 561.65 125.93 559.17 128.7C552.36 136.31 545.05 143.61 538.57 151.5C539.88 152.86 541.19 154.22 542.5 155.58C554.76 141.69 561.47 141.16 579.5 139.69C581.95 128.02 584.76 113.22 581.5 101.56ZM147.11 110.5C143.92 110.95 141.09 108.99 137.68 109.4C134.06 109.82 131.76 112.74 128.56 113.5C127.63 106.36 143.39 104.85 147.11 110.5ZM397.16 114.5C385.37 111.37 372.57 110.77 360.41 111.5C358.28 120.96 361.73 140.59 365.99 149.5C381.52 149.54 392.55 148.87 403.5 161.71C404.79 160.31 406.08 158.9 407.37 157.5C400.44 150.65 392.97 144.31 385.9 137.59C382.93 134.76 378.92 132.15 377.17 128.5C381.03 127.84 383.86 132.24 386.7 134.82C394.23 141.68 401.47 149.2 409.5 155.46C410.59 154.14 411.68 152.82 412.78 151.5C404.67 145.51 399.6 137.58 398.08 127.49C397.43 123.18 398.06 118.71 397.16 114.5ZM114.75 117.5C111.38 117.83 108.43 116 104.91 117.46C101.49 118.88 100.52 122.67 97.5 124.19C97.13 115.91 111.71 109.58 114.75 117.5ZM138.5 119.89C140.06 131.08 112.85 136.83 108.5 126.38C108.62 126.31 109.24 125.62 109.52 125.55C110.63 125.28 112.82 127.2 113.79 127.67C116.46 128.96 119.54 129.57 122.5 129.38C130.2 128.88 132.81 123.34 138.5 119.89ZM464.63 130.35C453.2 131.83 441.91 135.67 431.93 141.45C421.98 147.21 413.32 154.7 406.12 163.68C366.36 213.23 392.4 287.24 452.47 304.04C463.57 307.14 475.82 308.24 487.29 306.62C549.02 297.88 584.18 230.25 553.36 175.14C547.79 165.17 540.21 156.3 531.34 149.11C522.05 141.56 511.02 136.19 499.54 132.95C488.3 129.77 476.24 128.85 464.63 130.35ZM618.5 151.4C595.47 142.66 561.59 134.02 544.64 157.5C549.26 164.41 553.88 171.32 558.5 178.23C567.16 174.74 575.52 170.4 584 166.49C587.85 164.72 592.57 161.37 596.75 161.5C595.65 165.21 590.13 166.46 586.58 168.12C580.4 171.02 563.45 177.41 559.38 181.5C561.75 189.2 564.13 196.9 566.5 204.61C588.84 206.92 601.97 188.35 610.99 170.52C613.74 165.09 618.47 157.52 618.5 151.4ZM401.97 164.5C397.12 156.01 386.82 152.24 377.5 151.78C360.79 150.97 342.61 156.7 327.94 164.5C329.29 169.97 332.6 175.18 335.47 180.03C345.18 196.43 362.48 219.4 384.5 212.73C386.03 204.65 387.56 196.58 389.08 188.5C379.72 184.63 370.01 181.52 360.51 178.01C357.2 176.79 351.5 175.95 350.5 172.68C354.06 171.99 358.23 174.51 361.67 175.76C371 179.13 380.79 183.9 390.5 185.78C394.32 178.69 398.15 171.59 401.97 164.5ZM254.5 175.8C248.78 179.62 244.12 185.97 239.97 191.42C228.37 206.65 216.37 227.16 228.5 245.55C236.5 244.32 244.5 243.09 252.5 241.86C254.18 232.57 252.93 221.99 252.93 212.5C252.93 210.14 252.16 202.44 253.18 200.68C254.3 198.74 253.01 201.48 254.5 199.79C257.58 208.55 254.79 230.7 255.63 241.5C263.63 242.83 271.63 244.17 279.64 245.5C285.56 238.97 286.25 228.71 284.17 220.45C279.89 203.49 267.24 187.42 254.5 175.8ZM313.5 187.28C302.28 192.75 291.46 197.93 281.43 205.5C283.85 213.58 288.03 220.67 287.87 229.5C287.76 235.75 284.98 240.78 283.2 246.5C289.95 249.09 289.53 244.04 291.83 238.39C294.63 231.5 297.47 224.63 300.26 217.74C300.95 216.05 302.12 211.02 303.75 210.14C305.41 209.24 303.61 210.59 305.5 210.04C300.44 222.86 295.38 235.68 290.31 248.5C292.04 249.48 293.77 250.47 295.5 251.45C298.9 242.33 303.05 235.21 311.58 230.01C315.74 227.48 321.13 226.4 324.86 223.5C323.36 214.52 321.23 205.88 318.24 197.28C317.06 193.89 316.04 189.75 313.5 187.28ZM192.5 188.32C187.04 195.75 183.42 214.26 182.2 223.5C189.93 227.97 198.63 229.59 205.01 236.51C209.2 241.06 210.22 246.78 213.5 251.63C219.08 249.04 215.03 245.06 213.04 240.47C210.16 233.8 201.2 216.83 201.5 210.66C204.92 212.65 205.93 217.31 207.51 221C211.45 230.18 214.98 239.7 219.5 248.6C221.5 247.9 223.5 247.21 225.5 246.52C224.44 242.39 221.86 238.81 221.14 234.46C219.58 224.98 222.65 216.03 226.41 207.5C217.82 198.44 203.89 192.95 192.5 188.32ZM603.5 188.68C600.01 191.52 597.49 195.52 594 198.52C585.96 205.42 577.39 207.42 567.04 207.5C567.01 214.72 571.86 212.05 577.5 211.89C584.84 211.69 592.16 211.07 599.5 210.85C602.96 210.75 606.45 209.86 609.41 211.5C606.23 213.88 601.61 213.08 597.5 213.32C587.47 213.92 577.28 213.9 567.32 215.23C567.32 217.13 567.32 219.03 567.32 220.93C587.13 220.59 590.17 223.46 604.5 235.71C615.09 229.32 625.71 220.31 633.3 210.5C626.08 201.32 613.77 193.99 603.5 188.68ZM347.5 201.26C341.82 204.4 336.37 208.7 331.62 213.1C330.37 214.25 327.63 216.09 327.06 217.71C326.43 219.46 327.14 221.36 327.5 223.08C341.85 221.1 352.59 218.9 367.5 218.9C368.17 220.07 368.83 221.23 369.5 222.4C374.56 222.4 379.62 222.4 384.67 222.4C384.67 220.28 384.67 218.16 384.67 216.03C366.08 216.32 360.88 213.41 347.5 201.26ZM434.74 202.36C443.83 200.79 447.51 214.78 438.43 216.9C428.48 219.23 425 204.05 434.74 202.36ZM515.6 218.49C525.48 218.25 525.39 233.49 515.5 233.3C506.01 233.13 506.11 218.73 515.6 218.49ZM365.52 221.5C360.58 220.94 355.45 221.69 350.5 222.05C333.82 223.26 298.25 230.91 298.5 253.2C305.17 257.86 311.83 262.52 318.5 267.18C325.21 259.87 332.54 253.08 339.53 246.03C341.92 243.62 345.16 238.89 348.56 238.5C348.37 242.59 343.94 245.54 340.99 248.5C334.05 255.45 326.63 262.14 320.14 269.5C324.93 276.03 329.71 282.55 334.5 289.08C357.43 286.48 362.96 257.99 365.21 239.51C365.93 233.56 366.35 227.43 365.52 221.5ZM210.5 252.54C204.15 231.42 184.41 225.55 164.5 223.02C157.44 222.12 149.41 220.7 142.52 222.5C142.16 243.85 146.65 285.76 173.94 289.5C178.77 282.83 183.6 276.17 188.44 269.5C178.79 259.48 169.15 249.46 159.5 239.45C160.14 239.44 160.74 238.96 161.37 239.06C162.81 239.26 167.81 245.1 169.11 246.39C176.22 253.5 183.21 260.77 190.5 267.69C197.17 262.64 203.83 257.59 210.5 252.54ZM738.08 222.5C734.82 225.92 730.9 228.66 727.54 232.04C718.24 241.4 711.85 252.44 707.5 264.83C703.72 262.86 700.69 258.88 697.33 256.08C692.56 252.1 687.24 248.68 681.82 245.66C670.98 239.61 658.64 235.79 646.4 234.26C642.76 233.8 639.11 234.14 635.5 233.56C638.48 229.74 644.7 227.83 649.2 226.61C666.98 221.81 684.6 228.74 695.5 243.31C698.57 240.73 700.53 236.86 703.58 234.06C712.4 225.99 726.06 219.68 738.08 222.5ZM623.91 272.5C622.69 267.06 619.32 261.83 616.48 257.03C606.85 240.77 589.45 217.47 567.5 224.15C565.94 232.27 564.38 240.38 562.82 248.5C572.29 252.21 581.94 255.49 591.5 258.98C594.58 260.1 600.36 261.05 601.5 264.05C598.18 265.22 593.7 262.51 590.3 261.28C580.95 257.9 571.21 253.11 561.5 251.17C557.61 258.28 553.71 265.39 549.82 272.5C564.95 295.45 604.3 282.69 623.91 272.5ZM735.24 223.5C724.39 221.66 712.22 227.52 704.53 235.03C701.27 238.21 698.93 242.7 695.5 245.32C682.58 228.12 658.07 218.39 638.82 232.5C646.38 233.75 653.95 234.07 661.44 236.12C678.65 240.82 693.85 250.46 706.5 262.86C709.83 257.45 711.61 251.14 715.09 245.69C720.54 237.15 727.5 230 735.24 223.5ZM384.71 229.5C384.79 228.19 385.52 226.05 384.25 225.03C382.98 224 370.8 225.25 368.56 225.5C368.56 227.36 368.56 229.21 368.56 231.07C373.94 230.55 379.32 230.02 384.71 229.5ZM442.5 227.3C446.07 228.49 448.3 233.5 451.21 236.29C456.32 241.17 462.91 244.99 469.81 246.58C477.32 248.32 484.9 247.99 492.23 245.64C495.4 244.62 499.34 241.44 502.5 241.77C501.81 246.71 491.56 248.69 487.08 249.53C473.95 251.98 459.54 247.93 449.88 238.61C446.88 235.71 442.15 231.65 442.5 227.3ZM385.5 232.33C379.49 231.73 374.3 232.16 368.71 234.5C367.31 242.5 365.9 250.5 364.5 258.5C367.83 259.78 376.91 262.28 380.34 261.73C384.07 261.13 388.32 258.06 391.78 256.5C389.68 248.44 387.59 240.39 385.5 232.33ZM252.55 244.49C188.42 246.03 145.88 314.67 174.89 372.61C179.81 382.43 186.51 391.49 194.64 398.89C202.88 406.39 212.71 412.49 223.16 416.37C235.77 421.06 249.07 422.78 262.5 421.79C273.13 421.01 284 417.74 293.52 413C331.41 394.13 351.87 349.62 339.75 308.63C335.04 292.71 326.17 279.61 314.43 268.07C306.86 260.62 297.34 254.93 287.53 250.95C276.51 246.47 264.45 244.2 252.55 244.49ZM143.91 258.5C142.29 259.17 140.68 259.83 139.06 260.5C141.59 260.46 142.44 260.18 143.91 258.5ZM393.5 258.68C390.64 259.95 387.79 261.23 384.93 262.5C387.64 265.11 394.96 267.76 398.85 267.5C397.06 264.56 395.28 261.62 393.5 258.68ZM144.5 262.34C132.3 264.78 120.64 267.54 109.16 272.5C110.53 282.16 120.64 299.01 127.5 306.04C135.96 302.77 144.14 299.04 153.5 300.07C158.59 300.64 162.84 302.95 167.5 304.67C168.05 302.95 168.59 301.22 169.14 299.5C160.03 294.97 150.29 291.54 140.92 287.58C139.44 286.96 131.82 284.27 131.38 283.19C130.87 281.94 131.71 283 131.5 281.59C144.5 286.66 157.5 291.73 170.5 296.8C171.22 295.36 171.95 293.93 172.67 292.5C166.21 289.03 159.95 287.43 154.96 281.52C149.89 275.52 148.68 267.8 144.5 262.34ZM363.5 262.11C360.35 271.34 356.1 280.59 347.96 286.48C344.33 289.1 339.44 289.87 336.14 292.5C339.04 298.35 342.76 294.39 347.75 292.26C354.77 289.26 361.83 286.35 368.86 283.37C371.71 282.17 374.82 279.9 377.5 281.39C376.05 284.31 370.28 285.59 367.34 286.82C358.07 290.68 348.84 294.63 339.57 298.5C340.21 300.47 340.86 302.44 341.5 304.41C349.31 300.73 356.7 298.67 365.45 300.18C371.05 301.14 376.05 304.2 381.5 305.13C387.1 297.71 391.81 289.7 395.76 281.29C397.13 278.36 399.41 274.68 399.33 271.5C388.7 266.79 375.19 261.57 363.5 262.11ZM402.5 273.15C399.83 278.99 397.17 284.82 394.5 290.65C399.84 288.5 403.95 284.17 407.18 279.5C405.62 277.38 404.06 275.27 402.5 273.15ZM547.5 275.25C546.47 276.67 545.44 278.08 544.42 279.5C551.61 286.17 559.03 292.62 566.09 299.42C568.96 302.19 573.17 304.88 574.64 308.5C570.91 309.17 568.01 304.67 565.26 302.24C557.55 295.44 550.31 288.09 542.5 281.4C541.38 282.77 540.25 284.13 539.13 285.5C553.46 295.91 553.03 305.94 554.5 322.13C565.32 326.65 579.94 326.02 591.5 325.47C593.56 315.96 590.18 296.44 585.95 287.5C576.46 287.29 567.49 288.49 558.67 283.84C554.38 281.57 551.42 277.6 547.5 275.25ZM615.5 279.39C606.83 281.87 598.17 284.34 589.5 286.82C589.4 289.68 592.43 305.44 593.72 307.81C595.43 310.94 599.62 313.8 602.1 316.39C607.66 322.19 612.82 328.49 617.49 335.04C632.15 355.58 642.6 378.06 649.5 402.32C651.93 398.24 652.23 392.4 654.32 387.8C658.81 377.92 665.82 371.18 674.11 364.5C671.54 355.25 666.27 346.23 661.59 337.88C649.45 316.18 633.85 296.2 615.5 279.39ZM409.5 281.36C406.09 284.68 403.64 288.35 399.52 291.03C397.13 292.58 393.68 293.24 391.61 295.09C388.55 297.82 386.2 303.1 383.82 306.5C386.04 307.9 388.27 309.3 390.5 310.7C398.07 302.3 405.63 293.9 413.2 285.5C411.97 284.12 410.73 282.74 409.5 281.36ZM415.5 287.24C407.9 295.66 400.3 304.08 392.7 312.5C397.3 316.02 401.9 319.53 406.5 323.05C407.32 308 408.84 301.52 419.21 290.5C417.97 289.41 416.74 288.33 415.5 287.24ZM536.5 287.12C529.75 291.58 523.01 296.04 516.26 300.5C518.7 309.85 524.52 319.1 528.59 327.9C530.23 331.46 533.32 335.74 532.5 339.58C529.21 337.71 527.95 332.64 526.32 329.19C522.1 320.27 518.57 310.59 513.5 302.14C505.54 304.59 497.58 307.05 489.62 309.5C486.42 336.35 520.65 354.95 542.5 361.28C545.47 356.37 546.79 350.14 548.21 344.59C552.98 326.02 556.62 298.24 536.5 287.12ZM421.5 292.32C413.2 299.68 409.11 308.3 409.11 319.5C409.11 321.55 408.81 324.13 409.5 326.09C410.48 328.9 413.91 330.79 415.25 333.5C414.01 335.17 412.77 336.83 411.54 338.5C414.07 347.47 416.58 359.37 422.5 366.75C444.54 356.76 475.49 338.52 470.5 310.16C462.5 308.47 454.5 306.79 446.5 305.1C441.95 311.51 438.34 326.01 435.47 333.92C434.17 337.51 433.3 341.77 430.5 344.15C429.65 339.87 432.2 335.5 433.73 331.3C436.97 322.37 440.31 313.47 443.42 304.5C436.12 300.44 428.81 296.38 421.5 292.32ZM166.44 307.5C161.36 304.39 155.56 302.23 149.51 302.34C132.95 302.65 106.75 320.5 96.9 333.5C106.7 346.54 132.33 363.74 148.77 364.51C155.26 364.82 160.98 362.65 166.5 359.48C165.17 351.25 163.83 343.02 162.5 334.79C152.83 334.68 143.17 334.76 133.5 334.76C129.49 334.76 124.01 335.73 120.87 333.5C123.99 331.12 129.45 332.14 133.5 332.14C143.17 332.14 152.83 332.2 162.5 332.11C163.81 323.91 165.13 315.7 166.44 307.5ZM411.9 333.5C408.83 327.73 401.7 322.99 396.55 318.99C382.16 307.84 359.48 294.16 342.18 307.5C343.42 315.62 344.66 323.75 345.9 331.87C359.96 331.87 374.01 331.87 388.06 331.87C387.65 332.47 387.84 333.42 387.3 333.92C386.42 334.75 378.14 334.27 376.5 334.27C366.5 334.27 356.09 333.47 346.17 334.5C344.94 342.67 343.72 350.83 342.5 359C365.68 375.17 395.93 349.4 411.9 333.5ZM485.5 309.2C480.71 310.42 482.92 315.28 483.07 319.5C483.34 327.18 483.94 334.82 484.21 342.5C484.33 345.82 485.45 349.34 483.5 351.99C480.94 348.76 481.97 343.59 481.72 339.5C481.11 329.77 481.42 319.41 479.5 309.87C477.5 309.87 475.5 309.87 473.5 309.87C473.25 314.8 474.11 319.49 473.01 324.49C471.05 333.34 465.13 340.06 459.17 346.5C465.03 357.99 475.4 366.96 484.5 375.84C491.09 371.43 504.42 353.23 505.79 345.5C498.82 340.12 492.35 333.8 489.04 325.46C487.66 321.98 486.87 310.11 486.68 309.79C485.86 308.42 486.65 310.35 485.5 309.2ZM594.5 312.51C594.5 317.51 594.5 322.5 594.5 327.5C587.8 328.66 580.29 328.46 573.5 327.87C568.32 327.41 562.39 325.75 557.35 326.5C571.48 340.39 583.47 351.27 594.01 368.55C601.57 380.97 605.75 394.2 611.5 407.37C623.07 400.18 633.52 398.82 646.5 403.3C646.4 394.84 641.47 385.07 638.25 377.27C628.9 354.64 613.2 328.62 594.5 312.51ZM292.73 319.35C301.97 317.7 305.62 331.92 296.44 333.92C286.59 336.05 283.03 321.08 292.73 319.35ZM554.5 327.89C552.97 331.86 552.75 336.25 551.86 340.45C550.15 348.48 547.94 357.15 544.21 364.5C556.12 379.14 566.05 391.63 572.84 409.63C574.9 415.12 576.58 420.83 577.83 426.56C578.77 430.85 579.01 435.28 580.5 439.4C588 438.84 594.15 440.64 601.2 442.5C601.65 438.6 600.19 434.25 600.53 430.11C601.2 421.89 605.03 416.27 609.07 409.5C601.93 380.9 579.05 344.72 554.5 327.89ZM212.64 331.24C221.68 329.71 225.44 343.64 216.36 345.79C206.34 348.17 202.97 332.87 212.64 331.24ZM95.5 336.19C87.19 340.18 77.72 349.99 71.08 356.57C49.98 377.47 32.43 401.42 19.97 428.45C15.98 437.09 7.96 453.54 7.5 462.64C17.53 466.46 26.21 471 32.41 480.14C35.26 484.33 36.65 491.73 39.5 494.77C41.17 493.14 44.04 491.62 45.18 489.63C47.02 486.4 49.61 472.54 51.22 467.66C55.69 454.08 61.66 440.85 69.02 428.57C76.9 415.44 86.24 403.37 96.84 392.32C102.44 386.48 109.82 381.42 114.99 375.46C118.37 371.57 122.71 364.14 125.02 359.5C114.35 352.48 104.65 345.16 95.5 336.19ZM408.5 340.44C401.24 347.63 392.94 353.1 384.5 358.75C385.5 361.89 388.14 364.7 389.97 367.59C394.58 374.88 402.18 387.03 402.8 395.5C395.08 399.22 386.78 401.9 378.5 404.04C374.1 405.18 368.42 405.22 364.7 407.5C365.35 410.46 367 422.59 368.25 424.19C369.54 425.83 381.84 432.65 385.08 435.43C394.93 443.87 400.7 453.68 407.5 464.48C413.15 432.82 418.8 401.16 424.46 369.5C419.12 369.81 419.07 366.9 417.12 362.38C415.19 357.9 410.93 342.61 408.5 340.44ZM287.5 345.93C287.93 351.57 279.29 356.66 274.69 359.19C262.33 366.01 247.15 366.18 234.5 360.03C231.17 358.41 227.76 356.63 225.88 353.5C229.6 352.93 232.81 356.39 236.41 358.11C241.74 360.66 247.6 361.97 253.5 361.99C262.47 362.03 271.09 359.19 278.28 353.8C281.54 351.35 283.9 347.65 287.5 345.93ZM445.5 357.17C439.49 360.61 433.49 364.06 427.48 367.5C414.43 443.5 401.37 519.5 388.31 595.5C393.25 597.5 398.19 599.5 403.13 601.5C417.25 520.06 431.38 438.61 445.5 357.17ZM381.5 360.46C364.5 366.77 359.04 368.96 341.5 362C340.75 363.43 339.27 365.54 340.18 367.2C340.73 368.21 348.44 370.91 349.94 371.53C359.16 375.29 369.33 378.53 377.94 383.5C376.84 384.67 378.72 384.01 377.28 384.88C375.92 385.7 368.78 382.15 367.08 381.46C357.68 377.59 348.26 372.68 338.5 369.84C337.8 371.39 337.1 372.95 336.41 374.5C351.62 379.5 358.56 388.66 363.5 403.6C371.34 404.33 393.62 398.37 399.92 393.5C396.32 382.23 389.61 369.18 381.5 360.46ZM127.5 361.33C120.06 371.72 113.89 382.57 109.2 394.5C115.45 399.18 137.73 405.19 145.39 404.5C148.75 394.6 153.45 384.76 162.58 379C165.76 376.99 169.41 376.09 172.76 374.5C172.01 373.14 171.25 371.78 170.5 370.41C160.87 374.18 151.42 378.44 141.89 382.44C138.61 383.81 133.74 387.32 131.32 384.5C144.11 378.83 156.91 373.17 169.71 367.5C168.97 365.73 168.24 363.97 167.5 362.2C160.93 365 154.9 367.6 147.5 367C140.31 366.42 134.29 362.75 127.5 361.33ZM174.5 377.49C151.69 379.27 145.98 409.54 143.6 427.34C142.84 432.97 142.34 439.5 143.5 445.01C147.83 445.09 152.17 445.02 156.5 444.81C175.41 443.87 208.14 436.86 210.59 413.5C203.89 408.75 197.2 404.01 190.5 399.26C183.4 406.4 176.26 413.52 169.15 420.65C166.41 423.4 163.62 427.65 159.85 427.5C161.78 423.35 166.07 420.11 169.33 416.83C175.77 410.37 182.22 403.91 188.7 397.5C183.97 390.83 179.23 384.16 174.5 377.49ZM334.5 377.32C330.5 384.32 325.85 390.6 320.37 396.5C325.28 404.01 334.92 411.6 341.42 418.08C344.41 421.06 349.08 424.01 348.5 428.14C338.5 418.46 328.5 408.77 318.5 399.08C311.81 403.89 305.11 408.69 298.42 413.5C302.87 436.01 328.9 442.29 348.5 444.08C354.33 444.61 360.2 445.37 366 444.5C366.44 439.86 366.12 435.16 365.86 430.5C364.85 412.54 357.57 378.31 334.5 377.32ZM110.5 382.95C87.33 402.78 68.99 428.97 57.76 457.29C53.96 466.88 49.9 477.2 48.78 487.5C51.75 486.66 54.59 485.08 57.62 484.18C69.25 480.72 80.76 482.31 91.5 487.66C94.7 482.88 95.8 475.93 98.05 470.55C102.41 460.15 107.97 450.2 114.5 441.01C119.67 433.73 125.54 426.68 131.98 420.47C135.91 416.68 141.67 413.25 144.27 408.5C141.62 406.63 137.9 406.55 134.54 405.85C126.91 404.25 111.45 400.85 105.97 395.5C107.48 391.32 108.99 387.13 110.5 382.95ZM142.5 415.14C137 418.05 132.34 424.02 128.05 428.56C114.04 443.41 97.85 469.24 94.45 489.5C107.41 498.83 114.53 513.55 113.71 529.5C118.21 530.29 122.83 529.94 127.37 531.2C143.61 535.68 147.45 548.21 149.5 562.92C158.3 560.7 166.3 558.73 175.5 560.05C197.26 563.18 216.68 582.62 216.82 605.07C210.28 605.07 203.74 605.07 197.2 605.07C198.26 613.35 204.1 633.95 209.5 640.02C218.08 628.22 227.13 617.89 239.91 610.43C243.98 608.06 248.3 605.89 252.71 604.24C254.96 603.39 258.1 602.97 260.01 601.49C261.28 600.5 261.97 598.67 262.93 597.41C265.06 594.63 267.69 592.08 270.49 589.97C279.17 583.41 290.67 580.14 301.5 580.98C304.6 581.22 307.61 582.21 310.66 582.5C307.6 571.35 304.55 560.19 301.5 549.04C293.86 551.42 286.58 554.26 278.5 554.99C256.24 557 226.31 546.25 215.07 525.5C228.32 513.05 256.63 510.69 273.25 515.3C281.37 517.55 288.09 523.38 295.02 525.5C289.18 506.31 283.34 487.13 277.5 467.94C271.02 476.64 264.11 488.76 254.5 494.22C246.82 489.01 240.29 480.03 234.98 472.49C232.86 469.5 231.15 466.07 228.5 463.67C218.51 471.13 205.83 479.6 193.5 482.19C185.72 470.77 185.59 456.04 181.17 443.5C168 445.54 154.78 448.74 141.27 447.5C137.6 439.01 142.46 424.36 142.5 415.14ZM213.5 415.22C205.8 432.59 201.84 435.33 184.29 442.5C184.56 454.67 189.49 467.97 194.5 478.99C203.3 477.3 221.82 467.44 227.6 460.5C220.17 446.52 219.16 434.89 225.86 420.5C219.6 416.6 219.24 423.01 217.27 427.72C214.32 434.8 211.41 441.9 208.52 449C207.23 452.18 206.73 455.72 203.5 456.76C203.28 452.69 206.17 448.11 207.73 444.28C211.35 435.41 215.46 426.58 218.48 417.5C216.82 416.74 215.16 415.98 213.5 415.22ZM295.5 415.09C294.59 415.47 292.83 415.76 292.38 416.79C291.82 418.05 295.32 424.94 295.99 426.51C298.73 432.93 307.88 450.24 307.5 456.04C304.05 454.39 303.03 449.53 301.51 445.97C297.58 436.7 293.87 427.25 289.5 418.18C287.42 418.95 285.33 419.73 283.25 420.5C291.25 434.88 287.62 445.18 282.52 459.5C292.51 467.35 304.34 474.25 316.5 478.1C321.8 470.03 326.23 452.62 326.5 443.02C317.37 438.29 307.93 435.83 301.44 427.06C298.71 423.36 297.75 418.93 295.5 415.09ZM537.66 433.5C514.21 410.45 480.58 412.49 453.95 428.46C448.43 431.77 434.62 439.25 433.4 445.5C440.05 445.86 447.9 442.36 454.51 441.07C468.45 438.37 482.35 436.33 496.53 435.4C502.84 434.99 512.54 433.36 518.12 436.5C515.75 438.57 512.86 437.77 509.5 437.72C503.5 437.64 497.49 437.87 491.5 438.18C478.78 438.86 465.9 441.25 453.49 443.96C446.57 445.48 438.6 446.29 432.28 449.5C432.28 451.5 432.28 453.5 432.28 455.5C459.06 475.29 493.36 468.76 519.08 450.55C525.51 445.99 533.51 440.29 537.66 433.5ZM228.5 421.43C214.61 446.13 236.5 474.49 254.5 490.87C259.28 487.52 263.4 482.17 267.05 477.59C279.17 462.4 293.36 440.14 280.5 421.24C272.49 422.33 264.47 423.41 256.46 424.5C254.99 434.17 256 444.68 256 454.5C256 458.54 257.06 463.97 254.5 467.06C252.44 463.66 253.39 458.51 253.39 454.5C253.39 444.85 254.78 433.86 252.71 424.5C244.64 423.48 236.57 422.46 228.5 421.43ZM368.5 427.93C367.95 434.46 371.05 443.09 366.96 448.5C375.8 455.92 384.14 464.07 391.9 472.62C395.09 476.14 400.15 483.46 403.96 485.5C405.13 481.94 407.32 473.29 406.72 469.69C406.09 465.94 402.91 461.68 401.02 458.43C393.88 446.12 382.14 433.05 368.5 427.93ZM329.63 443.5C327.92 447.31 327.76 452.27 326.8 456.41C324.88 464.74 322.02 473.04 318.5 480.82C313.5 479.38 308.5 477.93 303.5 476.48C310.5 499.93 317.5 523.39 324.5 546.84C327.22 542.29 329.56 537.58 332.97 533.48C344.44 519.65 362.71 511.98 380.5 511.97C381.68 516.79 380.52 521.89 379.35 526.72C375.37 543.19 365.43 557.56 350.87 566.41C344.73 570.14 337.92 571.55 331.54 574.5C334.53 585.63 337.51 596.77 340.5 607.9C348.34 603.95 354.78 598.47 363.54 596.04C370.85 594.02 377.72 594.89 385.05 594.5C390.2 564.54 395.35 534.57 400.5 504.61C378.27 499.19 359.09 488.92 345.04 470.41C341.07 465.19 337.77 459.43 334.98 453.5C333.35 450.01 332.62 445.87 329.63 443.5ZM334.5 445.16C340.04 466.57 360.64 486.32 380.15 495.38C386.47 498.31 394.39 501.87 401.39 501.5C402.13 498.13 403.88 492.97 403.05 489.56C402.45 487.08 395.84 480.83 393.86 478.66C386.69 470.8 379.13 463.39 371.44 456.05C368.75 453.49 364.86 448.48 361.22 447.43C358.27 446.59 354.55 447.24 351.5 447.01C345.81 446.58 340.17 445.16 334.5 445.16ZM335.5 600.65C334.81 591.55 329.63 577.72 327.16 568.44C320.35 542.82 312.93 517.38 305.53 491.92C304.33 487.83 302.26 476.69 299.71 473.81C297.32 471.11 292.15 469.41 289.06 467.45C286.51 465.83 283.45 462.69 280.5 462.54C279.82 467.6 282.32 472.73 283.8 477.63C286.2 485.59 288.59 493.57 290.97 501.54C296.53 520.14 301.65 538.87 306.95 557.54C308.37 562.51 311.87 580.17 314.14 583.33C315.98 585.89 320.84 587.1 323.46 588.99C328.15 592.37 331.2 597.04 335.5 600.65ZM298.33 536.5C297.9 534.74 297.61 532.38 296.59 530.83C294.26 527.3 285.24 523.02 281.35 521.17C266.55 514.13 249.78 513.85 234.29 518.75C229.06 520.4 222.62 522.55 218.82 526.5C236.3 550.22 273.81 561.18 300.19 546.32C300.19 544.36 300.19 542.39 300.19 540.42C285.9 535.96 270.44 532.47 255.5 531.17C250.49 530.73 245.53 530.21 240.5 530.12C238.95 530.1 236.07 530.65 234.71 529.82C232.96 528.77 235.37 529.9 233.86 528.5C244.97 524.97 270.48 530.58 282.42 533.21C287.58 534.34 293.1 536.59 298.33 536.5ZM378.5 515.13C361.07 512.98 341.41 525.33 331.94 539.38C329.72 542.67 325.94 547.71 325.47 551.74C325.2 554.1 326.87 557.45 327.5 559.73C331.22 557.76 334.36 553.04 337.39 549.88C343.28 543.72 349.44 537.98 355.89 532.41C359.22 529.53 364.49 524.08 368.87 524.5C367.22 528.49 361.26 531.47 357.75 534.26C349.87 540.54 342.53 547.8 335.87 555.34C334.04 557.41 329.54 560.81 329.01 563.56C328.57 565.87 329.9 568.66 330.5 570.87C335.76 570.92 341.07 568.73 345.75 566.26C364.21 556.5 378.31 536.49 378.5 515.13ZM542.5 634.01C540.23 631.02 539.68 626.69 538.43 623.09C536.62 617.82 534.31 612.69 531.71 607.75C520.83 587.1 503.89 569.48 483.56 557.99C477.76 554.71 470.69 550.34 464.06 549.5C467.61 557.11 473.1 564.01 477 571.54C484.86 586.71 491.21 602.57 495.45 619.13C497.18 625.87 501.27 638.3 499.5 644.78C494.99 642.28 490.01 633.6 486.07 629.42C475.28 618.01 456.44 603.27 440.5 601.26C442.18 604.12 445.31 606.4 447.55 608.95C450.68 612.53 453.45 616.56 455.91 620.61C458.61 625.06 460.92 629.85 462.77 634.72C463.72 637.23 464.14 640.63 465.7 642.83C466.59 644.1 468.34 644.95 469.5 645.97C472.18 648.34 474.46 651.11 476.47 654.05C484.67 666.06 485.32 678.79 485.24 692.82C541.06 692.82 596.87 692.82 652.69 692.82C650.26 675.3 649.04 662.71 656.34 645.82C658.18 641.56 660.38 637.37 662.99 633.53C664.83 630.81 667.39 628.41 668.67 625.5C654.85 628.27 641 637.27 629.21 644.69C624.77 647.48 620.07 651.9 615.15 653.5C611.63 647.84 612.66 638.71 613.58 632.23C615.85 616.28 623.29 602.61 634.83 591.5C629.69 590.7 623.28 593.8 618.44 595.93C605.94 601.41 594.31 609.51 585.15 619.68C581.2 624.08 577.56 631.59 572.5 634.26C565.1 622.55 562.81 606.06 562.34 592.5C562.17 587.58 563.05 582.61 562.5 577.77C554.75 587.75 550.43 601.58 547.3 613.66C545.96 618.85 545.49 630.46 542.5 634.01ZM190.5 582.66C182.51 596.02 178.87 613.05 179.27 628.5C179.44 635.22 182.55 645.44 181.5 651.18C177.49 649.05 168.19 636.48 163.31 632.16C147.5 618.18 119.16 602.24 97.66 602.5C102.99 607.53 109.51 611.45 114.95 616.54C125.44 626.38 134.01 638.24 140.47 651.06C143.35 656.79 147.96 664.79 147.5 671.15C141.29 669.72 135.27 664.86 129.24 662.31C114.95 656.26 97.01 651.36 81.41 653.5C85.3 657.52 91.57 659.86 96.04 663.46C106.06 671.52 113.09 681.42 118.86 692.8C146.43 692.8 173.99 692.8 201.55 692.8C200.22 687.35 197.97 682.33 198.22 676.5C198.95 659.62 211.6 645.41 226.8 639.32C232.77 636.93 239.05 636.41 245.08 634.5C248.26 624.78 251.09 615.44 256.24 606.5C252.19 606.5 248.03 608.96 244.4 610.92C234.27 616.41 225.5 623.82 218.1 632.63C215.18 636.1 212.51 643.04 208.5 644.54C200.32 632.57 195.35 612.68 193.06 598.5C192.21 593.26 192.37 587.57 190.5 582.66ZM338.5 612.47C330.52 599.81 326.8 590.7 311 585.51C292.66 579.48 270.2 587.21 261.44 604.9C256.55 614.8 256.43 625.83 258.06 636.5C252.52 638.25 245.54 637.27 239.55 638.25C225.89 640.49 212.99 648.35 205.81 660.32C199.39 671.02 198.95 684.73 206.53 694.96C208.21 697.22 210.82 700.92 213.72 701.63C219.47 703.03 233.86 701.74 240.5 701.74C259.83 701.74 279.17 701.74 298.5 701.74C358.48 701.74 418.52 702.53 478.5 701.69C482.98 696.43 483.15 688.07 482.96 681.5C482.35 661.15 467.66 641.5 447.27 637.37C439.84 635.87 432.02 636.38 425.09 639.57C422.06 640.96 419.39 643.5 416.3 644.5C414.94 641.78 417.01 637.73 417.21 634.5C417.53 629.2 416.55 623.95 414.41 619.1C405.58 599.07 380.48 592.67 361.02 599.52C352.41 602.55 346.36 609.13 338.5 612.47ZM178.91 605.1C160.58 605.1 142.24 605.1 123.9 605.1C129.06 609.1 140.7 612.91 147.41 617.05C158.88 624.15 168.51 633.11 177.5 643.11C178.2 637.5 176.83 631.29 176.85 625.5C176.89 618.56 178.29 611.96 178.91 605.1ZM292.74 613.28C298.9 611.62 309.29 612.62 312.98 618.64C317.96 626.77 307.4 635.89 300.25 637.71C295.39 638.94 289.28 638.83 285.53 634.96C278.85 628.09 284.15 615.61 292.74 613.28ZM293.63 614.24C278.46 617.83 281.35 641.46 299.39 636.77C305.84 635.09 314.72 628.36 312.69 620.75C310.84 613.87 299.15 612.93 293.63 614.24ZM254.74 615.43C252.55 621.86 250.37 628.3 248.18 634.74C250.37 634.74 252.55 634.74 254.74 634.74C254.74 628.3 254.74 621.86 254.74 615.43ZM346.58 622.48C362.32 622.33 349.2 644.61 337.85 637.58C328.94 632.07 338.49 622.55 346.58 622.48ZM342.58 624.2C336.05 625.98 332.4 636.2 340.77 637.62C350.04 639.2 359.34 623.75 346.5 623.59C345.23 623.57 343.8 623.87 342.58 624.2ZM311.85 645.42C317.13 643.63 323.55 647.2 321.87 653.43C320.88 657.12 314.83 658.96 311.5 658.88C302.18 658.64 305.27 647.65 311.85 645.42ZM320.5 653.79C322.61 642.4 310.62 645.15 306.13 652.5C308.21 659.95 315.99 658.28 320.5 653.79ZM267.7 647.44C276.55 646.78 284.68 652.85 282.79 662.39C280.59 673.52 265.67 680.54 255.62 675.91C247.35 672.09 244.29 662.09 250.48 655C254.59 650.3 261.66 647.89 267.7 647.44ZM268.72 648.44C259.66 648.76 244.19 656.1 249.04 667.52C250.27 670.41 252.4 672.84 255.18 674.37C264.58 679.53 279.39 672.97 281.64 662.26C283.35 654.14 276.53 648.16 268.72 648.44ZM445.68 653.38C456.43 652.09 469.99 662.51 458.09 670.58C452.88 674.11 442.18 674.71 437.45 670.03C430.11 662.76 437.8 654.32 445.68 653.38ZM446.62 654.27C439.73 654.96 431.63 661.51 437.89 668.64C442.19 673.55 452.86 673.06 457.83 669.41C468.03 661.92 454.41 653.5 446.62 654.27ZM391.01 668.5C389.6 675.12 378.72 680.09 376.98 671.47C375.18 662.53 387.29 661.39 391.01 668.5ZM389.77 668.5C385.86 662.26 377.24 663.78 378.5 672.42C382.74 676.75 388.7 674.06 389.77 668.5Z" fill="#000000" fill-rule="evenodd" stroke="#000000" stroke-width="0.25" stroke-linejoin="round"/>
</svg>
