<svg xmlns="http://www.w3.org/2000/svg" width="740" height="740" viewBox="0 0 740 740">
<g>
<path d="M 207.00 699.50 L 202.58 695.00 L 159.78 695.00 L 116.97 695.00 L 114.79 690.50 L 112.60 686.00 L 56.30 686.00 C7.06,686.00 0.00,685.81 0.00,684.51 C0.00,683.21 7.05,682.98 55.13,682.76 L 110.25 682.50 L 106.11 677.26 C100.47,670.13 90.10,661.76 81.30,657.24 C77.29,655.19 74.01,652.94 74.00,652.25 C74.00,651.32 76.96,651.00 85.46,651.00 C103.44,651.00 121.57,655.26 137.35,663.19 C140.57,664.81 143.40,665.93 143.65,665.69 C143.89,665.44 142.27,661.30 140.05,656.48 C131.93,638.90 118.48,621.94 103.68,610.61 L 96.36 605.00 L 48.18 605.00 C5.74,605.00 0.00,604.82 0.00,603.48 C0.00,602.14 5.29,601.99 45.01,602.23 C81.40,602.45 89.93,602.25 89.53,601.21 C88.64,598.90 92.03,598.68 102.35,600.36 C110.35,601.66 119.63,602.01 146.12,602.00 L 179.74 602.00 L 182.47 594.25 C185.77,584.87 190.78,575.76 192.35,576.28 C193.03,576.50 193.79,580.34 194.20,585.58 C195.01,595.83 196.17,602.08 197.25,602.03 C197.66,602.02 201.65,602.00 206.11,602.00 L 214.22 602.00 L 213.53 598.25 C212.25,591.33 207.01,582.01 201.05,576.05 C188.33,563.33 168.98,558.84 153.02,564.90 C150.05,566.03 147.38,566.72 147.10,566.43 C146.81,566.14 146.52,563.34 146.46,560.20 C146.26,549.37 139.67,539.48 129.64,534.92 C126.85,533.66 123.17,533.04 118.37,533.02 L 111.24 533.00 L 110.81 524.25 C110.45,516.99 109.83,514.35 107.15,508.78 C102.89,499.89 95.82,492.76 87.28,488.71 C81.05,485.76 79.69,485.50 70.50,485.51 C58.81,485.52 53.25,487.43 43.76,494.72 C40.60,497.14 37.62,498.88 37.14,498.59 C36.66,498.29 36.03,496.55 35.73,494.71 C33.55,481.27 18.71,467.29 3.75,464.59 C-0.35,463.85 -1.39,462.00 2.29,462.00 C4.30,462.00 4.95,460.89 7.41,453.25 C20.65,412.17 49.48,369.59 82.00,343.08 C85.57,340.16 93.00,333.44 98.50,328.14 C104.00,322.84 112.14,316.04 116.57,313.03 L 124.64 307.55 L 118.88 298.64 C115.71,293.74 111.65,286.41 109.87,282.36 C106.17,273.92 106.54,274.00 96.62,279.80 C60.77,300.76 26.77,331.56 4.93,362.84 C1.30,368.04 0.44,368.80 0.17,367.03 C-0.04,365.64 1.86,362.19 5.60,357.19 C21.73,335.61 43.43,313.77 64.24,298.18 C75.84,289.48 82.57,285.12 103.10,272.99 C108.49,269.80 120.68,264.34 133.83,259.22 C143.15,255.59 143.17,255.58 142.55,252.54 C141.25,246.04 139.89,230.24 140.19,225.00 L 140.50 219.50 L 152.00 219.71 C158.32,219.83 167.07,220.61 171.43,221.45 C175.79,222.29 179.42,222.87 179.49,222.74 C179.56,222.61 180.18,219.57 180.87,216.00 C182.56,207.25 185.70,196.73 188.55,190.29 L 190.90 184.99 L 195.93 186.97 C203.85,190.09 214.98,195.87 221.24,200.11 C224.39,202.25 227.32,203.98 227.74,203.96 C228.16,203.94 230.39,200.90 232.70,197.21 C237.33,189.82 251.00,173.60 253.36,172.69 C255.25,171.97 266.87,184.04 273.85,193.98 C276.62,197.92 279.04,201.62 279.23,202.19 C279.42,202.76 283.14,200.91 287.49,198.07 C294.82,193.29 308.63,186.18 313.63,184.61 C315.51,184.02 316.08,184.73 318.52,190.72 C320.03,194.45 322.24,201.01 323.43,205.30 C324.62,209.60 325.85,213.20 326.16,213.30 C326.47,213.41 329.84,211.02 333.65,208.00 C337.46,204.98 341.67,201.78 343.01,200.90 C345.37,199.34 345.39,199.23 343.69,196.90 C333.53,182.97 324.28,166.33 325.27,163.75 C326.23,161.24 346.60,153.56 360.34,150.54 C362.51,150.06 363.02,149.51 362.52,148.21 C360.89,144.04 358.05,127.66 357.42,118.75 L 356.73 109.00 L 369.61 109.04 C376.70,109.06 385.81,109.66 389.85,110.37 C395.02,111.27 397.29,111.34 397.53,110.58 C397.71,109.99 398.36,106.35 398.97,102.50 C400.26,94.33 404.52,78.82 406.56,74.89 L 407.97 72.16 L 415.40 75.02 C424.09,78.37 433.73,83.13 439.35,86.85 C441.85,88.50 443.48,89.06 443.72,88.35 C445.43,83.20 464.42,58.17 466.69,58.06 C469.36,57.93 489.84,79.53 493.87,86.73 C494.54,87.92 496.51,86.96 504.10,81.72 C511.92,76.33 528.62,67.00 530.46,67.00 C532.38,67.00 541.69,91.41 543.53,101.28 C544.06,104.14 544.63,104.94 545.87,104.58 C557.26,101.25 580.03,98.03 583.31,99.29 C584.75,99.84 585.00,101.50 585.00,110.40 C585.00,119.83 583.69,133.79 582.40,138.20 C582.01,139.52 582.74,140.03 585.70,140.51 C587.79,140.85 593.24,141.83 597.81,142.68 C605.91,144.20 606.17,144.19 608.31,142.19 C610.75,139.91 622.71,134.00 624.90,134.00 C626.04,134.00 626.17,132.40 625.63,125.30 C621.95,77.53 592.91,28.54 554.05,4.59 C547.65,0.65 546.99,0.00 549.41,0.00 C555.18,-0.00 575.14,15.51 587.06,29.27 C611.25,57.18 624.51,88.53 628.56,127.36 L 629.17 133.22 L 632.21 132.61 C633.88,132.27 636.73,132.00 638.53,132.00 L 641.82 132.00 L 639.96 128.16 C636.91,121.84 635.76,115.53 636.17,107.29 C636.68,96.95 640.00,89.75 647.65,82.40 L 653.36 76.91 L 651.55 71.70 C648.51,62.98 638.68,43.03 632.59,33.20 C626.37,23.18 617.20,11.07 610.66,4.25 C607.11,0.55 606.86,-0.00 608.69,0.00 C610.02,0.00 612.61,2.12 615.71,5.75 C631.63,24.38 643.37,43.84 652.08,66.00 C655.43,74.54 656.05,75.47 658.16,75.19 C659.45,75.03 663.96,74.64 668.19,74.34 C674.96,73.86 676.52,74.09 681.36,76.31 C684.38,77.69 688.86,80.68 691.33,82.95 L 695.80 87.07 L 694.85 82.79 C693.09,74.80 685.12,52.09 680.81,42.77 C675.12,30.45 667.80,17.16 661.76,8.17 C659.05,4.14 657.07,0.59 657.37,0.30 C658.70,-1.03 660.91,1.45 666.69,10.76 C680.03,32.27 690.33,55.82 696.28,78.44 L 699.66 91.32 L 702.36 87.77 C707.87,80.55 716.52,76.65 726.62,76.82 L 732.84 76.92 L 730.49 68.21 C725.35,49.13 716.73,27.55 706.92,9.17 C703.11,2.03 702.35,-0.08 703.66,0.17 C705.94,0.61 716.51,20.92 723.02,37.35 C727.32,48.21 732.90,65.78 735.37,76.18 C735.72,77.66 736.90,79.15 738.00,79.50 C739.10,79.85 740.00,80.82 740.00,81.65 C740.00,82.48 739.44,82.93 738.75,82.64 C732.83,80.16 726.16,78.84 722.24,79.38 C713.24,80.61 703.60,87.97 700.78,95.75 C699.19,100.13 697.57,99.84 696.09,94.90 C694.51,89.62 687.94,82.53 681.54,79.19 C674.12,75.32 664.64,75.42 656.69,79.44 C639.22,88.30 633.34,109.16 642.98,128.12 C644.64,131.39 646.00,134.41 646.00,134.84 C646.00,135.27 643.38,135.44 640.18,135.21 C636.97,134.97 631.79,135.32 628.66,135.97 C622.91,137.16 609.00,143.49 609.00,144.91 C609.00,145.34 611.72,146.51 615.05,147.51 C618.37,148.52 621.31,149.69 621.56,150.10 C622.20,151.13 617.91,162.35 613.58,170.97 L 610.06 178.00 L 675.03 178.00 C732.11,178.00 740.00,178.18 740.00,179.50 C740.00,180.82 732.01,181.00 674.11,181.00 L 608.23 181.00 L 606.46 183.70 C605.21,185.61 605.04,186.51 605.88,186.79 C610.63,188.38 634.26,206.10 636.30,209.62 C637.29,211.33 621.94,226.81 613.09,233.02 C609.74,235.37 607.00,237.57 607.00,237.92 C607.00,238.26 609.23,241.60 611.96,245.35 C617.53,252.99 625.49,267.13 626.51,271.19 C627.11,273.58 626.74,274.09 623.06,275.97 L 618.94 278.07 L 628.25 288.28 C633.37,293.90 640.10,301.70 643.21,305.61 C654.36,319.63 668.14,342.57 674.08,357.00 C675.33,360.02 676.46,362.65 676.58,362.82 C676.71,363.00 678.32,362.37 680.16,361.42 C692.40,355.09 709.73,355.59 723.80,362.69 C730.70,366.17 740.00,374.50 740.00,377.19 C740.00,378.81 739.20,378.36 735.75,374.81 C724.89,363.64 707.19,357.41 693.44,359.91 C685.46,361.36 674.53,366.87 668.86,372.31 C659.81,380.98 653.63,393.02 652.72,403.74 C652.52,406.07 652.12,408.22 651.82,408.51 C651.52,408.81 648.88,407.80 645.93,406.28 C641.30,403.87 639.44,403.50 632.04,403.51 C622.51,403.53 617.87,405.28 612.07,411.08 C604.44,418.71 601.02,432.39 604.35,441.93 C605.20,444.37 605.68,446.71 605.42,447.13 C605.16,447.55 602.60,446.71 599.72,445.27 C586.44,438.59 565.68,442.62 555.89,453.78 C547.86,462.93 544.76,478.19 548.80,488.75 C549.90,491.64 550.51,494.18 550.15,494.39 C549.79,494.61 546.35,494.12 542.50,493.32 C534.39,491.63 523.75,492.69 516.44,495.93 C511.00,498.33 503.83,504.91 500.56,510.50 C498.26,514.42 495.00,524.51 495.00,527.71 C495.00,528.76 518.15,529.00 617.50,529.00 C698.50,529.00 740.00,529.34 740.00,530.00 C740.00,530.66 698.69,531.00 618.08,531.00 C551.03,531.00 495.39,531.30 494.44,531.66 C492.87,532.26 492.76,531.66 493.20,525.41 C493.86,516.21 497.73,508.14 504.94,500.91 C513.25,492.59 519.15,490.52 534.65,490.51 C546.50,490.50 546.78,490.45 545.71,488.50 C545.10,487.40 544.63,482.67 544.65,478.00 C544.75,459.73 554.42,446.39 571.23,441.35 L 577.18 439.57 L 576.49 434.04 C574.88,421.15 568.07,402.68 560.27,390.00 C549.96,373.26 540.67,363.66 530.86,359.61 C527.21,358.10 520.72,354.87 516.44,352.44 C512.16,350.00 508.60,348.11 508.52,348.25 C502.67,358.62 486.95,379.00 484.82,379.00 C482.26,379.00 463.23,358.32 457.31,349.11 C457.07,348.74 454.16,350.60 450.86,353.24 C449.64,354.22 447.40,365.01 442.11,395.35 C438.20,417.79 435.00,436.57 435.00,437.10 C435.00,437.62 438.49,435.60 442.75,432.61 C453.34,425.19 467.18,418.38 476.53,415.99 C490.99,412.29 508.37,413.65 521.62,419.51 C527.89,422.28 539.56,430.58 540.50,432.93 C541.25,434.80 532.78,443.43 522.66,451.10 C506.34,463.47 488.01,469.98 469.46,469.99 C457.33,470.00 450.11,468.32 439.57,463.02 C435.21,460.82 431.48,459.19 431.29,459.38 C430.96,459.70 419.91,522.10 409.94,579.90 L 405.90 603.31 L 409.37 606.90 C416.12,613.90 420.67,626.19 419.82,635.13 C419.51,638.33 419.72,638.93 420.97,638.42 C434.18,633.02 443.67,632.71 454.95,637.30 C458.50,638.75 461.52,639.82 461.66,639.68 C461.80,639.54 460.42,635.98 458.59,631.77 C454.43,622.21 447.65,612.64 439.19,604.38 C435.60,600.88 432.98,597.68 433.38,597.29 C434.65,596.02 447.19,599.91 456.66,604.51 C468.34,610.18 479.88,618.89 489.52,629.29 C498.08,638.55 497.79,639.29 492.99,620.45 C487.76,599.88 478.29,577.81 466.88,559.57 C458.69,546.47 458.51,546.15 459.14,545.53 C459.46,545.20 463.54,546.32 468.20,548.00 C499.15,559.20 527.29,586.89 539.10,617.75 C540.41,621.19 541.78,624.00 542.13,624.00 C542.48,624.00 543.09,621.86 543.48,619.25 C544.55,612.03 549.73,596.45 554.03,587.50 C558.62,577.94 564.11,569.52 565.50,569.92 C566.05,570.07 566.34,570.72 566.15,571.35 C565.02,575.13 564.88,596.78 565.95,604.06 C567.14,612.19 571.43,627.69 572.93,629.29 C573.34,629.72 574.92,628.27 576.45,626.07 C580.38,620.40 595.43,606.18 602.31,601.65 C610.39,596.31 621.14,591.51 630.47,589.07 C639.88,586.61 642.00,586.50 642.00,588.50 C642.00,589.33 641.64,590.00 641.19,590.00 C639.44,590.00 628.31,602.28 624.81,608.07 C618.28,618.86 614.30,635.60 615.85,645.72 L 616.50 649.94 L 626.44 643.42 C631.91,639.84 641.19,634.49 647.07,631.55 C658.11,626.03 674.45,620.12 675.58,621.25 C675.93,621.60 674.05,624.35 671.40,627.36 C659.85,640.46 654.15,654.56 653.26,672.25 L 652.72 683.00 L 696.36 683.00 C734.48,683.00 740.00,683.19 740.00,684.50 C740.00,685.81 734.55,686.00 696.93,686.00 C656.38,686.00 653.90,686.10 654.39,687.75 C654.67,688.71 655.20,690.74 655.56,692.25 L 656.22 695.00 L 570.32 695.00 L 484.41 695.00 L 482.86 699.25 L 481.31 703.50 L 346.37 703.75 L 211.42 704.01 L 207.00 699.50 ZM 478.59 701.23 C480.54,699.92 483.00,690.79 483.00,684.87 C483.00,659.29 464.79,638.26 441.68,637.16 C432.58,636.72 426.97,638.05 420.89,642.07 C415.91,645.37 414.48,644.78 416.12,640.10 C417.90,634.98 416.71,624.37 413.63,617.86 C406.29,602.37 385.41,593.61 366.31,598.01 C360.32,599.40 350.36,604.36 344.15,609.07 C341.20,611.30 338.67,612.99 338.52,612.81 C338.36,612.64 337.01,610.05 335.50,607.05 C331.88,599.84 322.93,591.07 315.50,587.43 C309.92,584.71 308.69,584.50 298.00,584.50 C287.16,584.50 286.12,584.68 279.80,587.67 C264.20,595.06 256.33,609.32 257.15,628.69 L 257.50 637.02 L 248.50 637.47 C233.57,638.23 223.29,642.23 213.66,651.02 C199.03,664.40 196.91,683.90 208.66,696.97 L 213.19 702.00 L 345.34 701.98 C418.03,701.98 477.99,701.64 478.59,701.23 ZM 200.60 690.75 C197.06,678.21 197.53,671.20 202.61,661.06 C208.82,648.64 221.19,639.78 237.06,636.37 L 244.90 634.68 L 247.05 627.60 C248.24,623.70 250.72,617.39 252.58,613.56 C254.43,609.74 255.79,606.46 255.60,606.26 C254.89,605.55 243.53,611.14 237.61,615.12 C229.34,620.68 218.80,631.16 213.84,638.75 C211.60,642.19 209.43,645.00 209.02,645.00 C207.88,645.00 201.53,630.50 198.63,621.27 C195.68,611.87 192.03,594.79 191.93,589.84 C191.85,585.86 190.59,582.24 189.75,583.60 C187.81,586.73 182.97,600.67 181.45,607.50 C179.30,617.19 179.04,633.83 180.91,643.29 C181.64,647.03 181.92,650.41 181.53,650.79 C181.14,651.18 178.98,649.25 176.74,646.50 C170.06,638.32 159.00,628.08 151.09,622.73 C140.60,615.64 125.09,608.50 114.00,605.64 C96.59,601.16 94.52,601.31 102.75,606.48 C114.53,613.87 132.84,635.56 140.76,651.50 C144.71,659.45 148.45,669.89 147.64,670.70 C147.28,671.05 143.05,669.29 138.24,666.78 C127.48,661.15 117.97,657.71 107.50,655.66 C97.51,653.71 82.00,652.47 82.01,653.63 C82.01,654.11 83.92,655.58 86.26,656.91 C98.24,663.70 109.71,675.35 115.96,687.07 L 119.12 693.00 L 160.18 693.00 L 201.23 693.00 L 200.60 690.75 ZM 652.60 691.40 C652.26,690.52 651.49,686.61 650.89,682.71 C648.31,666.12 654.62,643.81 665.91,629.61 C667.61,627.47 669.00,625.60 669.00,625.45 C669.00,624.88 653.90,631.02 647.83,634.06 C640.77,637.60 625.91,646.60 619.70,651.10 C617.00,653.06 615.31,653.71 614.64,653.04 C614.09,652.49 613.44,648.25 613.20,643.61 C612.34,627.24 618.73,609.17 629.63,597.12 C633.00,593.39 634.57,591.00 633.64,591.00 C631.48,591.00 618.40,595.79 612.63,598.70 C601.08,604.52 589.41,614.29 580.34,625.74 C576.74,630.28 573.37,634.00 572.86,634.00 C571.35,634.00 568.03,625.25 565.28,614.00 C563.27,605.75 562.70,600.77 562.61,590.73 C562.48,576.08 562.32,576.05 555.98,589.54 C551.28,599.57 548.46,608.47 545.67,622.15 C544.48,628.01 543.11,632.96 542.63,633.15 C542.16,633.34 540.49,629.73 538.92,625.12 C528.11,593.24 502.93,565.76 472.36,552.47 C468.08,550.61 464.44,549.23 464.27,549.40 C464.10,549.57 466.47,553.71 469.55,558.61 C482.78,579.66 493.04,605.50 498.02,630.36 C500.13,640.88 500.47,645.00 499.23,645.00 C498.80,645.00 496.48,642.29 494.07,638.99 C485.59,627.34 470.07,614.11 457.35,607.67 C451.94,604.94 442.09,601.00 440.66,601.00 C440.19,601.00 442.67,604.10 446.16,607.88 C453.81,616.19 458.28,623.42 462.48,634.32 C464.99,640.81 466.78,643.65 471.20,648.10 C480.69,657.67 486.88,674.50 485.61,687.25 L 485.03 693.00 L 569.12 693.00 C645.74,693.00 653.16,692.86 652.60,691.40 ZM 177.51 628.75 C177.50,620.91 177.83,612.36 178.23,609.75 L 178.96 605.00 L 151.23 605.06 C124.77,605.12 123.66,605.20 127.00,606.76 C148.34,616.74 157.84,623.05 169.87,635.21 C174.07,639.45 177.50,642.94 177.51,642.96 C177.51,642.98 177.51,636.59 177.51,628.75 ZM 224.85 621.80 C232.52,614.70 245.39,606.70 253.46,604.01 C258.59,602.31 260.19,601.18 263.20,597.15 C267.29,591.67 273.72,587.07 281.89,583.78 C286.58,581.89 289.40,581.52 299.11,581.51 L 310.73 581.50 L 307.80 570.50 C303.82,555.54 301.92,549.00 301.55,549.00 C301.38,549.00 299.61,549.68 297.62,550.51 C281.56,557.22 257.27,556.21 241.35,548.18 C228.75,541.81 213.41,527.63 215.89,524.63 C217.78,522.36 230.30,517.08 239.05,514.87 C245.86,513.15 249.33,512.85 257.94,513.26 C270.34,513.85 278.47,516.17 288.25,521.91 C291.96,524.09 295.00,525.59 295.00,525.25 C295.00,524.71 283.59,485.87 279.76,473.37 C279.07,471.10 278.14,469.17 277.70,469.09 C277.26,469.00 274.82,471.75 272.28,475.21 C266.55,483.01 256.11,494.00 254.43,494.00 C252.02,494.00 235.01,473.84 230.04,465.08 C229.40,463.96 227.73,464.63 221.87,468.39 C213.86,473.53 200.14,480.44 195.76,481.53 C193.23,482.16 192.86,481.85 191.03,477.58 C188.33,471.28 184.24,457.89 182.60,450.00 C181.65,445.44 180.84,443.60 179.87,443.84 C173.29,445.46 160.58,446.97 151.50,447.21 L 140.50 447.50 L 140.80 436.16 C140.96,429.92 141.49,422.72 141.96,420.16 C142.44,417.60 142.60,415.28 142.32,415.00 C141.21,413.94 120.82,436.46 114.98,445.20 C105.76,458.97 94.97,482.02 95.01,487.82 C95.02,488.74 97.45,491.90 100.41,494.84 C108.83,503.21 114.00,514.90 114.00,525.57 L 114.00 529.71 L 121.01 530.30 C133.31,531.33 142.76,538.39 146.99,549.71 C148.10,552.66 149.00,556.86 149.00,559.04 C149.00,563.48 148.88,563.38 152.56,561.98 C161.83,558.45 176.31,559.08 187.12,563.47 C202.52,569.73 214.50,584.80 216.67,600.64 L 217.27 605.00 L 207.14 605.00 C201.56,605.00 197.00,605.12 197.00,605.27 C197.00,608.18 204.80,631.54 207.71,637.32 L 209.12 640.14 L 213.91 633.82 C216.54,630.34 221.46,624.93 224.85,621.80 ZM 254.64 625.53 C254.58,620.32 254.24,616.39 253.88,616.78 C253.14,617.59 248.00,632.74 248.00,634.11 C248.00,634.60 249.52,635.00 251.37,635.00 L 254.74 635.00 L 254.64 625.53 ZM 347.38 603.62 C356.69,597.50 366.37,594.50 376.79,594.50 C384.27,594.50 385.13,594.30 385.53,592.50 C386.35,588.85 399.86,510.55 400.18,507.58 C400.49,504.77 400.27,504.61 394.00,502.96 C383.15,500.11 376.73,497.25 367.36,491.08 C352.65,481.39 341.39,468.06 334.35,452.01 C332.54,447.89 330.68,444.39 330.21,444.24 C329.74,444.08 328.42,448.35 327.28,453.73 C324.40,467.23 319.29,481.00 317.16,480.99 C316.24,480.98 313.07,479.85 310.10,478.47 C307.14,477.09 304.51,476.15 304.27,476.39 C304.03,476.63 304.72,479.91 305.81,483.67 C306.89,487.42 310.71,500.62 314.30,513.00 C317.89,525.38 321.56,538.13 322.47,541.35 L 324.11 547.20 L 327.62 541.35 C337.32,525.15 355.05,514.13 374.31,512.34 L 381.00 511.71 L 381.00 515.70 C381.00,521.54 377.50,534.24 373.83,541.69 C367.38,554.80 352.84,567.23 338.30,572.07 C334.83,573.22 332.00,574.63 332.00,575.21 C332.00,576.38 340.20,608.00 340.51,608.00 C340.62,608.00 343.71,606.03 347.38,603.62 ZM 404.00 599.92 C404.00,598.82 406.03,587.09 431.47,441.09 C439.47,395.21 445.90,357.58 445.76,357.46 C445.22,357.02 428.46,367.05 427.75,368.25 C427.34,368.94 422.74,394.02 417.54,424.00 C412.34,453.98 403.57,504.39 398.04,536.04 C392.52,567.68 388.00,594.12 388.00,594.79 C388.00,595.45 388.79,596.01 389.75,596.01 C390.71,596.02 393.75,597.11 396.50,598.43 C402.10,601.13 404.00,601.51 404.00,599.92 ZM 335.48 598.75 C335.23,598.06 331.17,583.33 326.45,566.00 C316.68,530.11 302.50,481.13 300.50,476.35 C299.73,474.51 297.73,472.40 295.83,471.42 C294.00,470.48 289.91,467.96 286.74,465.81 C282.27,462.79 280.85,462.23 280.42,463.35 C280.12,464.14 281.44,469.90 283.37,476.15 C289.46,495.84 300.67,534.61 307.48,559.50 C311.09,572.70 314.46,583.64 314.97,583.82 C318.20,584.92 328.22,592.41 331.09,595.85 C334.46,599.92 336.36,601.17 335.48,598.75 ZM 343.81 567.00 C361.80,558.58 374.74,541.10 377.75,521.12 L 378.72 514.74 L 372.52 515.32 C355.61,516.89 339.26,527.53 329.72,543.15 C326.22,548.87 325.89,549.99 326.39,554.39 C326.69,557.07 327.12,559.45 327.34,559.68 C327.57,559.90 330.62,557.09 334.13,553.42 C352.83,533.88 369.00,520.62 369.00,524.84 C369.00,525.30 365.29,528.54 360.75,532.04 C351.15,539.44 330.15,560.54 329.40,563.53 C329.12,564.66 329.37,566.85 329.97,568.41 C330.93,570.94 331.39,571.17 334.27,570.60 C336.05,570.24 340.34,568.62 343.81,567.00 ZM 283.00 551.57 C287.12,550.82 292.75,549.34 295.50,548.29 C299.78,546.66 300.46,546.03 300.22,543.96 C300.07,542.63 299.56,541.16 299.10,540.70 C296.41,538.01 262.26,531.50 245.25,530.43 C239.06,530.03 234.00,529.33 234.00,528.86 C234.00,527.84 234.30,527.82 244.00,527.98 C256.04,528.19 288.44,533.55 296.62,536.68 C299.49,537.79 297.97,532.70 294.42,529.36 C290.17,525.35 276.56,518.57 269.50,516.94 C262.15,515.25 246.58,515.51 239.13,517.46 C231.12,519.54 219.00,524.91 219.00,526.37 C219.00,528.20 231.32,539.28 237.35,542.88 C251.80,551.49 267.25,554.43 283.00,551.57 ZM 402.30 496.47 C402.75,493.79 402.85,490.52 402.52,489.21 C402.19,487.89 393.05,477.92 382.21,467.05 L 362.50 447.29 L 352.00 446.67 C346.23,446.33 339.80,445.75 337.73,445.39 L 333.96 444.73 L 336.96 451.42 C341.56,461.65 346.57,468.68 355.94,478.06 C364.63,486.74 372.45,492.06 383.16,496.57 C389.71,499.32 398.95,502.01 400.49,501.60 C401.03,501.46 401.85,499.15 402.30,496.47 ZM 45.54 488.00 C55.70,445.17 76.19,410.27 107.91,381.74 C112.05,378.02 115.85,374.20 116.35,373.24 C116.86,372.28 119.06,368.85 121.25,365.60 C124.33,361.03 124.91,359.53 123.86,358.93 C119.00,356.17 107.06,347.05 101.55,341.90 L 95.02 335.79 L 89.76 340.11 C51.60,371.42 26.15,407.34 10.84,451.49 L 7.03 462.48 L 10.36 463.63 C23.07,468.03 33.30,477.98 36.98,489.50 C37.69,491.70 38.46,493.85 38.70,494.27 C39.47,495.61 44.92,490.61 45.54,488.00 ZM 273.25 469.14 C282.21,455.85 286.89,442.48 285.44,434.31 C284.80,430.76 281.14,421.00 280.44,421.00 C280.27,421.00 277.28,421.65 273.81,422.43 C270.34,423.22 265.02,424.04 262.00,424.25 L 256.50 424.64 L 256.23 445.90 C256.02,462.18 255.67,467.06 254.73,466.74 C253.83,466.45 253.37,460.71 253.00,445.42 L 252.50 424.50 L 246.74 424.16 C243.57,423.97 238.40,423.21 235.25,422.48 C228.57,420.93 227.93,421.27 225.51,427.62 C223.12,433.88 223.82,445.48 227.04,453.00 C231.53,463.47 239.73,475.49 249.47,485.86 L 254.50 491.22 L 261.37 483.89 C265.14,479.86 270.49,473.22 273.25,469.14 ZM 62.48 482.99 C70.01,481.44 78.43,482.29 86.01,485.35 L 91.85 487.71 L 95.01 478.60 C99.02,467.03 107.23,451.22 114.69,440.70 C117.88,436.19 125.79,427.20 132.25,420.73 C138.71,414.25 144.00,408.60 144.00,408.17 C144.00,407.74 140.71,406.84 136.69,406.16 C129.93,405.03 107.73,398.06 106.30,396.63 C105.95,396.29 106.87,393.23 108.33,389.83 C109.80,386.44 110.80,383.47 110.56,383.23 C109.80,382.47 92.07,401.04 85.53,409.45 C74.16,424.04 66.55,436.98 59.17,454.28 C54.96,464.16 49.00,482.76 49.00,486.04 C49.00,487.74 49.16,487.74 52.75,486.02 C54.81,485.03 59.19,483.67 62.48,482.99 ZM 405.86 476.76 C407.00,470.29 406.94,469.81 404.40,464.76 C399.85,455.68 393.15,446.34 387.51,441.18 C382.19,436.32 370.52,428.00 369.01,428.00 C368.59,428.00 368.48,432.10 368.77,437.10 C369.12,443.21 368.92,446.43 368.18,446.89 C367.51,447.30 374.34,455.00 385.29,466.17 C395.30,476.40 403.76,484.49 404.09,484.14 C404.41,483.79 405.21,480.47 405.86,476.76 ZM 206.09 474.19 C216.13,469.06 227.00,462.20 227.00,460.98 C227.00,460.57 225.80,457.15 224.33,453.37 C220.73,444.11 220.45,431.80 223.68,424.79 C225.84,420.10 225.85,420.09 223.82,419.44 C222.71,419.09 221.44,419.18 221.00,419.65 C220.56,420.12 217.01,428.34 213.12,437.93 C209.22,447.52 205.59,455.81 205.03,456.37 C202.26,459.14 203.31,454.81 208.44,442.31 C219.65,414.99 218.71,418.00 216.53,416.40 C215.48,415.63 214.36,415.00 214.04,415.00 C213.73,415.00 212.63,417.35 211.62,420.22 C208.93,427.77 200.36,435.89 191.11,439.63 L 184.03 442.50 L 184.60 446.00 C186.66,458.58 193.37,479.00 195.43,479.00 C196.12,479.00 200.91,476.84 206.09,474.19 ZM 320.68 467.83 C322.44,462.59 324.53,454.83 325.33,450.58 C326.66,443.51 326.65,442.81 325.14,442.34 C324.24,442.05 320.16,440.22 316.08,438.27 C307.12,433.99 301.04,428.04 297.92,420.51 C295.52,414.72 295.31,414.52 293.16,415.88 C292.11,416.55 293.59,420.85 300.05,435.89 C307.34,452.82 309.08,458.50 306.04,455.43 C305.54,454.92 301.67,446.40 297.44,436.50 C293.22,426.60 289.61,418.33 289.41,418.12 C289.22,417.90 287.72,418.29 286.07,418.97 L 283.07 420.21 L 285.20 424.36 C288.68,431.12 288.83,441.70 285.58,451.36 C283.48,457.62 283.19,459.52 284.15,460.68 C287.14,464.28 314.01,478.37 316.50,477.64 C317.05,477.48 318.93,473.07 320.68,467.83 ZM 487.35 465.54 C502.95,461.36 518.34,452.51 530.84,440.52 L 538.19 433.48 L 532.43 429.21 C505.77,409.46 474.20,412.34 440.41,437.61 C435.08,441.60 432.29,444.63 433.17,445.50 C433.36,445.69 436.21,445.21 439.51,444.43 C454.32,440.91 470.59,437.99 483.50,436.51 C499.56,434.68 517.11,434.80 517.75,436.75 C518.07,437.71 515.04,438.00 504.77,438.00 C486.67,438.00 469.33,440.32 443.50,446.19 C433.19,448.54 432.00,449.23 432.00,452.91 C432.00,455.06 433.02,456.19 437.25,458.75 C444.32,463.01 449.18,464.94 456.96,466.58 C464.87,468.23 479.12,467.75 487.35,465.54 ZM 416.02 417.88 C420.40,392.92 423.98,371.76 423.99,370.86 C423.99,369.93 423.27,369.28 422.30,369.36 C420.16,369.54 416.19,361.72 412.32,349.75 C410.77,344.94 409.22,341.00 408.87,341.00 C408.53,341.00 405.14,343.60 401.35,346.77 C397.56,349.95 392.11,353.99 389.23,355.76 L 384.00 358.98 L 388.65 365.74 C393.68,373.03 402.96,391.45 402.99,394.16 C403.00,395.32 400.65,396.72 395.25,398.78 C386.77,402.01 371.93,406.00 368.37,406.00 C365.11,406.00 364.76,407.24 366.02,414.24 C367.63,423.14 368.44,424.67 372.74,426.87 C383.82,432.52 396.91,445.68 403.99,458.30 C405.78,461.48 407.43,463.90 407.66,463.68 C407.88,463.45 411.65,442.84 416.02,417.88 ZM 167.00 443.48 C185.20,440.57 196.30,435.80 203.51,427.78 C206.95,423.96 211.88,414.22 210.75,413.50 C210.61,413.42 208.70,412.29 206.50,410.99 C204.30,409.69 199.83,406.43 196.57,403.73 L 190.63 398.84 L 176.39 413.14 C163.08,426.51 159.21,429.84 160.12,427.14 C160.33,426.52 166.96,419.52 174.86,411.57 L 189.22 397.12 L 186.07 393.81 C184.34,391.99 180.93,387.49 178.48,383.81 L 174.03 377.11 L 169.57 378.63 C164.05,380.51 156.81,386.77 153.38,392.62 C147.68,402.34 143.00,422.97 143.00,438.38 L 143.00 445.00 L 150.25 445.00 C154.24,444.99 161.77,444.31 167.00,443.48 ZM 366.00 437.25 C365.99,428.39 363.71,412.86 361.34,405.50 C359.16,398.77 355.36,391.29 351.83,386.81 C349.21,383.48 338.38,376.96 335.59,377.03 C334.99,377.04 333.08,379.41 331.33,382.29 C329.59,385.17 326.36,389.58 324.15,392.09 L 320.13 396.66 L 335.05 411.55 C344.99,421.47 349.63,426.77 348.96,427.44 C348.30,428.10 342.99,423.47 333.04,413.54 L 318.11 398.64 L 313.81 402.58 C311.44,404.75 307.14,408.02 304.25,409.86 C298.03,413.82 297.77,415.32 301.96,422.63 C305.08,428.07 309.91,432.42 316.57,435.80 C326.59,440.87 343.74,444.47 359.75,444.85 L 366.00 445.00 L 366.00 437.25 ZM 600.48 436.65 C599.60,429.66 602.04,419.93 606.14,414.05 L 609.24 409.60 L 607.49 404.05 C602.57,388.44 591.63,368.01 580.87,354.34 C575.28,347.25 556.33,328.01 554.92,328.00 C554.60,328.00 553.35,332.74 552.13,338.54 C550.91,344.34 548.67,352.63 547.13,356.95 L 544.35 364.82 L 547.66 368.32 C552.23,373.17 561.05,385.61 565.29,393.19 C571.86,404.94 576.80,419.61 579.45,435.25 C580.08,438.95 580.16,439.00 584.80,439.08 C587.38,439.12 591.53,439.74 594.00,440.45 C601.35,442.56 601.22,442.63 600.48,436.65 ZM 278.36 418.55 C311.62,408.77 335.24,382.91 341.56,349.38 C344.86,331.88 341.93,309.69 334.35,294.69 C321.92,270.12 298.56,251.86 272.79,246.58 C262.95,244.56 246.10,244.56 236.21,246.57 C221.15,249.63 206.38,257.33 194.40,268.36 C182.17,279.61 173.18,294.36 168.42,311.00 C165.50,321.17 165.71,345.76 168.80,356.50 C178.31,389.57 204.89,414.00 238.50,420.58 C249.33,422.71 267.37,421.78 278.36,418.55 ZM 617.35 404.08 C624.82,400.15 632.50,399.25 640.25,401.41 C643.55,402.33 646.42,402.92 646.62,402.72 C647.25,402.09 641.32,384.78 637.22,375.26 C631.92,362.96 624.25,349.33 616.72,338.83 C609.65,328.97 596.18,313.00 594.93,313.00 C594.47,313.00 594.19,316.26 594.30,320.25 L 594.50 327.50 L 581.50 327.50 C574.35,327.50 565.85,327.15 562.61,326.73 L 556.73 325.95 L 562.08 330.73 C583.82,350.14 599.22,372.86 608.53,399.25 C610.03,403.51 611.38,407.00 611.53,407.00 C611.68,407.00 614.30,405.68 617.35,404.08 ZM 148.27 397.00 C152.23,387.46 159.99,379.26 167.69,376.51 C172.19,374.90 172.75,374.40 171.91,372.82 C171.37,371.82 170.53,371.00 170.04,371.00 C169.54,371.00 161.19,374.38 151.47,378.50 C141.75,382.62 133.16,386.00 132.40,386.00 C128.19,386.00 132.98,383.33 150.41,375.96 L 169.81 367.76 L 168.84 364.96 L 167.86 362.17 L 163.18 364.34 C156.08,367.62 142.77,367.35 134.04,363.74 C130.49,362.27 127.34,361.39 127.04,361.78 C121.95,368.53 110.60,389.37 109.84,393.39 C109.59,394.71 110.77,395.67 114.50,397.15 C121.12,399.78 141.01,405.01 143.33,404.72 C144.58,404.57 146.14,402.13 148.27,397.00 ZM 375.50 402.06 C384.22,399.97 397.96,395.30 399.41,393.93 C400.54,392.88 390.42,372.43 385.42,365.65 C382.95,362.32 381.32,360.97 380.17,361.32 C379.25,361.60 375.80,362.83 372.50,364.05 C364.14,367.16 353.28,367.21 346.57,364.18 C342.73,362.44 341.47,362.23 340.84,363.23 C338.96,366.19 340.19,367.57 347.26,370.42 C374.32,381.34 381.69,385.00 376.61,385.00 C375.84,385.00 367.23,381.62 357.47,377.50 C347.70,373.38 339.35,370.00 338.89,370.00 C338.44,370.00 337.58,370.91 336.98,372.03 C336.02,373.83 336.33,374.23 339.70,375.57 C346.27,378.19 347.94,379.25 352.08,383.43 C355.93,387.32 363.00,399.75 363.00,402.63 C363.00,404.48 366.01,404.34 375.50,402.06 ZM 652.60 392.64 C655.38,383.28 662.38,373.72 671.94,366.19 L 674.39 364.27 L 671.11 356.88 C660.55,333.08 644.14,308.95 624.12,287.81 L 615.96 279.19 L 606.73 282.11 C601.65,283.71 595.56,285.49 593.20,286.07 C589.46,286.97 588.99,287.38 589.56,289.20 C589.93,290.36 590.99,295.05 591.92,299.63 L 593.60 307.96 L 601.61 316.23 C620.75,336.01 636.78,362.82 645.53,389.70 C648.16,397.77 649.73,401.32 650.18,400.20 C650.55,399.26 651.64,395.86 652.60,392.64 ZM 494.45 364.50 C497.35,360.65 501.12,355.00 502.84,351.95 L 505.97 346.40 L 498.93 339.21 C490.70,330.80 487.89,325.17 487.22,315.77 C486.79,309.84 486.48,309.00 484.74,309.00 C482.60,309.00 482.63,305.98 484.39,348.00 C484.45,349.38 484.05,350.62 483.50,350.77 C482.93,350.93 482.23,347.68 481.87,343.27 C481.31,336.25 480.03,314.35 480.01,311.25 C480.00,310.51 478.68,310.00 476.75,310.00 L 473.50 310.01 L 473.43 317.75 C473.35,327.01 470.63,333.58 463.54,341.65 L 459.02 346.80 L 463.62 353.15 C466.15,356.64 471.87,363.20 476.32,367.73 L 484.41 375.96 L 486.80 373.73 C488.11,372.50 491.55,368.35 494.45,364.50 ZM 444.70 354.38 C452.91,349.01 465.18,336.46 468.05,330.50 C469.72,327.03 470.58,323.24 470.84,318.13 C471.27,310.00 470.72,309.05 465.50,309.00 C463.85,308.98 459.35,308.26 455.50,307.41 C451.65,306.55 447.90,305.77 447.17,305.67 C446.36,305.57 444.70,308.61 442.92,313.50 C441.31,317.90 438.15,326.56 435.89,332.75 C433.63,338.94 431.38,344.00 430.89,344.00 C429.23,344.00 429.99,341.18 436.50,323.39 C440.08,313.61 443.00,305.25 443.00,304.82 C443.00,304.38 439.51,302.24 435.25,300.05 C430.99,297.87 426.10,295.16 424.38,294.03 L 421.26 291.97 L 417.56 296.06 C412.36,301.82 409.96,308.06 409.33,317.49 C408.80,325.37 408.84,325.55 411.89,328.93 C415.37,332.77 415.69,334.18 413.50,336.00 C412.67,336.68 412.00,338.05 412.00,339.04 C412.00,340.99 416.75,354.92 419.99,362.49 L 422.00 367.16 L 430.45 362.67 C435.10,360.20 441.51,356.47 444.70,354.38 ZM 160.71 362.48 C166.73,359.96 166.89,359.66 165.44,353.40 C164.72,350.34 163.83,344.94 163.45,341.42 L 162.77 335.00 L 141.88 335.00 C123.99,335.00 121.00,334.79 121.00,333.50 C121.00,332.21 123.99,332.00 141.90,332.00 L 162.80 332.00 L 163.51 324.93 C163.90,321.05 164.80,315.66 165.51,312.97 C166.48,309.30 166.51,307.85 165.65,307.17 C160.35,302.99 151.77,301.60 142.80,303.47 C131.17,305.90 113.32,316.88 101.70,328.76 L 96.90 333.67 L 103.90 340.27 C114.39,350.16 126.89,358.29 137.50,362.12 C143.79,364.39 155.68,364.58 160.71,362.48 ZM 369.07 362.39 C380.22,359.08 393.82,350.50 406.00,339.10 L 412.50 333.01 L 406.00 326.96 C397.68,319.23 382.03,308.69 374.03,305.44 C365.02,301.77 356.96,301.26 349.56,303.88 C346.29,305.04 343.28,306.32 342.87,306.74 C342.46,307.16 342.71,309.99 343.43,313.04 C344.14,316.09 345.05,321.60 345.44,325.29 L 346.16 332.00 L 367.08 332.00 C380.36,332.00 388.00,332.37 388.00,333.00 C388.00,333.63 380.39,334.00 367.17,334.00 L 346.34 334.00 L 344.79 344.75 C343.94,350.66 342.93,356.26 342.54,357.18 C342.02,358.43 342.69,359.31 345.16,360.58 C352.49,364.37 360.38,364.97 369.07,362.39 ZM 546.71 349.25 C552.38,329.43 553.24,315.25 549.52,303.16 C548.33,299.31 546.38,296.29 542.52,292.30 L 537.16 286.77 L 530.83 291.41 C527.35,293.96 522.70,296.99 520.50,298.15 C518.30,299.30 516.38,300.35 516.23,300.47 C516.08,300.60 519.80,308.92 524.48,318.96 C529.17,329.00 533.00,337.85 533.00,338.61 C533.00,342.45 530.56,338.36 522.48,320.96 C515.52,305.96 513.31,302.05 512.07,302.53 C506.45,304.71 498.64,307.03 495.04,307.61 C492.08,308.08 490.53,308.93 489.83,310.47 C488.43,313.55 490.39,323.28 493.47,328.53 C496.99,334.54 508.42,344.76 517.30,349.83 C526.76,355.23 540.01,361.09 542.00,360.74 C542.99,360.57 544.60,356.65 546.71,349.25 ZM 588.25 325.36 C591.88,324.76 592.00,324.60 591.99,320.62 C591.99,315.56 589.50,299.28 587.70,292.50 L 586.37 287.50 L 580.26 287.84 C573.54,288.21 564.15,286.60 559.50,284.27 C557.85,283.45 554.44,281.07 551.93,278.98 C547.49,275.30 547.33,275.25 546.10,277.21 C544.58,279.65 545.00,280.12 562.75,296.30 C569.49,302.44 575.00,307.81 575.00,308.23 C575.00,310.60 570.98,307.58 557.50,295.08 C543.30,281.92 542.41,281.27 540.74,282.88 C539.07,284.49 539.25,284.85 544.36,290.13 C550.74,296.72 553.14,302.79 553.95,314.44 C554.59,323.62 553.97,323.18 568.50,324.83 C578.78,326.00 583.60,326.13 588.25,325.36 ZM 406.88 317.25 C407.20,307.12 409.64,300.62 415.54,294.08 C418.78,290.50 418.87,290.20 417.23,288.71 C415.60,287.23 414.69,287.99 404.11,299.64 C394.50,310.23 392.95,312.37 394.12,313.51 C396.57,315.89 405.48,322.93 406.10,322.96 C406.42,322.98 406.77,320.41 406.88,317.25 ZM 400.00 300.35 C414.22,284.69 413.71,285.45 411.54,283.04 C409.74,281.05 409.69,281.07 405.83,285.46 C403.68,287.90 399.58,291.04 396.71,292.45 C392.60,294.47 390.67,296.31 387.53,301.18 C385.31,304.63 384.03,307.51 384.63,307.71 C385.23,307.91 386.57,308.72 387.61,309.50 C388.65,310.29 389.73,310.91 390.00,310.88 C390.27,310.85 394.77,306.11 400.00,300.35 ZM 492.68 305.55 C528.67,297.89 555.14,271.55 563.09,235.50 C564.93,227.17 564.70,208.10 562.68,199.76 C556.08,172.67 539.40,151.28 515.50,139.25 C495.21,129.04 469.62,127.09 448.50,134.15 C419.53,143.84 397.88,167.06 389.91,197.00 C386.71,209.00 386.70,227.96 389.88,239.91 C397.93,270.11 419.62,293.19 449.07,302.88 C452.68,304.07 457.63,305.43 460.07,305.91 C467.26,307.32 485.30,307.12 492.68,305.55 ZM 137.50 302.22 C145.96,299.27 155.77,299.46 163.16,302.74 L 167.82 304.81 L 168.39 302.65 C168.71,301.47 168.98,300.23 168.99,299.91 C168.99,299.58 160.45,295.75 150.00,291.41 C139.56,287.06 131.01,282.94 131.00,282.25 C131.00,281.56 131.16,281.00 131.36,281.00 C131.78,281.00 158.46,291.92 165.39,294.93 C168.08,296.09 170.38,296.93 170.51,296.78 C170.63,296.62 171.24,295.52 171.86,294.33 C172.91,292.31 172.64,292.04 168.02,290.51 C160.31,287.95 153.69,281.31 148.83,271.26 L 144.71 262.76 L 139.13 263.41 C132.06,264.25 109.00,271.86 109.00,273.37 C109.01,275.46 119.65,295.76 123.47,300.96 C126.28,304.79 127.67,305.93 128.88,305.39 C129.77,305.00 133.65,303.57 137.50,302.22 ZM 385.23 299.75 C391.00,290.89 392.84,287.60 396.48,279.61 L 399.98 271.92 L 395.41 269.96 C388.77,267.11 374.33,263.06 368.25,262.35 C364.10,261.85 363.00,262.02 363.00,263.14 C363.00,265.08 356.53,278.02 354.27,280.59 C350.96,284.36 343.13,289.81 340.05,290.49 C336.34,291.30 335.70,292.21 337.29,294.39 C338.41,295.91 340.24,295.35 357.51,288.13 C374.46,281.04 380.06,279.34 377.27,282.13 C376.77,282.63 368.07,286.55 357.93,290.84 C342.32,297.45 339.55,298.94 339.83,300.57 C340.40,303.84 341.39,304.04 346.80,301.99 C354.20,299.17 364.58,299.35 373.00,302.43 C376.58,303.74 380.02,304.85 380.65,304.90 C381.29,304.96 383.35,302.64 385.23,299.75 ZM 181.80 278.20 L 188.09 269.72 L 185.80 267.27 C184.53,265.92 177.88,259.16 171.01,252.24 C163.25,244.42 159.04,239.49 159.88,239.21 C160.65,238.95 167.32,244.83 175.38,252.88 C183.16,260.65 189.89,267.00 190.33,267.00 C190.77,267.00 193.64,264.96 196.71,262.46 C199.78,259.96 204.22,256.78 206.59,255.39 C210.61,253.04 210.83,252.69 209.89,250.18 C209.33,248.71 207.78,245.63 206.45,243.33 C199.27,231.04 180.59,223.51 154.09,222.25 L 142.68 221.71 L 143.29 234.10 C144.01,248.78 147.34,263.10 152.12,272.07 C155.93,279.22 163.37,286.27 169.27,288.32 C173.05,289.63 173.61,289.62 174.50,288.23 C175.05,287.37 178.33,282.85 181.80,278.20 ZM 402.14 285.14 C404.81,282.47 407.00,279.88 407.00,279.39 C406.99,278.90 405.98,277.24 404.75,275.70 L 402.50 272.90 L 398.47 281.45 C393.73,291.52 394.75,292.54 402.14,285.14 ZM 342.81 286.41 C351.57,282.04 358.21,271.95 361.94,257.35 C365.22,244.46 367.22,222.87 365.25,221.65 C363.69,220.69 340.56,223.03 332.32,224.99 C316.67,228.70 306.50,234.92 301.83,243.64 C297.44,251.84 297.43,252.49 301.72,255.08 C303.80,256.33 308.35,259.60 311.83,262.33 L 318.17 267.31 L 332.85 252.65 C340.92,244.59 347.86,238.00 348.26,238.00 C350.73,238.00 347.38,242.14 334.58,254.92 L 320.15 269.32 L 324.42 274.57 C326.77,277.45 330.00,281.88 331.60,284.40 C333.19,286.93 335.20,289.00 336.05,289.00 C336.91,289.00 339.95,287.83 342.81,286.41 ZM 600.29 281.59 C611.40,278.30 624.00,273.04 624.00,271.70 C624.00,270.03 616.11,256.06 610.81,248.36 C604.66,239.41 594.96,230.02 588.44,226.72 C582.75,223.84 575.55,222.49 570.73,223.39 L 567.45 224.01 L 565.65 233.75 C564.66,239.11 563.63,244.63 563.35,246.00 C562.86,248.42 563.42,248.72 579.17,254.42 C601.13,262.38 602.45,262.95 601.30,264.10 C600.69,264.71 593.36,262.51 581.02,258.01 C570.40,254.13 561.57,251.09 561.42,251.25 C561.26,251.41 560.22,253.66 559.11,256.25 C558.00,258.84 555.50,263.45 553.55,266.50 C551.60,269.54 550.00,272.45 550.00,272.94 C550.00,274.70 558.42,281.02 563.42,283.01 C570.72,285.92 587.94,285.25 600.29,281.59 ZM 396.34 263.50 C394.96,261.02 393.43,259.00 392.95,259.00 C391.57,259.00 385.00,262.30 385.00,262.99 C385.00,263.51 396.00,267.61 398.18,267.91 C398.55,267.96 397.73,265.98 396.34,263.50 ZM 385.73 259.26 C388.90,257.76 391.68,256.42 391.89,256.29 C392.11,256.16 391.11,252.50 389.67,248.16 C388.24,243.82 386.77,238.41 386.41,236.14 L 385.74 232.00 L 380.62 232.06 C377.80,232.09 373.95,232.65 372.05,233.31 C368.66,234.48 368.57,234.65 367.40,242.50 C366.74,246.90 365.89,252.37 365.49,254.66 L 364.77 258.81 L 370.64 259.97 C373.86,260.61 376.95,261.29 377.50,261.48 C379.38,262.16 379.96,262.00 385.73,259.26 ZM 144.00 258.98 C144.00,258.05 140.18,258.90 139.51,259.98 C139.26,260.38 140.17,260.50 141.53,260.24 C142.89,259.98 144.00,259.41 144.00,258.98 ZM 215.65 246.72 C214.91,244.95 211.24,236.39 207.51,227.69 C202.56,216.17 201.02,211.58 201.82,210.78 C202.63,209.97 203.18,210.33 203.88,212.09 C204.41,213.41 207.98,221.93 211.83,231.00 C218.94,247.76 220.24,249.48 223.96,247.06 C225.23,246.25 225.17,245.60 223.56,242.31 C220.58,236.21 220.29,223.89 222.96,216.50 C226.67,206.23 226.86,206.98 219.31,202.08 C209.02,195.39 192.73,187.82 191.80,189.30 C189.36,193.13 181.20,222.70 182.32,223.62 C182.42,223.70 186.03,225.23 190.34,227.02 C200.21,231.10 207.57,237.94 210.97,246.20 C213.02,251.15 213.57,251.77 215.16,250.91 C216.82,250.03 216.86,249.61 215.65,246.72 ZM 297.92 245.47 C301.64,236.52 310.81,228.98 323.23,224.68 C325.19,224.00 325.07,222.73 321.84,209.65 C319.86,201.63 315.46,189.06 314.20,187.81 C313.29,186.91 295.26,195.91 287.41,201.18 L 281.32 205.27 L 284.34 212.88 C288.32,222.91 288.66,233.93 285.23,241.40 C283.99,244.10 283.09,246.41 283.24,246.53 C283.38,246.65 284.45,247.04 285.62,247.40 C287.55,247.99 288.29,246.70 294.03,232.78 C304.19,208.17 303.99,208.59 305.06,209.66 C305.71,210.31 303.36,217.17 298.14,229.84 C291.18,246.73 290.43,249.15 291.87,249.99 C294.78,251.69 295.60,251.08 297.92,245.47 ZM 243.75 242.85 L 253.00 241.60 L 253.00 220.80 C253.00,202.98 253.21,200.00 254.50,200.00 C255.79,200.00 256.00,202.98 256.00,220.80 L 256.00 241.60 L 265.25 242.85 C270.34,243.54 275.89,244.34 277.59,244.64 C280.50,245.15 280.80,244.90 282.84,240.15 C287.09,230.28 285.04,217.77 276.89,203.82 C272.46,196.22 263.12,184.25 257.53,179.00 L 253.81 175.50 L 248.79 181.00 C236.17,194.80 227.46,209.08 224.44,220.89 C222.60,228.13 223.08,234.01 226.08,240.86 C227.88,244.98 228.18,245.20 231.24,244.67 C233.03,244.36 238.66,243.54 243.75,242.85 ZM 622.51 221.59 C626.69,217.83 630.82,213.67 631.69,212.34 C633.23,210.00 633.15,209.82 628.94,206.22 C622.18,200.43 612.81,193.71 607.80,191.05 L 603.24 188.63 L 597.53 194.80 C590.14,202.78 581.96,206.98 573.22,207.28 C567.42,207.49 567.02,207.65 567.01,209.88 L 567.00 212.27 L 583.75 211.60 C592.96,211.23 602.41,210.66 604.75,210.35 C608.11,209.89 609.00,210.09 609.00,211.27 C609.00,212.48 606.60,212.88 596.25,213.40 C589.24,213.76 579.79,214.31 575.25,214.64 L 567.00 215.24 L 567.00 218.08 C567.00,220.91 567.04,220.93 573.25,220.88 C583.88,220.80 591.15,223.69 599.57,231.32 L 604.50 235.79 L 609.70 232.11 C612.57,230.08 618.33,225.35 622.51,221.59 ZM 379.70 229.35 C383.98,228.84 385.00,228.37 385.00,226.86 C385.00,225.20 384.14,225.00 377.11,225.00 L 369.23 225.00 L 368.77 228.09 C368.34,231.07 368.43,231.16 371.36,230.58 C373.03,230.24 376.78,229.69 379.70,229.35 ZM 336.00 221.48 C339.58,220.68 348.26,219.72 355.30,219.36 C367.92,218.70 368.11,218.72 368.68,220.89 C369.23,222.99 369.61,223.06 376.38,222.42 C384.83,221.61 385.00,221.54 385.00,218.56 C385.00,216.35 384.61,216.23 376.25,215.82 C366.27,215.34 360.28,212.75 352.05,205.35 L 347.43 201.20 L 342.97 204.23 C340.51,205.90 335.91,209.50 332.75,212.23 C328.21,216.15 327.00,217.81 327.00,220.10 C327.00,223.43 327.16,223.45 336.00,221.48 ZM 382.93 213.04 C384.15,212.39 384.96,210.35 385.43,206.79 C385.81,203.88 386.83,198.67 387.69,195.21 C388.55,191.76 389.09,188.78 388.88,188.60 C388.67,188.41 380.17,185.23 370.00,181.52 C348.99,173.85 349.51,174.09 350.75,172.85 C351.30,172.30 359.23,174.71 370.99,179.02 C390.29,186.10 391.93,186.37 391.98,182.46 C391.99,181.88 394.31,177.40 397.12,172.48 L 402.25 163.55 L 398.04 159.81 C386.22,149.32 365.54,149.35 338.50,159.89 C326.62,164.52 327.06,163.93 330.37,170.70 C337.90,186.07 351.79,203.44 360.79,208.72 C368.66,213.34 378.71,215.30 382.93,213.04 ZM 583.36 202.16 C589.40,199.49 597.97,191.32 603.57,182.89 C608.21,175.91 617.61,157.00 618.18,153.50 C618.45,151.80 617.24,151.09 610.10,148.75 C596.05,144.15 587.09,142.74 574.68,143.19 C565.81,143.50 562.46,144.05 558.50,145.84 C553.86,147.93 545.00,155.40 545.00,157.21 C545.00,157.65 547.70,161.90 551.00,166.66 C554.30,171.42 557.00,175.92 557.00,176.66 C557.00,177.40 557.47,178.00 558.04,178.00 C558.62,178.00 567.25,174.18 577.23,169.50 C587.21,164.82 595.74,161.00 596.19,161.00 C596.63,161.00 596.99,161.56 596.97,162.25 C596.96,162.94 588.63,167.32 578.47,172.00 C568.31,176.68 560.00,180.83 560.00,181.23 C560.00,181.63 561.12,185.31 562.50,189.41 C563.88,193.50 565.00,197.53 565.00,198.36 C565.00,199.19 565.46,201.09 566.03,202.57 C567.02,205.18 567.26,205.25 572.89,204.74 C576.10,204.45 580.81,203.29 583.36,202.16 ZM 407.00 157.91 C407.00,157.48 400.36,151.00 392.25,143.50 C384.14,136.00 377.35,129.45 377.17,128.93 C376.04,125.79 381.26,129.67 394.00,141.49 C401.98,148.88 409.01,154.95 409.63,154.96 C410.25,154.98 411.29,154.35 411.95,153.56 C412.92,152.39 412.37,151.43 409.02,148.40 C401.60,141.69 398.27,133.90 397.88,122.30 C397.77,118.88 397.40,115.65 397.06,115.10 C395.84,113.12 367.76,110.09 362.61,111.38 C360.21,111.98 360.00,112.46 360.00,117.27 C360.01,123.25 362.34,138.44 364.23,144.77 L 365.50 149.05 L 375.50 149.32 C386.96,149.62 393.86,152.10 400.00,158.10 C403.12,161.16 403.69,161.37 405.25,160.11 C406.21,159.33 407.00,158.34 407.00,157.91 ZM 546.05 151.41 C552.98,144.21 563.40,140.05 574.63,140.02 L 579.76 140.00 L 580.88 132.46 C581.50,128.31 582.00,119.76 582.00,113.46 L 582.00 102.00 L 577.25 102.02 C571.45,102.04 561.12,103.49 552.03,105.56 L 545.25 107.10 L 544.82 118.30 C544.42,128.69 544.14,129.96 541.02,135.81 C539.17,139.29 536.52,143.02 535.14,144.10 C532.66,146.05 532.66,146.10 534.57,147.95 C536.47,149.79 536.74,149.55 550.40,134.41 C558.05,125.93 564.72,119.00 565.22,119.00 C567.49,119.00 564.62,122.85 552.25,136.39 C544.96,144.37 539.00,151.28 539.00,151.75 C539.00,152.73 541.10,155.00 542.00,155.00 C542.34,155.00 544.16,153.39 546.05,151.41 ZM 422.31 144.75 C426.40,141.86 431.13,138.75 432.82,137.83 L 435.90 136.15 L 427.45 118.12 C422.80,108.20 419.00,99.39 419.00,98.54 C419.00,94.54 421.34,98.44 429.49,116.03 C434.57,127.00 438.77,134.87 439.40,134.59 C441.22,133.81 456.31,129.23 459.13,128.61 C460.58,128.28 461.98,127.18 462.25,126.14 C463.05,123.10 461.25,114.10 458.96,109.64 C454.56,101.07 442.02,90.58 427.23,83.12 C418.35,78.63 409.94,75.64 409.03,76.64 C408.60,77.11 407.31,80.43 406.16,84.00 C401.96,97.08 400.56,105.28 400.53,117.00 C400.49,131.49 402.18,136.84 409.18,144.51 C411.94,147.53 414.35,150.00 414.54,150.00 C414.73,150.00 418.22,147.64 422.31,144.75 ZM 536.13 138.60 C540.99,132.16 542.53,126.45 542.37,115.50 C542.23,105.48 539.72,94.35 534.85,82.17 C533.17,77.95 531.40,73.48 530.91,72.23 L 530.03 69.96 L 522.77 73.59 C511.04,79.44 499.80,87.41 492.83,94.80 C484.26,103.89 481.63,109.35 481.17,119.11 C480.76,127.51 481.06,127.87 488.50,128.04 C490.15,128.08 494.65,128.94 498.50,129.95 C502.35,130.96 505.63,131.67 505.78,131.53 C505.94,131.38 509.15,122.78 512.92,112.42 C516.70,102.05 520.28,93.41 520.89,93.20 C522.84,92.55 522.14,95.14 515.50,113.23 C511.92,122.98 509.01,131.52 509.03,132.22 C509.04,132.93 511.95,134.79 515.48,136.37 C519.02,137.95 523.39,140.30 525.20,141.59 C529.76,144.85 531.84,144.27 536.13,138.60 ZM 467.89 127.09 C469.07,126.34 469.11,123.06 468.17,105.91 C467.55,94.75 467.23,85.44 467.46,85.21 C468.99,83.67 469.81,87.71 470.39,99.72 C470.76,107.30 471.33,116.54 471.66,120.25 L 472.26 127.00 L 475.38 127.00 L 478.50 127.00 L 478.50 119.25 C478.50,110.01 481.37,103.15 488.56,95.14 L 493.03 90.17 L 487.09 82.33 C483.83,78.03 477.97,71.36 474.07,67.52 L 467.00 60.55 L 463.75 64.42 C458.95,70.15 449.77,83.07 447.68,87.04 L 445.86 90.50 L 452.73 97.50 C461.16,106.09 464.12,111.89 464.78,121.11 C465.28,128.18 465.50,128.60 467.89,127.09 ZM 699.88 258.71 C685.33,245.07 664.17,235.98 642.78,234.17 L 634.50 233.47 L 639.00 230.79 C641.47,229.31 646.18,227.41 649.46,226.55 C664.94,222.52 680.07,226.78 691.31,238.32 L 696.13 243.26 L 697.72 240.98 C705.78,229.48 719.72,221.97 732.93,222.02 L 738.50 222.04 L 731.81 228.05 C728.13,231.36 723.00,236.87 720.42,240.28 C715.82,246.37 708.00,261.12 708.00,263.70 C708.00,265.91 706.73,265.13 699.88,258.71 ZM 719.46 239.35 C721.59,236.68 726.02,231.91 729.32,228.75 C735.25,223.07 735.28,223.00 732.37,223.00 C720.37,223.00 705.12,231.83 697.92,242.94 L 696.33 245.39 L 690.42 239.37 C677.47,226.20 659.47,222.64 643.34,230.05 L 638.50 232.27 L 648.00 233.56 C660.27,235.23 669.34,238.09 680.43,243.79 C688.64,248.02 701.56,257.29 704.89,261.35 C706.14,262.87 706.77,262.07 710.94,253.63 C713.50,248.44 717.33,242.02 719.46,239.35 ZM 148.62 190.65 C140.60,174.27 122.60,167.07 107.79,174.31 C101.40,177.44 94.98,183.93 91.80,190.48 C90.59,192.97 88.97,195.00 88.19,195.00 C87.26,195.00 87.01,194.41 87.46,193.25 C89.20,188.71 90.16,181.28 89.58,176.87 C86.74,155.52 65.76,143.71 46.23,152.48 C42.78,154.03 39.67,155.00 39.31,154.64 C38.95,154.29 41.46,151.47 44.88,148.37 C52.88,141.13 56.17,134.81 56.75,125.50 C57.32,116.59 54.64,108.93 48.88,102.99 C44.72,98.71 36.97,94.49 31.25,93.40 C25.99,92.39 27.52,91.00 33.89,91.00 C37.14,91.00 42.84,90.06 46.57,88.91 C52.17,87.18 54.33,85.83 59.00,81.16 C65.67,74.48 68.00,68.76 68.00,59.07 C68.00,53.79 67.41,51.32 65.02,46.50 C63.38,43.20 61.48,39.73 60.81,38.80 C58.33,35.39 61.05,35.82 65.10,39.47 C67.39,41.54 71.70,44.35 74.69,45.72 C82.00,49.06 93.97,48.75 101.32,45.02 C110.57,40.33 117.16,30.86 118.56,20.25 C119.38,14.10 120.67,13.44 121.50,18.75 C122.61,25.90 124.04,29.83 127.26,34.65 C137.78,50.40 160.26,52.70 174.85,39.51 C180.05,34.82 181.91,35.76 178.03,41.12 C171.08,50.71 170.11,63.91 175.61,74.03 C181.23,84.39 193.20,91.00 206.32,91.00 C209.44,91.00 212.00,91.36 212.00,91.81 C212.00,92.26 209.79,93.19 207.08,93.88 C201.65,95.27 193.48,99.99 190.71,103.34 C189.73,104.53 187.72,107.75 186.23,110.50 C183.96,114.73 183.54,116.74 183.52,123.50 C183.49,134.05 186.59,140.65 195.23,148.47 C198.59,151.51 201.03,154.30 200.66,154.67 C200.29,155.04 198.03,154.37 195.64,153.17 C179.50,145.12 161.55,150.79 154.11,166.29 C150.56,173.68 149.81,180.18 151.54,188.43 C152.24,191.77 152.47,194.86 152.05,195.31 C151.63,195.75 150.09,193.65 148.62,190.65 ZM 108.75 170.97 C113.36,169.24 115.99,168.89 122.00,169.24 C130.86,169.75 137.32,172.65 143.61,178.93 L 147.72 183.03 L 148.26 177.08 C149.30,165.58 156.62,154.83 166.81,149.81 C170.68,147.90 173.11,147.50 180.68,147.50 L 189.85 147.50 L 187.29 144.13 C175.38,128.51 179.81,106.03 196.99,94.88 L 199.49 93.27 L 195.99 92.51 C177.69,88.55 165.51,68.96 170.30,51.19 C171.61,46.35 171.59,45.95 170.12,46.60 C162.17,50.08 157.08,51.18 150.91,50.75 C138.51,49.88 128.32,43.34 123.11,32.90 L 120.12 26.93 L 118.20 31.21 C113.23,42.29 102.26,49.77 89.64,50.70 C82.84,51.20 78.18,50.23 69.84,46.58 C68.34,45.92 68.31,46.20 69.55,49.68 C71.37,54.78 71.34,63.51 69.49,69.57 C66.39,79.75 57.17,88.62 46.14,92.03 L 40.60 93.74 L 43.55 95.29 C48.13,97.69 54.67,104.99 57.19,110.50 C60.64,118.04 60.39,129.36 56.58,137.74 C55.02,141.17 53.12,144.48 52.37,145.11 C49.88,147.17 50.92,147.54 58.25,147.18 C68.10,146.69 75.59,149.50 82.25,156.16 C88.20,162.10 91.10,168.36 91.77,176.67 L 92.27 182.95 L 97.64 178.05 C100.86,175.10 105.30,172.28 108.75,170.97 ZM 290.15 64.73 C283.35,50.46 267.02,37.89 251.06,34.66 C242.64,32.95 244.57,31.81 256.91,31.22 C272.95,30.45 286.89,35.39 298.23,45.87 L 304.04 51.25 L 308.77 49.87 C311.37,49.12 317.10,48.51 321.50,48.51 C331.29,48.53 337.03,50.85 342.64,57.06 C344.76,59.41 347.70,62.61 349.17,64.17 C350.64,65.72 351.60,67.00 351.30,67.00 C350.99,67.00 347.99,65.66 344.62,64.03 C329.47,56.66 310.09,58.64 297.16,68.87 L 293.50 71.77 L 290.15 64.73 ZM 306.00 62.11 C316.35,57.57 329.41,57.09 340.54,60.85 L 345.89 62.65 L 344.05 60.08 C341.23,56.12 338.87,54.28 333.46,51.83 C327.36,49.06 314.96,48.84 308.12,51.38 L 303.74 53.00 L 299.12 48.56 C296.58,46.11 293.28,43.17 291.78,42.01 C287.84,38.95 277.33,34.42 271.20,33.12 C265.23,31.86 252.00,31.60 252.01,32.75 C252.01,33.16 254.82,34.38 258.25,35.45 C271.23,39.49 285.60,52.14 291.58,64.77 L 294.07 70.03 L 297.79 67.06 C299.83,65.43 303.52,63.20 306.00,62.11 ZM 254.24 675.01 C250.17,672.52 247.01,667.46 247.00,663.40 C247.00,656.67 254.33,650.22 264.63,647.89 C280.73,644.26 289.33,660.00 277.34,671.14 C270.74,677.27 260.71,678.95 254.24,675.01 ZM 270.79 674.09 C281.71,668.48 285.05,657.59 277.75,651.44 C274.78,648.95 274.07,648.80 267.22,649.24 C261.17,649.62 259.14,650.22 255.69,652.64 C250.55,656.24 247.43,661.59 248.34,665.23 C249.16,668.47 253.63,673.90 256.42,675.03 C260.08,676.51 266.96,676.06 270.79,674.09 ZM 378.65 674.17 C376.56,671.86 376.52,667.62 378.57,665.57 C380.83,663.31 387.27,663.54 389.46,665.96 C391.88,668.63 390.76,672.55 387.04,674.48 C383.15,676.49 380.67,676.40 378.65,674.17 ZM 387.55 672.55 C390.42,669.67 390.56,668.70 388.43,666.57 C385.09,663.23 378.00,665.57 378.00,670.00 C378.00,672.43 380.63,675.00 383.12,675.00 C384.20,675.00 386.20,673.90 387.55,672.55 ZM 440.36 672.01 C437.17,670.72 435.00,667.02 435.00,662.87 C435.00,653.42 451.85,649.76 459.61,657.52 C464.67,662.58 461.46,670.86 453.86,672.38 C449.59,673.23 442.94,673.05 440.36,672.01 ZM 457.52 669.58 C462.59,666.26 461.54,659.00 455.59,656.13 C449.62,653.27 438.25,655.31 436.62,659.54 C434.94,663.92 437.13,669.24 441.36,671.07 C444.44,672.40 454.65,671.46 457.52,669.58 ZM 307.02 657.02 C301.88,651.88 309.54,643.41 317.53,645.42 C320.59,646.19 322.49,649.91 321.62,653.40 C320.86,656.39 318.75,657.70 313.24,658.58 C309.91,659.11 308.84,658.84 307.02,657.02 ZM 318.70 655.46 C321.40,653.69 321.68,650.41 319.35,647.83 C317.18,645.44 312.90,645.50 309.76,647.98 C306.27,650.72 305.69,653.69 308.18,656.18 C310.44,658.44 314.58,658.16 318.70,655.46 ZM 290.31 637.90 C280.71,635.12 280.43,619.45 289.91,614.55 C293.63,612.62 302.96,612.54 307.40,614.39 C314.60,617.40 316.12,624.52 310.84,630.52 C305.43,636.69 296.83,639.78 290.31,637.90 ZM 302.79 635.02 C311.76,630.24 315.33,623.65 311.62,618.76 C308.31,614.40 296.70,612.55 291.04,615.48 C283.52,619.37 281.47,628.62 286.92,634.08 C289.31,636.46 290.69,637.00 294.46,637.00 C297.14,637.00 300.63,636.17 302.79,635.02 ZM 339.00 638.31 C334.58,636.73 333.56,629.69 337.25,626.24 C342.02,621.78 348.27,621.15 352.25,624.73 C358.06,629.97 347.10,641.20 339.00,638.31 ZM 350.58 633.94 C352.44,632.39 353.18,628.20 351.99,625.98 C349.69,621.69 337.67,624.48 336.39,629.59 C335.52,633.04 337.37,636.76 340.19,637.23 C342.54,637.63 348.35,635.78 350.58,633.94 ZM 246.32 363.90 C237.38,362.41 224.86,355.66 226.40,353.16 C226.86,352.43 228.44,353.03 231.12,354.97 C237.53,359.62 244.29,361.50 254.50,361.49 C262.51,361.48 264.24,361.13 270.22,358.30 C273.92,356.56 279.14,353.08 281.83,350.57 C287.03,345.70 288.00,345.20 288.00,347.37 C288.00,349.73 279.15,357.03 272.57,360.12 C269.11,361.74 263.62,363.49 260.39,364.02 C253.78,365.11 253.52,365.10 246.32,363.90 ZM 209.00 344.00 C206.21,341.21 206.37,335.94 209.31,333.17 C213.78,328.98 220.40,331.41 221.61,337.68 C222.86,344.19 213.75,348.75 209.00,344.00 ZM 289.00 332.00 C286.02,329.02 286.33,323.67 289.63,321.07 C293.13,318.32 296.55,318.45 299.55,321.45 C302.55,324.45 302.68,327.87 299.93,331.37 C297.33,334.67 291.98,334.98 289.00,332.00 ZM 465.58 247.95 C462.32,246.80 457.77,244.56 455.46,242.97 C448.20,237.98 439.39,227.00 442.63,227.00 C442.98,227.00 445.87,229.84 449.06,233.32 C462.06,247.51 479.69,251.32 496.57,243.60 C501.44,241.37 503.00,241.23 503.00,243.03 C503.00,243.41 500.19,245.00 496.75,246.56 C488.16,250.46 474.41,251.07 465.58,247.95 ZM 513.27 232.90 C508.88,231.28 506.70,225.27 509.28,221.91 C514.00,215.77 523.00,218.45 523.00,226.00 C523.00,231.26 518.14,234.71 513.27,232.90 ZM 431.00 215.00 C428.02,212.02 428.33,206.67 431.63,204.07 C435.13,201.32 438.55,201.45 441.55,204.45 C444.55,207.45 444.68,210.87 441.93,214.37 C439.33,217.67 433.98,217.98 431.00,215.00 ZM 108.08 149.48 C92.90,145.21 80.40,132.61 76.36,117.50 C73.37,106.33 75.39,91.83 81.35,81.67 C90.04,66.83 109.76,57.87 127.25,60.81 C167.51,67.58 179.41,119.00 146.21,142.74 C136.15,149.93 119.92,152.80 108.08,149.48 ZM 132.64 146.51 C148.70,141.74 161.27,126.11 162.69,109.12 C164.17,91.56 154.56,74.83 138.46,66.90 C132.81,64.12 130.38,63.54 123.03,63.19 C108.55,62.49 98.31,66.61 88.53,77.07 C67.78,99.26 77.22,135.58 106.47,146.12 C112.75,148.38 125.70,148.57 132.64,146.51 ZM 114.07 130.43 C109.73,128.55 107.87,127.02 108.57,125.89 C108.86,125.41 110.87,125.91 113.01,127.01 C120.51,130.83 131.44,128.55 135.53,122.31 C136.36,121.04 137.49,120.00 138.02,120.00 C139.98,120.00 138.92,122.68 135.75,125.75 C129.60,131.71 121.19,133.52 114.07,130.43 ZM 97.00 122.96 C97.00,120.98 100.32,116.89 103.10,115.45 C106.39,113.75 110.35,113.58 113.07,115.04 C116.46,116.85 115.21,117.99 110.53,117.35 C105.52,116.66 101.62,118.46 100.51,121.97 C99.85,124.04 97.00,124.85 97.00,122.96 ZM 128.00 112.52 C128.00,108.79 138.69,105.74 144.25,107.89 C148.22,109.42 147.83,111.36 143.75,110.37 C138.59,109.11 135.09,109.56 131.98,111.86 C128.55,114.39 128.00,114.49 128.00,112.52 Z" fill="rgba(0,0,0,1)"/>
</g>
</svg>