<?xml version="1.0" encoding="UTF-8"?>
<svg xmlns="http://www.w3.org/2000/svg" viewBox="0 0 1095 1095" width="1095" height="1095">
<path d="M0.25 0.25C365.08 0.25 729.92 0.25 1094.75 0.25C1094.75 365.08 1094.75 729.92 1094.75 1094.75C729.92 1094.75 365.08 1094.75 0.25 1094.75C0.25 729.92 0.25 365.08 0.25 0.25ZM322.5 207.16C311.79 170.85 316.09 129.42 302.76 93.67C299.12 83.92 293.87 72.56 284.87 66.64C275.63 60.57 265.23 65.64 262.36 75.76C259.08 87.29 260.4 101.75 262.26 113.44C262.87 117.32 264.47 121.14 264.5 125.05C260.85 121.66 256.5 118.11 251.44 117.21C237.92 114.81 226.47 122.98 230.28 137.38C232.44 145.55 238.55 152.45 243.4 159.14C252.91 172.27 262.71 185.15 272.13 198.34C275.55 203.13 284.42 213.82 284.5 219.17C257.98 187.57 222.99 154.42 181.25 145.36C169.56 142.83 155.54 140.89 144.19 145.67C132.89 150.43 131.83 163.91 141.12 171.41C148.13 177.08 157.25 177.56 165.44 180.5C149.88 184.9 134.44 187.52 123.14 200.69C116.75 208.13 115.05 218.23 124.17 224.35C132.28 229.79 144.16 229.52 153.5 228.82C157.67 228.5 161.19 227.62 165.33 228.5C153.93 238.51 158.07 253.1 173.54 254.66C182.53 255.57 191.67 252.08 200.5 251.01C222.19 248.37 255.5 246.52 274.5 259.5C265.94 270.23 255.3 279.39 246.7 290.2C224.79 317.76 205.74 347.19 190.57 379.04C181.98 397.06 174.4 415.65 168.22 434.62C166.15 440.97 164.15 447.32 162.33 453.73C160.98 458.51 160.24 464.37 157.64 468.5C150.73 461.38 144.96 449.61 134.5 446.99C131.68 450.34 132.03 456.12 131.72 460.5C130.73 474.26 134.69 489.19 141.35 501.22C143.04 504.27 148.07 509.77 148.83 512.68C149.65 515.84 147.82 520.48 147.34 523.64C146.55 528.86 146.69 534.39 145.4 539.5C133.71 544.82 122.14 549 112.72 558.21C109.43 561.43 105.42 564.87 105.1 569.5C118.01 572.73 130.27 569.18 143.03 568.5C143.19 575.19 142.35 581.82 142.28 588.5C142.06 609.77 141.83 631.14 143.44 652.36C144.51 666.38 145.38 680.53 147.32 694.41C148.25 701.06 150.43 708.16 150.52 714.89C150.56 718.05 147.5 721.83 146.38 724.8C143.88 731.46 139.61 747.87 143.5 753.94C148.09 752.92 151.73 747.29 155.5 744.27C158.2 747.31 158.41 753.24 159.4 757.24C160.46 761.55 163.4 767.01 162.98 771.46C162.59 775.51 160.17 779.69 159.38 783.74C157.25 794.69 157 806.54 158.99 817.52C159.72 821.55 159.97 825.91 162.5 829.14C169.75 828 174.33 822.66 180.5 819.33C190.79 845.03 205.48 869.46 221.68 891.81C228.41 901.08 236.58 909.28 243.3 918.5C232.19 923.92 221.24 928.4 211.03 935.55C195.13 946.67 170.23 968.48 184.76 989.74C186.7 992.58 189.41 995.27 192.17 997.35C196.04 1000.27 200.66 1002.58 205.17 1004.33C220.25 1010.19 236.72 1011.94 252.5 1014.93C278.03 1019.77 303.85 1023.38 329.68 1026.58C433.87 1039.49 539.57 1040.42 644.5 1035.01C697.35 1032.28 750.96 1028.85 803.34 1021.62C847.76 1015.48 901.47 1006.15 942.16 986.57C959.48 978.23 973.59 964.27 960.52 944.95C958.69 942.24 956.39 939.74 953.77 937.74C942.63 929.25 929.04 928.49 916.24 924.5C950.69 887.28 971.45 839.91 980.63 790.32C983.03 777.38 984.86 764.36 986.56 751.26C987.4 744.75 987.13 737.92 988.5 731.56C993.48 729.55 998.31 727.43 1002.07 723.5C1000.23 716.88 989.6 712.45 988.08 707.44C987.33 705.01 987.96 702.08 987.66 699.56C986.85 692.6 986 685.54 984.68 678.64C981.58 662.34 976.93 646.53 971.62 630.79C964.76 610.48 956.19 590.73 948.82 570.61C946.83 565.16 940.07 548.28 939.93 543.48C939.82 539.84 944.49 534.96 946.32 531.82C951.37 523.15 955.16 513.78 958.87 504.48C960.3 500.9 962.51 497.14 961.5 493.36C951 493.09 939.59 498.69 930.65 498.5C928.14 489.96 928.49 476.57 928.49 467.5C928.49 445.5 930.88 423.51 929.71 401.51C928.49 378.69 926.29 355.73 920.82 333.55C919.01 326.21 917 318.95 914.69 311.72C913.39 307.64 911.65 303.69 910.9 299.5C927.65 282.44 927.95 258.96 904.32 248.21C900.03 246.26 895.16 244.75 890.49 244.16C886.98 243.72 881.11 244.34 878.15 242.31C875.93 240.79 874.1 237.23 872.36 235.16C868.44 230.51 864.2 225.89 859.81 221.69C846.05 208.52 830.81 196.78 814.29 187.24C780.45 167.69 742.5 155.37 704.23 148.43C693.31 146.45 682.33 144.85 671.28 143.43C665.94 142.74 660.19 142.81 655.04 141.5C656.75 136.42 660.97 129.7 658.21 124.29C655.61 119.2 647.13 120.21 642.5 119.92C627.85 119.03 612.94 120.45 598.59 123.26C586.7 125.59 574.98 129.71 563.78 134.34C559.38 136.16 555.13 139.02 550.55 140.29C546.59 141.39 542.55 140.82 538.53 141.24C532.6 141.87 526.63 142.63 520.69 143.42C501.16 146.01 481.85 149.67 462.73 154.38C449.32 157.69 436.02 161.84 423.03 166.55C416.74 168.84 408.92 173.46 402.36 173.5C412.72 167.54 424.04 162.5 429.74 151.27C438.61 133.81 423.98 119.1 406.5 119.68C393.94 120.11 387.86 127.27 377.5 131.91C379.8 117.3 383.52 101.19 377.68 86.75C370.12 68.03 349.2 78.18 342.44 91.88C331.36 114.32 326.63 145.82 324.2 170.51C323.01 182.59 324.3 195.21 322.5 207.16ZM321.75 263.5C318.94 259.87 318.47 248.92 317.51 243.9C314.89 230.2 311.31 216.62 307.15 203.31C306.14 200.09 303.14 188.1 301.39 186.1C300.69 185.29 300.36 185.66 299.5 185.3C299.16 191.13 305 203.37 306.75 209.72C311.64 227.46 317.24 246.09 318.5 264.53C316.83 265.37 315.17 266.2 313.5 267.04C311.07 263.61 309.65 259.48 307.69 255.74C301.19 243.35 296.36 230.28 289.37 218.1C276.12 195.01 258.89 174.6 243.45 153.01C237.57 144.79 224.82 126.99 240.87 121.39C251.61 117.64 261.08 125.36 266.51 133.99C268.49 137.14 270.42 143.23 273.92 144.5C276.26 140.26 271.47 133.11 269.92 128.52C264.98 113.82 262.71 96.94 264.94 81.5C266.02 73.97 270.4 65.56 279.39 68.13C291.8 71.68 299.02 93.46 302.26 104.37C307.94 123.53 308.9 143.71 311.27 163.47C313.4 181.26 316.67 198.93 320.2 216.48C321.01 220.48 322.38 224.47 322.97 228.51C324.09 236.09 323.62 243.88 324.24 251.5C324.63 256.2 327.42 261.81 321.75 263.5ZM372.08 139.5C376.57 139.72 381.32 134.08 385.09 131.56C395.84 124.37 409.36 119.71 421.16 127.35C424.21 129.33 426.72 132.09 427.87 135.61C434.09 154.62 409.21 164.81 396.85 172.41C392.43 175.12 385.15 179.15 384.35 184.5C391.6 186.23 397.82 179.35 406.28 183.2C415.72 187.5 412.16 197.94 405.33 202.88C394.44 210.75 379.73 210.69 367.79 216.35C356.42 221.75 349.73 231.96 344.5 242.95C342.44 233.52 348.82 216.24 352.79 207.39C354.41 203.77 358.71 198.31 358.29 194.5C354.51 195.65 352.67 201.94 351.09 205.52C345.8 217.54 343.13 229.74 341.36 242.63C340.78 246.89 342.74 255.6 339.27 258.86C338.49 259.6 336.5 259.72 335.5 259.96C332.74 254.78 333.13 246.38 333.09 240.5C333 225.04 334.99 209.4 339.12 194.56C340.33 190.2 345.76 177.89 345.17 174.5C341.52 175.63 338.26 189.34 337.08 193.49C332.6 209.25 331.08 225.15 331.1 241.5C331.11 244.13 332.52 258.38 332.13 259.47C331.67 260.78 331.33 260.25 330.5 261.06C328.79 259.51 330.42 262.18 329.05 260.31C327.44 258.14 328.03 252.07 327.92 249.5C327.55 241.15 327.09 232.86 326.84 224.5C325.7 186.08 327.46 146.12 339.82 109.44C342.88 100.35 345.55 89.24 353.96 83.45C359.99 79.3 368.56 79.02 372.9 85.65C378.89 94.82 377.56 112.06 375.75 122.35C375 126.62 370.8 136.17 372.08 139.5ZM654.44 125.5C656.39 130.55 653.24 135.94 651.24 140.67C646.64 151.57 641.65 162.19 636.25 172.72C611.71 220.61 574.47 264.84 530.5 296.03C530.16 291.65 532.39 286.83 534.35 282.82C534.91 281.66 536.59 279.7 536.51 278.38C536.46 277.51 535.91 277.34 535.5 276.64C531.05 276.71 528.32 287.01 527.29 290.68C522.85 306.5 523.52 323.31 519.64 339.2C518.82 342.56 515.73 352.4 512.97 354.43C509.8 356.74 500 358.17 495.81 359.41C487.06 361.98 479.01 366.29 470.5 369.42C461.14 349.61 457.88 326.17 457.83 304.5C457.66 229.67 499.57 163.03 570.31 135.75C585.25 129.98 600.62 126.12 616.5 124.07C620.08 123.61 623.72 123.94 627.3 123.56C634.34 122.8 648.23 122.3 654.44 125.5ZM541.89 145.5C482.3 180.81 449.59 247.79 454.37 316.49C455.36 330.67 458.19 344.69 462.33 358.26C463.69 362.72 465.61 367.02 466.88 371.5C464.42 372.81 461.96 374.12 459.5 375.43C450.83 335.82 446.49 297.76 408.88 273.63C402.39 269.47 395.3 266.03 387.99 263.55C379.87 260.8 371.1 258.75 362.5 258.27C356.49 257.94 349.5 259.2 343.91 257.5C347.53 241 356.34 224.79 372.72 218.22C383.92 213.72 397.47 213.38 407.41 205.94C419.51 196.89 418.9 183.41 403.98 178.5C409.72 173.89 424.51 169.83 431.91 167.42C457.36 159.1 483.05 152.95 509.48 148.81C517.27 147.59 534.92 143.96 541.89 145.5ZM873.17 242.5C866.53 243.75 859.22 242.73 852.45 242.44C840.72 241.94 828.19 242.06 816.52 243.26C781.01 246.92 747.74 257.29 715.77 273.32C687.33 287.57 661.23 306.25 636.14 325.64C628.85 331.28 621.68 337.19 614.63 343.11C612.4 344.99 606.71 351 604.23 351.65C600.5 352.64 583.79 349.44 578.5 349.25C558.34 348.51 538.25 349.93 518.43 353.5C519.45 349.68 521.53 346.09 522.61 342.21C524.68 334.79 525.76 327.06 526.69 319.44C527.2 315.21 526.71 305.81 528.84 302.35C530.62 299.44 544.21 290.3 547.83 287.35C560.93 276.68 573.52 264.89 584.87 252.35C601.57 233.9 616.27 213.99 629.31 192.82C638.67 177.64 645.39 161.3 653.49 145.5C670.86 145.92 688.75 149.21 705.72 152.66C748.19 161.29 789.24 174.61 825.66 198.88C839.94 208.4 864.42 227.95 873.17 242.5ZM307.8 269.5C303.99 266.55 295.86 251.2 292.42 246.08C282.48 231.33 270.96 217.59 256.56 206.98C251.06 202.94 239.76 194.95 233.02 195.5C235.02 198.88 240.8 200.09 244.41 202.04C252.22 206.24 259.33 211.66 265.87 217.62C282.16 232.46 293.57 251.98 305.09 270.5C303.56 271.65 302.03 272.79 300.5 273.94C288.22 262.56 278.61 248.33 263.98 239.56C260.26 237.33 252.34 231.29 248.5 233.42C250.55 236.54 257.06 238.19 260.35 240.11C267.38 244.21 278.28 251.68 282.5 258.65C279.3 257.7 276.31 255.75 273.2 254.36C267.43 251.79 261.48 249.68 255.32 248.32C229.9 242.72 205.63 246.96 180.47 250.95C174.07 251.97 162.73 249.77 162.22 241.44C161.42 228.46 177.63 230.34 181.88 224.5C178.68 221.62 171.52 223.08 167.32 223.66C156.33 225.19 143.39 226.99 132.54 223.98C127.86 222.68 122.06 219.73 121.28 214.34C120.46 208.72 125.07 203.88 128.9 200.42C138.05 192.16 149.56 187.17 161.65 185.26C166 184.56 172.28 186.08 175.82 183.5C169.88 170.68 142.67 178.33 138.45 161.08C136.66 153.79 143.5 149.56 149.44 147.79C160.44 144.51 176.67 147.43 187.49 150.9C229.26 164.31 265.39 197 289.65 232.82C295.26 241.11 300.42 249.66 304.95 258.59C305.96 260.58 309.82 266.2 309 268.38C308.34 270.13 308.75 268.04 307.8 269.5ZM622.44 390.5C625.47 393.3 633.08 392.27 637.19 392.5C646.62 393.03 656.08 392.95 665.5 393.41C669.58 393.61 675.31 392.49 679.01 394.46C683.15 396.67 691.57 406.86 694.7 410.78C707.18 426.37 716.93 442.88 722.36 462.23C736.82 513.78 743.77 571.49 713.68 619.18C707.18 629.49 699.08 639.43 689.41 646.96C667.96 663.67 643.05 668.16 616.5 669.96C608.44 670.5 600.51 671.31 592.5 672.14C588.86 672.51 584 672.22 582.14 675.5C585.6 678.44 593.09 675.56 597.5 674.99C612.1 673.14 626.93 672.68 641.5 670.98C656.6 686.37 667.3 706.6 671.85 727.63C672.97 732.79 673.78 738.22 674.07 743.5C674.2 746.04 673.54 749.62 674.57 751.98C675.66 754.47 683.65 760.76 685.97 763.57C692.68 771.72 698.03 780.81 701.9 790.63C705.86 800.7 708.06 811.69 708.18 822.5C708.22 826.66 705.99 834.09 709.5 836.58C712.33 833.77 711.89 829.31 711.9 825.5C711.93 816.18 709.77 807.64 708.74 798.5C715.23 793.92 722.66 789.39 730.69 788.34C735.43 787.72 740.77 789.29 741.92 794.56C743.28 800.82 738.06 805.78 738.5 811.67C743.15 811.98 748.16 808.09 752.89 810.57C760.19 814.41 756.21 825.87 754.22 831.55C747.99 849.35 737.49 864.19 718.5 869.09C711.89 860.73 705.99 852.66 697.37 846.11C694.36 843.83 690.22 839.62 687.07 842.5C688.87 845.76 693.32 847.71 696.36 850.06C700.99 853.63 705.33 857.98 709 862.52C722.02 878.6 727.89 897.94 727.14 918.5C726.85 926.45 726.05 937.1 721.5 943.87C698.27 922.58 662.86 922.71 638.15 941.64C626.56 950.52 618.97 962.11 612.5 974.98C607.7 971.04 603.92 965.21 600.38 960.12C582.94 934.99 575.32 905.98 596.99 880.52C603.28 873.13 611.58 867.06 620.14 862.6C623.51 860.84 630.07 859.3 631.5 855.79C629.02 853.01 625.58 855.8 622.63 857.21C615.43 860.66 608.65 864.85 602.5 869.94C597.5 861.37 591.07 839.19 592.5 829.65C595.37 830.83 597.47 832.44 600.5 832.61C600.5 828.34 598.84 823.64 596.37 820.12C595.05 818.23 593.21 816.98 592.5 814.97C595.28 814.88 597.35 815.82 599.5 814.58C596.72 810.58 593.94 806.59 591.16 802.59C593.27 802.59 595.39 802.59 597.5 802.59C598.34 796.35 590.86 790.82 586.16 787.5C599.06 780.1 611.98 773.8 622.93 763.43C626.39 760.16 632.08 756.49 631.5 751.63C628.71 751.5 618.93 761.98 616 764.53C604.9 774.2 591.1 781.79 577.35 786.91C540.54 800.64 498.77 797.61 464.57 777.99C457.73 774.07 450.98 769.67 444.98 764.55C440.79 760.98 436.98 756.48 432.5 753.36C422.26 756.86 411.34 757.62 401.97 751.5C405.74 747.63 413.25 748.71 416.08 744.5C411.93 740.87 403.21 746.15 398.5 748.05C395.97 744.7 394.96 741.68 394.73 737.5C398.28 736.3 413.15 734.25 414.22 733.59C415.16 733.01 414.91 732.36 415.4 731.5C410.11 728.06 400.67 732.76 394.5 732.98C394.77 730.28 395.04 724.94 397.88 723.42C402.81 720.76 409.2 723.17 413.46 719.5C410.28 716.77 405.82 718.57 401.75 717.5C425.63 693.83 466.57 715.48 494.44 720.24C502.99 721.7 511.81 722.77 520.5 722.82C524.09 722.84 528.23 724.01 529.84 720.5C527.74 718.87 525.21 719.89 523.13 718.33C519.12 715.3 517.09 702.39 515.73 697.64C510.59 679.66 494.32 666.71 475.39 675.92C470.94 678.09 467.71 681.53 464.5 685.22C463.41 680.48 463.96 675.41 463.62 670.5C463.51 668.89 462.71 666.25 463.34 664.74C463.86 663.52 465.19 662.88 465.79 661.5C460.66 657.17 448.2 653.36 441.57 649.98C422.45 640.22 403.57 628.33 387.87 613.62C380.76 606.95 373.65 599.1 371.08 589.42C368.12 578.27 371.03 567.14 373.66 556.28C376.8 543.31 379.14 530.23 381.51 517.1C387.02 486.47 392.43 454.87 409.5 428.03C439.9 380.26 492.11 358.71 546.45 353.69C562.32 352.22 584.49 351.5 599.85 355.5C596.61 358.46 583.31 367.88 583.79 371.5C584.79 371.62 585.22 372.06 586.3 371.79C588.41 371.29 598.63 361.5 600.98 359.46C615.26 347 630.14 335.15 645.09 323.53C686.75 291.16 735.11 261.34 787.55 251.11C806.31 247.45 825.34 245.98 844.5 245.98C851.95 245.98 859.37 246.04 866.79 246.5C884.38 247.58 909.1 246.22 917.82 265.71C921.5 273.93 918.83 282.56 914.13 289.66C905.69 302.41 891.54 311.84 879.65 321.12C845.09 348.08 805.58 372.29 762.27 381.74C740.83 386.41 719.43 388.39 697.5 389.35C678.47 390.19 659.55 389.47 640.5 389.11C636.81 389.04 626.73 387.01 623.74 388.34C622.67 388.81 622.8 389.61 622.44 390.5ZM877.98 262.5C874.31 258.61 866.6 260.69 861.5 261C845.26 262.01 829.45 268.15 815.07 275.59C773.06 297.35 741.44 335.55 696.3 351.78C675.78 359.15 654.01 362 633.31 368.77C626.07 371.14 612.35 375.47 607.73 381.5C608.61 382.25 608.18 382.76 609.53 383.04C611.42 383.43 614.14 381.02 615.67 380.15C619.58 377.92 625.07 374.69 629.54 373.96C633.53 373.32 647.31 377.3 652.5 378.02C694.8 383.96 732.39 376.75 771.76 361.27C785.89 355.72 800.13 349.5 813.12 341.56C838.93 325.8 859.57 298.69 846.4 267.5C852.96 265.12 860.51 264.2 867.5 264.02C871.2 263.93 875.47 265 877.98 262.5ZM278.5 261.15C285.11 265.44 291.26 269.86 296.81 275.5C292.47 281.01 284.45 285.46 279.27 290.76C266.24 304.11 256.39 320.08 250.3 337.73C232.43 389.5 247.56 448.37 257.41 500.23C259.9 513.35 262.5 526.39 265.21 539.46C266.5 545.68 268.8 552.8 268.5 559.04C261.69 552.17 248.27 541.5 247.13 531.47C246.44 525.33 248.55 518.68 248.82 512.5C249.46 497.95 247.73 483.99 241.85 470.59C239.45 465.11 236.05 456.72 230.5 454.06C224.6 457.55 220.63 466.31 218.12 472.52C209.39 494.02 213.27 513.13 222.3 533.5C218.51 532.74 214.7 530.1 211 528.55C205.36 526.18 199.54 525.02 193.57 523.82C190.41 523.19 186.03 522.2 184.56 518.91C182.51 514.33 187.89 503.6 188.81 498.46C191.31 484.61 190.06 468.78 183.5 456.18C179.85 456.54 178.55 458.93 176.49 461.94C171.46 469.32 169.21 477.21 166.5 485.57C164.52 482.84 161.1 476.91 161.02 473.5C160.92 469.09 163.53 463.53 164.71 459.32C168.29 446.52 172.25 433.89 176.82 421.4C192.47 378.56 214.38 337.88 242.34 301.82C253.28 287.71 264.92 272.86 278.5 261.15ZM455.83 377.5C447.5 384.22 438.4 389.65 430.57 397.07C427.97 399.54 419.32 409.73 417.29 410.78C412.85 413.07 400.79 414.35 395.5 414.98C391.85 415.41 388.36 415.2 385.77 417.5C395.39 418.93 404.78 414.18 414.22 414.5C407.03 426.62 399.68 436.28 394.31 449.75C383.08 477.96 380.19 508.06 373.99 537.48C370.1 555.95 361.7 576.78 369.28 595.28C373.27 605 380.95 612.96 388.92 619.54C403.2 631.32 418.25 641.75 434.6 650.5C431.94 653.01 426.16 652.81 422.5 653.12C415.16 653.73 407.92 654.43 400.5 654.41C396.12 654.4 390.14 652.94 386.8 655.5C396.66 659.02 418.71 656.39 429.44 654.76C432.28 654.32 435.64 652.92 438.49 653.01C441.13 653.09 456.39 660.97 460.23 662.5C460.23 677.5 460.23 692.5 460.23 707.5C455.4 707.29 450.34 704.99 445.47 704.17C432.61 701.98 418.75 702.06 407.12 708.63C389.98 718.29 382.37 744.88 402.3 756.19C413.51 762.55 421.39 757.99 432.5 758.06C438.17 763.19 443.83 768.33 449.5 773.47C443.54 783.12 441.4 788.62 437.5 799.16C429.58 801.35 420.67 801.34 412.5 801.43C408.8 801.47 403.75 800.32 401.05 802.5C403.75 804.64 407.98 803.85 411.5 803.85C419.85 803.85 428.24 803.05 436.5 801.86C436.96 804.52 436.39 806.74 436.25 809.5C436.12 812.11 436.49 814.89 436.03 817.46C433.78 830.02 419.78 842.9 416.4 856.79C410.47 881.17 422.35 904.48 435.11 924.5C425.8 927.07 416.29 929.46 409.65 937.18C405.73 941.74 403.8 947.16 400.5 952.02C371.57 943.05 359.09 919.31 348.64 892.78C345.93 885.89 341.45 877.82 341.29 870.5C352.2 870.82 362.7 870.76 373.5 869.08C377.52 868.45 382.79 868.39 385.68 865.5C381.64 864.48 377.6 866.39 373.49 867C363.8 868.45 348.67 870.21 339.23 867.5C331.87 842.59 324.78 817.77 319 792.46C316.19 780.14 313.66 767.75 311.26 755.36C310.25 750.13 309.7 744.51 307.96 739.5C316.89 737.33 330.7 741.54 338.82 736.5C336.39 734.35 332.81 736.01 329.5 736.25C322.36 736.77 314.25 738.45 307.5 735.54C306.45 729.86 305.39 724.18 304.34 718.5C310.63 718.31 317.15 719.05 323.5 719.09C337.68 719.19 351.48 718.39 365.5 716.9C371.7 716.25 383.79 715.86 388.84 712.5C388.15 711.91 388.47 711.53 387.4 711.28C385.44 710.82 369.06 714.43 365.49 714.87C346.18 717.24 322.65 719.42 303.56 715.5C296.88 681.05 290.19 646.61 283.5 612.16C287.55 611.85 291.45 612.59 295.5 612.73C303.12 612.97 310.98 612.11 318.5 610.99C322.54 610.38 328.18 610.24 330.86 607.5C326.55 606.5 321.93 608.28 317.5 608.98C308.17 610.45 291.09 612.26 282.54 608.5C276.97 585.12 273.44 561.22 268.7 537.65C267.01 529.23 262.1 513.37 263.41 505.5C281.15 506.1 299 505.72 316.51 503.03C321.89 502.2 329.39 502.6 333.93 499.5C332.76 498.47 334.54 499.08 333.2 498.37C331.91 497.68 329.8 498.86 328.5 499.08C323.87 499.86 319.17 500.56 314.5 501.14C300.75 502.83 274.79 505.47 261.84 502.5C256.77 483.33 253.78 463.12 250.79 443.54C249.45 434.75 246.63 424.86 247.5 415.99C256.59 415.84 265.37 416.85 274.5 416.09C278.04 415.8 281.95 416.39 284.93 414.5C282.17 412.1 277.3 413.89 273.5 414.06C264.95 414.46 255.95 414.75 247.5 413.33C245.92 407.63 245.22 400.77 246.5 394.98C255.15 394.8 263.86 395.28 272.5 394.85C288.26 394.06 304.01 391.74 319.51 389C323.32 388.33 338.37 386.28 340.87 384.39C341.7 383.76 341.41 383.32 341.82 382.5C335.6 381.87 320.78 386.84 313.49 387.96C293.21 391.09 266.77 394.71 246.42 392.5C244.48 380.49 247.11 366.98 249.55 355.18C260.93 300.09 309.7 254.09 368.54 262.79C377.94 264.18 387.11 266.6 395.77 270.67C429.38 286.47 445.01 319.72 451.96 354.54C453.48 362.14 454.31 369.88 455.83 377.5ZM843.5 267.92C847.34 273.23 848.16 280.1 848.13 286.5C848.01 309.61 831.6 327.04 813.18 338.68C802.49 345.45 790.85 350.84 779.18 355.68C733.82 374.47 685.1 385.51 636.56 372.5C642.15 367.93 655.89 366.31 663.25 364.6C680.31 360.66 697.4 356.38 713.26 348.72C740.44 335.6 762.74 314.94 787.07 297.54C804.74 284.89 823.01 275.13 843.5 267.92ZM907.5 302.96C920.33 333.24 925.59 372.8 926.12 405.5C926.35 419.56 925.34 433.49 925.17 447.5C925.03 459.8 924.54 472.21 925.22 484.5C925.52 489.82 927.23 495.45 926.5 500.69C909.57 507.22 894.76 515.78 880.5 526.97C880.51 523.45 882.05 519.86 882.58 516.27C883.52 509.84 884.62 497.45 879.83 492.5C875.06 494.33 871.03 499.36 867.47 502.96C858.2 512.33 850.11 522.57 843.51 534C824.42 567.03 815.72 604.64 814.15 642.5C813.46 659.09 814.01 675.96 815.19 692.5C815.59 698.18 816.81 703.97 816.5 709.64C812.68 704.27 809.15 698.71 804.88 693.65C786.1 671.43 757.56 657.21 728.5 656.03C720.9 655.72 712.63 655.37 705.3 657.5C704.95 661.96 706.6 665.82 708.77 669.73C716.04 682.84 727.65 688.5 741.47 692.5C737.12 696.35 732.14 699.26 728.01 703.51C718.47 713.35 713.23 726.87 713.09 740.5C713.03 746.19 712.61 754.3 716.5 758.84C736.21 759.43 754.17 752.07 762.38 732.9C765.92 724.62 765.43 706.88 775.55 703.96C791.41 699.37 800.22 719.86 805.69 730.82C811.38 742.23 816 754.3 820.28 766.29C821.23 768.95 822.77 771.71 823.27 774.5C823.91 778.04 823.34 781.89 823.44 785.47C823.55 789.27 824.68 793.71 823.91 797.44C823.24 800.73 819.64 804.47 818.17 807.63C815.32 813.8 813.91 820.43 811.5 826.75C802.66 820.99 796.53 817.66 787.5 825.72C786.13 820.59 786.64 814.82 786.64 809.5C786.64 800.27 786.18 790.33 782.82 781.63C777.06 766.72 759.81 755.98 745.19 766.67C738.92 771.25 736.21 778.05 732.51 784.5C721.67 786.57 717.01 789.46 707.5 794.43C702.26 783.72 698.27 773.26 690.87 763.67C688.93 761.15 678.7 751.57 678.2 750.3C677.31 748.03 678 744.91 677.79 742.5C677.2 735.92 676.03 729.4 674.48 722.98C669.57 702.72 658.97 686.55 646.24 670.5C650.84 669.01 655.73 668.25 660.37 666.78C673.07 662.74 684.7 655.97 694.81 647.32C742.84 606.21 744.1 538.14 731.26 481.32C727.64 465.31 723.27 448.72 715.27 434.22C707.13 419.47 696.87 406.1 684.64 394.5C689.51 391.77 705.54 393.08 712.18 392.54C731.48 390.95 750.63 388.7 769.37 383.75C820.27 370.3 869.02 338.42 907.5 302.96ZM138.5 454.16C147.84 457.78 157.31 474.49 161.13 483.44C162.89 487.55 163.73 495.8 167.5 497.82C169.99 495.15 169.46 490.29 170.15 486.6C171.49 479.48 174.26 471.8 178.5 465.88C178.37 470.17 176.23 474.44 175.28 478.66C172.08 492.96 172.91 506.4 180.44 519.08C181.62 521.06 182.34 522.83 184.26 524.23C189.09 527.74 195.83 527.68 201.42 529.17C209.41 531.3 216.75 535.08 223.68 539.5C219.91 540.68 215.83 539.91 211.87 540.49C202.37 541.89 193.41 545.47 185.71 551.21C176.78 557.86 170 566.93 161.19 573.67C157.87 576.21 154.64 579.03 150.5 579.53C153.73 572.78 159.25 566.21 165.11 561.56C167.89 559.36 173.6 557.05 173.5 553.35C168.17 552.95 162.34 557.63 157.23 559.72C148.09 563.45 136.41 567.48 126.5 566.66C131.82 563.58 139.26 562.36 145.09 559.53C156.5 553.98 167.49 547.11 179.52 542.96C184.01 541.41 188.72 539.9 193.5 539.84C197.1 539.8 201.3 541.04 203.8 538.5C199.63 533.79 190.08 536.87 184.57 532.99C167.32 520.83 151.86 495.33 144.5 475.94C141.89 469.07 139.13 461.5 138.5 454.16ZM136.5 457.54C143.95 485.27 156.5 509.24 177.12 529.5C171.96 529.32 165.8 523.96 161.91 520.57C148.86 509.19 140.39 494.43 136.76 477.56C135.52 471.76 133.47 462.82 136.5 457.54ZM230.5 458.98C231.52 464.92 228.78 475.95 228.37 482.6C227.78 491.97 229.22 502.27 231.25 511.41C233.73 522.57 237.85 533.22 243.21 543.31C245.84 548.27 251.29 553.82 252.5 559.02C235.46 551.47 214.05 547.48 197.16 557.67C185.07 564.97 167.33 584.97 152.29 582.5C157.9 578.8 163.24 575.3 168.27 570.78C179.9 560.31 189.59 547.98 205.56 544.06C211.97 542.49 218.91 542.11 225.5 542.84C228.51 543.17 230.31 544.74 233.27 544.5C233.84 541.43 230.67 539.13 228.95 536.57C225.76 531.81 223.01 526.81 221.04 521.43C213.54 501 215.83 475.85 230.5 458.98ZM412.72 461.32C406.54 463 399.75 468.9 398.96 475.5C398.62 478.32 398.88 482.2 401.96 483.47C406.4 485.28 408.83 481.33 412.64 480.1C417.87 478.4 424.58 478.59 427.89 473.35C428.85 471.84 428.98 470.27 428.92 468.5C428.65 460.61 418.72 459.7 412.72 461.32ZM233.5 462.85C242.7 476.86 245.36 493.07 245.21 509.5C245.12 518.77 241.18 529.44 245.34 538.23C250.95 550.07 272.11 561.11 271.5 574.12C267.93 570.69 263.92 567.51 260.51 563.97C243.48 546.32 234.53 521.56 231.53 497.78C230.12 486.57 229.91 473.63 233.5 462.85ZM614.65 463.26C608.55 464.52 605.36 471.75 610.03 476.48C614.58 481.09 621.48 480.6 627.27 482.25C629.87 482.99 631.89 485.32 634.55 485.79C637.01 486.22 639.68 485.87 641.33 483.84C644.36 480.11 642.27 475.1 639.71 471.76C634.05 464.37 623.58 461.42 614.65 463.26ZM182.5 463.99C190.05 481.47 185.13 496.84 180.5 513.83C171.27 502.51 176.6 476.16 182.5 463.99ZM424.64 466.5C426.56 475.33 417.96 474.68 411.79 476.42C408.73 477.28 406.58 479.43 403.5 480.07C397.63 471.08 416.36 459.94 424.64 466.5ZM638.31 481.5C634.45 482.41 632.96 480.53 629.37 479.18C623.28 476.9 614.57 478.17 611.25 471.5C614.88 459.63 642.41 470.04 638.31 481.5ZM956.89 497.5C954.79 504.29 943.13 511.88 937.08 515.61C918.52 527.05 896.87 534.34 880.12 548.59C873.57 554.16 867.88 560.68 863.66 568.17C862.11 570.94 861.5 574.72 859.75 577.25C857.97 579.83 853.78 581.68 851.45 583.94C844.53 590.65 839.51 598.65 836.29 607.72C833.93 614.4 832.13 621.52 831.17 628.52C830.28 634.91 830.96 642.23 828.5 648.21C824.59 628.13 826.89 606.78 834.25 587.75C841.08 570.1 852.27 554.52 861.75 538.28C869.13 525.64 874.11 512.72 878.5 498.85C880.42 506.94 879.36 516.54 876.88 524.44C875.6 528.54 872.1 532.83 872.5 536.98C875.52 537.92 877.28 535.02 879.47 532.96C884.13 528.59 889.34 524.63 894.62 521.04C912.98 508.56 934.76 499.53 956.89 497.5ZM874.5 501.11C875.39 509.36 865.1 527.65 860.68 535.2C848.29 556.35 832.81 577.42 827.35 601.72C824.37 614.99 823.66 628.94 825.17 642.5C825.82 648.28 828.16 653.88 828.7 659.62C829.1 663.78 828.42 668.29 828.42 672.5C828.42 680.52 828.86 688.49 829.24 696.5C829.62 704.66 831.78 713.36 831.04 721.5C830.62 726.23 828.95 731.54 827.5 736.03C825.58 730.25 822.47 724.25 821.33 718.27C820.11 711.85 820.21 705.03 819.68 698.52C818.81 687.84 818.08 677.24 817.86 666.5C816.66 606.53 829.48 543.99 874.5 501.11ZM953.5 506C953.51 512.56 947.76 521.25 944.63 527.13C935.67 543.95 921.86 560.41 903.24 566.73C890.37 571.09 876.5 571.25 863.5 575.35C864.79 565.69 874.68 556.32 881.85 550.37C903.67 532.27 932.48 525.34 953.5 506ZM434.17 559.5C435.37 555.78 434.89 551.45 434.9 547.5C434.91 536.45 432.94 512.52 418.4 510.3C401.41 507.7 394.92 534.43 400.05 546.5C397.91 547.13 388.29 547.61 387.3 549.78C386.84 550.78 387.42 551.32 387.5 552.26C391.62 552.91 395.91 550.43 400.46 551.11C411.79 552.78 422.42 561.92 434.17 559.5ZM152.5 516.97C160.09 524.05 167.61 529.97 177.03 534.5C173.26 535.58 152.97 538.12 149.5 537.6C150.5 530.72 151.5 523.85 152.5 516.97ZM587.5 582.27C588.1 582.34 588.45 582.73 589.12 582.47C590.61 581.88 591.7 579.44 592.82 578.32C595.2 575.92 598.45 574.12 601.7 573.17C610.97 570.45 621.62 571.1 629.88 565.39C642.99 556.33 639.78 532.38 629.22 522.32C616.99 510.67 596.96 518.74 592.39 533.77C588.14 547.76 594.97 558.72 604.18 568.5C597.92 570.7 586.54 573.98 587.5 582.27ZM417.67 524.13C425.09 521.43 429.71 532.46 422.37 534.95C415.2 537.39 410.52 526.74 417.67 524.13ZM620.78 529.38C628.45 528.19 630.33 540.28 622.49 541.1C615.01 541.89 613.31 530.53 620.78 529.38ZM182.18 539.5C165.76 545.53 151.12 555.36 134.72 561.29C127.84 563.78 118.94 566.99 111.88 564.5C126.07 549.92 144.4 542.01 164.5 539.82C170.42 539.17 176.29 538.19 182.18 539.5ZM501.96 582.5C505.32 581.28 508.97 581.1 512.37 579.81C521.14 576.48 529.2 568.4 529.13 558.5C529.11 555.43 528.38 552.6 525.88 550.61C522.5 547.92 517.62 547.5 513.5 546.98C504.08 545.8 483.54 543.11 476.71 551.2C474.69 553.6 474.02 556.45 474.02 559.5C474.02 572.25 487.19 578.85 497.81 581.5C497.66 585.48 496.69 589.38 497.12 593.5C497.37 595.87 498.55 597.96 497.97 600.39C496.01 608.57 482.21 611.33 475.66 608.9C472.51 607.74 469.58 605.64 467.43 603.07C466.49 601.95 465.49 598.93 464.2 598.36C463.29 597.95 462.75 598.45 461.89 598.5C460.64 603.54 467.38 608.86 471.43 611.02C482.39 616.88 492.72 612.41 500.5 603.94C509.21 612.48 517.31 617.91 530.17 613.57C536.16 611.55 549.5 599.18 544.5 592.94C541.55 594.44 541.63 597.51 539.97 600.39C537.78 604.2 534.61 607.27 530.69 609.26C512.53 618.45 497 599.92 501.96 582.5ZM936.66 546.5C940.97 557.59 944.09 569.13 948.35 580.24C958.27 606.13 968.67 631.7 976.24 658.38C978.95 667.93 980.84 677.66 982.2 687.47C982.96 692.87 984.67 698.86 983.5 704.19C972.81 696.2 962 686.95 949.23 682.35C943.95 680.45 938.64 680.64 933.3 679.5C940.61 672.08 946.8 664.51 951.68 655.25C953.27 652.24 955.85 647.86 955.09 644.5C942.08 641.12 921.48 642.79 908.8 647.39C904.8 648.84 901.25 651.16 897.5 653.07C897.8 649.75 899.57 646.51 900.65 643.27C903.51 634.76 907.12 623.39 905.62 614.5C897.41 613.99 883.65 625.85 878.08 631.59C862.6 647.54 850.77 668.32 842.32 688.76C839.51 695.54 837.33 702.52 834.5 709.27C832.1 699.39 831.99 685.81 831.99 675.5C831.98 645.65 832.16 600.94 859.64 582.06C872.59 573.17 888.91 575.39 903.2 570.6C920.04 564.95 924.51 557.32 936.66 546.5ZM220.24 554.5C211.33 569.53 192.09 579.53 175.62 583.28C170.2 584.51 164.23 585.75 158.78 584.5C173.52 579.94 183.2 569.4 195.87 561.35C203.01 556.82 211.66 552.6 220.24 554.5ZM316.5 801.34C313.33 800.06 310.17 798.78 307 797.5C305.15 783.03 300.45 768.14 294.65 754.78C290.43 745.05 284.96 735.63 282.24 725.31C278.53 711.19 282.16 696.8 279.73 682.62C276.11 661.46 257.74 639.72 235.5 637.18C232.75 640.62 232.33 646.15 231.99 650.5C231.22 660.32 231.57 669.72 234.41 679.22C235.76 683.73 239.36 688.65 239.5 693.11C217.64 682.88 192.38 679.66 171.17 693.66C167.51 696.08 163.72 698.99 160.74 702.24C158.38 704.82 156.37 708.03 153.5 709.81C150.76 697.78 149.88 684.85 148.82 672.5C147.41 656.22 145.98 639.87 145.85 623.5C145.78 613.79 144.22 595.88 146.5 587.17C165.74 591.9 187.57 586.18 203.77 575.31C209.11 571.72 213.99 567.59 218.42 562.92C220.14 561.11 222.32 556.96 224.66 556.09C228.37 554.7 233.72 556.31 237.4 557.16C248.96 559.82 269.94 572.78 273.97 584.59C275.77 589.88 276.19 595.87 277.31 601.34C279.76 613.3 281.96 625.32 284.31 637.33C290.33 667.99 296.39 698.69 302.28 729.37C305.43 745.74 308.71 762.13 312.24 778.44C313.78 785.57 317.13 794.16 316.5 801.34ZM393.6 558.42C369.11 560.11 372.01 596.86 396.47 594.69C419.82 592.62 417.19 556.8 393.6 558.42ZM390.7 561.19C411.9 556.15 418.28 587.99 398.46 592.02C377.41 596.3 370.94 565.88 390.7 561.19ZM156.5 564.49C153.33 568.68 150.15 572.86 146.98 577.04C146.98 573.65 146.98 570.26 146.98 566.86C150.15 566.07 153.33 565.28 156.5 564.49ZM626.64 573.29C603.55 577.59 610.22 614.12 635.34 608.72C657.33 604 650.74 568.81 626.64 573.29ZM628.66 575.28C649.18 572.3 653.41 604.3 632.49 606.97C611.9 609.59 607.83 578.3 628.66 575.28ZM901.5 620.94C902.53 630.46 895.01 649.14 890.54 658.01C888.74 661.58 882.39 668.16 885.5 671.61C888.92 670.15 893.56 661.05 898.11 657.56C911.13 647.55 933.15 644.54 948.97 647.5C944.51 651.81 937.81 654.2 932.19 656.66C920.83 661.64 908.97 665.52 898.14 671.66C883.96 679.71 871.26 690.96 861.64 704.14C857.75 709.47 855 715.39 851.46 720.9C848.23 725.92 844.32 730.19 841.5 735.55C840.35 728.87 846.38 710.43 848.68 703.31C858.76 672.12 873.95 640.45 901.5 620.94ZM889.89 627.5C857.28 659.56 844.77 702.12 836.4 745.77C834.09 757.77 831.9 769.23 831.9 781.5C831.9 786.84 833.5 791.88 827.5 793.59C826.37 784.14 827.33 774.92 827.84 765.5C829.8 729.22 841.29 692.86 860.3 661.8C865.94 652.6 871.96 643.72 879.4 635.87C882.39 632.71 885.71 628.39 889.89 627.5ZM237.5 642.06C265.71 669.22 265.41 710.64 278.34 745.23C282.48 756.32 287.67 766.97 291.41 778.2C293.02 783.02 295.18 788.28 294.5 793.33C290.55 779.09 285.19 764.79 277.33 752.17C274.45 747.54 270.36 743.44 267.7 738.75C266.11 735.93 265.28 732.61 263.76 729.7C260.19 722.87 254.89 716.45 248.79 711.7C211.57 682.76 164.24 705.02 146.5 744.18C145.25 736.62 149.03 727.66 152.31 720.82C164.71 694.98 190.87 683.88 218.45 689.09C226.39 690.59 234.21 694.2 241.02 698.46C245.06 700.99 248.83 705.9 253.5 705.71C253.49 702.78 244.33 692.36 242.16 688.31C235.09 675.09 231.96 656.28 237.5 642.06ZM242.5 643.42C248.36 644.15 253.76 648.52 258.25 652.26C267.58 660.03 274.14 671.52 276.05 683.5C278.66 699.88 274.91 716.09 280.5 732.08C285.85 747.4 294 761.33 298.53 777.02C300.29 783.13 303.5 790.98 302.5 797.13C301.05 797.18 299.16 797.71 298.19 796.38C297.53 795.49 296.18 785.73 295.64 783.71C293.54 775.74 290.33 767.98 287.11 760.4C282.66 749.96 278.1 739.38 275.17 728.38C270.27 709.95 267.23 690.98 260.4 673.08C257.59 665.72 253.92 658.56 249.4 652.1C247.28 649.07 244.48 646.48 242.5 643.42ZM949.18 651.5C944.93 661.47 937.79 671.07 929.36 677.93C926.22 680.49 917.38 684.36 917.54 688.5C921.51 688.94 923.12 686.65 926.73 685.24C931.04 683.55 935.94 683.41 940.5 683.93C954.33 685.5 970.17 698.21 980.68 706.86C984.47 709.98 990.2 713.73 992.5 717.94C984.53 715.6 977.59 709.21 970.33 705.19C959.55 699.22 947.64 695.73 935.46 694.25C914.98 691.75 900.76 699.32 882.37 705.91C878.68 707.23 874.82 707.45 871.06 708.57C866.47 709.95 862.23 713.68 857.83 714.5C872.88 687.03 898.31 672.98 926.25 661.69C931.56 659.54 944.99 652.14 949.18 651.5ZM823.5 764C819.23 753.57 815.46 742.97 810.76 732.7C808.49 727.75 805.64 723.06 803.38 718.11C797.18 704.5 791.42 694.39 778.31 686.21C757.72 673.36 729.28 679.61 712.1 660.5C720.26 658.36 730.28 659.45 738.54 660.79C772.08 666.22 801.39 687.42 816.51 718.05C823.75 732.72 828.34 747.85 823.5 764ZM710.5 662.14C722.52 676.7 742.53 676.99 759.45 681.07C772.83 684.3 785.42 691.92 793.23 703.5C790.13 703.42 787.65 700.95 784.37 700.27C779.17 699.2 772.83 698.52 767.56 699.27C752.4 701.41 741.63 711.2 735.31 724.75C730.76 734.5 727.67 746.84 718.5 753.39C716.69 749.45 716.79 745.79 716.79 741.5C716.81 726.07 723.41 711.79 735.3 701.84C737.89 699.67 740.64 697.7 743.62 696.1C745.63 695.02 749.57 694.21 751.07 692.53C751.73 691.78 751.49 691.38 751.81 690.5C748.55 688.15 742.61 688.86 738.54 687.95C729.01 685.84 709.16 673.28 710.5 662.14ZM520.27 718.5C514.04 719.84 506.72 718.2 500.43 717.29C488.78 715.59 475.15 714.07 464.5 708.67C464.05 703.25 462.84 696.06 464.27 690.76C464.86 688.57 466.64 686.34 468.04 684.59C476.97 673.41 493.99 672.72 504.5 681.97C514.62 690.88 514.63 706.97 520.27 718.5ZM996.27 723.5C992.02 725.38 987.76 727.27 983.5 729.15C971.45 719.46 957.44 712.59 941.54 713.42C932.65 713.89 923.49 717.58 914.53 716.01C910.74 715.35 906.84 712.72 903.25 711.32C898.12 709.32 892.76 708.26 887.5 706.72C891.42 703.94 897.49 702.27 902.18 700.58C921.9 693.47 944.33 695.32 963.3 704.17C969.93 707.26 975.96 711.49 982.14 715.35C986.7 718.2 992.12 720.19 996.27 723.5ZM261.43 730.5C256.64 729.69 253.53 724.71 249.83 721.66C244.91 717.62 237.88 715.44 231.55 716.27C216.51 718.22 207.03 730.7 201.21 743.64C196.01 755.21 192.88 767.64 187.9 779.33C181.39 794.61 173.4 808.94 164.5 822.94C161.03 817.93 161.13 808.52 161.13 802.5C161.14 782.56 168.34 762.95 181 747.56C184.38 743.45 188.41 739.4 192.51 736C195.09 733.88 197.85 732.75 198.7 729.5C194.29 727.19 189.19 728.16 184.46 728.88C176.64 730.08 169.23 731.9 162.14 735.67C157.87 737.94 153.91 742.02 149.5 743.55C152.1 736.29 157.19 729.47 162.34 723.83C189.52 694.03 240.88 691.8 261.43 730.5ZM770.54 701.5C768.42 704.68 765.72 707 764.35 710.74C762.15 716.76 762.15 723.29 759.84 729.32C755.48 740.68 746.16 749.47 734.66 753.3C730.25 754.77 725.51 755.84 721.06 754.5C737.15 738.22 735.85 712.22 760.13 703.53C763.51 702.32 766.95 701.69 770.54 701.5ZM984.27 733.5C984.06 740.58 983.04 747.53 982.2 754.53C976.7 800.18 965.65 845.27 941.63 885.11C935.21 895.76 927.9 905.86 919.63 915.14C917.5 917.53 914.43 922.8 911.32 923.85C908.28 924.87 903.66 923.23 900.5 923.03C891.41 922.45 876.26 921.88 867.96 919.5C879.06 908.04 888.76 894.87 896.24 880.76C899.64 874.35 903.16 867.84 903.66 860.45C904.57 846.86 891.45 840.69 879.63 843.25C874.2 844.42 869.28 848.38 865.5 852.25C864.76 848.3 866.41 844.59 866.8 840.5C868.25 825.5 869.32 796.63 852.15 789.43C846.57 787.1 841.02 789.06 835.5 788.58C834.37 778.91 835.78 768.78 837.66 759.33C839.17 751.77 841.27 744.27 844.78 737.32C847.29 732.35 850.43 727.81 854.32 723.82C883.67 693.71 915.59 724.94 947.77 732.59C956.13 734.58 964.86 735.55 973.5 734.85C977.15 734.55 980.68 733.37 984.27 733.5ZM980.07 729.5C965.89 734.65 948.4 729.65 934.81 724.67C930.48 723.09 924.7 721.74 921.38 718.5C943.06 714.43 962.46 714.3 980.07 729.5ZM240.74 719.5C234.47 720.26 228.58 719.75 223.15 723.65C214.09 730.16 210.77 742.18 207.76 752.3C203.32 767.21 199.49 782.79 192.19 796.66C188.06 804.51 177.05 821.2 167.79 822.5C175.11 809.53 182.77 797.01 188.75 783.28C195.78 767.12 199.16 748.39 209.32 733.82C213.78 727.43 220.58 720.71 228.56 719.15C232.48 718.38 236.82 719.02 240.74 719.5ZM291.53 799.5C280.26 806.26 273.96 818.23 274.58 831.5C274.86 837.4 276.71 842.79 277.52 848.5C272.49 845.36 268.62 841.96 262.38 841.38C250.15 840.25 241.67 849.32 244.25 861.37C245.51 867.27 249.26 873.24 252 878.56C257.71 889.6 263.76 900.47 269.5 911.5C266.33 913.71 252.28 916.23 247.5 917.11C218.96 888.96 200.2 852.25 183.25 816.5C186.25 811.97 189.94 807.99 192.77 803.3C199.3 792.48 203.08 780.37 206.77 768.4C210.48 756.38 213.74 736.58 223.61 728.07C233.99 719.11 247.78 724.62 256.64 732.87C270.71 745.97 279.79 762.33 286.39 780.22C288.6 786.21 291.62 793.22 291.53 799.5ZM190.83 732.5C184.62 738.43 178.61 744.05 173.62 751.15C170.59 755.45 168.52 760.36 165.5 764.62C163.61 756.91 161.72 749.21 159.83 741.5C167.31 736.32 181.85 730.52 190.83 732.5ZM785.5 833.99C788.67 832.54 789.1 828.72 792.08 826.54C801.57 819.6 805.76 830.05 812.5 832.94C815.4 829.99 816.06 824.81 817.28 820.75C821.07 808.13 828.1 792.23 843.5 791.81C847.31 791.7 850.71 792.34 853.84 794.64C866.55 803.99 864.93 832.97 862.05 846.47C861.25 850.22 855.91 863.3 856.04 865.49C856.13 867.02 856.64 866.94 857.5 867.87C860.65 865.44 862.48 861.62 864.99 858.53C871.13 850.96 880.17 843.87 890.5 846.89C894.49 848.06 897.55 850.6 899.13 854.47C901.85 861.15 898.18 868.73 895.23 874.7C889.52 886.23 882.17 896.66 874.24 906.73C872.16 909.37 866.09 917.72 863.27 918.87C860.41 920.05 855.38 919.31 852.49 918.5C860.91 907.48 867.87 896.51 872.95 883.5C874.38 879.83 877.4 873.98 875.69 870.5C872.82 872.29 871.87 879.83 870.59 883.1C867 892.33 862.44 901.14 856.7 909.21C854.8 911.86 852.01 917.05 848.89 918.37C846.77 919.26 841.89 918.09 839.5 918.06C831.66 917.93 819.57 917.84 812.16 916.5C808.56 897.59 814.33 873.69 819.98 855.55C821.7 850.02 828.79 835.93 828.5 831.38C824.32 832.98 820.56 846.8 818.95 851.46C813.86 866.13 811.1 881.19 809.29 896.53C808.54 902.87 810.45 910.4 808.5 916.3C800.95 916.3 793.39 916.3 785.84 916.3C785.77 909.79 785.24 902.99 785.92 896.5C786.35 892.36 787.7 888.15 787.5 884.06C784.42 885.32 784.54 889.15 784.18 892.5C783.34 900.43 783.21 908.29 783.75 916.24C773.9 916.24 764.06 916.24 754.21 916.24C753.63 910.73 755.83 904.91 756.64 899.36C758.19 888.85 759.23 878.16 759.77 867.5C760 862.92 761.6 853.63 758.5 850.26C756.4 857.17 757.53 868.93 757.04 876.5C756.17 889.89 754.32 904.2 750.5 917.05C744.17 917.05 737.83 917.05 731.5 917.05C729.93 909.47 730.5 901.34 728.73 893.62C727.02 886.2 723.2 879.64 720.83 872.5C739.61 866.5 751.74 851.85 757.64 833.23C760.15 825.33 764.29 809.14 752.27 806.35C749.53 805.72 746.74 806.31 744.04 806.5C745.79 795.68 748.02 790.53 736.93 784.5C744.14 765.93 762.78 758.31 776.04 776.54C783.09 786.23 782.94 800.06 782.94 811.5C782.94 817.76 781.28 829.2 785.5 833.99ZM453.5 775.68C481.79 792.32 508.23 800.77 541.5 798.88C551.82 798.29 562.37 795.68 572.25 792.66C575.53 791.66 579.99 788.69 583.43 789.13C588.33 789.75 592.28 795.94 594.86 799.5C591.58 800.27 589.16 800.21 586.5 802.42C589.42 805.45 592.35 808.47 595.27 811.5C592.9 812.5 590.52 813.5 588.15 814.5C591.08 819.75 595.92 821.49 597.5 828.53C595.17 827.8 592.83 827.07 590.5 826.34C589.15 830.52 590.24 835.23 590.97 839.52C592.9 850.72 596.43 860.8 600.14 871.5C595.49 877.31 590.2 882.34 586.55 889.01C577.71 905.17 578.27 924.51 585.33 941.25C588.09 947.8 591.68 953.99 595.62 959.89C597.76 963.09 600.45 966.01 601.94 969.5C587.42 972.4 565.62 965.26 552.24 959.32C528.86 948.94 510.98 931.17 493.45 913.05C476.44 895.46 459.33 876.99 448.84 854.61C440.23 836.26 436.72 814.89 442.65 795.24C444.62 788.72 447.78 779.66 453.5 775.68ZM351.14 909.02C345.59 909.02 340.05 909.02 334.5 909.02C327.22 894.49 322.56 878.25 318.96 862.47C317.85 857.57 316.81 852.48 316.08 847.5C315.74 845.19 315.91 840.72 314.73 838.74C313.69 836.99 314.91 839.52 313.5 837.98C312.15 844.64 314.57 852.85 316.1 859.5C318.71 870.9 321.41 882.18 325.35 893.23C327.16 898.29 329.5 903.19 331.13 908.27C319.91 908.27 308.7 908.27 297.48 908.27C292.64 898.84 287.57 889.53 281.97 880.52C280.11 877.53 277.99 872.83 274.82 871.5C274.04 874.77 278.06 878.78 279.91 881.65C285.48 890.31 289.99 899.51 294.95 908.5C288.13 909.65 281.32 910.8 274.5 911.96C270.36 907.22 267.84 900.21 264.82 894.65C258.96 883.84 251.22 872.4 247.9 860.49C245.74 852.69 250.4 846.01 258.5 845.01C266.34 844.04 273.71 849.25 278.48 855.05C281.2 858.36 283.23 863.2 287.5 863.9C288.15 859.25 283.93 853.78 282.16 849.33C278.82 840.91 277.18 831.5 278.96 822.53C281.6 809.26 293.52 798.11 307.59 801.67C311.4 802.64 316.2 804.59 318.4 808.13C320.84 812.04 321.2 817.85 322.36 822.28C324.63 830.95 327.04 839.54 329.42 848.18C333.04 861.39 337.7 874.34 342.39 887.2C345.04 894.49 349.05 901.59 351.14 909.02ZM436.5 826.94C439.36 837.73 441.53 847.96 446.4 858.18C456.84 880.1 473.99 897.64 490.33 915.18C506.86 932.93 524.35 949.22 546 960.5C539.46 965.78 519.43 971.45 510.74 974.33C505.68 976 499.86 978.59 494.62 978.5C496.05 973.83 496.89 969.41 496.74 964.5C496.09 944.35 477.9 929.11 459.23 925.4C452.68 924.1 446.16 924.09 439.5 924.11C426.56 907.87 415.94 882.33 419.05 861.52C420.59 851.24 430.23 835.32 436.5 826.94ZM585.04 1033.5C577.38 1035.3 568.42 1034.05 560.5 1034.17C547.79 1034.37 535.14 1035.08 522.46 1034.42C507.85 1033.66 493.13 1034.37 478.5 1034.07C456.17 1033.62 433.52 1032.57 411.28 1030.45C397.71 1029.15 384.05 1028.18 370.5 1027.13C364.22 1026.65 351.23 1026.53 345.73 1024.71C342.92 1023.78 335.07 1015.06 331.85 1012.66C320.29 1004.05 306.31 997.48 292.22 994.39C272.45 990.06 251.54 990.06 231.55 993.23C225.25 994.23 218.95 995.71 212.75 997.36C210.24 998.03 207.03 999.7 204.44 999.68C201.75 999.66 198.2 996.96 196.06 995.49C193.51 993.73 191 991.81 189.08 989.37C176.41 973.31 190.7 957.77 202.49 946.97C230.56 921.24 268.83 914.07 305.5 911.97C308.98 915.84 311.57 920.62 314.67 924.82C319.43 931.27 324.73 937.43 330.13 943.36C354.1 969.67 386.19 991.41 420.76 1000.64C440.85 1006.01 459.95 1006.39 480.5 1008.13C512.98 1010.88 556.71 1016.39 585.04 1033.5ZM308.97 912.5C318.97 909.81 331.24 912.06 341.5 912.75C345.17 912.99 350.87 912.09 354 914.53C355.81 915.95 363.07 929.46 365.68 932.81C374.57 944.22 385.8 951.38 399.5 955.55C399.38 959.43 398.55 963.51 399.14 967.47C400.56 976.99 410.42 983.47 419.5 983.97C423.09 984.16 426.92 984.2 430.49 983.82C432.1 983.65 433.84 982.83 435.46 983.06C437.92 983.4 440.43 986.56 442.73 987.72C448.31 990.52 455.29 991.34 461.45 990.67C482.63 988.4 504.23 980.83 524.21 973.62C530.27 971.43 536.3 969.18 542.28 966.73C544.74 965.72 548.01 963.48 550.65 963.25C552.91 963.05 555.64 964.94 557.7 965.74C562.57 967.63 567.76 969.38 572.84 970.55C583.73 973.06 594.37 973.17 605.5 973.13C618.02 988.11 630.86 998.11 651.5 997.49C660.35 997.23 668.87 995.08 677.64 994.34C685.77 993.66 694.29 994.94 702.34 993.66C719.35 990.96 737.19 979.72 731.59 959.8C730.29 955.19 727.69 951.34 724.91 947.5C727.11 938.68 729.3 929.87 731.5 921.05C767.17 919.9 802.89 918.93 838.52 921.64C847.24 922.31 855.94 922.74 864.63 923.61C869.27 924.08 873.9 923.31 878.1 925.5C863.96 941.79 871.87 964.21 868.07 983.48C865.99 994.02 859.35 1002.31 850.41 1007.98C840.11 1014.5 818.81 1015.89 806.51 1017.2C797.51 1018.17 788.49 1019.72 779.48 1020.82C759.9 1023.21 740.19 1024.56 720.5 1026.25C690.55 1028.82 660.59 1030.93 630.5 1032.17C621.83 1032.53 613.18 1032.85 604.5 1033.15C600.16 1033.3 594.91 1034.75 590.65 1033.82C588.06 1033.25 585.33 1030.8 582.97 1029.57C577.6 1026.77 571.94 1024.37 566.25 1022.32C550.48 1016.63 533.86 1013.11 517.41 1010.29C502.97 1007.8 488.08 1006.32 473.5 1005.18C459.38 1004.08 445.46 1004.09 431.55 1000.97C378.89 989.16 339.56 955.55 308.97 912.5ZM853.93 1008.5C866.19 999.78 870.85 987.16 871.65 972.47C872.35 959.47 869.21 945.21 875.6 933.15C876.84 930.81 879.22 926.42 881.8 925.34C884.94 924.03 897.48 926.43 901.5 926.83C919.03 928.56 947.27 931.36 957.92 947.63C966.88 961.32 959.76 971.51 947.73 979.26C930.57 990.33 900.71 998.44 880.77 1003.39C873.51 1005.19 860.93 1009.88 853.93 1008.5ZM448.5 942.06C444.28 942.41 441.91 945.54 439.45 948.92C432.2 958.91 430.71 967.5 433.24 979.5C427.9 980.56 421.95 981.01 416.56 979.84C391.49 974.42 404.99 942.49 420.06 933.53C444.91 918.76 488.56 931.17 493.03 962.5C493.6 966.5 492.79 977.12 489.62 980.13C487.26 982.35 481.94 982.71 478.87 983.47C466.7 986.5 447.99 991.72 438.56 979.91C432.14 971.87 436.25 959.67 441.59 952.13C443.97 948.78 448.96 946.2 448.5 942.06ZM259.64 931.33C253.89 932.31 243.43 938.28 251.06 944.46C257.93 950.02 269.77 949.73 277.68 947.16C280.55 946.23 284.65 944.45 285.59 941.19C286.61 937.65 283.78 935.06 280.94 933.58C274.78 930.36 266.39 930.16 259.64 931.33ZM673.42 990.5C672.04 980.51 670.09 970.87 665.82 961.62C664.13 957.95 663.22 953.14 658.85 953.5C658.13 957.18 662.19 962.29 663.63 965.85C666.84 973.83 669.61 982.88 669.57 991.5C650.26 996.54 629.09 993.93 615.21 978.5C626.63 949.19 655.44 927.58 687.51 931.82C699.18 933.36 710.41 938.26 718.96 946.53C721.67 949.16 724.05 952.35 725.89 955.64C727.25 958.09 728.29 960.9 728.81 963.64C729.72 968.41 728.28 973.18 725.65 977.16C716.89 990.4 699.61 990.34 685.5 990.51C681.47 990.55 677.38 991.29 673.42 990.5ZM283.27 940.5C277.19 948.97 257.03 948.87 250.9 940.5C253.2 930.11 280.71 930.2 283.27 940.5ZM786.86 947.5C784.75 937.61 766.09 938.28 761.15 945.5C761.96 956.07 782.04 954.95 786.86 947.5ZM929.83 946.5C925.35 938.7 909.18 939.17 904.43 946.5C905.37 957.05 929.04 957.02 929.83 946.5ZM784.27 946.5C780.48 952.77 767.82 952.44 763.5 946.81C766.08 940.48 780.34 942.06 784.27 946.5ZM927.82 947.5C923.53 953.29 910.72 953.6 906.77 947.5C910.98 941.7 923.32 942.03 927.82 947.5ZM316.81 962.5C316.28 951.95 295.59 952.68 291.21 960.5C293.31 970.6 311.6 969.1 316.81 962.5ZM314.5 961.02C311.79 967.95 297.92 965.83 293.75 961.5C297.33 955.24 310.34 955.33 314.5 961.02ZM818.59 957.42C813.4 957.86 798.56 960.28 802.62 968.9C803.94 971.69 807.8 973.11 810.5 973.99C816.85 976.05 834.05 976.48 838.18 969.71C844.36 959.57 824.33 956.94 818.59 957.42ZM836.99 965.5C834.76 976.26 809.12 975.12 804.06 966.5C808.88 956.7 830.47 958.07 836.99 965.5ZM779.79 987.5C774.56 981.25 756.22 979.78 754.28 989.5C758.2 997.83 779.35 998.2 779.79 987.5ZM777.53 989.5C772.62 994.44 760.24 995.22 756.79 988.5C761.3 984.07 774.95 982.25 777.53 989.5ZM340.72 1023.5C336.3 1024.43 330.96 1022.92 326.44 1022.28C316.78 1020.91 307.03 1019.77 297.36 1018.37C278.7 1015.68 259.99 1012.83 241.46 1009.2C230.63 1007.07 218.93 1006.01 208.78 1001.5C215.92 996.97 230.03 995.86 238.48 994.81C265.55 991.43 293.35 993.68 317.87 1006.6C326.5 1011.15 333.21 1017.45 340.72 1023.5ZM390.5 1005.42C386.7 997.01 369.81 996.88 365.05 1004.5C365.78 1015.03 388.76 1014.49 390.5 1005.42ZM569.28 1005.5C566.11 996.84 548.49 997 544.06 1004.5C544.69 1015.08 566.56 1014.82 569.28 1005.5ZM388.1 1005.5C384.39 1011.9 371.01 1011.48 367 1005.5C371.91 1000.29 383.38 999.9 388.1 1005.5ZM567.09 1005.5C563.34 1011.78 549.88 1011.6 545.98 1005.5C550.89 1000.11 562.21 1000.07 567.09 1005.5Z" fill="#ffffff" fill-rule="evenodd" stroke="#ffffff" stroke-width="0.25" stroke-linejoin="round"/>
<path d="M322.5 207.16C324.3 195.21 323.01 182.59 324.2 170.51C326.63 145.82 331.36 114.32 342.44 91.88C349.2 78.18 370.12 68.03 377.68 86.75C383.52 101.19 379.8 117.3 377.5 131.91C387.86 127.27 393.94 120.11 406.5 119.68C423.98 119.1 438.61 133.81 429.74 151.27C424.04 162.5 412.72 167.54 402.36 173.5C408.92 173.46 416.74 168.84 423.03 166.55C436.02 161.84 449.32 157.69 462.73 154.38C481.85 149.67 501.16 146.01 520.69 143.42C526.63 142.63 532.6 141.87 538.53 141.24C542.55 140.82 546.59 141.39 550.55 140.29C555.13 139.02 559.38 136.16 563.78 134.34C574.98 129.71 586.7 125.59 598.59 123.26C612.94 120.45 627.85 119.03 642.5 119.92C647.13 120.21 655.61 119.2 658.21 124.29C660.97 129.7 656.75 136.42 655.04 141.5C660.19 142.81 665.94 142.74 671.28 143.43C682.33 144.85 693.31 146.45 704.23 148.43C742.5 155.37 780.45 167.69 814.29 187.24C830.81 196.78 846.05 208.52 859.81 221.69C864.2 225.89 868.44 230.51 872.36 235.16C874.1 237.23 875.93 240.79 878.15 242.31C881.11 244.34 886.98 243.72 890.49 244.16C895.16 244.75 900.03 246.26 904.32 248.21C927.95 258.96 927.65 282.44 910.9 299.5C911.65 303.69 913.39 307.64 914.69 311.72C917 318.95 919.01 326.21 920.82 333.55C926.29 355.73 928.49 378.69 929.71 401.51C930.88 423.51 928.49 445.5 928.49 467.5C928.49 476.57 928.14 489.96 930.65 498.5C939.59 498.69 951 493.09 961.5 493.36C962.51 497.14 960.3 500.9 958.87 504.48C955.16 513.78 951.37 523.15 946.32 531.82C944.49 534.96 939.82 539.84 939.93 543.48C940.07 548.28 946.83 565.16 948.82 570.61C956.19 590.73 964.76 610.48 971.62 630.79C976.93 646.53 981.58 662.34 984.68 678.64C986 685.54 986.85 692.6 987.66 699.56C987.96 702.08 987.33 705.01 988.08 707.44C989.6 712.45 1000.23 716.88 1002.07 723.5C998.31 727.43 993.48 729.55 988.5 731.56C987.13 737.92 987.4 744.75 986.56 751.26C984.86 764.36 983.03 777.38 980.63 790.32C971.45 839.91 950.69 887.28 916.24 924.5C929.04 928.49 942.63 929.25 953.77 937.74C956.39 939.74 958.69 942.24 960.52 944.95C973.59 964.27 959.48 978.23 942.16 986.57C901.47 1006.15 847.76 1015.48 803.34 1021.62C750.96 1028.85 697.35 1032.28 644.5 1035.01C539.57 1040.42 433.87 1039.49 329.68 1026.58C303.85 1023.38 278.03 1019.77 252.5 1014.93C236.72 1011.94 220.25 1010.19 205.17 1004.33C200.66 1002.58 196.04 1000.27 192.17 997.35C189.41 995.27 186.7 992.58 184.76 989.74C170.23 968.48 195.13 946.67 211.03 935.55C221.24 928.4 232.19 923.92 243.3 918.5C236.58 909.28 228.41 901.08 221.68 891.81C205.48 869.46 190.79 845.03 180.5 819.33C174.33 822.66 169.75 828 162.5 829.14C159.97 825.91 159.72 821.55 158.99 817.52C157 806.54 157.25 794.69 159.38 783.74C160.17 779.69 162.59 775.51 162.98 771.46C163.4 767.01 160.46 761.55 159.4 757.24C158.41 753.24 158.2 747.31 155.5 744.27C151.73 747.29 148.09 752.92 143.5 753.94C139.61 747.87 143.88 731.46 146.38 724.8C147.5 721.83 150.56 718.05 150.52 714.89C150.43 708.16 148.25 701.06 147.32 694.41C145.38 680.53 144.51 666.38 143.44 652.36C141.83 631.14 142.06 609.77 142.28 588.5C142.35 581.82 143.19 575.19 143.03 568.5C130.27 569.18 118.01 572.73 105.1 569.5C105.42 564.87 109.43 561.43 112.72 558.21C122.14 549 133.71 544.82 145.4 539.5C146.69 534.39 146.55 528.86 147.34 523.64C147.82 520.48 149.65 515.84 148.83 512.68C148.07 509.77 143.04 504.27 141.35 501.22C134.69 489.19 130.73 474.26 131.72 460.5C132.03 456.12 131.68 450.34 134.5 446.99C144.96 449.61 150.73 461.38 157.64 468.5C160.24 464.37 160.98 458.51 162.33 453.73C164.15 447.32 166.15 440.97 168.22 434.62C174.4 415.65 181.98 397.06 190.57 379.04C205.74 347.19 224.79 317.76 246.7 290.2C255.3 279.39 265.94 270.23 274.5 259.5C255.5 246.52 222.19 248.37 200.5 251.01C191.67 252.08 182.53 255.57 173.54 254.66C158.07 253.1 153.93 238.51 165.33 228.5C161.19 227.62 157.67 228.5 153.5 228.82C144.16 229.52 132.28 229.79 124.17 224.35C115.05 218.23 116.75 208.13 123.14 200.69C134.44 187.52 149.88 184.9 165.44 180.5C157.25 177.56 148.13 177.08 141.12 171.41C131.83 163.91 132.89 150.43 144.19 145.67C155.54 140.89 169.56 142.83 181.25 145.36C222.99 154.42 257.98 187.57 284.5 219.17C284.42 213.82 275.55 203.13 272.13 198.34C262.71 185.15 252.91 172.27 243.4 159.14C238.55 152.45 232.44 145.55 230.28 137.38C226.47 122.98 237.92 114.81 251.44 117.21C256.5 118.11 260.85 121.66 264.5 125.05C264.47 121.14 262.87 117.32 262.26 113.44C260.4 101.75 259.08 87.29 262.36 75.76C265.23 65.64 275.63 60.57 284.87 66.64C293.87 72.56 299.12 83.92 302.76 93.67C316.09 129.42 311.79 170.85 322.5 207.16ZM321.75 263.5C327.42 261.81 324.63 256.2 324.24 251.5C323.62 243.88 324.09 236.09 322.97 228.51C322.38 224.47 321.01 220.48 320.2 216.48C316.67 198.93 313.4 181.26 311.27 163.47C308.9 143.71 307.94 123.53 302.26 104.37C299.02 93.46 291.8 71.68 279.39 68.13C270.4 65.56 266.02 73.97 264.94 81.5C262.71 96.94 264.98 113.82 269.92 128.52C271.47 133.11 276.26 140.26 273.92 144.5C270.42 143.23 268.49 137.14 266.51 133.99C261.08 125.36 251.61 117.64 240.87 121.39C224.82 126.99 237.57 144.79 243.45 153.01C258.89 174.6 276.12 195.01 289.37 218.1C296.36 230.28 301.19 243.35 307.69 255.74C309.65 259.48 311.07 263.61 313.5 267.04C315.17 266.2 316.83 265.37 318.5 264.53C317.24 246.09 311.64 227.46 306.75 209.72C305 203.37 299.16 191.13 299.5 185.3C300.36 185.66 300.69 185.29 301.39 186.1C303.14 188.1 306.14 200.09 307.15 203.31C311.31 216.62 314.89 230.2 317.51 243.9C318.47 248.92 318.94 259.87 321.75 263.5ZM372.08 139.5C370.8 136.17 375 126.62 375.75 122.35C377.56 112.06 378.89 94.82 372.9 85.65C368.56 79.02 359.99 79.3 353.96 83.45C345.55 89.24 342.88 100.35 339.82 109.44C327.46 146.12 325.7 186.08 326.84 224.5C327.09 232.86 327.55 241.15 327.92 249.5C328.03 252.07 327.44 258.14 329.05 260.31C330.42 262.18 328.79 259.51 330.5 261.06C331.33 260.25 331.67 260.78 332.13 259.47C332.52 258.38 331.11 244.13 331.1 241.5C331.08 225.15 332.6 209.25 337.08 193.49C338.26 189.34 341.52 175.63 345.17 174.5C345.76 177.89 340.33 190.2 339.12 194.56C334.99 209.4 333 225.04 333.09 240.5C333.13 246.38 332.74 254.78 335.5 259.96C336.5 259.72 338.49 259.6 339.27 258.86C342.74 255.6 340.78 246.89 341.36 242.63C343.13 229.74 345.8 217.54 351.09 205.52C352.67 201.94 354.51 195.65 358.29 194.5C358.71 198.31 354.41 203.77 352.79 207.39C348.82 216.24 342.44 233.52 344.5 242.95C349.73 231.96 356.42 221.75 367.79 216.35C379.73 210.69 394.44 210.75 405.33 202.88C412.16 197.94 415.72 187.5 406.28 183.2C397.82 179.35 391.6 186.23 384.35 184.5C385.15 179.15 392.43 175.12 396.85 172.41C409.21 164.81 434.09 154.62 427.87 135.61C426.72 132.09 424.21 129.33 421.16 127.35C409.36 119.71 395.84 124.37 385.09 131.56C381.32 134.08 376.57 139.72 372.08 139.5ZM654.44 125.5C648.23 122.3 634.34 122.8 627.3 123.56C623.72 123.94 620.08 123.61 616.5 124.07C600.62 126.12 585.25 129.98 570.31 135.75C499.57 163.03 457.66 229.67 457.83 304.5C457.88 326.17 461.14 349.61 470.5 369.42C479.01 366.29 487.06 361.98 495.81 359.41C500 358.17 509.8 356.74 512.97 354.43C515.73 352.4 518.82 342.56 519.64 339.2C523.52 323.31 522.85 306.5 527.29 290.68C528.32 287.01 531.05 276.71 535.5 276.64C535.91 277.34 536.46 277.51 536.51 278.38C536.59 279.7 534.91 281.66 534.35 282.82C532.39 286.83 530.16 291.65 530.5 296.03C574.47 264.84 611.71 220.61 636.25 172.72C641.65 162.19 646.64 151.57 651.24 140.67C653.24 135.94 656.39 130.55 654.44 125.5ZM541.89 145.5C534.92 143.96 517.27 147.59 509.48 148.81C483.05 152.95 457.36 159.1 431.91 167.42C424.51 169.83 409.72 173.89 403.98 178.5C418.9 183.41 419.51 196.89 407.41 205.94C397.47 213.38 383.92 213.72 372.72 218.22C356.34 224.79 347.53 241 343.91 257.5C349.5 259.2 356.49 257.94 362.5 258.27C371.1 258.75 379.87 260.8 387.99 263.55C395.3 266.03 402.39 269.47 408.88 273.63C446.49 297.76 450.83 335.82 459.5 375.43C461.96 374.12 464.42 372.81 466.88 371.5C465.61 367.02 463.69 362.72 462.33 358.26C458.19 344.69 455.36 330.67 454.37 316.49C449.59 247.79 482.3 180.81 541.89 145.5ZM873.17 242.5C864.42 227.95 839.94 208.4 825.66 198.88C789.24 174.61 748.19 161.29 705.72 152.66C688.75 149.21 670.86 145.92 653.49 145.5C645.39 161.3 638.67 177.64 629.31 192.82C616.27 213.99 601.57 233.9 584.87 252.35C573.52 264.89 560.93 276.68 547.83 287.35C544.21 290.3 530.62 299.44 528.84 302.35C526.71 305.81 527.2 315.21 526.69 319.44C525.76 327.06 524.68 334.79 522.61 342.21C521.53 346.09 519.45 349.68 518.43 353.5C538.25 349.93 558.34 348.51 578.5 349.25C583.79 349.44 600.5 352.64 604.23 351.65C606.71 351 612.4 344.99 614.63 343.11C621.68 337.19 628.85 331.28 636.14 325.64C661.23 306.25 687.33 287.57 715.77 273.32C747.74 257.29 781.01 246.92 816.52 243.26C828.19 242.06 840.72 241.94 852.45 242.44C859.22 242.73 866.53 243.75 873.17 242.5ZM307.8 269.5C308.75 268.04 308.34 270.13 309 268.38C309.82 266.2 305.96 260.58 304.95 258.59C300.42 249.66 295.26 241.11 289.65 232.82C265.39 197 229.26 164.31 187.49 150.9C176.67 147.43 160.44 144.51 149.44 147.79C143.5 149.56 136.66 153.79 138.45 161.08C142.67 178.33 169.88 170.68 175.82 183.5C172.28 186.08 166 184.56 161.65 185.26C149.56 187.17 138.05 192.16 128.9 200.42C125.07 203.88 120.46 208.72 121.28 214.34C122.06 219.73 127.86 222.68 132.54 223.98C143.39 226.99 156.33 225.19 167.32 223.66C171.52 223.08 178.68 221.62 181.88 224.5C177.63 230.34 161.42 228.46 162.22 241.44C162.73 249.77 174.07 251.97 180.47 250.95C205.63 246.96 229.9 242.72 255.32 248.32C261.48 249.68 267.43 251.79 273.2 254.36C276.31 255.75 279.3 257.7 282.5 258.65C278.28 251.68 267.38 244.21 260.35 240.11C257.06 238.19 250.55 236.54 248.5 233.42C252.34 231.29 260.26 237.33 263.98 239.56C278.61 248.33 288.22 262.56 300.5 273.94C302.03 272.79 303.56 271.65 305.09 270.5C293.57 251.98 282.16 232.46 265.87 217.62C259.33 211.66 252.22 206.24 244.41 202.04C240.8 200.09 235.02 198.88 233.02 195.5C239.76 194.95 251.06 202.94 256.56 206.98C270.96 217.59 282.48 231.33 292.42 246.08C295.86 251.2 303.99 266.55 307.8 269.5ZM622.44 390.5C622.8 389.61 622.67 388.81 623.74 388.34C626.73 387.01 636.81 389.04 640.5 389.11C659.55 389.47 678.47 390.19 697.5 389.35C719.43 388.39 740.83 386.41 762.27 381.74C805.58 372.29 845.09 348.08 879.65 321.12C891.54 311.84 905.69 302.41 914.13 289.66C918.83 282.56 921.5 273.93 917.82 265.71C909.1 246.22 884.38 247.58 866.79 246.5C859.37 246.04 851.95 245.98 844.5 245.98C825.34 245.98 806.31 247.45 787.55 251.11C735.11 261.34 686.75 291.16 645.09 323.53C630.14 335.15 615.26 347 600.98 359.46C598.63 361.5 588.41 371.29 586.3 371.79C585.22 372.06 584.79 371.62 583.79 371.5C583.31 367.88 596.61 358.46 599.85 355.5C584.49 351.5 562.32 352.22 546.45 353.69C492.11 358.71 439.9 380.26 409.5 428.03C392.43 454.87 387.02 486.47 381.51 517.1C379.14 530.23 376.8 543.31 373.66 556.28C371.03 567.14 368.12 578.27 371.08 589.42C373.65 599.1 380.76 606.95 387.87 613.62C403.57 628.33 422.45 640.22 441.57 649.98C448.2 653.36 460.66 657.17 465.79 661.5C465.19 662.88 463.86 663.52 463.34 664.74C462.71 666.25 463.51 668.89 463.62 670.5C463.96 675.41 463.41 680.48 464.5 685.22C467.71 681.53 470.94 678.09 475.39 675.92C494.32 666.71 510.59 679.66 515.73 697.64C517.09 702.39 519.12 715.3 523.13 718.33C525.21 719.89 527.74 718.87 529.84 720.5C528.23 724.01 524.09 722.84 520.5 722.82C511.81 722.77 502.99 721.7 494.44 720.24C466.57 715.48 425.63 693.83 401.75 717.5C405.82 718.57 410.28 716.77 413.46 719.5C409.2 723.17 402.81 720.76 397.88 723.42C395.04 724.94 394.77 730.28 394.5 732.98C400.67 732.76 410.11 728.06 415.4 731.5C414.91 732.36 415.16 733.01 414.22 733.59C413.15 734.25 398.28 736.3 394.73 737.5C394.96 741.68 395.97 744.7 398.5 748.05C403.21 746.15 411.93 740.87 416.08 744.5C413.25 748.71 405.74 747.63 401.97 751.5C411.34 757.62 422.26 756.86 432.5 753.36C436.98 756.48 440.79 760.98 444.98 764.55C450.98 769.67 457.73 774.07 464.57 777.99C498.77 797.61 540.54 800.64 577.35 786.91C591.1 781.79 604.9 774.2 616 764.53C618.93 761.98 628.71 751.5 631.5 751.63C632.08 756.49 626.39 760.16 622.93 763.43C611.98 773.8 599.06 780.1 586.16 787.5C590.86 790.82 598.34 796.35 597.5 802.59C595.39 802.59 593.27 802.59 591.16 802.59C593.94 806.59 596.72 810.58 599.5 814.58C597.35 815.82 595.28 814.88 592.5 814.97C593.21 816.98 595.05 818.23 596.37 820.12C598.84 823.64 600.5 828.34 600.5 832.61C597.47 832.44 595.37 830.83 592.5 829.65C591.07 839.19 597.5 861.37 602.5 869.94C608.65 864.85 615.43 860.66 622.63 857.21C625.58 855.8 629.02 853.01 631.5 855.79C630.07 859.3 623.51 860.84 620.14 862.6C611.58 867.06 603.28 873.13 596.99 880.52C575.32 905.98 582.94 934.99 600.38 960.12C603.92 965.21 607.7 971.04 612.5 974.98C618.97 962.11 626.56 950.52 638.15 941.64C662.86 922.71 698.27 922.58 721.5 943.87C726.05 937.1 726.85 926.45 727.14 918.5C727.89 897.94 722.02 878.6 709 862.52C705.33 857.98 700.99 853.63 696.36 850.06C693.32 847.71 688.87 845.76 687.07 842.5C690.22 839.62 694.36 843.83 697.37 846.11C705.99 852.66 711.89 860.73 718.5 869.09C737.49 864.19 747.99 849.35 754.22 831.55C756.21 825.87 760.19 814.41 752.89 810.57C748.16 808.09 743.15 811.98 738.5 811.67C738.06 805.78 743.28 800.82 741.92 794.56C740.77 789.29 735.43 787.72 730.69 788.34C722.66 789.39 715.23 793.92 708.74 798.5C709.77 807.64 711.93 816.18 711.9 825.5C711.89 829.31 712.33 833.77 709.5 836.58C705.99 834.09 708.22 826.66 708.18 822.5C708.06 811.69 705.86 800.7 701.9 790.63C698.03 780.81 692.68 771.72 685.97 763.57C683.65 760.76 675.66 754.47 674.57 751.98C673.54 749.62 674.2 746.04 674.07 743.5C673.78 738.22 672.97 732.79 671.85 727.63C667.3 706.6 656.6 686.37 641.5 670.98C626.93 672.68 612.1 673.14 597.5 674.99C593.09 675.56 585.6 678.44 582.14 675.5C584 672.22 588.86 672.51 592.5 672.14C600.51 671.31 608.44 670.5 616.5 669.96C643.05 668.16 667.96 663.67 689.41 646.96C699.08 639.43 707.18 629.49 713.68 619.18C743.77 571.49 736.82 513.78 722.36 462.23C716.93 442.88 707.18 426.37 694.7 410.78C691.57 406.86 683.15 396.67 679.01 394.46C675.31 392.49 669.58 393.61 665.5 393.41C656.08 392.95 646.62 393.03 637.19 392.5C633.08 392.27 625.47 393.3 622.44 390.5ZM877.98 262.5C875.47 265 871.2 263.93 867.5 264.02C860.51 264.2 852.96 265.12 846.4 267.5C859.57 298.69 838.93 325.8 813.12 341.56C800.13 349.5 785.89 355.72 771.76 361.27C732.39 376.75 694.8 383.96 652.5 378.02C647.31 377.3 633.53 373.32 629.54 373.96C625.07 374.69 619.58 377.92 615.67 380.15C614.14 381.02 611.42 383.43 609.53 383.04C608.18 382.76 608.61 382.25 607.73 381.5C612.35 375.47 626.07 371.14 633.31 368.77C654.01 362 675.78 359.15 696.3 351.78C741.44 335.55 773.06 297.35 815.07 275.59C829.45 268.15 845.26 262.01 861.5 261C866.6 260.69 874.31 258.61 877.98 262.5ZM278.5 261.15C264.92 272.86 253.28 287.71 242.34 301.82C214.38 337.88 192.47 378.56 176.82 421.4C172.25 433.89 168.29 446.52 164.71 459.32C163.53 463.53 160.92 469.09 161.02 473.5C161.1 476.91 164.52 482.84 166.5 485.57C169.21 477.21 171.46 469.32 176.49 461.94C178.55 458.93 179.85 456.54 183.5 456.18C190.06 468.78 191.31 484.61 188.81 498.46C187.89 503.6 182.51 514.33 184.56 518.91C186.03 522.2 190.41 523.19 193.57 523.82C199.54 525.02 205.36 526.18 211 528.55C214.7 530.1 218.51 532.74 222.3 533.5C213.27 513.13 209.39 494.02 218.12 472.52C220.63 466.31 224.6 457.55 230.5 454.06C236.05 456.72 239.45 465.11 241.85 470.59C247.73 483.99 249.46 497.95 248.82 512.5C248.55 518.68 246.44 525.33 247.13 531.47C248.27 541.5 261.69 552.17 268.5 559.04C268.8 552.8 266.5 545.68 265.21 539.46C262.5 526.39 259.9 513.35 257.41 500.23C247.56 448.37 232.43 389.5 250.3 337.73C256.39 320.08 266.24 304.11 279.27 290.76C284.45 285.46 292.47 281.01 296.81 275.5C291.26 269.86 285.11 265.44 278.5 261.15ZM455.83 377.5C454.31 369.88 453.48 362.14 451.96 354.54C445.01 319.72 429.38 286.47 395.77 270.67C387.11 266.6 377.94 264.18 368.54 262.79C309.7 254.09 260.93 300.09 249.55 355.18C247.11 366.98 244.48 380.49 246.42 392.5C266.77 394.71 293.21 391.09 313.49 387.96C320.78 386.84 335.6 381.87 341.82 382.5C341.41 383.32 341.7 383.76 340.87 384.39C338.37 386.28 323.32 388.33 319.51 389C304.01 391.74 288.26 394.06 272.5 394.85C263.86 395.28 255.15 394.8 246.5 394.98C245.22 400.77 245.92 407.63 247.5 413.33C255.95 414.75 264.95 414.46 273.5 414.06C277.3 413.89 282.17 412.1 284.93 414.5C281.95 416.39 278.04 415.8 274.5 416.09C265.37 416.85 256.59 415.84 247.5 415.99C246.63 424.86 249.45 434.75 250.79 443.54C253.78 463.12 256.77 483.33 261.84 502.5C274.79 505.47 300.75 502.83 314.5 501.14C319.17 500.56 323.87 499.86 328.5 499.08C329.8 498.86 331.91 497.68 333.2 498.37C334.54 499.08 332.76 498.47 333.93 499.5C329.39 502.6 321.89 502.2 316.51 503.03C299 505.72 281.15 506.1 263.41 505.5C262.1 513.37 267.01 529.23 268.7 537.65C273.44 561.22 276.97 585.12 282.54 608.5C291.09 612.26 308.17 610.45 317.5 608.98C321.93 608.28 326.55 606.5 330.86 607.5C328.18 610.24 322.54 610.38 318.5 610.99C310.98 612.11 303.12 612.97 295.5 612.73C291.45 612.59 287.55 611.85 283.5 612.16C290.19 646.61 296.88 681.05 303.56 715.5C322.65 719.42 346.18 717.24 365.49 714.87C369.06 714.43 385.44 710.82 387.4 711.28C388.47 711.53 388.15 711.91 388.84 712.5C383.79 715.86 371.7 716.25 365.5 716.9C351.48 718.39 337.68 719.19 323.5 719.09C317.15 719.05 310.63 718.31 304.34 718.5C305.39 724.18 306.45 729.86 307.5 735.54C314.25 738.45 322.36 736.77 329.5 736.25C332.81 736.01 336.39 734.35 338.82 736.5C330.7 741.54 316.89 737.33 307.96 739.5C309.7 744.51 310.25 750.13 311.26 755.36C313.66 767.75 316.19 780.14 319 792.46C324.78 817.77 331.87 842.59 339.23 867.5C348.67 870.21 363.8 868.45 373.49 867C377.6 866.39 381.64 864.48 385.68 865.5C382.79 868.39 377.52 868.45 373.5 869.08C362.7 870.76 352.2 870.82 341.29 870.5C341.45 877.82 345.93 885.89 348.64 892.78C359.09 919.31 371.57 943.05 400.5 952.02C403.8 947.16 405.73 941.74 409.65 937.18C416.29 929.46 425.8 927.07 435.11 924.5C422.35 904.48 410.47 881.17 416.4 856.79C419.78 842.9 433.78 830.02 436.03 817.46C436.49 814.89 436.12 812.11 436.25 809.5C436.39 806.74 436.96 804.52 436.5 801.86C428.24 803.05 419.85 803.85 411.5 803.85C407.98 803.85 403.75 804.64 401.05 802.5C403.75 800.32 408.8 801.47 412.5 801.43C420.67 801.34 429.58 801.35 437.5 799.16C441.4 788.62 443.54 783.12 449.5 773.47C443.83 768.33 438.17 763.19 432.5 758.06C421.39 757.99 413.51 762.55 402.3 756.19C382.37 744.88 389.98 718.29 407.12 708.63C418.75 702.06 432.61 701.98 445.47 704.17C450.34 704.99 455.4 707.29 460.23 707.5C460.23 692.5 460.23 677.5 460.23 662.5C456.39 660.97 441.13 653.09 438.49 653.01C435.64 652.92 432.28 654.32 429.44 654.76C418.71 656.39 396.66 659.02 386.8 655.5C390.14 652.94 396.12 654.4 400.5 654.41C407.92 654.43 415.16 653.73 422.5 653.12C426.16 652.81 431.94 653.01 434.6 650.5C418.25 641.75 403.2 631.32 388.92 619.54C380.95 612.96 373.27 605 369.28 595.28C361.7 576.78 370.1 555.95 373.99 537.48C380.19 508.06 383.08 477.96 394.31 449.75C399.68 436.28 407.03 426.62 414.22 414.5C404.78 414.18 395.39 418.93 385.77 417.5C388.36 415.2 391.85 415.41 395.5 414.98C400.79 414.35 412.85 413.07 417.29 410.78C419.32 409.73 427.97 399.54 430.57 397.07C438.4 389.65 447.5 384.22 455.83 377.5ZM843.5 267.92C823.01 275.13 804.74 284.89 787.07 297.54C762.74 314.94 740.44 335.6 713.26 348.72C697.4 356.38 680.31 360.66 663.25 364.6C655.89 366.31 642.15 367.93 636.56 372.5C685.1 385.51 733.82 374.47 779.18 355.68C790.85 350.84 802.49 345.45 813.18 338.68C831.6 327.04 848.01 309.61 848.13 286.5C848.16 280.1 847.34 273.23 843.5 267.92ZM907.5 302.96C869.02 338.42 820.27 370.3 769.37 383.75C750.63 388.7 731.48 390.95 712.18 392.54C705.54 393.08 689.51 391.77 684.64 394.5C696.87 406.1 707.13 419.47 715.27 434.22C723.27 448.72 727.64 465.31 731.26 481.32C744.1 538.14 742.84 606.21 694.81 647.32C684.7 655.97 673.07 662.74 660.37 666.78C655.73 668.25 650.84 669.01 646.24 670.5C658.97 686.55 669.57 702.72 674.48 722.98C676.03 729.4 677.2 735.92 677.79 742.5C678 744.91 677.31 748.03 678.2 750.3C678.7 751.57 688.93 761.15 690.87 763.67C698.27 773.26 702.26 783.72 707.5 794.43C717.01 789.46 721.67 786.57 732.51 784.5C736.21 778.05 738.92 771.25 745.19 766.67C759.81 755.98 777.06 766.72 782.82 781.63C786.18 790.33 786.64 800.27 786.64 809.5C786.64 814.82 786.13 820.59 787.5 825.72C796.53 817.66 802.66 820.99 811.5 826.75C813.91 820.43 815.32 813.8 818.17 807.63C819.64 804.47 823.24 800.73 823.91 797.44C824.68 793.71 823.55 789.27 823.44 785.47C823.34 781.89 823.91 778.04 823.27 774.5C822.77 771.71 821.23 768.95 820.28 766.29C816 754.3 811.38 742.23 805.69 730.82C800.22 719.86 791.41 699.37 775.55 703.96C765.43 706.88 765.92 724.62 762.38 732.9C754.17 752.07 736.21 759.43 716.5 758.84C712.61 754.3 713.03 746.19 713.09 740.5C713.23 726.87 718.47 713.35 728.01 703.51C732.14 699.26 737.12 696.35 741.47 692.5C727.65 688.5 716.04 682.84 708.77 669.73C706.6 665.82 704.95 661.96 705.3 657.5C712.63 655.37 720.9 655.72 728.5 656.03C757.56 657.21 786.1 671.43 804.88 693.65C809.15 698.71 812.68 704.27 816.5 709.64C816.81 703.97 815.59 698.18 815.19 692.5C814.01 675.96 813.46 659.09 814.15 642.5C815.72 604.64 824.42 567.03 843.51 534C850.11 522.57 858.2 512.33 867.47 502.96C871.03 499.36 875.06 494.33 879.83 492.5C884.62 497.45 883.52 509.84 882.58 516.27C882.05 519.86 880.51 523.45 880.5 526.97C894.76 515.78 909.57 507.22 926.5 500.69C927.23 495.45 925.52 489.82 925.22 484.5C924.54 472.21 925.03 459.8 925.17 447.5C925.34 433.49 926.35 419.56 926.12 405.5C925.59 372.8 920.33 333.24 907.5 302.96ZM138.5 454.16C139.13 461.5 141.89 469.07 144.5 475.94C151.86 495.33 167.32 520.83 184.57 532.99C190.08 536.87 199.63 533.79 203.8 538.5C201.3 541.04 197.1 539.8 193.5 539.84C188.72 539.9 184.01 541.41 179.52 542.96C167.49 547.11 156.5 553.98 145.09 559.53C139.26 562.36 131.82 563.58 126.5 566.66C136.41 567.48 148.09 563.45 157.23 559.72C162.34 557.63 168.17 552.95 173.5 553.35C173.6 557.05 167.89 559.36 165.11 561.56C159.25 566.21 153.73 572.78 150.5 579.53C154.64 579.03 157.87 576.21 161.19 573.67C170 566.93 176.78 557.86 185.71 551.21C193.41 545.47 202.37 541.89 211.87 540.49C215.83 539.91 219.91 540.68 223.68 539.5C216.75 535.08 209.41 531.3 201.42 529.17C195.83 527.68 189.09 527.74 184.26 524.23C182.34 522.83 181.62 521.06 180.44 519.08C172.91 506.4 172.08 492.96 175.28 478.66C176.23 474.44 178.37 470.17 178.5 465.88C174.26 471.8 171.49 479.48 170.15 486.6C169.46 490.29 169.99 495.15 167.5 497.82C163.73 495.8 162.89 487.55 161.13 483.44C157.31 474.49 147.84 457.78 138.5 454.16ZM136.5 457.54C133.47 462.82 135.52 471.76 136.76 477.56C140.39 494.43 148.86 509.19 161.91 520.57C165.8 523.96 171.96 529.32 177.12 529.5C156.5 509.24 143.95 485.27 136.5 457.54ZM230.5 458.98C215.83 475.85 213.54 501 221.04 521.43C223.01 526.81 225.76 531.81 228.95 536.57C230.67 539.13 233.84 541.43 233.27 544.5C230.31 544.74 228.51 543.17 225.5 542.84C218.91 542.11 211.97 542.49 205.56 544.06C189.59 547.98 179.9 560.31 168.27 570.78C163.24 575.3 157.9 578.8 152.29 582.5C167.33 584.97 185.07 564.97 197.16 557.67C214.05 547.48 235.46 551.47 252.5 559.02C251.29 553.82 245.84 548.27 243.21 543.31C237.85 533.22 233.73 522.57 231.25 511.41C229.22 502.27 227.78 491.97 228.37 482.6C228.78 475.95 231.52 464.92 230.5 458.98ZM412.72 461.32C418.72 459.7 428.65 460.61 428.92 468.5C428.98 470.27 428.85 471.84 427.89 473.35C424.58 478.59 417.87 478.4 412.64 480.1C408.83 481.33 406.4 485.28 401.96 483.47C398.88 482.2 398.62 478.32 398.96 475.5C399.75 468.9 406.54 463 412.72 461.32ZM233.5 462.85C229.91 473.63 230.12 486.57 231.53 497.78C234.53 521.56 243.48 546.32 260.51 563.97C263.92 567.51 267.93 570.69 271.5 574.12C272.11 561.11 250.95 550.07 245.34 538.23C241.18 529.44 245.12 518.77 245.21 509.5C245.36 493.07 242.7 476.86 233.5 462.85ZM614.65 463.26C623.58 461.42 634.05 464.37 639.71 471.76C642.27 475.1 644.36 480.11 641.33 483.84C639.68 485.87 637.01 486.22 634.55 485.79C631.89 485.32 629.87 482.99 627.27 482.25C621.48 480.6 614.58 481.09 610.03 476.48C605.36 471.75 608.55 464.52 614.65 463.26ZM182.5 463.99C176.6 476.16 171.27 502.51 180.5 513.83C185.13 496.84 190.05 481.47 182.5 463.99ZM424.64 466.5C416.36 459.94 397.63 471.08 403.5 480.07C406.58 479.43 408.73 477.28 411.79 476.42C417.96 474.68 426.56 475.33 424.64 466.5ZM638.31 481.5C642.41 470.04 614.88 459.63 611.25 471.5C614.57 478.17 623.28 476.9 629.37 479.18C632.96 480.53 634.45 482.41 638.31 481.5ZM956.89 497.5C934.76 499.53 912.98 508.56 894.62 521.04C889.34 524.63 884.13 528.59 879.47 532.96C877.28 535.02 875.52 537.92 872.5 536.98C872.1 532.83 875.6 528.54 876.88 524.44C879.36 516.54 880.42 506.94 878.5 498.85C874.11 512.72 869.13 525.64 861.75 538.28C852.27 554.52 841.08 570.1 834.25 587.75C826.89 606.78 824.59 628.13 828.5 648.21C830.96 642.23 830.28 634.91 831.17 628.52C832.13 621.52 833.93 614.4 836.29 607.72C839.51 598.65 844.53 590.65 851.45 583.94C853.78 581.68 857.97 579.83 859.75 577.25C861.5 574.72 862.11 570.94 863.66 568.17C867.88 560.68 873.57 554.16 880.12 548.59C896.87 534.34 918.52 527.05 937.08 515.61C943.13 511.88 954.79 504.29 956.89 497.5ZM874.5 501.11C829.48 543.99 816.66 606.53 817.86 666.5C818.08 677.24 818.81 687.84 819.68 698.52C820.21 705.03 820.11 711.85 821.33 718.27C822.47 724.25 825.58 730.25 827.5 736.03C828.95 731.54 830.62 726.23 831.04 721.5C831.78 713.36 829.62 704.66 829.24 696.5C828.86 688.49 828.42 680.52 828.42 672.5C828.42 668.29 829.1 663.78 828.7 659.62C828.16 653.88 825.82 648.28 825.17 642.5C823.66 628.94 824.37 614.99 827.35 601.72C832.81 577.42 848.29 556.35 860.68 535.2C865.1 527.65 875.39 509.36 874.5 501.11ZM953.5 506C932.48 525.34 903.67 532.27 881.85 550.37C874.68 556.32 864.79 565.69 863.5 575.35C876.5 571.25 890.37 571.09 903.24 566.73C921.86 560.41 935.67 543.95 944.63 527.13C947.76 521.25 953.51 512.56 953.5 506ZM434.17 559.5C422.42 561.92 411.79 552.78 400.46 551.11C395.91 550.43 391.62 552.91 387.5 552.26C387.42 551.32 386.84 550.78 387.3 549.78C388.29 547.61 397.91 547.13 400.05 546.5C394.92 534.43 401.41 507.7 418.4 510.3C432.94 512.52 434.91 536.45 434.9 547.5C434.89 551.45 435.37 555.78 434.17 559.5ZM152.5 516.97C151.5 523.85 150.5 530.72 149.5 537.6C152.97 538.12 173.26 535.58 177.03 534.5C167.61 529.97 160.09 524.05 152.5 516.97ZM587.5 582.27C586.54 573.98 597.92 570.7 604.18 568.5C594.97 558.72 588.14 547.76 592.39 533.77C596.96 518.74 616.99 510.67 629.22 522.32C639.78 532.38 642.99 556.33 629.88 565.39C621.62 571.1 610.97 570.45 601.7 573.17C598.45 574.12 595.2 575.92 592.82 578.32C591.7 579.44 590.61 581.88 589.12 582.47C588.45 582.73 588.1 582.34 587.5 582.27ZM417.67 524.13C410.52 526.74 415.2 537.39 422.37 534.95C429.71 532.46 425.09 521.43 417.67 524.13ZM620.78 529.38C613.31 530.53 615.01 541.89 622.49 541.1C630.33 540.28 628.45 528.19 620.78 529.38ZM182.18 539.5C176.29 538.19 170.42 539.17 164.5 539.82C144.4 542.01 126.07 549.92 111.88 564.5C118.94 566.99 127.84 563.78 134.72 561.29C151.12 555.36 165.76 545.53 182.18 539.5ZM501.96 582.5C497 599.92 512.53 618.45 530.69 609.26C534.61 607.27 537.78 604.2 539.97 600.39C541.63 597.51 541.55 594.44 544.5 592.94C549.5 599.18 536.16 611.55 530.17 613.57C517.31 617.91 509.21 612.48 500.5 603.94C492.72 612.41 482.39 616.88 471.43 611.02C467.38 608.86 460.64 603.54 461.89 598.5C462.75 598.45 463.29 597.95 464.2 598.36C465.49 598.93 466.49 601.95 467.43 603.07C469.58 605.64 472.51 607.74 475.66 608.9C482.21 611.33 496.01 608.57 497.97 600.39C498.55 597.96 497.37 595.87 497.12 593.5C496.69 589.38 497.66 585.48 497.81 581.5C487.19 578.85 474.02 572.25 474.02 559.5C474.02 556.45 474.69 553.6 476.71 551.2C483.54 543.11 504.08 545.8 513.5 546.98C517.62 547.5 522.5 547.92 525.88 550.61C528.38 552.6 529.11 555.43 529.13 558.5C529.2 568.4 521.14 576.48 512.37 579.81C508.97 581.1 505.32 581.28 501.96 582.5ZM936.66 546.5C924.51 557.32 920.04 564.95 903.2 570.6C888.91 575.39 872.59 573.17 859.64 582.06C832.16 600.94 831.98 645.65 831.99 675.5C831.99 685.81 832.1 699.39 834.5 709.27C837.33 702.52 839.51 695.54 842.32 688.76C850.77 668.32 862.6 647.54 878.08 631.59C883.65 625.85 897.41 613.99 905.62 614.5C907.12 623.39 903.51 634.76 900.65 643.27C899.57 646.51 897.8 649.75 897.5 653.07C901.25 651.16 904.8 648.84 908.8 647.39C921.48 642.79 942.08 641.12 955.09 644.5C955.85 647.86 953.27 652.24 951.68 655.25C946.8 664.51 940.61 672.08 933.3 679.5C938.64 680.64 943.95 680.45 949.23 682.35C962 686.95 972.81 696.2 983.5 704.19C984.67 698.86 982.96 692.87 982.2 687.47C980.84 677.66 978.95 667.93 976.24 658.38C968.67 631.7 958.27 606.13 948.35 580.24C944.09 569.13 940.97 557.59 936.66 546.5ZM220.24 554.5C211.66 552.6 203.01 556.82 195.87 561.35C183.2 569.4 173.52 579.94 158.78 584.5C164.23 585.75 170.2 584.51 175.62 583.28C192.09 579.53 211.33 569.53 220.24 554.5ZM316.5 801.34C317.13 794.16 313.78 785.57 312.24 778.44C308.71 762.13 305.43 745.74 302.28 729.37C296.39 698.69 290.33 667.99 284.31 637.33C281.96 625.32 279.76 613.3 277.31 601.34C276.19 595.87 275.77 589.88 273.97 584.59C269.94 572.78 248.96 559.82 237.4 557.16C233.72 556.31 228.37 554.7 224.66 556.09C222.32 556.96 220.14 561.11 218.42 562.92C213.99 567.59 209.11 571.72 203.77 575.31C187.57 586.18 165.74 591.9 146.5 587.17C144.22 595.88 145.78 613.79 145.85 623.5C145.98 639.87 147.41 656.22 148.82 672.5C149.88 684.85 150.76 697.78 153.5 709.81C156.37 708.03 158.38 704.82 160.74 702.24C163.72 698.99 167.51 696.08 171.17 693.66C192.38 679.66 217.64 682.88 239.5 693.11C239.36 688.65 235.76 683.73 234.41 679.22C231.57 669.72 231.22 660.32 231.99 650.5C232.33 646.15 232.75 640.62 235.5 637.18C257.74 639.72 276.11 661.46 279.73 682.62C282.16 696.8 278.53 711.19 282.24 725.31C284.96 735.63 290.43 745.05 294.65 754.78C300.45 768.14 305.15 783.03 307 797.5C310.17 798.78 313.33 800.06 316.5 801.34ZM393.6 558.42C417.19 556.8 419.82 592.62 396.47 594.69C372.01 596.86 369.11 560.11 393.6 558.42ZM390.7 561.19C370.94 565.88 377.41 596.3 398.46 592.02C418.28 587.99 411.9 556.15 390.7 561.19ZM156.5 564.49C153.33 565.28 150.15 566.07 146.98 566.86C146.98 570.26 146.98 573.65 146.98 577.04C150.15 572.86 153.33 568.68 156.5 564.49ZM626.64 573.29C650.74 568.81 657.33 604 635.34 608.72C610.22 614.12 603.55 577.59 626.64 573.29ZM628.66 575.28C607.83 578.3 611.9 609.59 632.49 606.97C653.41 604.3 649.18 572.3 628.66 575.28ZM901.5 620.94C873.95 640.45 858.76 672.12 848.68 703.31C846.38 710.43 840.35 728.87 841.5 735.55C844.32 730.19 848.23 725.92 851.46 720.9C855 715.39 857.75 709.47 861.64 704.14C871.26 690.96 883.96 679.71 898.14 671.66C908.97 665.52 920.83 661.64 932.19 656.66C937.81 654.2 944.51 651.81 948.97 647.5C933.15 644.54 911.13 647.55 898.11 657.56C893.56 661.05 888.92 670.15 885.5 671.61C882.39 668.16 888.74 661.58 890.54 658.01C895.01 649.14 902.53 630.46 901.5 620.94ZM889.89 627.5C885.71 628.39 882.39 632.71 879.4 635.87C871.96 643.72 865.94 652.6 860.3 661.8C841.29 692.86 829.8 729.22 827.84 765.5C827.33 774.92 826.37 784.14 827.5 793.59C833.5 791.88 831.9 786.84 831.9 781.5C831.9 769.23 834.09 757.77 836.4 745.77C844.77 702.12 857.28 659.56 889.89 627.5ZM237.5 642.06C231.96 656.28 235.09 675.09 242.16 688.31C244.33 692.36 253.49 702.78 253.5 705.71C248.83 705.9 245.06 700.99 241.02 698.46C234.21 694.2 226.39 690.59 218.45 689.09C190.87 683.88 164.71 694.98 152.31 720.82C149.03 727.66 145.25 736.62 146.5 744.18C164.24 705.02 211.57 682.76 248.79 711.7C254.89 716.45 260.19 722.87 263.76 729.7C265.28 732.61 266.11 735.93 267.7 738.75C270.36 743.44 274.45 747.54 277.33 752.17C285.19 764.79 290.55 779.09 294.5 793.33C295.18 788.28 293.02 783.02 291.41 778.2C287.67 766.97 282.48 756.32 278.34 745.23C265.41 710.64 265.71 669.22 237.5 642.06ZM242.5 643.42C244.48 646.48 247.28 649.07 249.4 652.1C253.92 658.56 257.59 665.72 260.4 673.08C267.23 690.98 270.27 709.95 275.17 728.38C278.1 739.38 282.66 749.96 287.11 760.4C290.33 767.98 293.54 775.74 295.64 783.71C296.18 785.73 297.53 795.49 298.19 796.38C299.16 797.71 301.05 797.18 302.5 797.13C303.5 790.98 300.29 783.13 298.53 777.02C294 761.33 285.85 747.4 280.5 732.08C274.91 716.09 278.66 699.88 276.05 683.5C274.14 671.52 267.58 660.03 258.25 652.26C253.76 648.52 248.36 644.15 242.5 643.42ZM949.18 651.5C944.99 652.14 931.56 659.54 926.25 661.69C898.31 672.98 872.88 687.03 857.83 714.5C862.23 713.68 866.47 709.95 871.06 708.57C874.82 707.45 878.68 707.23 882.37 705.91C900.76 699.32 914.98 691.75 935.46 694.25C947.64 695.73 959.55 699.22 970.33 705.19C977.59 709.21 984.53 715.6 992.5 717.94C990.2 713.73 984.47 709.98 980.68 706.86C970.17 698.21 954.33 685.5 940.5 683.93C935.94 683.41 931.04 683.55 926.73 685.24C923.12 686.65 921.51 688.94 917.54 688.5C917.38 684.36 926.22 680.49 929.36 677.93C937.79 671.07 944.93 661.47 949.18 651.5ZM823.5 764C828.34 747.85 823.75 732.72 816.51 718.05C801.39 687.42 772.08 666.22 738.54 660.79C730.28 659.45 720.26 658.36 712.1 660.5C729.28 679.61 757.72 673.36 778.31 686.21C791.42 694.39 797.18 704.5 803.38 718.11C805.64 723.06 808.49 727.75 810.76 732.7C815.46 742.97 819.23 753.57 823.5 764ZM710.5 662.14C709.16 673.28 729.01 685.84 738.54 687.95C742.61 688.86 748.55 688.15 751.81 690.5C751.49 691.38 751.73 691.78 751.07 692.53C749.57 694.21 745.63 695.02 743.62 696.1C740.64 697.7 737.89 699.67 735.3 701.84C723.41 711.79 716.81 726.07 716.79 741.5C716.79 745.79 716.69 749.45 718.5 753.39C727.67 746.84 730.76 734.5 735.31 724.75C741.63 711.2 752.4 701.41 767.56 699.27C772.83 698.52 779.17 699.2 784.37 700.27C787.65 700.95 790.13 703.42 793.23 703.5C785.42 691.92 772.83 684.3 759.45 681.07C742.53 676.99 722.52 676.7 710.5 662.14ZM520.27 718.5C514.63 706.97 514.62 690.88 504.5 681.97C493.99 672.72 476.97 673.41 468.04 684.59C466.64 686.34 464.86 688.57 464.27 690.76C462.84 696.06 464.05 703.25 464.5 708.67C475.15 714.07 488.78 715.59 500.43 717.29C506.72 718.2 514.04 719.84 520.27 718.5ZM996.27 723.5C992.12 720.19 986.7 718.2 982.14 715.35C975.96 711.49 969.93 707.26 963.3 704.17C944.33 695.32 921.9 693.47 902.18 700.58C897.49 702.27 891.42 703.94 887.5 706.72C892.76 708.26 898.12 709.32 903.25 711.32C906.84 712.72 910.74 715.35 914.53 716.01C923.49 717.58 932.65 713.89 941.54 713.42C957.44 712.59 971.45 719.46 983.5 729.15C987.76 727.27 992.02 725.38 996.27 723.5ZM261.43 730.5C240.88 691.8 189.52 694.03 162.34 723.83C157.19 729.47 152.1 736.29 149.5 743.55C153.91 742.02 157.87 737.94 162.14 735.67C169.23 731.9 176.64 730.08 184.46 728.88C189.19 728.16 194.29 727.19 198.7 729.5C197.85 732.75 195.09 733.88 192.51 736C188.41 739.4 184.38 743.45 181 747.56C168.34 762.95 161.14 782.56 161.13 802.5C161.13 808.52 161.03 817.93 164.5 822.94C173.4 808.94 181.39 794.61 187.9 779.33C192.88 767.64 196.01 755.21 201.21 743.64C207.03 730.7 216.51 718.22 231.55 716.27C237.88 715.44 244.91 717.62 249.83 721.66C253.53 724.71 256.64 729.69 261.43 730.5ZM770.54 701.5C766.95 701.69 763.51 702.32 760.13 703.53C735.85 712.22 737.15 738.22 721.06 754.5C725.51 755.84 730.25 754.77 734.66 753.3C746.16 749.47 755.48 740.68 759.84 729.32C762.15 723.29 762.15 716.76 764.35 710.74C765.72 707 768.42 704.68 770.54 701.5ZM984.27 733.5C980.68 733.37 977.15 734.55 973.5 734.85C964.86 735.55 956.13 734.58 947.77 732.59C915.59 724.94 883.67 693.71 854.32 723.82C850.43 727.81 847.29 732.35 844.78 737.32C841.27 744.27 839.17 751.77 837.66 759.33C835.78 768.78 834.37 778.91 835.5 788.58C841.02 789.06 846.57 787.1 852.15 789.43C869.32 796.63 868.25 825.5 866.8 840.5C866.41 844.59 864.76 848.3 865.5 852.25C869.28 848.38 874.2 844.42 879.63 843.25C891.45 840.69 904.57 846.86 903.66 860.45C903.16 867.84 899.64 874.35 896.24 880.76C888.76 894.87 879.06 908.04 867.96 919.5C876.26 921.88 891.41 922.45 900.5 923.03C903.66 923.23 908.28 924.87 911.32 923.85C914.43 922.8 917.5 917.53 919.63 915.14C927.9 905.86 935.21 895.76 941.63 885.11C965.65 845.27 976.7 800.18 982.2 754.53C983.04 747.53 984.06 740.58 984.27 733.5ZM980.07 729.5C962.46 714.3 943.06 714.43 921.38 718.5C924.7 721.74 930.48 723.09 934.81 724.67C948.4 729.65 965.89 734.65 980.07 729.5ZM240.74 719.5C236.82 719.02 232.48 718.38 228.56 719.15C220.58 720.71 213.78 727.43 209.32 733.82C199.16 748.39 195.78 767.12 188.75 783.28C182.77 797.01 175.11 809.53 167.79 822.5C177.05 821.2 188.06 804.51 192.19 796.66C199.49 782.79 203.32 767.21 207.76 752.3C210.77 742.18 214.09 730.16 223.15 723.65C228.58 719.75 234.47 720.26 240.74 719.5ZM291.53 799.5C291.62 793.22 288.6 786.21 286.39 780.22C279.79 762.33 270.71 745.97 256.64 732.87C247.78 724.62 233.99 719.11 223.61 728.07C213.74 736.58 210.48 756.38 206.77 768.4C203.08 780.37 199.3 792.48 192.77 803.3C189.94 807.99 186.25 811.97 183.25 816.5C200.2 852.25 218.96 888.96 247.5 917.11C252.28 916.23 266.33 913.71 269.5 911.5C263.76 900.47 257.71 889.6 252 878.56C249.26 873.24 245.51 867.27 244.25 861.37C241.67 849.32 250.15 840.25 262.38 841.38C268.62 841.96 272.49 845.36 277.52 848.5C276.71 842.79 274.86 837.4 274.58 831.5C273.96 818.23 280.26 806.26 291.53 799.5ZM190.83 732.5C181.85 730.52 167.31 736.32 159.83 741.5C161.72 749.21 163.61 756.91 165.5 764.62C168.52 760.36 170.59 755.45 173.62 751.15C178.61 744.05 184.62 738.43 190.83 732.5ZM785.5 833.99C781.28 829.2 782.94 817.76 782.94 811.5C782.94 800.06 783.09 786.23 776.04 776.54C762.78 758.31 744.14 765.93 736.93 784.5C748.02 790.53 745.79 795.68 744.04 806.5C746.74 806.31 749.53 805.72 752.27 806.35C764.29 809.14 760.15 825.33 757.64 833.23C751.74 851.85 739.61 866.5 720.83 872.5C723.2 879.64 727.02 886.2 728.73 893.62C730.5 901.34 729.93 909.47 731.5 917.05C737.83 917.05 744.17 917.05 750.5 917.05C754.32 904.2 756.17 889.89 757.04 876.5C757.53 868.93 756.4 857.17 758.5 850.26C761.6 853.63 760 862.92 759.77 867.5C759.23 878.16 758.19 888.85 756.64 899.36C755.83 904.91 753.63 910.73 754.21 916.24C764.06 916.24 773.9 916.24 783.75 916.24C783.21 908.29 783.34 900.43 784.18 892.5C784.54 889.15 784.42 885.32 787.5 884.06C787.7 888.15 786.35 892.36 785.92 896.5C785.24 902.99 785.77 909.79 785.84 916.3C793.39 916.3 800.95 916.3 808.5 916.3C810.45 910.4 808.54 902.87 809.29 896.53C811.1 881.19 813.86 866.13 818.95 851.46C820.56 846.8 824.32 832.98 828.5 831.38C828.79 835.93 821.7 850.02 819.98 855.55C814.33 873.69 808.56 897.59 812.16 916.5C819.57 917.84 831.66 917.93 839.5 918.06C841.89 918.09 846.77 919.26 848.89 918.37C852.01 917.05 854.8 911.86 856.7 909.21C862.44 901.14 867 892.33 870.59 883.1C871.87 879.83 872.82 872.29 875.69 870.5C877.4 873.98 874.38 879.83 872.95 883.5C867.87 896.51 860.91 907.48 852.49 918.5C855.38 919.31 860.41 920.05 863.27 918.87C866.09 917.72 872.16 909.37 874.24 906.73C882.17 896.66 889.52 886.23 895.23 874.7C898.18 868.73 901.85 861.15 899.13 854.47C897.55 850.6 894.49 848.06 890.5 846.89C880.17 843.87 871.13 850.96 864.99 858.53C862.48 861.62 860.65 865.44 857.5 867.87C856.64 866.94 856.13 867.02 856.04 865.49C855.91 863.3 861.25 850.22 862.05 846.47C864.93 832.97 866.55 803.99 853.84 794.64C850.71 792.34 847.31 791.7 843.5 791.81C828.1 792.23 821.07 808.13 817.28 820.75C816.06 824.81 815.4 829.99 812.5 832.94C805.76 830.05 801.57 819.6 792.08 826.54C789.1 828.72 788.67 832.54 785.5 833.99ZM453.5 775.68C447.78 779.66 444.62 788.72 442.65 795.24C436.72 814.89 440.23 836.26 448.84 854.61C459.33 876.99 476.44 895.46 493.45 913.05C510.98 931.17 528.86 948.94 552.24 959.32C565.62 965.26 587.42 972.4 601.94 969.5C600.45 966.01 597.76 963.09 595.62 959.89C591.68 953.99 588.09 947.8 585.33 941.25C578.27 924.51 577.71 905.17 586.55 889.01C590.2 882.34 595.49 877.31 600.14 871.5C596.43 860.8 592.9 850.72 590.97 839.52C590.24 835.23 589.15 830.52 590.5 826.34C592.83 827.07 595.17 827.8 597.5 828.53C595.92 821.49 591.08 819.75 588.15 814.5C590.52 813.5 592.9 812.5 595.27 811.5C592.35 808.47 589.42 805.45 586.5 802.42C589.16 800.21 591.58 800.27 594.86 799.5C592.28 795.94 588.33 789.75 583.43 789.13C579.99 788.69 575.53 791.66 572.25 792.66C562.37 795.68 551.82 798.29 541.5 798.88C508.23 800.77 481.79 792.32 453.5 775.68ZM351.14 909.02C349.05 901.59 345.04 894.49 342.39 887.2C337.7 874.34 333.04 861.39 329.42 848.18C327.04 839.54 324.63 830.95 322.36 822.28C321.2 817.85 320.84 812.04 318.4 808.13C316.2 804.59 311.4 802.64 307.59 801.67C293.52 798.11 281.6 809.26 278.96 822.53C277.18 831.5 278.82 840.91 282.16 849.33C283.93 853.78 288.15 859.25 287.5 863.9C283.23 863.2 281.2 858.36 278.48 855.05C273.71 849.25 266.34 844.04 258.5 845.01C250.4 846.01 245.74 852.69 247.9 860.49C251.22 872.4 258.96 883.84 264.82 894.65C267.84 900.21 270.36 907.22 274.5 911.96C281.32 910.8 288.13 909.65 294.95 908.5C289.99 899.51 285.48 890.31 279.91 881.65C278.06 878.78 274.04 874.77 274.82 871.5C277.99 872.83 280.11 877.53 281.97 880.52C287.57 889.53 292.64 898.84 297.48 908.27C308.7 908.27 319.91 908.27 331.13 908.27C329.5 903.19 327.16 898.29 325.35 893.23C321.41 882.18 318.71 870.9 316.1 859.5C314.57 852.85 312.15 844.64 313.5 837.98C314.91 839.52 313.69 836.99 314.73 838.74C315.91 840.72 315.74 845.19 316.08 847.5C316.81 852.48 317.85 857.57 318.96 862.47C322.56 878.25 327.22 894.49 334.5 909.02C340.05 909.02 345.59 909.02 351.14 909.02ZM436.5 826.94C430.23 835.32 420.59 851.24 419.05 861.52C415.94 882.33 426.56 907.87 439.5 924.11C446.16 924.09 452.68 924.1 459.23 925.4C477.9 929.11 496.09 944.35 496.74 964.5C496.89 969.41 496.05 973.83 494.62 978.5C499.86 978.59 505.68 976 510.74 974.33C519.43 971.45 539.46 965.78 546 960.5C524.35 949.22 506.86 932.93 490.33 915.18C473.99 897.64 456.84 880.1 446.4 858.18C441.53 847.96 439.36 837.73 436.5 826.94ZM585.04 1033.5C556.71 1016.39 512.98 1010.88 480.5 1008.13C459.95 1006.39 440.85 1006.01 420.76 1000.64C386.19 991.41 354.1 969.67 330.13 943.36C324.73 937.43 319.43 931.27 314.67 924.82C311.57 920.62 308.98 915.84 305.5 911.97C268.83 914.07 230.56 921.24 202.49 946.97C190.7 957.77 176.41 973.31 189.08 989.37C191 991.81 193.51 993.73 196.06 995.49C198.2 996.96 201.75 999.66 204.44 999.68C207.03 999.7 210.24 998.03 212.75 997.36C218.95 995.71 225.25 994.23 231.55 993.23C251.54 990.06 272.45 990.06 292.22 994.39C306.31 997.48 320.29 1004.05 331.85 1012.66C335.07 1015.06 342.92 1023.78 345.73 1024.71C351.23 1026.53 364.22 1026.65 370.5 1027.13C384.05 1028.18 397.71 1029.15 411.28 1030.45C433.52 1032.57 456.17 1033.62 478.5 1034.07C493.13 1034.37 507.85 1033.66 522.46 1034.42C535.14 1035.08 547.79 1034.37 560.5 1034.17C568.42 1034.05 577.38 1035.3 585.04 1033.5ZM308.97 912.5C339.56 955.55 378.89 989.16 431.55 1000.97C445.46 1004.09 459.38 1004.08 473.5 1005.18C488.08 1006.32 502.97 1007.8 517.41 1010.29C533.86 1013.11 550.48 1016.63 566.25 1022.32C571.94 1024.37 577.6 1026.77 582.97 1029.57C585.33 1030.8 588.06 1033.25 590.65 1033.82C594.91 1034.75 600.16 1033.3 604.5 1033.15C613.18 1032.85 621.83 1032.53 630.5 1032.17C660.59 1030.93 690.55 1028.82 720.5 1026.25C740.19 1024.56 759.9 1023.21 779.48 1020.82C788.49 1019.72 797.51 1018.17 806.51 1017.2C818.81 1015.89 840.11 1014.5 850.41 1007.98C859.35 1002.31 865.99 994.02 868.07 983.48C871.87 964.21 863.96 941.79 878.1 925.5C873.9 923.31 869.27 924.08 864.63 923.61C855.94 922.74 847.24 922.31 838.52 921.64C802.89 918.93 767.17 919.9 731.5 921.05C729.3 929.87 727.11 938.68 724.91 947.5C727.69 951.34 730.29 955.19 731.59 959.8C737.19 979.72 719.35 990.96 702.34 993.66C694.29 994.94 685.77 993.66 677.64 994.34C668.87 995.08 660.35 997.23 651.5 997.49C630.86 998.11 618.02 988.11 605.5 973.13C594.37 973.17 583.73 973.06 572.84 970.55C567.76 969.38 562.57 967.63 557.7 965.74C555.64 964.94 552.91 963.05 550.65 963.25C548.01 963.48 544.74 965.72 542.28 966.73C536.3 969.18 530.27 971.43 524.21 973.62C504.23 980.83 482.63 988.4 461.45 990.67C455.29 991.34 448.31 990.52 442.73 987.72C440.43 986.56 437.92 983.4 435.46 983.06C433.84 982.83 432.1 983.65 430.49 983.82C426.92 984.2 423.09 984.16 419.5 983.97C410.42 983.47 400.56 976.99 399.14 967.47C398.55 963.51 399.38 959.43 399.5 955.55C385.8 951.38 374.57 944.22 365.68 932.81C363.07 929.46 355.81 915.95 354 914.53C350.87 912.09 345.17 912.99 341.5 912.75C331.24 912.06 318.97 909.81 308.97 912.5ZM853.93 1008.5C860.93 1009.88 873.51 1005.19 880.77 1003.39C900.71 998.44 930.57 990.33 947.73 979.26C959.76 971.51 966.88 961.32 957.92 947.63C947.27 931.36 919.03 928.56 901.5 926.83C897.48 926.43 884.94 924.03 881.8 925.34C879.22 926.42 876.84 930.81 875.6 933.15C869.21 945.21 872.35 959.47 871.65 972.47C870.85 987.16 866.19 999.78 853.93 1008.5ZM448.5 942.06C448.96 946.2 443.97 948.78 441.59 952.13C436.25 959.67 432.14 971.87 438.56 979.91C447.99 991.72 466.7 986.5 478.87 983.47C481.94 982.71 487.26 982.35 489.62 980.13C492.79 977.12 493.6 966.5 493.03 962.5C488.56 931.17 444.91 918.76 420.06 933.53C404.99 942.49 391.49 974.42 416.56 979.84C421.95 981.01 427.9 980.56 433.24 979.5C430.71 967.5 432.2 958.91 439.45 948.92C441.91 945.54 444.28 942.41 448.5 942.06ZM259.64 931.33C266.39 930.16 274.78 930.36 280.94 933.58C283.78 935.06 286.61 937.65 285.59 941.19C284.65 944.45 280.55 946.23 277.68 947.16C269.77 949.73 257.93 950.02 251.06 944.46C243.43 938.28 253.89 932.31 259.64 931.33ZM673.42 990.5C677.38 991.29 681.47 990.55 685.5 990.51C699.61 990.34 716.89 990.4 725.65 977.16C728.28 973.18 729.72 968.41 728.81 963.64C728.29 960.9 727.25 958.09 725.89 955.64C724.05 952.35 721.67 949.16 718.96 946.53C710.41 938.26 699.18 933.36 687.51 931.82C655.44 927.58 626.63 949.19 615.21 978.5C629.09 993.93 650.26 996.54 669.57 991.5C669.61 982.88 666.84 973.83 663.63 965.85C662.19 962.29 658.13 957.18 658.85 953.5C663.22 953.14 664.13 957.95 665.82 961.62C670.09 970.87 672.04 980.51 673.42 990.5ZM283.27 940.5C280.71 930.2 253.2 930.11 250.9 940.5C257.03 948.87 277.19 948.97 283.27 940.5ZM786.86 947.5C782.04 954.95 761.96 956.07 761.15 945.5C766.09 938.28 784.75 937.61 786.86 947.5ZM929.83 946.5C929.04 957.02 905.37 957.05 904.43 946.5C909.18 939.17 925.35 938.7 929.83 946.5ZM784.27 946.5C780.34 942.06 766.08 940.48 763.5 946.81C767.82 952.44 780.48 952.77 784.27 946.5ZM927.82 947.5C923.32 942.03 910.98 941.7 906.77 947.5C910.72 953.6 923.53 953.29 927.82 947.5ZM316.81 962.5C311.6 969.1 293.31 970.6 291.21 960.5C295.59 952.68 316.28 951.95 316.81 962.5ZM314.5 961.02C310.34 955.33 297.33 955.24 293.75 961.5C297.92 965.83 311.79 967.95 314.5 961.02ZM818.59 957.42C824.33 956.94 844.36 959.57 838.18 969.71C834.05 976.48 816.85 976.05 810.5 973.99C807.8 973.11 803.94 971.69 802.62 968.9C798.56 960.28 813.4 957.86 818.59 957.42ZM836.99 965.5C830.47 958.07 808.88 956.7 804.06 966.5C809.12 975.12 834.76 976.26 836.99 965.5ZM779.79 987.5C779.35 998.2 758.2 997.83 754.28 989.5C756.22 979.78 774.56 981.25 779.79 987.5ZM777.53 989.5C774.95 982.25 761.3 984.07 756.79 988.5C760.24 995.22 772.62 994.44 777.53 989.5ZM340.72 1023.5C333.21 1017.45 326.5 1011.15 317.87 1006.6C293.35 993.68 265.55 991.43 238.48 994.81C230.03 995.86 215.92 996.97 208.78 1001.5C218.93 1006.01 230.63 1007.07 241.46 1009.2C259.99 1012.83 278.7 1015.68 297.36 1018.37C307.03 1019.77 316.78 1020.91 326.44 1022.28C330.96 1022.92 336.3 1024.43 340.72 1023.5ZM390.5 1005.42C388.76 1014.49 365.78 1015.03 365.05 1004.5C369.81 996.88 386.7 997.01 390.5 1005.42ZM569.28 1005.5C566.56 1014.82 544.69 1015.08 544.06 1004.5C548.49 997 566.11 996.84 569.28 1005.5ZM388.1 1005.5C383.38 999.9 371.91 1000.29 367 1005.5C371.01 1011.48 384.39 1011.9 388.1 1005.5ZM567.09 1005.5C562.21 1000.07 550.89 1000.11 545.98 1005.5C549.88 1011.6 563.34 1011.78 567.09 1005.5Z" fill="#000000" fill-rule="evenodd" stroke="#000000" stroke-width="0.25" stroke-linejoin="round"/>
</svg>