<?xml version="1.0" encoding="UTF-8"?>
<svg xmlns="http://www.w3.org/2000/svg" viewBox="0 0 736 1104" width="736" height="1104">
<path d="M0.25 0.25C245.42 0.25 490.58 0.25 735.75 0.25C735.78 51.78 735.81 103.31 735.83 154.83C729.37 151.11 721.94 149.43 714.5 149.46C710.95 149.48 707.49 150.02 703.99 149.5C701.82 140.84 700.26 133.08 694.93 125.61C680.72 105.69 652.11 102.28 631.1 112.62C625.33 115.46 619.81 120.41 616.24 125.74C614.63 128.15 613.47 130.8 611.5 132.89C595.93 126.8 577.08 128.45 567.69 144.2C565.63 147.66 565.23 151.8 563.86 155.5C555.9 159.05 548.64 162.54 543.06 169.53C539.48 174.01 536.74 179.08 535.12 184.57C523.54 223.73 558.07 259.64 597.54 253.16C607.01 251.61 616.93 247.68 623.5 240.38C629.98 244.94 635.01 249.91 642.65 252.86C661.03 259.95 683.7 254.23 698.5 242.14C706.67 244.85 714.55 247.17 723.35 245.64C727.68 244.89 731.62 242.89 735.83 241.96C735.83 433.95 735.83 625.94 735.83 817.93C731.4 815.33 727.4 812.03 722.82 809.65C711.66 803.87 696.4 801.52 685.38 808.9C681.03 811.81 679.26 816 676.5 820.1C665.35 817.64 658.14 808.69 650.65 800.83C642.23 792 634.15 783.21 623.47 776.97C605.28 766.33 585.06 761.93 564.32 759.41C557.33 758.57 550.43 759.35 543.5 757.89C543.48 754.47 544.45 751 544.24 747.5C543.7 738.66 538.85 732.34 532.67 726.5C534.49 721.77 537.69 717.54 538.92 712.44C541.91 699.98 538.59 687.25 531.83 676.69C529.51 673.06 526.02 670.24 524 666.5C535.12 655.03 537.81 638.69 532.67 623.76C530.74 618.13 526.98 613.67 524.29 608.5C531.54 601.87 534.63 594.23 535.13 584.5C546.5 578.5 557.84 573.67 567.8 565.3C592.22 544.79 607.67 512.04 611 480.5C612.31 468.11 612.16 454.89 610.91 442.5C610.45 437.97 608.47 433.45 608.5 428.99C616.48 428.91 624.48 430.04 632.5 428.85C652.27 425.93 669.65 414.88 681.04 398.59C686.93 390.16 693.03 379.08 688.78 368.67C685.35 360.25 675.73 354.46 668 350.5C647.72 340.08 622.55 335.89 600.69 344.25C594.16 346.75 587.63 350.26 582.23 354.73C579.31 357.15 576.7 360.28 573.5 362.15C567.39 356.74 562.46 350.82 555.33 346.5C557.72 341.45 560.11 336.39 562.5 331.34C570.17 330.09 578.07 328.12 583.69 322.22C598.81 306.31 592.91 277.27 572.58 268.85C551.21 260 528.12 271.66 525.84 295.5C525.01 304.09 527.87 310.42 531.99 317.5C529.49 320.55 527 323.59 524.5 326.64C515.84 323.73 507.47 320.09 498.46 318.12C491.65 316.62 484.03 317.17 477.5 315.13C477.62 310.58 477.73 306.04 477.85 301.5C484.15 298.57 490.01 295.49 493.63 289.18C504.42 270.41 492.1 244.46 470.45 241.33C444.79 237.62 424.06 259.59 433.58 284.9C436.33 292.2 441.17 295.93 447.02 300.5C446.28 305.5 445.53 310.5 444.79 315.5C441.02 316.87 436.7 316.48 432.69 317.31C428.53 318.17 424.42 320.24 420.5 321.74C418.57 319.12 418.07 315.71 416.81 312.68C414.42 306.89 411.16 301.08 407.46 296.03C394.13 277.79 369.95 266.03 347.5 265.91C340.11 265.87 331.91 265.38 325.66 270.1C318.18 275.75 317.76 288.08 317.8 296.5C317.91 316.71 324.41 336.93 339.21 351.28C342.04 354.03 345.37 356.67 348.71 358.76C351.8 360.7 355.49 361.8 357.8 364.5C336.73 383.97 322.06 409.83 311.98 436.47C305.58 453.37 302.37 472.71 306.95 490.5C319.14 537.85 362.64 568.2 406.57 583.5C406.29 589.86 397.3 608.75 394.64 616.16C387.27 636.66 380.62 657.65 375.43 678.82C367.96 709.3 361.34 740.29 357.71 771.5C356.27 783.8 355.14 796.18 354.2 808.5C353.69 815.14 354.85 821.94 353.5 828.45C344.61 829.51 335.44 829.1 326.5 829.91C297.7 832.52 269.09 837.2 240.52 842.14C196.97 849.68 153.44 860.59 111.21 873.62C100.55 876.9 90.18 881.05 79.5 884.24C76.38 880.44 76.32 874.32 75.04 869.51C71.4 855.78 68.93 841.57 66.73 827.56C63.6 807.58 60.54 787.59 58.18 767.5C55.56 745.22 54.54 722.74 52.09 700.5C50.67 687.53 49.32 674.48 49.5 661.31C55.38 655.78 65.25 650.43 72.16 645.64C77.64 641.85 82.19 636.72 87.5 632.78C94.53 637.05 97.78 643.07 106.76 646.66C125.3 654.06 150.33 650.62 164.94 636.41C171.52 630.01 173.61 622.22 176.5 614.01C180.45 614.02 184.59 614.56 188.5 614.27C206.78 612.92 223.74 599.31 228.14 581.47C229.52 575.86 229.07 570.17 228.93 564.5C239.78 562.48 250.47 559.61 259.86 553.37C281.9 538.73 292.38 510.57 284.42 485.13C282.01 477.43 277.88 470.08 272.07 464.44C269.15 461.6 265.11 459.51 262.7 456.5C267.05 452.05 271.17 448.34 274.33 442.79C286.83 420.76 284.19 391.65 268.69 371.77C263.84 365.57 258.05 360.37 251.52 355.96C248.77 354.1 245.64 352.76 243.23 350.5C259.31 311.38 232.81 273.22 194.22 263.4C184.88 261.03 174.11 260.45 164.53 261.28C159.84 261.69 155.16 262.99 150.5 263.05C146.27 242.17 135.97 239.08 118.51 231.5C116.13 223.29 113.97 215.36 109.52 207.97C96.35 186.11 72.16 172.36 47.27 168.41C31.02 165.84 16.13 168.07 0.17 170.06C0.19 113.46 0.22 56.85 0.25 0.25ZM336.15 147.5C334.49 134.58 331.71 121.39 320.83 112.7C306.95 101.6 284.9 98.99 268.98 107.51C263.81 110.28 260.21 114.31 256.5 118.7C252.4 116 249.35 112.64 244.46 111.03C227.57 105.5 208.37 111.54 200.55 128.04C197.89 133.67 197.54 139.44 196.74 145.5C186.58 147.4 180.95 146.35 172.69 154.17C156.39 169.61 159.59 196.69 176.02 210.49C187.81 220.39 206.75 220.37 219.5 212.78C223.29 215.09 226.62 218.01 230.92 219.52C244.17 224.14 254.81 220.98 266.5 214.83C280.24 226.29 299.18 224.28 312.5 213.54C320.5 216.91 328.18 219.78 337.2 218.53C366.32 214.5 383.08 177.22 359.5 155.97C351.85 149.07 345.59 148.99 336.15 147.5ZM317.5 165.28C320.98 165.89 326.13 158.55 330.56 157.07C345.14 152.21 359.82 163.63 360.82 178.5C362.01 196.09 347.5 211.64 329.5 209.88C322.27 209.17 317.56 205.84 311.5 202.51C309.44 204.75 307.5 207.72 304.87 209.37C297.24 214.17 286.35 215.96 277.73 212.77C272.54 210.84 269.75 206.37 265.5 203.43C256.64 212.31 242.91 216.61 231.03 210.46C226.75 208.24 224.39 204.28 220.5 201.93C215.88 204.71 212.16 207.98 206.5 209.02C189.94 212.03 172.99 202.02 171.03 184.5C169.13 167.47 181.38 151.63 199.23 153.47C204.93 154.06 208.17 159.75 213.49 159.5C213.3 154.87 208.03 153.9 206.38 150.2C205.12 147.36 205.67 142.55 205.9 139.5C207.43 119.68 233.12 111.06 248.02 122.48C250.22 124.17 253.05 126.54 253.1 129.5C253.19 134.12 247.77 141.21 253.5 143.82C255.91 141.24 255.74 136.14 257.16 132.61C259.34 127.25 263.58 122.15 268.1 118.58C287.85 102.98 321.96 113.46 325.88 139.5C326.47 143.43 327.56 149.61 325.88 153.32C324.02 157.41 317.59 158.41 317.5 165.28ZM735.83 164.11C735.83 186.45 735.83 208.8 735.83 231.15C728.08 237.19 710.6 241.09 702.68 234.5C705.65 230.47 709.49 226.19 709.5 221.01C705.46 221.07 704.78 223.64 702.2 226.71C698.53 231.08 694.72 235.22 689.91 238.4C672.15 250.18 641.96 250.72 628.32 232.5C629.43 228.68 631.24 225.59 630.5 221.72C626.08 223.54 624.34 229.82 620.6 233.11C612.45 240.3 602.32 244.21 591.5 244.92C556.27 247.24 526.71 207.3 549.04 176.59C553.95 169.83 562.06 164.48 570.5 163.69C574.35 163.33 582.41 166.4 584.41 165.92C585.39 165.68 585.39 165.07 586.05 164.5C583.88 159.58 577.84 159.33 573.23 157.5C571.45 139.24 598.67 132.02 610.72 142.5C610.65 146.37 609.69 151.92 612.5 154.72C615.72 152.36 615.14 146.68 616.4 142.8C618.24 137.16 621.93 131.78 626.07 127.56C646.81 106.37 685.68 114.34 694.1 143.49C695.21 147.31 696.84 153.49 694.86 157.26C692.62 161.5 687.49 161.48 688.5 167.29C689.39 167.41 689.9 167.73 690.8 167.3C692.18 166.64 693.31 164.94 694.51 163.98C697.8 161.32 701.61 159.34 705.74 158.38C713.31 156.64 721.71 157.55 728.81 160.63C731.26 161.7 733.33 163.35 735.83 164.11ZM0.17 958.96C0.17 956.35 0.17 953.74 0.17 951.14C8.41 949.6 15.52 940.86 19.43 933.91C31.12 913.14 28.99 886.42 26.7 863.54C25.07 847.2 22.65 830.9 21.64 814.5C20.91 802.85 21.19 791.19 20.61 779.53C19.18 751.1 17.72 722 18.83 693.5C19.15 685.14 20.18 676.84 20.77 668.5C22.38 645.88 28.14 623.63 31.56 601.25C34.03 585.11 33.46 567.58 32.38 551.35C31.87 543.54 32.48 534.61 30.5 527.1C29.45 528.42 30.15 526.37 29.45 527.81C28.71 529.33 29.65 531.91 29.78 533.51C30.2 538.51 30.44 543.49 30.68 548.5C31.5 565.76 31.82 583.32 29.9 600.5C29.14 607.26 27.19 613.81 26.11 620.51C23.76 635.08 20.55 649.8 18.94 664.5C15.99 691.47 16.98 718.42 17.54 745.54C18.18 776.16 18.23 807.09 21.85 837.5C24.78 862.14 30.53 899.15 21.9 922.47C18.09 932.75 11.18 945.27 0.17 949.14C0.17 945.81 0.17 942.48 0.17 939.14C5.36 936.13 8.36 928.29 10.39 922.84C16.76 905.65 18.26 885.7 17.32 867.5C16.98 861 16.68 851.2 12.5 845.96C11.81 851.35 14.63 857 15.11 862.5C16.87 882.55 16.16 913.21 0.17 927.87C0.17 917.28 0.17 906.68 0.17 896.09C3.34 891.42 4.15 884.09 5.1 878.5C7.07 866.96 8.7 855.26 9.46 843.61C10.36 829.98 9.77 816.17 9.81 802.5C9.9 770.81 9.14 739.18 9.02 707.5C9 703.4 8.32 699.53 7.96 695.5C7.01 684.75 6.97 674.03 5.3 663.34C4.39 657.55 3.85 651.81 0.17 647.07C0.17 637.71 0.17 628.35 0.17 618.98C1.61 619.21 3.06 619.44 4.5 619.67C11.34 612.52 13.4 600.9 15.15 591.53C18.81 571.98 19.59 552.38 18.93 532.5C18.75 527.17 16.88 521.79 16.95 516.5C17.05 509.11 28.06 496.08 21.5 488.93C18.76 492.03 18.32 497.09 16.43 500.97C12.6 508.8 7.43 515.95 0.17 520.9C0.17 497.32 0.17 473.74 0.17 450.15C20.45 459.1 50.21 453.79 66.89 439.4C72.76 434.34 77.91 427.77 81.37 420.85C82.46 418.66 83.08 416.46 84.5 414.44C96.74 416.46 108.17 418.16 120.51 415.09C150.16 407.73 166.79 376.68 160.86 347.55C157.08 329.01 143.72 313.75 127.07 305.47C111.89 297.92 91.44 297.85 75.99 304.5C71.75 306.33 68.45 309.39 64.5 311.55C58.65 307.55 52.38 305.63 45.5 304.26C44.87 297.44 46.16 290.37 43.98 283.55C37.41 262.97 21.15 250.98 0.17 248C0.17 225.97 0.17 203.94 0.17 181.91C11.54 179.44 22.76 177.66 34.5 178.56C63.51 180.76 92.86 196.41 104.15 224.46C107.27 232.2 109.23 241.11 108.64 249.47C108.34 253.71 104.93 259.88 107.5 263.1C115.04 258.57 112.45 248.72 116.5 243.34C128.15 245.34 137.09 253.07 139.54 264.89C140.04 267.26 140.72 270.03 140.04 272.44C138.64 277.43 132.44 276.71 132.36 283.5C135.99 283.94 140.96 279.58 144.48 277.92C151.83 274.45 160.4 272.58 168.5 272.28C202.03 271.08 235.43 292.18 235.87 328.5C235.95 335.16 234.54 341.55 231.58 347.5C227.93 347.74 224.19 346.81 220.5 346.62C211.26 346.14 202.04 347.47 193.5 351.02C188.96 352.9 183.23 355.51 181.96 360.5C186.49 361.45 191.16 357.63 195.72 356.31C202.5 354.33 209.52 354.15 216.5 354.79C250.17 357.88 278.3 392.9 268.21 426.62C265.59 435.38 260.83 443.35 254.07 449.55C250.21 453.08 242.68 455.3 241.9 460.5C244.52 462.54 248.97 462.61 252.35 464.15C258.88 467.14 264.41 472.21 268.31 478.22C272.74 485.06 274.63 493.49 274.92 501.5C275.8 525.22 259.31 542.66 238.23 550.66C229.79 553.86 220.42 554.06 211.52 552.82C207.73 552.29 202.46 547.5 199.48 550.5C201.51 557.22 210.21 556.81 214.86 560.66C217.09 562.52 217.55 567.81 217.74 570.52C219.15 591.12 191.79 610.49 172.88 601.54C170.76 600.54 169.19 598.37 167.5 596.82C165.16 599.64 166.62 602.53 166.38 606.5C166.06 611.76 164.58 616.81 161.75 621.26C148.75 641.74 110.47 647.18 97.02 624.5C100.18 619.62 105.59 616.34 109.51 612.01C114.54 606.43 118.36 599.35 123.5 594.14C138.4 597.88 152.51 594.84 163.54 584.01C166.97 580.65 174.08 571.58 169.82 567.5C166.73 568.33 164.72 574.37 162.41 576.9C155.18 584.81 136.37 595.52 126.59 587.5C131.36 577.9 136.07 567.34 136.84 556.5C137.21 551.35 135.94 544.96 130.64 542.79C126.02 540.89 121.29 543.5 119.26 547.75C114.91 556.86 113.81 568.38 107.5 576.4C106 569.29 108.14 552.36 97.44 551.18C86.34 549.96 88.95 561.26 85.18 564.6C75.36 573.32 58.38 575 46.5 570.9C45.83 556.27 45.17 541.65 44.5 527.02C51.98 530.9 58.21 536.39 66.55 538.94C87.22 545.27 113.42 541.28 129.02 525.53C133.27 521.24 135.9 515.68 139.5 511.07C143.88 512.78 147.6 516.43 152.04 518.44C158.07 521.17 164.89 522.68 171.5 522.99C205.42 524.59 235 498.06 226.58 462.8C224.24 452.99 217.61 444.73 208.04 441.49C203.15 439.83 196.91 438.51 193.81 443.5C196.56 445.46 199.66 444.56 202.92 445.53C210.32 447.76 215.74 453.85 218.58 460.87C227.99 484.17 210.77 507.59 188.46 513.97C171.6 518.79 154.98 514.22 141.69 503.5C141.82 498.76 144.05 490.13 140.5 486.45C137.89 488.85 138.43 493.97 137.8 497.43C136.7 503.45 133.26 510.07 129.15 514.65C108.08 538.1 73.49 540.49 48.99 520.52C45.25 517.48 42.09 512.89 39.75 508.71C38.03 505.66 37.51 502.17 34.5 500.25C30.03 504.67 36.58 513.68 37.55 518.8C38.23 522.35 36.74 526.78 36.88 530.5C37.3 541.49 37.88 552.48 37.96 563.5C38.16 591.47 38.07 619.58 39.21 647.5C39.89 664.16 39.16 680.87 40.17 697.5C41.11 712.81 42.57 728.18 44.02 743.5C44.65 750.11 46.97 758.09 45.5 764.36C41.04 758 39.5 749.14 37.66 741.71C31.81 718.13 30.36 692.8 31.03 668.5C31.26 660.23 33.76 650.55 32.13 642.5C29.08 645.03 30.29 654.4 30.08 658.5C29.31 673.59 29.51 688.38 30.09 703.5C30.78 721.16 34.38 738.39 39.27 755.31C40.26 758.71 41.46 762.21 43.08 765.37C44.67 768.47 46.73 769.85 47.22 773.5C51.12 802.36 54.73 831.15 60.66 859.69C63.55 873.58 66 888.06 72.68 900.8C78.87 912.6 88.45 920.81 100.74 925.72C107.45 928.41 119.45 929.04 123.42 935.5C120.3 942.4 111.23 942.79 104.5 942.61C91.19 942.25 61.75 936.89 53.4 925.5C54.71 909.59 55.19 893.81 54.52 877.79C54.3 872.62 55.48 864.7 52.5 860.68C51.6 867.12 52.41 873.98 52.69 880.5C53.68 903.32 54.91 930.07 35.3 945.83C30.73 949.51 25.45 952.33 20.08 954.59C13.43 957.38 7.31 958.46 0.17 958.96ZM460.58 254.38C485.57 250.72 493.9 287.39 467.49 291C442.33 294.44 436.82 257.86 460.58 254.38ZM0.17 255.02C22.28 258.23 42.37 277.71 38.24 301.5C37.07 308.23 28.9 307.88 29.5 314.39C33.24 314.74 38.16 310.79 43.5 310.8C52.87 310.81 61.59 315.98 67.94 322.56C70.34 325.05 71.9 328.28 74.5 330.34C78.16 325.47 71.61 320.74 69.11 316.5C74.23 311.47 82.42 308.86 89.35 307.67C109.98 304.12 130.57 311.33 143.68 327.79C161.04 349.58 158.04 378.97 137.82 397.35C131.78 402.83 124.13 406.84 116.18 408.62C105.95 410.9 95.5 410.67 85.5 407.47C85.5 402.78 85.5 398.09 85.5 393.41C81.35 394.42 82.4 399.2 81.47 402.9C79.71 409.98 76.35 417.54 71.88 423.35C54.2 446.33 26.68 451.54 0.17 442.09C0.17 379.73 0.17 317.37 0.17 255.02ZM409.26 336.5C405.34 338.2 401.42 339.89 397.5 341.59C387.32 324.16 384.52 311.23 365.92 299.59C361.58 296.88 351.97 291.38 347.38 295.89C343.5 299.7 345.45 307.04 346.82 311.55C350.99 325.22 360.41 336.77 373.04 343.44C377.17 345.63 385.01 346.42 387.58 349.5C385.16 350.91 381.89 354.07 379.23 354.64C374.6 355.65 368.5 352.98 364.26 351.3C346.03 344.03 335.19 326.22 331.89 307.5C330.84 301.58 329.48 286.31 334.01 281.55C338.75 276.57 354.54 279.4 360.51 280.91C386 287.36 407.51 309.89 409.26 336.5ZM554.74 279.31C576.54 274.18 587.48 308.24 568.14 316.56C548.51 325.02 528.41 297.72 546.57 283.06C548.95 281.14 551.76 280.01 554.74 279.31ZM463.5 295.23C465.63 301.48 464.32 309.85 464.34 316.5C464.34 318.32 465.04 321.78 464.01 323.37C462.92 325.04 460.2 324.56 458.63 324.5C456.5 318.35 458.79 309.96 459.27 303.5C459.4 301.65 458.71 297.99 459.72 296.38C460.68 294.84 461.91 295.29 463.5 295.23ZM393.58 344.5C389.53 345.57 385.19 343.7 381.31 342.26C369.47 337.88 358.77 327.41 353.48 316.02C351.01 310.68 347.92 303.8 351.34 298.5C367.32 299.98 381.77 320.17 388.3 333.24C390.12 336.89 393.11 340.5 393.58 344.5ZM546.5 318.68C548.37 319.62 550.23 320.56 552.1 321.5C547.54 330.17 542.98 338.83 538.42 347.5C536.15 346.17 533.88 344.83 531.62 343.5C536.58 335.23 541.54 326.95 546.5 318.68ZM434.22 575.5C448.86 573.9 460.06 573.46 472.23 563.68C494.23 545.99 493.27 511.93 478.37 490.14C467.23 473.84 451.18 462.15 432.45 456.1C425.5 453.86 418.43 453.95 411.5 452.33C412.14 450.35 413.54 449.11 414.72 447.28C417.86 442.42 419.75 436.69 420.48 430.98C422.12 418.22 416 401.77 401.85 399.54C397.01 398.78 392.96 400.56 388.5 402C387.32 398.56 385.67 395.33 382.5 393.66C379.5 397.83 382.8 401.67 385.26 405.5C378.97 410.63 378.41 402.16 373.5 399.96C368.04 404.12 375.41 409.24 379.27 411.5C374.46 423.74 367.3 432.18 374.3 446.23C376.37 450.39 380.74 452.7 382.72 456.5C357.83 464.21 340.1 485.54 344.08 512.5C344.86 517.73 346.19 523.28 348.46 528.08C349.96 531.23 353.05 534.57 353.5 537.84C345.12 533.07 338.67 524.01 333.29 516.22C326.01 505.69 320.86 493.23 319.24 480.46C314.48 442.94 341.98 398.64 367.27 372.78C375.35 364.51 383.54 357.06 393.27 350.76C403.66 344.04 424.53 331.98 436.76 331.5C434.3 334.71 430.42 337 429.79 341.51C428.79 348.65 436.59 351.92 442.5 351.73C451.53 351.42 465.66 345.25 466.12 334.5C466.23 331.98 464.76 329.81 464.01 327.5C481.99 328.08 500.67 330.46 517.15 338.38C519.87 339.68 523.36 340.92 525.72 342.8C529.15 345.55 531.87 349.57 536.09 351.39C537.83 352.14 539.5 351.65 541.26 352.23C545.26 353.57 554.54 362.4 557.95 365.54C573.71 380.05 586.47 401.15 593.06 421.5C600.48 444.46 599.88 471.75 594.48 494.99C588.66 520.01 574.03 545.42 552.5 560.01C530.89 574.64 503.18 580.92 477.5 581.09C465.33 581.17 445.2 580.94 434.22 575.5ZM460.66 329.5C467.11 342.05 441.5 353.43 434.04 343.5C434.8 332.34 451.4 327.05 460.66 329.5ZM487.72 341.41C474.75 342.94 463.37 357.04 469.5 370C476.1 383.97 500.63 391.34 513.83 383.33C521.69 378.56 522.24 369.38 518.77 361.66C513.7 350.35 500.64 339.9 487.72 341.41ZM486.61 346.33C497.67 344.15 507.88 352.39 513.3 361.25C516.61 366.66 518.28 373.52 512.55 378.06C502.52 385.99 479.38 379.07 473.61 367.92C468.65 358.31 477.2 348.18 486.61 346.33ZM587.09 395.5C592.67 395.65 597.94 400.58 603.67 401.67C618.05 404.4 633.06 402.1 645.22 393.67C650.35 390.1 655.87 384.98 656.13 378.5C652.58 373.18 645.42 372.05 639.53 370.88C623.55 367.7 603.95 372.49 591.06 382.56C588.24 384.75 586.1 387.74 583.5 390.14C580.82 386.93 578.15 383.71 575.47 380.5C592.7 355.17 624.42 347.35 652.41 358.14C659.39 360.83 675.27 367.99 676.19 376.5C677.02 384.25 669.23 391.82 664.58 397.09C650.48 413.06 627.79 420.75 607.21 413.38C598.87 410.39 589.65 404.48 587.09 395.5ZM433.79 357.48C425.81 358.09 423.06 366.4 426.57 372.92C429.92 379.15 439.55 381.58 445.61 378.15C456.49 371.98 442.63 356.81 433.79 357.48ZM445.66 372.5C440.05 378.57 425.58 372.45 429.12 364.68C433.12 355.91 445.29 365.96 445.66 372.5ZM409.89 370.5C405.48 361.68 391.05 368.36 388.5 375.86C392.61 381.91 407.77 377.03 409.89 370.5ZM651.76 379.5C650.71 384.88 644.21 388.49 639.73 391.23C627.46 398.73 612.39 400.35 598.87 395.57C595.31 394.31 591.76 393.29 589.14 390.5C599.89 379.34 616.44 374.84 631.5 374.83C638.41 374.82 646.02 375.26 651.76 379.5ZM544.5 421.9C548.11 414.68 539.12 400.05 530.5 404.09C526.78 410.67 537.08 424.66 544.5 421.9ZM387.62 408.19C400.96 404.52 402.2 426.79 389.5 427.27C379.54 427.65 379 410.56 387.62 408.19ZM529.5 445.08C523.14 438.51 523.37 431.04 511.19 429.49C487.77 426.52 473.79 459.65 482.54 477.97C491.36 496.42 514.24 493.21 524.32 477.81C526.33 474.73 528.06 471.03 529.04 467.48C529.92 464.32 529.82 461.21 531.47 458.5C536.25 458.74 540.91 459.79 542.25 454.5C538.31 451.47 532.33 456.36 530.28 450.5C534.21 447.49 538.84 450.08 539.96 443.5C536.19 440.38 533.43 444.2 529.5 445.08ZM497.8 438.35C509.54 433.63 513.75 453.99 503.25 456.7C491.72 459.67 487.42 442.53 497.8 438.35ZM338.58 440.22C316.08 443.32 322.37 476.81 345.1 470.51C363.38 465.45 357.73 437.58 338.58 440.22ZM336.6 445.26C350.35 442.18 359.44 458.86 345.88 465.38C330.16 472.93 320.85 448.78 336.6 445.26ZM401.72 456.47C406.93 455.99 411.63 456.77 416.74 457.57C441.41 461.41 463.82 475.14 476.78 496.73C489.04 517.15 486.75 548.31 465.73 562.25C428.49 586.94 367.28 562.27 351.23 522.28C336.9 486.56 368.77 459.53 401.72 456.47ZM407.5 485.7C410.72 476.11 396.64 473.56 396.33 482.5C398.48 482.77 400.28 481.67 402.41 482.19C404.55 482.71 405.36 484.99 407.5 485.7ZM440.5 495.8C446.4 488.8 430.08 480.46 427.89 491.5C430.86 491.92 431.26 490.45 433.44 490.48C436.75 490.52 438 494.61 440.5 495.8ZM385.5 492.77C378.05 491.04 380.16 499.64 381.54 503.99C384.06 512.01 390.83 519.43 398.2 523.32C410.54 529.85 426.5 529.55 438.88 523.4C442.81 521.45 445.32 517.41 449 515.51C450.69 514.64 451.4 514.93 452.67 513.5C451.36 510.71 449.44 508.95 446.5 508.14C443.26 512.1 442.98 514.44 437.77 517.27C423.62 524.96 403.63 522.9 392.55 510.93C389.38 507.49 385.46 502.33 385.24 497.41C385.16 495.76 385.63 494.44 385.5 492.77ZM526.8 494.4C516.51 496.98 511.43 508.74 516.5 518.03C520.93 526.14 531.41 530.49 540.31 527.78C551.37 524.41 553.47 510.68 547.54 501.95C542.86 495.06 534.83 492.4 526.8 494.4ZM530.79 498.43C545.64 497.14 553.88 519.48 537.98 523.46C520.13 527.93 509.75 500.25 530.79 498.43ZM0.17 575.12C0.17 560.05 0.17 544.97 0.17 529.9C3.28 527.97 6.39 526.03 9.5 524.1C10.89 529.2 10.25 535.16 10.26 540.5C10.26 551.11 10.65 562.15 7.91 572.5C5.33 573.37 2.75 574.25 0.17 575.12ZM23.5 547.14C22.36 551.46 23.35 555.17 23.74 559.51C24.19 564.4 24.11 569.6 23.71 574.49C22 595.14 17.32 617.15 12.67 637.37C11.13 644.03 9.81 650.74 8.99 657.5C8.77 659.3 7.95 662.58 9.19 664.24C10.32 665.76 9.03 663.53 10.5 664.74C11.8 658.16 11.75 651.19 13.05 644.53C17.4 622.37 23.54 600.14 24.98 577.5C25.43 570.37 25.5 563.6 24.99 556.5C24.76 553.24 25.43 549.41 23.5 547.14ZM128.5 548.81C130.71 551.96 129.93 554.92 129.13 558.53C127.35 566.59 124.33 574.54 120.29 581.77C108.45 603.01 88.06 618.04 69.1 632.59C62.45 637.69 52.48 646.74 44.76 649.05C44.76 643.87 44.76 638.68 44.76 633.5C49.32 628.76 56.9 625.66 62.7 622.21C68.88 618.54 75 614.55 80.69 610.16C83.88 607.7 88.37 605.47 90.18 601.65C94 593.56 92.47 579.4 92.68 570.5C92.79 565.8 92.27 560.27 96.5 557.57C97.22 558.14 97.89 558.25 98.41 559.09C99.56 560.92 99.2 564.38 99.37 566.48C99.83 572.31 100.07 578.16 100.5 583.99C100.73 587.09 100.19 590.51 102.5 592.61C111.51 589.14 118.98 571.9 121.61 563.21C123.1 558.28 123.18 550.52 128.5 548.81ZM85.96 573.5C86.82 576.07 86.29 578.74 86.17 581.5C85.99 585.42 86.1 590.43 84.53 594.11C82.48 598.95 68.58 606.41 63.89 609.4C58.98 612.53 53.47 617.14 47.82 617.89C47.82 605.43 47.82 592.96 47.82 580.5C56.37 580.46 64.01 581.15 72.44 578.83C77.04 577.56 81.45 574.29 85.96 573.5ZM0.17 606.98C0.17 599.33 0.17 591.67 0.17 584.02C2.44 583.85 4.71 583.67 6.98 583.5C6.2 590.69 4.35 600.99 0.17 606.98ZM492.98 593.5C492.22 601.89 490.09 610.13 489.11 618.51C487.8 629.74 487.92 641.19 488.06 652.5C488.14 659.8 488.46 667.22 489.01 674.5C489.55 681.72 491.19 689.25 490.5 696.43C486.27 696.57 482.47 697.19 478.5 698.95C465.01 704.96 462.52 721.58 468.75 733.74C475.71 747.34 492.86 753.79 506.5 746.09C510.4 749.62 512.73 755.05 516.59 758.9C523.89 766.17 532.12 769.02 541.84 771.5C540.09 784.75 536.74 795.75 545.96 807.49C559.65 824.9 588.4 821.64 600.47 803.96C604.79 797.64 605.13 791.36 605.5 783.97C616.33 785.82 635.33 801.65 640.22 811.5C629.98 815.25 620.81 818.19 614.48 827.97C602.8 846.03 611.04 873.65 632.56 879.92C637.55 881.37 643.11 881.72 648.2 880.57C650.37 880.08 652.3 878.85 654.51 878.5C655.85 888.85 653.8 900.26 652.17 910.53C649.81 925.45 647.32 940.34 644.59 955.21C643.52 961.07 642.56 966.96 641.45 972.81C641.02 975.03 641.19 978.39 639.86 980.3C638.14 982.78 627.84 986.38 624.72 987.3C610.53 991.44 586.22 992.6 574.13 982.5C573.53 978.2 574.22 973.85 573.75 969.54C572.36 956.77 571.82 942.56 573.35 929.66C573.94 924.72 575.34 919.44 577.45 914.93C579.1 911.39 582.09 908.92 581.5 905.04C571.78 906.04 569.77 927.62 568.5 935.27C566.17 935.27 563.83 935.27 561.5 935.27C558.44 928.04 561.9 917.2 556.5 909.92C553.58 912.74 555.21 914.75 555.73 918.56C556.49 924.1 556.57 929.91 556.69 935.5C556.91 946.51 556.21 957.5 555.99 968.5C555.92 972.01 556.95 978.36 555.05 981.44C553.61 983.78 549.68 984.67 547.33 985.8C539.33 989.64 530.41 992.48 521.5 993.17C511.34 993.96 500.32 993.76 490.43 991.2C487.51 990.45 482.23 989.7 480.66 986.83C478.35 982.62 478.27 976 477.4 971.3C475.23 959.68 473.68 948.01 471.19 936.46C470.17 931.71 468.11 919.89 463.5 918.26C461.3 922.69 465.1 928.81 465.93 933.5C456.92 934.84 437.88 928.42 429.99 923.48C427.51 921.93 418.48 914.63 416.23 914.52C415.32 914.48 415.25 914.99 414.5 915.35C414.57 919.09 419.83 922.57 422.82 924.64C433.03 931.69 444.12 935.28 455.96 938.5C457.29 943.47 456.03 948.46 455.64 953.5C454.92 962.84 454.36 972.23 452.98 981.5C437.96 990.79 417.29 992.47 400.39 988.25C396.95 987.4 387.62 984.91 385.63 981.89C383.99 979.4 384.15 975.41 383.7 972.58C382.61 965.55 381.38 958.51 380.19 951.5C377.11 933.22 375.05 914.76 371.93 896.5C370.57 888.54 367.7 876.16 369.42 868.5C375.4 871.87 379.71 876.14 386.76 877.6C407.94 882 431.44 870.35 434.18 847.5C436.71 826.39 425.39 803.98 407.11 793.4C395.48 786.67 380.57 784.7 369.5 793.48C367.82 786.13 371.06 769.63 372.37 761.5C381.25 760.46 389.67 759.88 396.51 753.03C410.47 739.05 417.81 705.3 400.07 691.43C396.42 688.57 391.83 687.19 387.5 686.13C387.78 678.65 390.81 670.62 392.96 663.45C395.23 655.85 396.86 647.65 400.5 640.59C408.51 640.54 416.69 639.88 423.24 634.7C439.15 622.14 434.36 603.68 417.5 595.51C418.43 592.5 419.36 589.5 420.28 586.5C424.42 586.44 428.46 588.12 432.51 588.91C440.74 590.53 449.18 592.02 457.51 592.72C464.77 593.32 472.21 593.63 479.5 593.31C484.04 593.11 488.61 592.34 492.98 593.5ZM520.57 588.5C520.46 597.27 510.03 601.67 502.5 602.89C503.17 599.27 503.83 595.66 504.5 592.04C509.86 590.86 515.22 589.68 520.57 588.5ZM415.5 600.9C423.83 601.58 430.53 611.23 428.03 619.46C424.93 629.68 413.09 637.98 402.5 634.84C406.83 623.53 411.17 612.22 415.5 600.9ZM502.5 607.29C507.87 608.25 511.72 613.44 514.88 617.66C524.15 630.05 524.7 650.06 512 660.5C508.66 663.25 504.48 664.77 500.5 666.27C498.09 654.51 499.43 634.91 499.96 622.5C500.15 618.11 499.37 610.55 502.5 607.29ZM460.72 623.28C436.83 629.84 438.93 678.95 468.42 675.68C488.06 673.51 485.53 645.23 478.75 632.75C475.1 626.03 468.79 621.06 460.72 623.28ZM461.68 628.2C468.25 625.97 472.6 631.11 475.21 636.34C479.69 645.33 483.44 668.86 468.44 670.76C445.1 673.72 442.69 634.65 461.68 628.2ZM512.5 727.25C507.93 715.99 505.86 703.55 503.67 691.65C502.4 684.8 500.57 677.44 501.17 670.5C506.65 669.73 512.06 673.91 516 677.5C527.12 687.63 530.6 706.59 521.77 719.28C519.33 722.79 516.61 726.17 512.5 727.25ZM374.5 756.17C373.17 750.68 375.11 744.16 375.89 738.5C377.76 724.92 380.83 703.89 386.01 691.5C396.04 689.93 402.58 700.5 404.51 709C407.56 722.44 403.01 737.41 394.15 747.68C389.37 753.23 382.04 758.06 374.5 756.17ZM491.5 701.05C494.37 708.84 495.98 717.25 498.34 725.24C499.98 730.82 502.55 736.05 504.53 741.5C499.9 745.89 492.04 744.8 486.49 742.96C469.23 737.26 462.98 710.45 481.92 702.45C485.09 701.11 488.12 700.75 491.5 701.05ZM514.5 732.19C524.46 731.84 534.04 744.06 530.5 753.67C523.31 750.86 516.86 739.21 514.5 732.19ZM439.68 738.29C422.79 743.35 423.48 776.07 444.5 772.08C464.96 768.2 458.12 732.76 439.68 738.29ZM441.76 742.35C446.74 741.27 450.12 745.66 451.57 749.9C454.27 757.79 450.57 768.46 440.53 767.73C427.84 766.81 430.87 744.71 441.76 742.35ZM25.5 743.69C24.19 750.83 27.35 759.4 28.74 766.55C31.75 782.05 34.57 797.75 35.82 813.51C37.6 835.93 37.1 859.01 36.86 881.5C36.77 889.24 34.02 900.09 35.5 907.06C37.9 903.78 37.83 898.59 38.16 894.5C38.89 885.49 38.85 876.54 38.85 867.5C38.84 836.32 38.11 805.72 32.51 774.99C31.14 767.44 29.58 759.98 27.88 752.5C27.16 749.31 27.3 746.21 25.5 743.69ZM501.68 767.32C482.03 771.45 494.62 805.46 514.13 796.58C530.14 789.28 516.84 764.14 501.68 767.32ZM502.74 771.32C513.64 768.78 524.22 789.32 511.38 792.88C498.68 796.4 489.09 774.5 502.74 771.32ZM547.5 771.93C563.91 771.69 584.85 775.25 600.05 781.5C605.21 794.66 592.56 808.22 580.93 812.42C562.4 819.12 543.83 805.93 543.92 786.5C543.94 781.66 544.68 775.84 547.5 771.93ZM383.67 792.39C406.62 790.03 426.71 814.48 428.83 835.5C430.45 851.62 425.34 865.79 408.82 871.32C398.31 874.84 385.22 873.69 376.1 867.42C374.15 866.07 370.37 864.45 369.28 862.26C366.04 855.76 367.72 836.4 367.71 828.5C367.7 814.5 364.77 794.34 383.67 792.39ZM642.5 816.04C650.14 825.53 654.48 847.55 654.81 859.5C655.08 869.11 656.56 875.52 644.5 876.29C625.44 877.52 609.62 858.46 614.43 839.78C617.74 826.92 629.99 818.08 642.5 816.04ZM725.3 826.5C720.73 827.75 716.17 829 711.6 830.24C716.23 830.24 720.87 830.24 725.5 830.24C721.61 842.66 697.15 856.9 689.2 841.5C691.76 839.17 694.32 836.83 696.88 834.5C694.37 830.22 690.68 831.59 686.5 830.23C688.8 810.81 715.6 816.88 725.3 826.5ZM518.77 822.42C503.75 825.19 492.51 838.66 497.49 854.09C503.34 872.24 523.22 884.93 541.86 878.36C556 873.38 559.39 855.25 554.67 842.78C549.31 828.63 533.74 819.65 518.77 822.42ZM519.71 827.34C531.64 825.12 543.67 831.7 549.26 842.27C554.47 852.16 552.58 867.72 541.39 872.92C528.46 878.92 514.15 871.8 506.6 860.89C499.01 849.95 498.34 837.88 511.05 830.56C513.62 829.08 516.78 827.88 519.71 827.34ZM692.63 833.5C691.32 837.09 687.35 838.29 683.7 839.32C674.23 842 662.44 837.49 659.47 827.5C663.67 827.81 667.59 832.37 671.72 833.74C678.33 835.95 685.92 834.76 692.63 833.5ZM353.68 837.5C354.39 843.47 353.65 849.5 354.1 855.5C355.04 868.2 356.23 880.85 357.94 893.5C358.78 899.71 359.34 906.18 360.51 912.32C361.26 916.24 362.63 919.96 361.5 923.81C348.81 922.1 336.27 919.15 323.5 917.77C267.64 911.75 211.88 906.98 155.5 907.86C142.81 908.05 130.14 909.09 117.5 910.05C110.33 910.6 103.05 913.42 96.12 910.4C89.42 907.48 85.16 899.8 82.27 893.5C86.13 889.42 95.13 887.86 100.51 886.02C115.96 880.73 131.71 876.21 147.43 871.78C193.99 858.68 241.59 849.21 289.48 842.79C305.44 840.65 321.37 838.17 337.5 837.71C342.83 837.56 348.43 836.61 353.68 837.5ZM735.83 844.95C735.83 890 735.83 935.04 735.83 980.09C732.82 979.56 729.8 979.03 726.79 978.5C725.92 975.98 725.71 973.34 724.61 970.82C721.21 963.02 712.94 961.77 705.5 963.99C698.06 949.28 688.47 946.41 676.5 959.13C673.09 957.12 669.63 955.03 665.5 955.02C662.9 955.01 660.62 955.82 658.18 955.5C658.69 949.1 660.39 942.56 661.56 936.22C664.36 921.06 666.88 905.79 668.32 890.5C669.13 881.88 668.9 873.16 668.74 864.5C668.66 860.41 667.76 855.79 668.5 851.99C671.55 852.97 674.24 853.99 677.5 854.28C679.24 854.43 681.17 854.11 682.86 854.6C686.07 855.54 688.53 858.53 691.81 859.62C700.8 862.61 710.77 861.11 718.91 856.43C724.39 853.28 727.96 848.66 732.5 844.5C733.61 844.65 734.72 844.8 735.83 844.95ZM102.19 931.5C94.7 929.47 88.65 929.4 81.38 925.08C77.46 922.75 69.01 914.4 66.27 913.5C66.99 921.57 84.13 930.24 91.45 932.2C95.2 933.2 99.41 934.1 102.19 931.5ZM735.83 1009.97C735.81 1041.23 735.78 1072.49 735.75 1103.75C490.58 1103.75 245.42 1103.75 0.25 1103.75C0.22 1059.14 0.19 1014.52 0.17 969.91C24.65 967.62 39.52 960.9 53.5 940.43C58.05 941.71 62.39 944.73 66.87 946.55C81.08 952.32 102.39 955.7 117.44 952.79C129.73 950.42 142.25 938.45 130.99 926.51C128.63 924 125.13 922.74 122 921.5C125.4 920.48 128.73 921.16 132.24 920.6C146.48 918.3 161.08 919.29 175.5 919.31C189.61 919.33 203.45 920.26 217.5 920.76C246.7 921.81 275.61 923.35 304.67 926.63C318.97 928.24 333.34 929.29 347.5 931.94C352.91 932.95 359.13 933.06 364.06 935.5C368.3 956.73 371.11 978.23 375.12 999.5C377.38 1011.47 381.11 1026.29 391.46 1034.04C401.16 1041.31 412.81 1042.04 424.5 1041.85C435.06 1041.67 446.27 1038.32 453.5 1030.28C455.88 1031 457.55 1032.54 459.81 1033.64C466.28 1036.82 474.7 1036.89 481.5 1034.98C485.45 1038.16 489.42 1041.56 494.28 1043.28C501.07 1045.69 508.38 1045.95 515.5 1045.95C530 1045.96 544.2 1044.3 554.5 1033.07C559.07 1032.74 563.75 1034.29 568.5 1034.24C570.87 1034.21 573.84 1032.86 576.07 1033.48C578.01 1034.02 579.85 1035.94 581.63 1036.89C585.49 1038.95 590.2 1040.34 594.52 1040.92C615.72 1043.77 636.63 1037.84 645.44 1016.92C649.95 1006.22 649.55 994.75 653.17 984.5C660.13 984.01 668.8 988.03 675.53 990C695.91 995.97 715.64 1003.55 735.83 1009.97ZM735.83 988.91C735.83 992.29 735.83 995.67 735.83 999.05C726.82 996.45 718.09 992.39 709.18 989.41C700.31 986.45 691.22 983.99 682.24 981.37C674.4 979.09 661.3 977.43 655.07 972.5C655.64 970.37 656.02 967.61 657.25 965.74C660.61 960.59 667.82 960.85 672.05 964.47C674.88 966.9 675.63 970.78 678.5 972.86C679.66 970.24 679.71 967.27 681.21 964.72C686.89 955.05 697.33 958.99 699.83 968.64C700.72 972.09 698.83 976.05 701.5 978.57C702.99 976.71 703.34 974.22 704.99 972.48C710.95 966.17 719.74 971.98 719.95 979.5C720.05 983.39 717.64 985.72 719.21 989.5C726.64 985.94 727.31 983.49 735.83 988.91ZM176.5 984.52C173.07 980.85 170.47 973.33 166.72 968.75C165.15 966.83 163.43 965.45 161.39 964.07C155.24 959.91 148.98 961.92 146.46 968.92C143.59 976.94 143.91 986.19 144.89 994.5C145.28 997.91 146.11 1001.01 145.5 1004.24C137.81 1000.4 129.24 997.24 120.5 998.13C116.12 998.57 111.55 1000.57 111.26 1005.52C111 1009.88 113.95 1014.75 116.26 1018.27C123.25 1028.98 132.02 1038.3 143.82 1043.66C148.15 1045.63 156.74 1050.36 160.67 1046.5C158.4 1041.87 150.5 1039.99 146.15 1037.36C137.56 1032.18 121.26 1017.88 120.29 1007.5C123.78 1004.95 129.05 1006.48 133.01 1007.48C145.43 1010.63 155.49 1020.56 160.31 1032.22C162.31 1037.05 161.98 1043.23 166.5 1046.32C167.9 1044.66 166.74 1047.19 167.82 1045.32C168.59 1043.97 167.66 1030.45 167.88 1027.5C169.04 1012.11 178.2 985.5 195.5 981.74C196.55 986.52 195.2 991.73 194.28 996.56C192.22 1007.27 189.09 1017.79 183.99 1027.48C181.32 1032.54 174.53 1040.72 174.5 1046.12C179.42 1048.3 185.02 1045.15 189.7 1043.26C200.47 1038.91 210.26 1031.98 216.5 1022C218.49 1018.81 221.47 1014.43 221.28 1010.5C220.8 1000.47 206.12 1004.5 200.5 1006.18C200.41 1003.73 201.15 1001.83 201.71 999.39C203.74 990.57 208.57 968.45 191.88 973.45C189.78 974.07 187.71 975.25 185.86 976.41C182.3 978.64 180.06 982.37 176.5 984.52ZM155.5 970.99C161.95 973.44 165.94 980.7 168.83 986.66C169.73 988.5 171.71 991.18 171.54 993.29C171.22 997.25 166.49 1003.32 165.22 1007.62C164 1011.75 163.9 1018.87 161.5 1021.81C155.64 1010.79 152.94 998.96 152.73 986.5C152.65 981.54 152.1 974.83 155.5 970.99ZM467.26 990.05C463.34 987.42 464.69 981.45 467.26 978.5C467.26 982.35 467.26 986.2 467.26 990.05ZM452.08 986.42C452.08 989.78 452.08 993.14 452.08 996.5C448.59 997.61 445.35 999.37 441.82 1000.39C429.24 1004.02 416.37 1004.73 403.5 1002.04C394.03 1000.05 386.79 999.62 386.5 988.3C390.92 989.37 394.98 991.85 399.54 992.85C413.11 995.84 434.46 995.76 447.21 989.63C448.97 988.78 450.34 987.28 452.08 986.42ZM639.5 986.4C638.82 989.24 638.57 993.84 636.45 995.99C634.13 998.35 629.56 999.02 626.53 1000.06C616.33 1003.58 604.58 1004.31 593.98 1002.51C585.87 1001.13 572.56 1000.09 576.5 988.86C589.75 995.43 606.98 996.13 621.26 992.67C624.07 991.98 627.07 991.31 629.79 990.33C633.14 989.12 636.09 986.82 639.5 986.4ZM553.69 987.5C554.59 1000.27 549.08 1000.73 538.52 1003.97C525.99 1007.8 512.48 1008.64 499.55 1006.68C495.21 1006.02 488 1005.85 484.39 1003.11C481.92 1001.25 481.68 995.91 481.5 993.12C485.67 993.76 489.69 995.72 493.96 996.51C505.84 998.7 523.3 998.71 534.98 995.48C541.67 993.62 547.41 989.85 553.69 987.5ZM563.5 986.84C563.83 987.75 564.17 988.67 564.5 989.59C563.44 988.52 563.49 988.81 563.5 986.84ZM306.5 1016.6C315.66 1014.39 314.34 992.92 304.94 989.56C297.25 986.81 287.95 990.62 284.38 997.84C283.15 1000.32 282.77 1003.1 281.5 1005.53C276.96 1003.49 271.56 1002.81 267.14 1005.64C261.63 1009.18 263.02 1016.42 268.5 1018.77C270.08 1016.85 269.44 1015.3 269.5 1012.86C279.48 1005.81 280.34 1021.16 288.5 1018.04C290.14 1012.03 287.67 1005.33 292.46 999.96C295.61 996.44 301.84 995.54 304.37 1000.19C307.14 1005.3 304.6 1011.45 306.5 1016.6ZM464.5 992.92C466.3 993.37 468.2 993.54 469.3 995.26C471.2 998.24 470.84 1003.92 471.36 1007.33C472.13 1012.4 474.23 1017.47 474.53 1022.5C470.79 1022.71 463.17 1022.35 461.16 1018.27C459.77 1015.45 461.07 1012.17 461.64 1009.32C462.72 1003.84 462.81 998.28 464.5 992.92ZM563.5 996.07C563.77 996.39 564.41 996.28 564.6 996.65C565.78 998.89 567.02 1015.78 567.36 1019.5C565.71 1019.77 563.52 1020.59 561.99 1019.39C560.7 1018.36 561.72 1014.8 561.94 1013.5C562.93 1007.74 563.22 1001.91 563.5 996.07ZM450.5 1000.35C450.82 1003.17 449.96 1005.88 449.31 1008.7C445.74 1024.14 436.94 1028.79 421.5 1028.75C416.86 1028.73 411.94 1028.46 407.5 1027C398.49 1024.04 388.87 1011.89 390.5 1002.21C411.39 1009.24 430.25 1008.9 450.5 1000.35ZM635.5 1000.35C637.39 1007.09 629.21 1020.09 623.36 1023.9C613.93 1030.04 592.77 1030.33 584.4 1022.11C581.51 1019.27 580.05 1015.33 578.84 1011.57C577.82 1008.41 577.05 1005.21 577.5 1002.05C595.69 1008.12 617.98 1009.77 635.5 1000.35ZM551.5 1001.9C552.1 1005.08 551.27 1007.94 550.58 1011.19C546.69 1029.67 533.67 1033.2 516.5 1033.23C509.89 1033.24 502.75 1032.99 496.84 1029.63C489.11 1025.24 486.2 1015.56 484.5 1007.39C490.12 1007.81 495.76 1010.35 501.5 1011.08C515.6 1012.87 539.99 1011.13 551.5 1001.9ZM214.07 1011.5C208.64 1023.04 196.71 1032.7 185.5 1038.41C185.88 1035.26 188.23 1032.32 189.83 1029.34C194.49 1020.65 202.17 1007.61 214.07 1011.5ZM713.5 1043.3C724.74 1035.52 712.16 1016.16 699.88 1024.41C697.23 1026.19 695.7 1028.74 694.29 1031.5C690.33 1030.43 685.22 1028.28 681.96 1032.47C678.7 1036.65 683.73 1044.37 688.5 1044.37C687.92 1041.75 687.34 1039.12 686.76 1036.5C692.87 1035.95 692.08 1042.46 696.5 1045C701.23 1040.39 698.41 1030.14 707.5 1029.43C712.81 1033.19 711.53 1037.77 713.5 1043.3Z" fill="#f2f2f2" fill-rule="evenodd" stroke="#f2f2f2" stroke-width="0.25" stroke-linejoin="round"/>
<path d="M336.15 147.5C345.59 148.99 351.85 149.07 359.5 155.97C383.08 177.22 366.32 214.5 337.2 218.53C328.18 219.78 320.5 216.91 312.5 213.54C299.18 224.28 280.24 226.29 266.5 214.83C254.81 220.98 244.17 224.14 230.92 219.52C226.62 218.01 223.29 215.09 219.5 212.78C206.75 220.37 187.81 220.39 176.02 210.49C159.59 196.69 156.39 169.61 172.69 154.17C180.95 146.35 186.58 147.4 196.74 145.5C197.54 139.44 197.89 133.67 200.55 128.04C208.37 111.54 227.57 105.5 244.46 111.03C249.35 112.64 252.4 116 256.5 118.7C260.21 114.31 263.81 110.28 268.98 107.51C284.9 98.99 306.95 101.6 320.83 112.7C331.71 121.39 334.49 134.58 336.15 147.5ZM735.83 154.83C735.83 157.93 735.83 161.02 735.83 164.11C733.33 163.35 731.26 161.7 728.81 160.63C721.71 157.55 713.31 156.64 705.74 158.38C701.61 159.34 697.8 161.32 694.51 163.98C693.31 164.94 692.18 166.64 690.8 167.3C689.9 167.73 689.39 167.41 688.5 167.29C687.49 161.48 692.62 161.5 694.86 157.26C696.84 153.49 695.21 147.31 694.1 143.49C685.68 114.34 646.81 106.37 626.07 127.56C621.93 131.78 618.24 137.16 616.4 142.8C615.14 146.68 615.72 152.36 612.5 154.72C609.69 151.92 610.65 146.37 610.72 142.5C598.67 132.02 571.45 139.24 573.23 157.5C577.84 159.33 583.88 159.58 586.05 164.5C585.39 165.07 585.39 165.68 584.41 165.92C582.41 166.4 574.35 163.33 570.5 163.69C562.06 164.48 553.95 169.83 549.04 176.59C526.71 207.3 556.27 247.24 591.5 244.92C602.32 244.21 612.45 240.3 620.6 233.11C624.34 229.82 626.08 223.54 630.5 221.72C631.24 225.59 629.43 228.68 628.32 232.5C641.96 250.72 672.15 250.18 689.91 238.4C694.72 235.22 698.53 231.08 702.2 226.71C704.78 223.64 705.46 221.07 709.5 221.01C709.49 226.19 705.65 230.47 702.68 234.5C710.6 241.09 728.08 237.19 735.83 231.15C735.83 234.75 735.83 238.36 735.83 241.96C731.62 242.89 727.68 244.89 723.35 245.64C714.55 247.17 706.67 244.85 698.5 242.14C683.7 254.23 661.03 259.95 642.65 252.86C635.01 249.91 629.98 244.94 623.5 240.38C616.93 247.68 607.01 251.61 597.54 253.16C558.07 259.64 523.54 223.73 535.12 184.57C536.74 179.08 539.48 174.01 543.06 169.53C548.64 162.54 555.9 159.05 563.86 155.5C565.23 151.8 565.63 147.66 567.69 144.2C577.08 128.45 595.93 126.8 611.5 132.89C613.47 130.8 614.63 128.15 616.24 125.74C619.81 120.41 625.33 115.46 631.1 112.62C652.11 102.28 680.72 105.69 694.93 125.61C700.26 133.08 701.82 140.84 703.99 149.5C707.49 150.02 710.95 149.48 714.5 149.46C721.94 149.43 729.37 151.11 735.83 154.83ZM317.5 165.28C317.59 158.41 324.02 157.41 325.88 153.32C327.56 149.61 326.47 143.43 325.88 139.5C321.96 113.46 287.85 102.98 268.1 118.58C263.58 122.15 259.34 127.25 257.16 132.61C255.74 136.14 255.91 141.24 253.5 143.82C247.77 141.21 253.19 134.12 253.1 129.5C253.05 126.54 250.22 124.17 248.02 122.48C233.12 111.06 207.43 119.68 205.9 139.5C205.67 142.55 205.12 147.36 206.38 150.2C208.03 153.9 213.3 154.87 213.49 159.5C208.17 159.75 204.93 154.06 199.23 153.47C181.38 151.63 169.13 167.47 171.03 184.5C172.99 202.02 189.94 212.03 206.5 209.02C212.16 207.98 215.88 204.71 220.5 201.93C224.39 204.28 226.75 208.24 231.03 210.46C242.91 216.61 256.64 212.31 265.5 203.43C269.75 206.37 272.54 210.84 277.73 212.77C286.35 215.96 297.24 214.17 304.87 209.37C307.5 207.72 309.44 204.75 311.5 202.51C317.56 205.84 322.27 209.17 329.5 209.88C347.5 211.64 362.01 196.09 360.82 178.5C359.82 163.63 345.14 152.21 330.56 157.07C326.13 158.55 320.98 165.89 317.5 165.28ZM735.83 817.93C735.83 826.94 735.83 835.95 735.83 844.95C734.72 844.8 733.61 844.65 732.5 844.5C727.96 848.66 724.39 853.28 718.91 856.43C710.77 861.11 700.8 862.61 691.81 859.62C688.53 858.53 686.07 855.54 682.86 854.6C681.17 854.11 679.24 854.43 677.5 854.28C674.24 853.99 671.55 852.97 668.5 851.99C667.76 855.79 668.66 860.41 668.74 864.5C668.9 873.16 669.13 881.88 668.32 890.5C666.88 905.79 664.36 921.06 661.56 936.22C660.39 942.56 658.69 949.1 658.18 955.5C660.62 955.82 662.9 955.01 665.5 955.02C669.63 955.03 673.09 957.12 676.5 959.13C688.47 946.41 698.06 949.28 705.5 963.99C712.94 961.77 721.21 963.02 724.61 970.82C725.71 973.34 725.92 975.98 726.79 978.5C729.8 979.03 732.82 979.56 735.83 980.09C735.83 983.03 735.83 985.97 735.83 988.91C727.31 983.49 726.64 985.94 719.21 989.5C717.64 985.72 720.05 983.39 719.95 979.5C719.74 971.98 710.95 966.17 704.99 972.48C703.34 974.22 702.99 976.71 701.5 978.57C698.83 976.05 700.72 972.09 699.83 968.64C697.33 958.99 686.89 955.05 681.21 964.72C679.71 967.27 679.66 970.24 678.5 972.86C675.63 970.78 674.88 966.9 672.05 964.47C667.82 960.85 660.61 960.59 657.25 965.74C656.02 967.61 655.64 970.37 655.07 972.5C661.3 977.43 674.4 979.09 682.24 981.37C691.22 983.99 700.31 986.45 709.18 989.41C718.09 992.39 726.82 996.45 735.83 999.05C735.83 1002.69 735.83 1006.33 735.83 1009.97C715.64 1003.55 695.91 995.97 675.53 990C668.8 988.03 660.13 984.01 653.17 984.5C649.55 994.75 649.95 1006.22 645.44 1016.92C636.63 1037.84 615.72 1043.77 594.52 1040.92C590.2 1040.34 585.49 1038.95 581.63 1036.89C579.85 1035.94 578.01 1034.02 576.07 1033.48C573.84 1032.86 570.87 1034.21 568.5 1034.24C563.75 1034.29 559.07 1032.74 554.5 1033.07C544.2 1044.3 530 1045.96 515.5 1045.95C508.38 1045.95 501.07 1045.69 494.28 1043.28C489.42 1041.56 485.45 1038.16 481.5 1034.98C474.7 1036.89 466.28 1036.82 459.81 1033.64C457.55 1032.54 455.88 1031 453.5 1030.28C446.27 1038.32 435.06 1041.67 424.5 1041.85C412.81 1042.04 401.16 1041.31 391.46 1034.04C381.11 1026.29 377.38 1011.47 375.12 999.5C371.11 978.23 368.3 956.73 364.06 935.5C359.13 933.06 352.91 932.95 347.5 931.94C333.34 929.29 318.97 928.24 304.67 926.63C275.61 923.35 246.7 921.81 217.5 920.76C203.45 920.26 189.61 919.33 175.5 919.31C161.08 919.29 146.48 918.3 132.24 920.6C128.73 921.16 125.4 920.48 122 921.5C125.13 922.74 128.63 924 130.99 926.51C142.25 938.45 129.73 950.42 117.44 952.79C102.39 955.7 81.08 952.32 66.87 946.55C62.39 944.73 58.05 941.71 53.5 940.43C39.52 960.9 24.65 967.62 0.17 969.91C0.17 966.26 0.17 962.61 0.17 958.96C7.31 958.46 13.43 957.38 20.08 954.59C25.45 952.33 30.73 949.51 35.3 945.83C54.91 930.07 53.68 903.32 52.69 880.5C52.41 873.98 51.6 867.12 52.5 860.68C55.48 864.7 54.3 872.62 54.52 877.79C55.19 893.81 54.71 909.59 53.4 925.5C61.75 936.89 91.19 942.25 104.5 942.61C111.23 942.79 120.3 942.4 123.42 935.5C119.45 929.04 107.45 928.41 100.74 925.72C88.45 920.81 78.87 912.6 72.68 900.8C66 888.06 63.55 873.58 60.66 859.69C54.73 831.15 51.12 802.36 47.22 773.5C46.73 769.85 44.67 768.47 43.08 765.37C41.46 762.21 40.26 758.71 39.27 755.31C34.38 738.39 30.78 721.16 30.09 703.5C29.51 688.38 29.31 673.59 30.08 658.5C30.29 654.4 29.08 645.03 32.13 642.5C33.76 650.55 31.26 660.23 31.03 668.5C30.36 692.8 31.81 718.13 37.66 741.71C39.5 749.14 41.04 758 45.5 764.36C46.97 758.09 44.65 750.11 44.02 743.5C42.57 728.18 41.11 712.81 40.17 697.5C39.16 680.87 39.89 664.16 39.21 647.5C38.07 619.58 38.16 591.47 37.96 563.5C37.88 552.48 37.3 541.49 36.88 530.5C36.74 526.78 38.23 522.35 37.55 518.8C36.58 513.68 30.03 504.67 34.5 500.25C37.51 502.17 38.03 505.66 39.75 508.71C42.09 512.89 45.25 517.48 48.99 520.52C73.49 540.49 108.08 538.1 129.15 514.65C133.26 510.07 136.7 503.45 137.8 497.43C138.43 493.97 137.89 488.85 140.5 486.45C144.05 490.13 141.82 498.76 141.69 503.5C154.98 514.22 171.6 518.79 188.46 513.97C210.77 507.59 227.99 484.17 218.58 460.87C215.74 453.85 210.32 447.76 202.92 445.53C199.66 444.56 196.56 445.46 193.81 443.5C196.91 438.51 203.15 439.83 208.04 441.49C217.61 444.73 224.24 452.99 226.58 462.8C235 498.06 205.42 524.59 171.5 522.99C164.89 522.68 158.07 521.17 152.04 518.44C147.6 516.43 143.88 512.78 139.5 511.07C135.9 515.68 133.27 521.24 129.02 525.53C113.42 541.28 87.22 545.27 66.55 538.94C58.21 536.39 51.98 530.9 44.5 527.02C45.17 541.65 45.83 556.27 46.5 570.9C58.38 575 75.36 573.32 85.18 564.6C88.95 561.26 86.34 549.96 97.44 551.18C108.14 552.36 106 569.29 107.5 576.4C113.81 568.38 114.91 556.86 119.26 547.75C121.29 543.5 126.02 540.89 130.64 542.79C135.94 544.96 137.21 551.35 136.84 556.5C136.07 567.34 131.36 577.9 126.59 587.5C136.37 595.52 155.18 584.81 162.41 576.9C164.72 574.37 166.73 568.33 169.82 567.5C174.08 571.58 166.97 580.65 163.54 584.01C152.51 594.84 138.4 597.88 123.5 594.14C118.36 599.35 114.54 606.43 109.51 612.01C105.59 616.34 100.18 619.62 97.02 624.5C110.47 647.18 148.75 641.74 161.75 621.26C164.58 616.81 166.06 611.76 166.38 606.5C166.62 602.53 165.16 599.64 167.5 596.82C169.19 598.37 170.76 600.54 172.88 601.54C191.79 610.49 219.15 591.12 217.74 570.52C217.55 567.81 217.09 562.52 214.86 560.66C210.21 556.81 201.51 557.22 199.48 550.5C202.46 547.5 207.73 552.29 211.52 552.82C220.42 554.06 229.79 553.86 238.23 550.66C259.31 542.66 275.8 525.22 274.92 501.5C274.63 493.49 272.74 485.06 268.31 478.22C264.41 472.21 258.88 467.14 252.35 464.15C248.97 462.61 244.52 462.54 241.9 460.5C242.68 455.3 250.21 453.08 254.07 449.55C260.83 443.35 265.59 435.38 268.21 426.62C278.3 392.9 250.17 357.88 216.5 354.79C209.52 354.15 202.5 354.33 195.72 356.31C191.16 357.63 186.49 361.45 181.96 360.5C183.23 355.51 188.96 352.9 193.5 351.02C202.04 347.47 211.26 346.14 220.5 346.62C224.19 346.81 227.93 347.74 231.58 347.5C234.54 341.55 235.95 335.16 235.87 328.5C235.43 292.18 202.03 271.08 168.5 272.28C160.4 272.58 151.83 274.45 144.48 277.92C140.96 279.58 135.99 283.94 132.36 283.5C132.44 276.71 138.64 277.43 140.04 272.44C140.72 270.03 140.04 267.26 139.54 264.89C137.09 253.07 128.15 245.34 116.5 243.34C112.45 248.72 115.04 258.57 107.5 263.1C104.93 259.88 108.34 253.71 108.64 249.47C109.23 241.11 107.27 232.2 104.15 224.46C92.86 196.41 63.51 180.76 34.5 178.56C22.76 177.66 11.54 179.44 0.17 181.91C0.17 177.96 0.17 174.01 0.17 170.06C16.13 168.07 31.02 165.84 47.27 168.41C72.16 172.36 96.35 186.11 109.52 207.97C113.97 215.36 116.13 223.29 118.51 231.5C135.97 239.08 146.27 242.17 150.5 263.05C155.16 262.99 159.84 261.69 164.53 261.28C174.11 260.45 184.88 261.03 194.22 263.4C232.81 273.22 259.31 311.38 243.23 350.5C245.64 352.76 248.77 354.1 251.52 355.96C258.05 360.37 263.84 365.57 268.69 371.77C284.19 391.65 286.83 420.76 274.33 442.79C271.17 448.34 267.05 452.05 262.7 456.5C265.11 459.51 269.15 461.6 272.07 464.44C277.88 470.08 282.01 477.43 284.42 485.13C292.38 510.57 281.9 538.73 259.86 553.37C250.47 559.61 239.78 562.48 228.93 564.5C229.07 570.17 229.52 575.86 228.14 581.47C223.74 599.31 206.78 612.92 188.5 614.27C184.59 614.56 180.45 614.02 176.5 614.01C173.61 622.22 171.52 630.01 164.94 636.41C150.33 650.62 125.3 654.06 106.76 646.66C97.78 643.07 94.53 637.05 87.5 632.78C82.19 636.72 77.64 641.85 72.16 645.64C65.25 650.43 55.38 655.78 49.5 661.31C49.32 674.48 50.67 687.53 52.09 700.5C54.54 722.74 55.56 745.22 58.18 767.5C60.54 787.59 63.6 807.58 66.73 827.56C68.93 841.57 71.4 855.78 75.04 869.51C76.32 874.32 76.38 880.44 79.5 884.24C90.18 881.05 100.55 876.9 111.21 873.62C153.44 860.59 196.97 849.68 240.52 842.14C269.09 837.2 297.7 832.52 326.5 829.91C335.44 829.1 344.61 829.51 353.5 828.45C354.85 821.94 353.69 815.14 354.2 808.5C355.14 796.18 356.27 783.8 357.71 771.5C361.34 740.29 367.96 709.3 375.43 678.82C380.62 657.65 387.27 636.66 394.64 616.16C397.3 608.75 406.29 589.86 406.57 583.5C362.64 568.2 319.14 537.85 306.95 490.5C302.37 472.71 305.58 453.37 311.98 436.47C322.06 409.83 336.73 383.97 357.8 364.5C355.49 361.8 351.8 360.7 348.71 358.76C345.37 356.67 342.04 354.03 339.21 351.28C324.41 336.93 317.91 316.71 317.8 296.5C317.76 288.08 318.18 275.75 325.66 270.1C331.91 265.38 340.11 265.87 347.5 265.91C369.95 266.03 394.13 277.79 407.46 296.03C411.16 301.08 414.42 306.89 416.81 312.68C418.07 315.71 418.57 319.12 420.5 321.74C424.42 320.24 428.53 318.17 432.69 317.31C436.7 316.48 441.02 316.87 444.79 315.5C445.53 310.5 446.28 305.5 447.02 300.5C441.17 295.93 436.33 292.2 433.58 284.9C424.06 259.59 444.79 237.62 470.45 241.33C492.1 244.46 504.42 270.41 493.63 289.18C490.01 295.49 484.15 298.57 477.85 301.5C477.73 306.04 477.62 310.58 477.5 315.13C484.03 317.17 491.65 316.62 498.46 318.12C507.47 320.09 515.84 323.73 524.5 326.64C527 323.59 529.49 320.55 531.99 317.5C527.87 310.42 525.01 304.09 525.84 295.5C528.12 271.66 551.21 260 572.58 268.85C592.91 277.27 598.81 306.31 583.69 322.22C578.07 328.12 570.17 330.09 562.5 331.34C560.11 336.39 557.72 341.45 555.33 346.5C562.46 350.82 567.39 356.74 573.5 362.15C576.7 360.28 579.31 357.15 582.23 354.73C587.63 350.26 594.16 346.75 600.69 344.25C622.55 335.89 647.72 340.08 668 350.5C675.73 354.46 685.35 360.25 688.78 368.67C693.03 379.08 686.93 390.16 681.04 398.59C669.65 414.88 652.27 425.93 632.5 428.85C624.48 430.04 616.48 428.91 608.5 428.99C608.47 433.45 610.45 437.97 610.91 442.5C612.16 454.89 612.31 468.11 611 480.5C607.67 512.04 592.22 544.79 567.8 565.3C557.84 573.67 546.5 578.5 535.13 584.5C534.63 594.23 531.54 601.87 524.29 608.5C526.98 613.67 530.74 618.13 532.67 623.76C537.81 638.69 535.12 655.03 524 666.5C526.02 670.24 529.51 673.06 531.83 676.69C538.59 687.25 541.91 699.98 538.92 712.44C537.69 717.54 534.49 721.77 532.67 726.5C538.85 732.34 543.7 738.66 544.24 747.5C544.45 751 543.48 754.47 543.5 757.89C550.43 759.35 557.33 758.57 564.32 759.41C585.06 761.93 605.28 766.33 623.47 776.97C634.15 783.21 642.23 792 650.65 800.83C658.14 808.69 665.35 817.64 676.5 820.1C679.26 816 681.03 811.81 685.38 808.9C696.4 801.52 711.66 803.87 722.82 809.65C727.4 812.03 731.4 815.33 735.83 817.93ZM0.17 248C21.15 250.98 37.41 262.97 43.98 283.55C46.16 290.37 44.87 297.44 45.5 304.26C52.38 305.63 58.65 307.55 64.5 311.55C68.45 309.39 71.75 306.33 75.99 304.5C91.44 297.85 111.89 297.92 127.07 305.47C143.72 313.75 157.08 329.01 160.86 347.55C166.79 376.68 150.16 407.73 120.51 415.09C108.17 418.16 96.74 416.46 84.5 414.44C83.08 416.46 82.46 418.66 81.37 420.85C77.91 427.77 72.76 434.34 66.89 439.4C50.21 453.79 20.45 459.1 0.17 450.15C0.17 447.47 0.17 444.78 0.17 442.09C26.68 451.54 54.2 446.33 71.88 423.35C76.35 417.54 79.71 409.98 81.47 402.9C82.4 399.2 81.35 394.42 85.5 393.41C85.5 398.09 85.5 402.78 85.5 407.47C95.5 410.67 105.95 410.9 116.18 408.62C124.13 406.84 131.78 402.83 137.82 397.35C158.04 378.97 161.04 349.58 143.68 327.79C130.57 311.33 109.98 304.12 89.35 307.67C82.42 308.86 74.23 311.47 69.11 316.5C71.61 320.74 78.16 325.47 74.5 330.34C71.9 328.28 70.34 325.05 67.94 322.56C61.59 315.98 52.87 310.81 43.5 310.8C38.16 310.79 33.24 314.74 29.5 314.39C28.9 307.88 37.07 308.23 38.24 301.5C42.37 277.71 22.28 258.23 0.17 255.02C0.17 252.68 0.17 250.34 0.17 248ZM460.58 254.38C436.82 257.86 442.33 294.44 467.49 291C493.9 287.39 485.57 250.72 460.58 254.38ZM409.26 336.5C407.51 309.89 386 287.36 360.51 280.91C354.54 279.4 338.75 276.57 334.01 281.55C329.48 286.31 330.84 301.58 331.89 307.5C335.19 326.22 346.03 344.03 364.26 351.3C368.5 352.98 374.6 355.65 379.23 354.64C381.89 354.07 385.16 350.91 387.58 349.5C385.01 346.42 377.17 345.63 373.04 343.44C360.41 336.77 350.99 325.22 346.82 311.55C345.45 307.04 343.5 299.7 347.38 295.89C351.97 291.38 361.58 296.88 365.92 299.59C384.52 311.23 387.32 324.16 397.5 341.59C401.42 339.89 405.34 338.2 409.26 336.5ZM554.74 279.31C551.76 280.01 548.95 281.14 546.57 283.06C528.41 297.72 548.51 325.02 568.14 316.56C587.48 308.24 576.54 274.18 554.74 279.31ZM463.5 295.23C461.91 295.29 460.68 294.84 459.72 296.38C458.71 297.99 459.4 301.65 459.27 303.5C458.79 309.96 456.5 318.35 458.63 324.5C460.2 324.56 462.92 325.04 464.01 323.37C465.04 321.78 464.34 318.32 464.34 316.5C464.32 309.85 465.63 301.48 463.5 295.23ZM393.58 344.5C393.11 340.5 390.12 336.89 388.3 333.24C381.77 320.17 367.32 299.98 351.34 298.5C347.92 303.8 351.01 310.68 353.48 316.02C358.77 327.41 369.47 337.88 381.31 342.26C385.19 343.7 389.53 345.57 393.58 344.5ZM546.5 318.68C541.54 326.95 536.58 335.23 531.62 343.5C533.88 344.83 536.15 346.17 538.42 347.5C542.98 338.83 547.54 330.17 552.1 321.5C550.23 320.56 548.37 319.62 546.5 318.68ZM434.22 575.5C445.2 580.94 465.33 581.17 477.5 581.09C503.18 580.92 530.89 574.64 552.5 560.01C574.03 545.42 588.66 520.01 594.48 494.99C599.88 471.75 600.48 444.46 593.06 421.5C586.47 401.15 573.71 380.05 557.95 365.54C554.54 362.4 545.26 353.57 541.26 352.23C539.5 351.65 537.83 352.14 536.09 351.39C531.87 349.57 529.15 345.55 525.72 342.8C523.36 340.92 519.87 339.68 517.15 338.38C500.67 330.46 481.99 328.08 464.01 327.5C464.76 329.81 466.23 331.98 466.12 334.5C465.66 345.25 451.53 351.42 442.5 351.73C436.59 351.92 428.79 348.65 429.79 341.51C430.42 337 434.3 334.71 436.76 331.5C424.53 331.98 403.66 344.04 393.27 350.76C383.54 357.06 375.35 364.51 367.27 372.78C341.98 398.64 314.48 442.94 319.24 480.46C320.86 493.23 326.01 505.69 333.29 516.22C338.67 524.01 345.12 533.07 353.5 537.84C353.05 534.57 349.96 531.23 348.46 528.08C346.19 523.28 344.86 517.73 344.08 512.5C340.1 485.54 357.83 464.21 382.72 456.5C380.74 452.7 376.37 450.39 374.3 446.23C367.3 432.18 374.46 423.74 379.27 411.5C375.41 409.24 368.04 404.12 373.5 399.96C378.41 402.16 378.97 410.63 385.26 405.5C382.8 401.67 379.5 397.83 382.5 393.66C385.67 395.33 387.32 398.56 388.5 402C392.96 400.56 397.01 398.78 401.85 399.54C416 401.77 422.12 418.22 420.48 430.98C419.75 436.69 417.86 442.42 414.72 447.28C413.54 449.11 412.14 450.35 411.5 452.33C418.43 453.95 425.5 453.86 432.45 456.1C451.18 462.15 467.23 473.84 478.37 490.14C493.27 511.93 494.23 545.99 472.23 563.68C460.06 573.46 448.86 573.9 434.22 575.5ZM460.66 329.5C451.4 327.05 434.8 332.34 434.04 343.5C441.5 353.43 467.11 342.05 460.66 329.5ZM487.72 341.41C500.64 339.9 513.7 350.35 518.77 361.66C522.24 369.38 521.69 378.56 513.83 383.33C500.63 391.34 476.1 383.97 469.5 370C463.37 357.04 474.75 342.94 487.72 341.41ZM486.61 346.33C477.2 348.18 468.65 358.31 473.61 367.92C479.38 379.07 502.52 385.99 512.55 378.06C518.28 373.52 516.61 366.66 513.3 361.25C507.88 352.39 497.67 344.15 486.61 346.33ZM587.09 395.5C589.65 404.48 598.87 410.39 607.21 413.38C627.79 420.75 650.48 413.06 664.58 397.09C669.23 391.82 677.02 384.25 676.19 376.5C675.27 367.99 659.39 360.83 652.41 358.14C624.42 347.35 592.7 355.17 575.47 380.5C578.15 383.71 580.82 386.93 583.5 390.14C586.1 387.74 588.24 384.75 591.06 382.56C603.95 372.49 623.55 367.7 639.53 370.88C645.42 372.05 652.58 373.18 656.13 378.5C655.87 384.98 650.35 390.1 645.22 393.67C633.06 402.1 618.05 404.4 603.67 401.67C597.94 400.58 592.67 395.65 587.09 395.5ZM433.79 357.48C442.63 356.81 456.49 371.98 445.61 378.15C439.55 381.58 429.92 379.15 426.57 372.92C423.06 366.4 425.81 358.09 433.79 357.48ZM445.66 372.5C445.29 365.96 433.12 355.91 429.12 364.68C425.58 372.45 440.05 378.57 445.66 372.5ZM409.89 370.5C407.77 377.03 392.61 381.91 388.5 375.86C391.05 368.36 405.48 361.68 409.89 370.5ZM651.76 379.5C646.02 375.26 638.41 374.82 631.5 374.83C616.44 374.84 599.89 379.34 589.14 390.5C591.76 393.29 595.31 394.31 598.87 395.57C612.39 400.35 627.46 398.73 639.73 391.23C644.21 388.49 650.71 384.88 651.76 379.5ZM544.5 421.9C537.08 424.66 526.78 410.67 530.5 404.09C539.12 400.05 548.11 414.68 544.5 421.9ZM387.62 408.19C379 410.56 379.54 427.65 389.5 427.27C402.2 426.79 400.96 404.52 387.62 408.19ZM529.5 445.08C533.43 444.2 536.19 440.38 539.96 443.5C538.84 450.08 534.21 447.49 530.28 450.5C532.33 456.36 538.31 451.47 542.25 454.5C540.91 459.79 536.25 458.74 531.47 458.5C529.82 461.21 529.92 464.32 529.04 467.48C528.06 471.03 526.33 474.73 524.32 477.81C514.24 493.21 491.36 496.42 482.54 477.97C473.79 459.65 487.77 426.52 511.19 429.49C523.37 431.04 523.14 438.51 529.5 445.08ZM497.8 438.35C487.42 442.53 491.72 459.67 503.25 456.7C513.75 453.99 509.54 433.63 497.8 438.35ZM338.58 440.22C357.73 437.58 363.38 465.45 345.1 470.51C322.37 476.81 316.08 443.32 338.58 440.22ZM336.6 445.26C320.85 448.78 330.16 472.93 345.88 465.38C359.44 458.86 350.35 442.18 336.6 445.26ZM401.72 456.47C368.77 459.53 336.9 486.56 351.23 522.28C367.28 562.27 428.49 586.94 465.73 562.25C486.75 548.31 489.04 517.15 476.78 496.73C463.82 475.14 441.41 461.41 416.74 457.57C411.63 456.77 406.93 455.99 401.72 456.47ZM407.5 485.7C405.36 484.99 404.55 482.71 402.41 482.19C400.28 481.67 398.48 482.77 396.33 482.5C396.64 473.56 410.72 476.11 407.5 485.7ZM440.5 495.8C438 494.61 436.75 490.52 433.44 490.48C431.26 490.45 430.86 491.92 427.89 491.5C430.08 480.46 446.4 488.8 440.5 495.8ZM0.17 618.98C0.17 614.98 0.17 610.98 0.17 606.98C4.35 600.99 6.2 590.69 6.98 583.5C4.71 583.67 2.44 583.85 0.17 584.02C0.17 581.06 0.17 578.09 0.17 575.12C2.75 574.25 5.33 573.37 7.91 572.5C10.65 562.15 10.26 551.11 10.26 540.5C10.25 535.16 10.89 529.2 9.5 524.1C6.39 526.03 3.28 527.97 0.17 529.9C0.17 526.9 0.17 523.9 0.17 520.9C7.43 515.95 12.6 508.8 16.43 500.97C18.32 497.09 18.76 492.03 21.5 488.93C28.06 496.08 17.05 509.11 16.95 516.5C16.88 521.79 18.75 527.17 18.93 532.5C19.59 552.38 18.81 571.98 15.15 591.53C13.4 600.9 11.34 612.52 4.5 619.67C3.06 619.44 1.61 619.21 0.17 618.98ZM385.5 492.77C385.63 494.44 385.16 495.76 385.24 497.41C385.46 502.33 389.38 507.49 392.55 510.93C403.63 522.9 423.62 524.96 437.77 517.27C442.98 514.44 443.26 512.1 446.5 508.14C449.44 508.95 451.36 510.71 452.67 513.5C451.4 514.93 450.69 514.64 449 515.51C445.32 517.41 442.81 521.45 438.88 523.4C426.5 529.55 410.54 529.85 398.2 523.32C390.83 519.43 384.06 512.01 381.54 503.99C380.16 499.64 378.05 491.04 385.5 492.77ZM526.8 494.4C534.83 492.4 542.86 495.06 547.54 501.95C553.47 510.68 551.37 524.41 540.31 527.78C531.41 530.49 520.93 526.14 516.5 518.03C511.43 508.74 516.51 496.98 526.8 494.4ZM530.79 498.43C509.75 500.25 520.13 527.93 537.98 523.46C553.88 519.48 545.64 497.14 530.79 498.43ZM0.17 951.14C0.17 950.47 0.17 949.81 0.17 949.14C11.18 945.27 18.09 932.75 21.9 922.47C30.53 899.15 24.78 862.14 21.85 837.5C18.23 807.09 18.18 776.16 17.54 745.54C16.98 718.42 15.99 691.47 18.94 664.5C20.55 649.8 23.76 635.08 26.11 620.51C27.19 613.81 29.14 607.26 29.9 600.5C31.82 583.32 31.5 565.76 30.68 548.5C30.44 543.49 30.2 538.51 29.78 533.51C29.65 531.91 28.71 529.33 29.45 527.81C30.15 526.37 29.45 528.42 30.5 527.1C32.48 534.61 31.87 543.54 32.38 551.35C33.46 567.58 34.03 585.11 31.56 601.25C28.14 623.63 22.38 645.88 20.77 668.5C20.18 676.84 19.15 685.14 18.83 693.5C17.72 722 19.18 751.1 20.61 779.53C21.19 791.19 20.91 802.85 21.64 814.5C22.65 830.9 25.07 847.2 26.7 863.54C28.99 886.42 31.12 913.14 19.43 933.91C15.52 940.86 8.41 949.6 0.17 951.14ZM23.5 547.14C25.43 549.41 24.76 553.24 24.99 556.5C25.5 563.6 25.43 570.37 24.98 577.5C23.54 600.14 17.4 622.37 13.05 644.53C11.75 651.19 11.8 658.16 10.5 664.74C9.03 663.53 10.32 665.76 9.19 664.24C7.95 662.58 8.77 659.3 8.99 657.5C9.81 650.74 11.13 644.03 12.67 637.37C17.32 617.15 22 595.14 23.71 574.49C24.11 569.6 24.19 564.4 23.74 559.51C23.35 555.17 22.36 551.46 23.5 547.14ZM128.5 548.81C123.18 550.52 123.1 558.28 121.61 563.21C118.98 571.9 111.51 589.14 102.5 592.61C100.19 590.51 100.73 587.09 100.5 583.99C100.07 578.16 99.83 572.31 99.37 566.48C99.2 564.38 99.56 560.92 98.41 559.09C97.89 558.25 97.22 558.14 96.5 557.57C92.27 560.27 92.79 565.8 92.68 570.5C92.47 579.4 94 593.56 90.18 601.65C88.37 605.47 83.88 607.7 80.69 610.16C75 614.55 68.88 618.54 62.7 622.21C56.9 625.66 49.32 628.76 44.76 633.5C44.76 638.68 44.76 643.87 44.76 649.05C52.48 646.74 62.45 637.69 69.1 632.59C88.06 618.04 108.45 603.01 120.29 581.77C124.33 574.54 127.35 566.59 129.13 558.53C129.93 554.92 130.71 551.96 128.5 548.81ZM85.96 573.5C81.45 574.29 77.04 577.56 72.44 578.83C64.01 581.15 56.37 580.46 47.82 580.5C47.82 592.96 47.82 605.43 47.82 617.89C53.47 617.14 58.98 612.53 63.89 609.4C68.58 606.41 82.48 598.95 84.53 594.11C86.1 590.43 85.99 585.42 86.17 581.5C86.29 578.74 86.82 576.07 85.96 573.5ZM492.98 593.5C488.61 592.34 484.04 593.11 479.5 593.31C472.21 593.63 464.77 593.32 457.51 592.72C449.18 592.02 440.74 590.53 432.51 588.91C428.46 588.12 424.42 586.44 420.28 586.5C419.36 589.5 418.43 592.5 417.5 595.51C434.36 603.68 439.15 622.14 423.24 634.7C416.69 639.88 408.51 640.54 400.5 640.59C396.86 647.65 395.23 655.85 392.96 663.45C390.81 670.62 387.78 678.65 387.5 686.13C391.83 687.19 396.42 688.57 400.07 691.43C417.81 705.3 410.47 739.05 396.51 753.03C389.67 759.88 381.25 760.46 372.37 761.5C371.06 769.63 367.82 786.13 369.5 793.48C380.57 784.7 395.48 786.67 407.11 793.4C425.39 803.98 436.71 826.39 434.18 847.5C431.44 870.35 407.94 882 386.76 877.6C379.71 876.14 375.4 871.87 369.42 868.5C367.7 876.16 370.57 888.54 371.93 896.5C375.05 914.76 377.11 933.22 380.19 951.5C381.38 958.51 382.61 965.55 383.7 972.58C384.15 975.41 383.99 979.4 385.63 981.89C387.62 984.91 396.95 987.4 400.39 988.25C417.29 992.47 437.96 990.79 452.98 981.5C454.36 972.23 454.92 962.84 455.64 953.5C456.03 948.46 457.29 943.47 455.96 938.5C444.12 935.28 433.03 931.69 422.82 924.64C419.83 922.57 414.57 919.09 414.5 915.35C415.25 914.99 415.32 914.48 416.23 914.52C418.48 914.63 427.51 921.93 429.99 923.48C437.88 928.42 456.92 934.84 465.93 933.5C465.1 928.81 461.3 922.69 463.5 918.26C468.11 919.89 470.17 931.71 471.19 936.46C473.68 948.01 475.23 959.68 477.4 971.3C478.27 976 478.35 982.62 480.66 986.83C482.23 989.7 487.51 990.45 490.43 991.2C500.32 993.76 511.34 993.96 521.5 993.17C530.41 992.48 539.33 989.64 547.33 985.8C549.68 984.67 553.61 983.78 555.05 981.44C556.95 978.36 555.92 972.01 555.99 968.5C556.21 957.5 556.91 946.51 556.69 935.5C556.57 929.91 556.49 924.1 555.73 918.56C555.21 914.75 553.58 912.74 556.5 909.92C561.9 917.2 558.44 928.04 561.5 935.27C563.83 935.27 566.17 935.27 568.5 935.27C569.77 927.62 571.78 906.04 581.5 905.04C582.09 908.92 579.1 911.39 577.45 914.93C575.34 919.44 573.94 924.72 573.35 929.66C571.82 942.56 572.36 956.77 573.75 969.54C574.22 973.85 573.53 978.2 574.13 982.5C586.22 992.6 610.53 991.44 624.72 987.3C627.84 986.38 638.14 982.78 639.86 980.3C641.19 978.39 641.02 975.03 641.45 972.81C642.56 966.96 643.52 961.07 644.59 955.21C647.32 940.34 649.81 925.45 652.17 910.53C653.8 900.26 655.85 888.85 654.51 878.5C652.3 878.85 650.37 880.08 648.2 880.57C643.11 881.72 637.55 881.37 632.56 879.92C611.04 873.65 602.8 846.03 614.48 827.97C620.81 818.19 629.98 815.25 640.22 811.5C635.33 801.65 616.33 785.82 605.5 783.97C605.13 791.36 604.79 797.64 600.47 803.96C588.4 821.64 559.65 824.9 545.96 807.49C536.74 795.75 540.09 784.75 541.84 771.5C532.12 769.02 523.89 766.17 516.59 758.9C512.73 755.05 510.4 749.62 506.5 746.09C492.86 753.79 475.71 747.34 468.75 733.74C462.52 721.58 465.01 704.96 478.5 698.95C482.47 697.19 486.27 696.57 490.5 696.43C491.19 689.25 489.55 681.72 489.01 674.5C488.46 667.22 488.14 659.8 488.06 652.5C487.92 641.19 487.8 629.74 489.11 618.51C490.09 610.13 492.22 601.89 492.98 593.5ZM520.57 588.5C515.22 589.68 509.86 590.86 504.5 592.04C503.83 595.66 503.17 599.27 502.5 602.89C510.03 601.67 520.46 597.27 520.57 588.5ZM415.5 600.9C411.17 612.22 406.83 623.53 402.5 634.84C413.09 637.98 424.93 629.68 428.03 619.46C430.53 611.23 423.83 601.58 415.5 600.9ZM502.5 607.29C499.37 610.55 500.15 618.11 499.96 622.5C499.43 634.91 498.09 654.51 500.5 666.27C504.48 664.77 508.66 663.25 512 660.5C524.7 650.06 524.15 630.05 514.88 617.66C511.72 613.44 507.87 608.25 502.5 607.29ZM460.72 623.28C468.79 621.06 475.1 626.03 478.75 632.75C485.53 645.23 488.06 673.51 468.42 675.68C438.93 678.95 436.83 629.84 460.72 623.28ZM461.68 628.2C442.69 634.65 445.1 673.72 468.44 670.76C483.44 668.86 479.69 645.33 475.21 636.34C472.6 631.11 468.25 625.97 461.68 628.2ZM0.17 647.07C3.85 651.81 4.39 657.55 5.3 663.34C6.97 674.03 7.01 684.75 7.96 695.5C8.32 699.53 9 703.4 9.02 707.5C9.14 739.18 9.9 770.81 9.81 802.5C9.77 816.17 10.36 829.98 9.46 843.61C8.7 855.26 7.07 866.96 5.1 878.5C4.15 884.09 3.34 891.42 0.17 896.09C0.17 813.08 0.17 730.08 0.17 647.07ZM512.5 727.25C516.61 726.17 519.33 722.79 521.77 719.28C530.6 706.59 527.12 687.63 516 677.5C512.06 673.91 506.65 669.73 501.17 670.5C500.57 677.44 502.4 684.8 503.67 691.65C505.86 703.55 507.93 715.99 512.5 727.25ZM374.5 756.17C382.04 758.06 389.37 753.23 394.15 747.68C403.01 737.41 407.56 722.44 404.51 709C402.58 700.5 396.04 689.93 386.01 691.5C380.83 703.89 377.76 724.92 375.89 738.5C375.11 744.16 373.17 750.68 374.5 756.17ZM491.5 701.05C488.12 700.75 485.09 701.11 481.92 702.45C462.98 710.45 469.23 737.26 486.49 742.96C492.04 744.8 499.9 745.89 504.53 741.5C502.55 736.05 499.98 730.82 498.34 725.24C495.98 717.25 494.37 708.84 491.5 701.05ZM514.5 732.19C516.86 739.21 523.31 750.86 530.5 753.67C534.04 744.06 524.46 731.84 514.5 732.19ZM439.68 738.29C458.12 732.76 464.96 768.2 444.5 772.08C423.48 776.07 422.79 743.35 439.68 738.29ZM441.76 742.35C430.87 744.71 427.84 766.81 440.53 767.73C450.57 768.46 454.27 757.79 451.57 749.9C450.12 745.66 446.74 741.27 441.76 742.35ZM25.5 743.69C27.3 746.21 27.16 749.31 27.88 752.5C29.58 759.98 31.14 767.44 32.51 774.99C38.11 805.72 38.84 836.32 38.85 867.5C38.85 876.54 38.89 885.49 38.16 894.5C37.83 898.59 37.9 903.78 35.5 907.06C34.02 900.09 36.77 889.24 36.86 881.5C37.1 859.01 37.6 835.93 35.82 813.51C34.57 797.75 31.75 782.05 28.74 766.55C27.35 759.4 24.19 750.83 25.5 743.69ZM501.68 767.32C516.84 764.14 530.14 789.28 514.13 796.58C494.62 805.46 482.03 771.45 501.68 767.32ZM502.74 771.32C489.09 774.5 498.68 796.4 511.38 792.88C524.22 789.32 513.64 768.78 502.74 771.32ZM547.5 771.93C544.68 775.84 543.94 781.66 543.92 786.5C543.83 805.93 562.4 819.12 580.93 812.42C592.56 808.22 605.21 794.66 600.05 781.5C584.85 775.25 563.91 771.69 547.5 771.93ZM383.67 792.39C364.77 794.34 367.7 814.5 367.71 828.5C367.72 836.4 366.04 855.76 369.28 862.26C370.37 864.45 374.15 866.07 376.1 867.42C385.22 873.69 398.31 874.84 408.82 871.32C425.34 865.79 430.45 851.62 428.83 835.5C426.71 814.48 406.62 790.03 383.67 792.39ZM642.5 816.04C629.99 818.08 617.74 826.92 614.43 839.78C609.62 858.46 625.44 877.52 644.5 876.29C656.56 875.52 655.08 869.11 654.81 859.5C654.48 847.55 650.14 825.53 642.5 816.04ZM725.3 826.5C715.6 816.88 688.8 810.81 686.5 830.23C690.68 831.59 694.37 830.22 696.88 834.5C694.32 836.83 691.76 839.17 689.2 841.5C697.15 856.9 721.61 842.66 725.5 830.24C720.87 830.24 716.23 830.24 711.6 830.24C716.17 829 720.73 827.75 725.3 826.5ZM518.77 822.42C533.74 819.65 549.31 828.63 554.67 842.78C559.39 855.25 556 873.38 541.86 878.36C523.22 884.93 503.34 872.24 497.49 854.09C492.51 838.66 503.75 825.19 518.77 822.42ZM519.71 827.34C516.78 827.88 513.62 829.08 511.05 830.56C498.34 837.88 499.01 849.95 506.6 860.89C514.15 871.8 528.46 878.92 541.39 872.92C552.58 867.72 554.47 852.16 549.26 842.27C543.67 831.7 531.64 825.12 519.71 827.34ZM692.63 833.5C685.92 834.76 678.33 835.95 671.72 833.74C667.59 832.37 663.67 827.81 659.47 827.5C662.44 837.49 674.23 842 683.7 839.32C687.35 838.29 691.32 837.09 692.63 833.5ZM353.68 837.5C348.43 836.61 342.83 837.56 337.5 837.71C321.37 838.17 305.44 840.65 289.48 842.79C241.59 849.21 193.99 858.68 147.43 871.78C131.71 876.21 115.96 880.73 100.51 886.02C95.13 887.86 86.13 889.42 82.27 893.5C85.16 899.8 89.42 907.48 96.12 910.4C103.05 913.42 110.33 910.6 117.5 910.05C130.14 909.09 142.81 908.05 155.5 907.86C211.88 906.98 267.64 911.75 323.5 917.77C336.27 919.15 348.81 922.1 361.5 923.81C362.63 919.96 361.26 916.24 360.51 912.32C359.34 906.18 358.78 899.71 357.94 893.5C356.23 880.85 355.04 868.2 354.1 855.5C353.65 849.5 354.39 843.47 353.68 837.5ZM0.17 939.14C0.17 935.39 0.17 931.63 0.17 927.87C16.16 913.21 16.87 882.55 15.11 862.5C14.63 857 11.81 851.35 12.5 845.96C16.68 851.2 16.98 861 17.32 867.5C18.26 885.7 16.76 905.65 10.39 922.84C8.36 928.29 5.36 936.13 0.17 939.14ZM102.19 931.5C99.41 934.1 95.2 933.2 91.45 932.2C84.13 930.24 66.99 921.57 66.27 913.5C69.01 914.4 77.46 922.75 81.38 925.08C88.65 929.4 94.7 929.47 102.19 931.5ZM176.5 984.52C180.06 982.37 182.3 978.64 185.86 976.41C187.71 975.25 189.78 974.07 191.88 973.45C208.57 968.45 203.74 990.57 201.71 999.39C201.15 1001.83 200.41 1003.73 200.5 1006.18C206.12 1004.5 220.8 1000.47 221.28 1010.5C221.47 1014.43 218.49 1018.81 216.5 1022C210.26 1031.98 200.47 1038.91 189.7 1043.26C185.02 1045.15 179.42 1048.3 174.5 1046.12C174.53 1040.72 181.32 1032.54 183.99 1027.48C189.09 1017.79 192.22 1007.27 194.28 996.56C195.2 991.73 196.55 986.52 195.5 981.74C178.2 985.5 169.04 1012.11 167.88 1027.5C167.66 1030.45 168.59 1043.97 167.82 1045.32C166.74 1047.19 167.9 1044.66 166.5 1046.32C161.98 1043.23 162.31 1037.05 160.31 1032.22C155.49 1020.56 145.43 1010.63 133.01 1007.48C129.05 1006.48 123.78 1004.95 120.29 1007.5C121.26 1017.88 137.56 1032.18 146.15 1037.36C150.5 1039.99 158.4 1041.87 160.67 1046.5C156.74 1050.36 148.15 1045.63 143.82 1043.66C132.02 1038.3 123.25 1028.98 116.26 1018.27C113.95 1014.75 111 1009.88 111.26 1005.52C111.55 1000.57 116.12 998.57 120.5 998.13C129.24 997.24 137.81 1000.4 145.5 1004.24C146.11 1001.01 145.28 997.91 144.89 994.5C143.91 986.19 143.59 976.94 146.46 968.92C148.98 961.92 155.24 959.91 161.39 964.07C163.43 965.45 165.15 966.83 166.72 968.75C170.47 973.33 173.07 980.85 176.5 984.52ZM155.5 970.99C152.1 974.83 152.65 981.54 152.73 986.5C152.94 998.96 155.64 1010.79 161.5 1021.81C163.9 1018.87 164 1011.75 165.22 1007.62C166.49 1003.32 171.22 997.25 171.54 993.29C171.71 991.18 169.73 988.5 168.83 986.66C165.94 980.7 161.95 973.44 155.5 970.99ZM467.26 990.05C467.26 986.2 467.26 982.35 467.26 978.5C464.69 981.45 463.34 987.42 467.26 990.05ZM452.08 986.42C450.34 987.28 448.97 988.78 447.21 989.63C434.46 995.76 413.11 995.84 399.54 992.85C394.98 991.85 390.92 989.37 386.5 988.3C386.79 999.62 394.03 1000.05 403.5 1002.04C416.37 1004.73 429.24 1004.02 441.82 1000.39C445.35 999.37 448.59 997.61 452.08 996.5C452.08 993.14 452.08 989.78 452.08 986.42ZM639.5 986.4C636.09 986.82 633.14 989.12 629.79 990.33C627.07 991.31 624.07 991.98 621.26 992.67C606.98 996.13 589.75 995.43 576.5 988.86C572.56 1000.09 585.87 1001.13 593.98 1002.51C604.58 1004.31 616.33 1003.58 626.53 1000.06C629.56 999.02 634.13 998.35 636.45 995.99C638.57 993.84 638.82 989.24 639.5 986.4ZM553.69 987.5C547.41 989.85 541.67 993.62 534.98 995.48C523.3 998.71 505.84 998.7 493.96 996.51C489.69 995.72 485.67 993.76 481.5 993.12C481.68 995.91 481.92 1001.25 484.39 1003.11C488 1005.85 495.21 1006.02 499.55 1006.68C512.48 1008.64 525.99 1007.8 538.52 1003.97C549.08 1000.73 554.59 1000.27 553.69 987.5ZM563.5 986.84C563.49 988.81 563.44 988.52 564.5 989.59C564.17 988.67 563.83 987.75 563.5 986.84ZM306.5 1016.6C304.6 1011.45 307.14 1005.3 304.37 1000.19C301.84 995.54 295.61 996.44 292.46 999.96C287.67 1005.33 290.14 1012.03 288.5 1018.04C280.34 1021.16 279.48 1005.81 269.5 1012.86C269.44 1015.3 270.08 1016.85 268.5 1018.77C263.02 1016.42 261.63 1009.18 267.14 1005.64C271.56 1002.81 276.96 1003.49 281.5 1005.53C282.77 1003.1 283.15 1000.32 284.38 997.84C287.95 990.62 297.25 986.81 304.94 989.56C314.34 992.92 315.66 1014.39 306.5 1016.6ZM464.5 992.92C462.81 998.28 462.72 1003.84 461.64 1009.32C461.07 1012.17 459.77 1015.45 461.16 1018.27C463.17 1022.35 470.79 1022.71 474.53 1022.5C474.23 1017.47 472.13 1012.4 471.36 1007.33C470.84 1003.92 471.2 998.24 469.3 995.26C468.2 993.54 466.3 993.37 464.5 992.92ZM563.5 996.07C563.22 1001.91 562.93 1007.74 561.94 1013.5C561.72 1014.8 560.7 1018.36 561.99 1019.39C563.52 1020.59 565.71 1019.77 567.36 1019.5C567.02 1015.78 565.78 998.89 564.6 996.65C564.41 996.28 563.77 996.39 563.5 996.07ZM450.5 1000.35C430.25 1008.9 411.39 1009.24 390.5 1002.21C388.87 1011.89 398.49 1024.04 407.5 1027C411.94 1028.46 416.86 1028.73 421.5 1028.75C436.94 1028.79 445.74 1024.14 449.31 1008.7C449.96 1005.88 450.82 1003.17 450.5 1000.35ZM635.5 1000.35C617.98 1009.77 595.69 1008.12 577.5 1002.05C577.05 1005.21 577.82 1008.41 578.84 1011.57C580.05 1015.33 581.51 1019.27 584.4 1022.11C592.77 1030.33 613.93 1030.04 623.36 1023.9C629.21 1020.09 637.39 1007.09 635.5 1000.35ZM551.5 1001.9C539.99 1011.13 515.6 1012.87 501.5 1011.08C495.76 1010.35 490.12 1007.81 484.5 1007.39C486.2 1015.56 489.11 1025.24 496.84 1029.63C502.75 1032.99 509.89 1033.24 516.5 1033.23C533.67 1033.2 546.69 1029.67 550.58 1011.19C551.27 1007.94 552.1 1005.08 551.5 1001.9ZM214.07 1011.5C202.17 1007.61 194.49 1020.65 189.83 1029.34C188.23 1032.32 185.88 1035.26 185.5 1038.41C196.71 1032.7 208.64 1023.04 214.07 1011.5ZM713.5 1043.3C711.53 1037.77 712.81 1033.19 707.5 1029.43C698.41 1030.14 701.23 1040.39 696.5 1045C692.08 1042.46 692.87 1035.95 686.76 1036.5C687.34 1039.12 687.92 1041.75 688.5 1044.37C683.73 1044.37 678.7 1036.65 681.96 1032.47C685.22 1028.28 690.33 1030.43 694.29 1031.5C695.7 1028.74 697.23 1026.19 699.88 1024.41C712.16 1016.16 724.74 1035.52 713.5 1043.3Z" fill="#050505" fill-rule="evenodd" stroke="#050505" stroke-width="0.25" stroke-linejoin="round"/>
</svg>