<?xml version="1.0" encoding="UTF-8"?>
<svg xmlns="http://www.w3.org/2000/svg" viewBox="0 0 1337 700" width="1337" height="700">
<path d="M0.25 0.25C113.78 0.22 227.31 0.19 340.84 0.17C337.79 1.62 334.07 1.74 330.74 2.37C325.51 3.36 320.41 4.93 315.48 6.94C295.55 15.06 278.35 30.82 268.54 50.01C260.25 66.23 256.43 84.32 258.11 102.5C262.45 149.46 304.44 187.73 351.5 187.24C408.9 186.64 452.47 136.45 444.28 79.46C442.79 69.06 439.59 58.3 434.43 49.08C423.6 29.69 407.89 15.65 387.28 7.26C380.16 4.37 368.34 3.08 362.87 0.17C687.5 0.19 1012.12 0.22 1336.75 0.25C1336.78 82.15 1336.81 164.06 1336.83 245.96C1329.39 245.17 1321.94 244.38 1314.5 243.59C1315.83 237.34 1319.74 233.24 1320.63 225.34C1322.12 211.98 1317.68 197.16 1307.02 188.48C1303.8 185.86 1300.12 184.43 1296.52 182.5C1300.68 175.3 1304.57 168.95 1305.74 160.45C1308.5 140.37 1297 118.85 1276.22 114.41C1270.31 113.15 1264.26 113.76 1258.35 114.5C1254.14 106.18 1254.25 98.97 1247.38 91.13C1235.87 77.97 1214.46 75.04 1199.8 84.33C1194.38 87.76 1191.76 92.88 1187.5 97.35C1180.93 93.04 1175.42 88.13 1167.44 86.19C1148.34 81.57 1128.45 91.09 1120.7 109.25C1117.71 116.27 1117.72 123.05 1117.23 130.5C1107.93 132.28 1102.11 130.43 1093.04 135.57C1076.68 144.84 1072.61 166.55 1079.56 182.91C1081.74 188.03 1085.28 192.22 1088.74 196.5C1084.46 199.97 1079.32 201.07 1075 205.5C1066.1 214.64 1064.41 228.37 1068.42 240.14C1069.67 243.82 1071.97 246.95 1073.32 250.5C1068.84 251.17 1064.37 251.83 1059.89 252.5C1058.97 248.27 1060.09 243.77 1059.16 239.52C1057.17 230.35 1049.44 226.49 1042.04 222.5C1043.73 205.21 1036.3 200.2 1021.41 195.5C1021.16 191.45 1021.64 187.78 1020.69 183.68C1017.17 168.52 1003.28 156.8 987.5 157.81C980.84 158.24 976.34 161.5 970.5 163.79C967.3 160.18 964.7 156.53 960.31 154.19C951.49 149.48 939.49 151.8 933.46 159.94C931.12 163.09 929.95 166.9 928.54 170.5C914.68 169.11 908.64 176.16 903.5 187.62C898.46 188.25 893.14 187.04 888.03 188.53C877.2 191.68 870.6 202.5 871 213.5C871.1 216.33 872.19 218.8 872.78 221.5C870.13 223.52 866.83 224.62 864.35 226.84C854.87 235.32 856.06 248.11 861.13 258.5C859.25 260.31 856.84 261.52 854.94 263.44C848.71 269.72 846.09 278.52 848.46 287.1C849.43 290.63 851.8 293.27 853.23 296.5C839.21 300.83 825.18 305.17 811.16 309.5C805.98 302.66 802.2 294.46 797.05 287.42C793.01 281.88 787.73 277.13 783.93 271.5C790.38 263.29 797.57 255.72 803.82 247.31C832.81 208.3 857.53 160.95 859.46 111.55C860.49 85.2 853.22 51.73 826.12 40.42C799.42 29.28 772.73 48.06 755.65 67.18C727.62 98.56 714.41 142.95 707.18 183.53C705.59 192.46 704.19 201.49 703.19 210.5C702.58 215.95 702.68 221.77 701.5 227.06C697.73 226.87 694.21 225.76 690.47 225.28C681.98 224.19 673.04 223.87 664.5 224.24C659.54 224.46 654.43 224.43 649.5 225.03C644.87 225.6 640.45 227.42 635.9 226.5C634.45 221.74 635.25 216.45 634.76 211.5C633.82 201.84 632.41 192.22 630.65 182.68C622.57 138.77 606.81 92.09 574.69 59.81C558.67 43.71 534.44 31.18 511.68 40.19C485.6 50.52 478.21 82.38 478.07 107.5C477.82 151.82 498.55 195.66 522.64 231.86C528.58 240.78 535.01 249.43 541.83 257.71C545.51 262.18 550.99 266.32 553.5 271.56C550.82 276.78 542.56 284.34 538.51 290.01C530.01 301.93 523.42 315.04 518.28 328.73C513.86 340.52 510.83 353.03 509.23 365.52C508.51 371.14 509.49 379.4 507.5 384.25C499.05 381 490.6 377.75 482.15 374.5C489.27 363.11 492.88 351.74 483.57 339.9C481.08 336.73 477.77 334.99 474.83 332.5C478.43 319.01 473.49 310.77 461.12 305.5C461.68 300.56 463.57 295.84 463.51 290.65C463.36 276.73 454.94 264.88 441.49 260.97C435.78 259.31 430.13 261.3 424.5 260.39C417.62 242.85 406.44 242.15 390.5 248.31C385.02 244.66 380.03 240.69 373.43 239.22C357.13 235.58 339.61 243.22 331.44 257.92C326.7 266.46 328.07 271.35 326.5 280.18C321.72 282.09 316.27 280.78 311.24 282.68C299.57 287.1 292.31 298.2 291.88 310.5C291.74 314.53 293.21 317.92 293.5 321.68C286.62 320.28 279.73 318.89 272.85 317.5C275.85 310.38 280.4 304.41 281.81 296.46C284.95 278.77 277.95 259.67 261.76 250.72C254.99 246.98 248.11 246.14 240.79 244.5C242.2 236.75 244.93 229.95 244.52 221.76C243.34 198.14 226.51 178.74 202.45 177.32C193.75 176.8 187.93 181.13 180.5 181.98C175.57 155.37 148.62 138.8 123.1 151.59C116.93 154.68 111.77 159.84 108.24 165.72C106.36 168.85 105.72 172.52 103.5 175.27C96.28 173.98 90 172.24 82.52 173.21C64.12 175.62 49.75 191.51 47.22 209.53C46.13 217.29 47.92 224.03 48.92 231.5C44.38 232.83 39.89 233.83 35.73 236.24C21.62 244.37 14 261.25 16.4 277.25C17.06 281.67 18.41 286.11 20.46 290.08C22 293.07 24.18 295.23 24.87 298.5C16.64 298.99 8.4 299.49 0.17 299.98C0.19 200.07 0.22 100.16 0.25 0.25ZM350.08 7.51C359.97 7.16 370.11 8.96 379.46 12.12C389.66 15.58 399.2 21.08 407.43 28.03C454.65 67.95 444.27 144.72 388.57 171.08C377.91 176.13 366.29 178.95 354.5 179.26C292.86 180.91 248.67 119.27 271.83 61.38C275.8 51.46 281.69 42.28 289.03 34.51C296.05 27.06 304.52 20.7 313.76 16.29C325.25 10.81 337.36 7.96 350.08 7.51ZM710.5 238.68C714.19 234.29 712.63 227.85 712.86 222.5C713.34 211.12 715.13 199.69 717.14 188.51C724.7 146.27 739.75 96.74 771.84 66.35C787.35 51.65 812.43 39.9 831 56.5C846.59 70.45 848.92 92.89 848.09 112.5C846.31 155.05 826.26 195.49 802.44 229.92C795.27 240.28 787.47 250.21 779.3 259.81C776.57 263.02 770.37 267.01 770.18 271.52C769.99 276.03 776.36 280.24 779.14 283.35C786.96 292.11 793.74 301.75 799.49 311.99C816.47 342.28 824.21 382.01 813.11 415.54C805.13 439.68 785.96 458.07 763.25 468.71C754.83 472.65 746.01 476.02 737.06 478.52C733.89 479.41 729.38 479.39 726.61 481.07C723.39 483.02 723.6 486.41 724.78 489.5C728.78 492.27 733.39 490.6 737.79 489.38C746.66 486.92 755.55 482.51 764.5 480.84C768.57 485.42 770.95 492.35 773.58 497.9C779.04 509.44 783.27 521.25 787.19 533.39C789.45 540.4 792.11 548.1 791.61 555.5C788.22 558.41 783.96 560.07 780.52 563C770.05 571.92 761.49 583.67 755.56 596.05C752.82 601.79 746.01 612.05 754.5 615.41C761.58 613.33 763.6 602.35 766.83 596.34C773.53 583.87 789.45 564.17 804.5 562.91C806.54 568.58 804.97 574.78 802.72 580.26C801.24 583.85 797.94 586.32 800.5 590.01C801.51 589.92 802.27 590.18 803.26 589.77C806.37 588.49 810.39 575.67 810.65 572.44C810.94 568.81 810.43 565.15 810.68 561.5C813.73 561.01 816.43 561.35 819.5 562.02C834.56 565.35 833.92 575.88 828.37 587.85C826.43 592.02 821.72 595.84 823.65 600.5C832.39 600.19 834.7 584.03 837.5 577.81C844.11 587.29 841.71 603.01 839.16 613.54C832.59 640.7 810.36 678.73 782.1 687.56C767.71 692.05 754.36 685.9 748.48 672.04C747.35 669.39 746.39 666.38 746.11 663.5C745.51 657.45 746.78 650.43 737.91 652.5C733.9 657.27 736.51 663.85 735.7 669.5C703.62 677.94 675.67 680.41 642.5 677.22C629.42 675.97 613.19 675.19 601.5 668.64C601.62 662.08 604.91 653.85 596.5 651.65C595.2 652.31 593.51 652.87 592.73 654.22C591.41 656.49 591.16 665.77 590.01 669.49C586.38 681.29 577.17 689.27 564.5 689.12C553.13 688.98 542.83 682.21 534.74 674.77C518.14 659.52 505.55 638.52 499.62 616.78C496.77 606.33 493.21 587.6 500.5 578.59C502.1 583.57 507.58 604.55 515.18 599.5C515.81 595.94 511.87 592.48 510.25 589.28C504.14 577.22 502.03 566.75 517.56 562.17C520.54 561.3 523.42 561.03 526.5 561.11C528.23 568.17 526.72 589.25 537.5 590.01C540.06 586.58 536.62 583.82 535.16 580.35C532.89 574.93 531.28 568.09 533.5 562.55C554.01 568.16 567.32 587.52 575.48 606.04C577.77 611.24 580.98 618.37 587.16 613.5C587.45 606.7 584.25 600.28 581.22 594.3C575.57 583.12 568.47 572.84 559.1 564.41C554.96 560.7 549.48 558.5 545.77 554.5C549.19 535.46 555.05 516.47 563.53 499.06C566.44 493.09 569.24 486.07 573.5 480.99C578.1 481.79 582.35 484.08 586.78 485.64C591.91 487.45 597.23 488.7 602.5 490.01C605.86 490.84 612 492.8 613.61 488.18C615.05 484.01 612.15 481.19 608.46 480.11C595.47 476.3 582.64 473.31 570.51 467.02C544.98 453.78 526.59 430.88 521.31 402.36C515.5 370.95 523.7 336.59 539.74 309.27C545.64 299.2 552.21 289.29 560.5 281C563.42 278.08 568.97 275.22 567.27 270.29C565.4 264.85 559.07 260.34 555.27 256.25C548.35 248.78 542.34 240.34 536.46 232.05C512.04 197.6 490.81 155.42 489.29 112.5C488.64 94.21 491.15 71.85 504.59 58.08C522.84 39.39 547.88 50.35 564.31 65.16C596.89 94.52 612.99 145.53 620.11 187.5C622.08 199.09 623.92 210.75 624.72 222.5C625.04 227.1 623.46 233.93 626.76 237.75C630.33 241.88 642.48 236.85 647.52 236.23C660.79 234.57 674.22 234.82 687.5 236.22C694.79 236.98 703.38 240.24 710.5 238.68ZM1251.5 123.32C1255.71 124.48 1258.63 122.05 1262.71 121.37C1266.88 120.68 1271.37 121.22 1275.44 122.22C1294.78 127 1302.88 150.03 1296.01 167.49C1293.42 174.08 1286.35 179.88 1285.26 185.5C1287.81 188.92 1292.18 188.99 1295.93 190.57C1301.79 193.05 1306.81 198.21 1309.65 203.81C1314.46 213.31 1314.31 224.88 1310.11 234.57C1308.94 237.27 1307.2 241.62 1304.35 242.97C1299.73 245.18 1282.4 242.48 1276.5 242.15C1261.81 241.32 1247.21 241.21 1232.5 241.29C1223.88 241.34 1215.07 242.08 1206.5 241.09C1204.01 234.09 1204.06 223.17 1203.29 215.49C1203.01 212.7 1202.07 208.58 1203.54 206C1204.67 204.01 1208.06 202.72 1209.85 201.37C1213.76 198.4 1217.21 194.58 1220.34 190.82C1222.97 187.65 1228.08 177.46 1230.54 175.93C1232.94 174.45 1236.81 175.58 1239.5 175.3C1245.78 174.65 1258.19 170.54 1258.77 163.5C1254.68 162.45 1252.96 165.17 1249.52 167.03C1244.51 169.75 1238.82 171.75 1233.19 170.5C1234.43 163.6 1242.89 149.42 1239.58 143.5C1234.17 144.17 1232.65 157.75 1230.91 162.46C1225.75 176.39 1216.66 192.07 1203.5 199.81C1202.58 195.23 1202.98 190.21 1202.94 185.5C1202.84 173.4 1203.38 161.53 1204.74 149.5C1205.25 144.94 1208.73 133.42 1206.5 130.13C1205.3 130.23 1204.24 129.76 1203.33 130.81C1202.15 132.18 1202.32 135.78 1202.08 137.5C1201.37 142.51 1200.45 147.46 1199.97 152.5C1198.53 167.41 1197.42 182.51 1197.92 197.5C1198.23 206.67 1200.8 217.43 1198.5 226.3C1186 224.25 1176.29 217.24 1165.98 210.5C1166.16 199.87 1168.55 195.01 1165.99 183.5C1165.09 179.45 1164.26 175.2 1160.5 173.05C1157.46 176.27 1160.58 180.25 1161.42 184.15C1162.91 191.06 1163.36 198.51 1161.5 205.33C1154.73 202.9 1149.5 193.69 1145.63 187.84C1143.25 184.25 1141.94 180.24 1137.5 180.09C1136.24 185.96 1143.2 193.21 1146.78 197.72C1155.67 208.93 1166.99 218.31 1179.85 224.62C1186.56 227.9 1193.82 229.52 1200.59 232.5C1200.59 235.49 1200.59 238.48 1200.59 241.47C1193.06 243.39 1184.28 241.83 1176.5 242.28C1156.45 243.45 1136.5 245.36 1116.5 247.07C1109.5 247.67 1089.33 251.39 1083.76 249.65C1076.18 247.29 1073.12 229.1 1074.33 222.7C1075.91 214.4 1082.33 207.5 1090.15 204.62C1094.57 203 1099.86 203.76 1102.46 199.5C1099.89 193.94 1091.38 188.31 1087.42 181.1C1078.52 164.93 1086.5 144.09 1104.55 139.12C1112.54 136.92 1118.13 140.72 1125.5 139.73C1126.96 135.76 1125.41 132.55 1125.18 128.5C1124.98 124.9 1125.51 121.15 1126.28 117.63C1130.55 98.18 1151.92 87.32 1170.36 95.12C1178.6 98.61 1184.12 108.8 1189.5 110.09C1192.56 107.95 1192.53 104.88 1194.22 101.72C1196.25 97.94 1199.21 94.66 1202.63 92.09C1218.05 80.53 1239.02 87.65 1246.96 104.53C1249.71 110.4 1248.16 118.17 1251.5 123.32ZM610.63 244.5C609.57 205.94 597.75 155.28 575.2 123.31C566.45 110.89 549.34 91.23 531.97 99.49C517.41 106.42 516.7 128.96 518.02 142.5C521.26 175.79 538.86 207.81 557.88 234.64C562.85 241.65 574.27 259.14 582.5 260.96C591.88 255.47 601.25 249.99 610.63 244.5ZM756.5 261.05C763.31 257.37 773.7 242.68 778.54 236.05C797.65 209.9 814.42 179.01 818.89 146.5C820.93 131.66 821.76 106.96 805.11 99.44C787.93 91.69 772.34 109.67 763.49 121.96C745.56 146.85 736.25 178.56 730.68 208.38C728.96 217.58 725.23 236.67 727.5 245.21C737.17 250.49 746.83 255.77 756.5 261.05ZM605.1 241.5C597.23 245.77 589.37 250.05 581.5 254.32C573.65 247.4 566.89 238.21 560.89 229.65C543.99 205.52 529.99 178.05 524.55 148.9C522.21 136.36 520.71 109.14 536.2 103.68C549.64 98.94 565.23 118.2 571.68 127.82C586.66 150.2 594.73 177.33 600.25 203.44C602.86 215.78 605.59 228.84 605.1 241.5ZM755.51 254.5C747.84 249.9 740.17 245.29 732.5 240.69C732.13 232.1 734.53 221.13 735.91 212.5C740.65 182.91 749.5 152.1 766.6 127.11C773.27 117.36 788.66 98.03 802.41 104.08C816.62 110.33 815.03 135.24 813.07 147.5C808.31 177.33 793.5 206.2 776.03 230.56C770.29 238.56 763.88 249.12 755.51 254.5ZM175.5 192.74C179.43 192.53 181.87 190.5 185.34 188.81C189.73 186.68 194.61 185.45 199.5 185.28C220.99 184.53 236.7 202.85 236.96 223.5C237.03 229.48 235.73 235.48 233.5 241.02C231.87 245.05 228.37 247.67 230.5 252C233.73 253.44 236.96 252.19 240.5 252.3C245.66 252.46 250.85 253.72 255.5 255.96C280.21 267.85 280.31 298.09 262.5 316.08C255.46 315.36 248.33 313.53 241.29 312.39C224.4 309.67 207.43 307.4 190.46 305.29C180.81 304.1 171.11 303.37 161.45 302.36C156.85 301.88 151.72 302.08 147.4 300.5C146.51 296.16 146.96 291.92 146.84 287.5C146.66 280.17 146.19 272.83 145.89 265.5C145.75 262.05 144.13 255.93 146.4 252.88C147.96 250.81 152.48 249.59 154.76 248.3C161.24 244.63 176.18 233.87 176.5 226C171.79 223.94 170.45 229.09 167.67 232.19C162.18 238.3 154.41 244.64 146.5 247.03C144.68 238.13 146.37 227.63 147.06 218.5C147.4 214 149.52 210.35 144.5 208.72C140.89 213.78 142.1 223.35 141.87 229.5C141.27 246.21 141.17 262.81 141.11 279.5C134.55 279.74 117.46 269.53 113.54 263.98C111.83 261.56 111.05 258.08 110.39 255.23C109.45 251.16 108.27 236.42 106.4 234.06C105.84 233.35 105.22 233.45 104.5 233.07C103.78 233.5 103.18 233.36 102.67 234.16C101.7 235.69 102.9 238.88 103.25 240.44C104.06 244.15 105.72 252.37 105.5 255.87C99.91 253.36 95.69 246.23 92.09 241.38C89.78 238.27 88.43 234.56 84.5 237.15C85.59 242.71 91.3 248.35 94.88 252.65C103 262.39 112.7 271.39 123.7 277.8C129.55 281.21 136.08 283.04 142.06 286.16C142.06 290.94 142.06 295.72 142.06 300.5C134.51 301.51 126.14 299.69 118.5 299.16C103.85 298.14 89.18 297.88 74.5 298.01C65.5 298.09 56.5 298.29 47.5 298.2C44.2 298.16 39.8 298.9 36.65 297.82C32.95 296.56 29.18 290.3 27.47 287.03C20.25 273.3 23.84 255.18 35.73 245.23C39.28 242.27 43.91 239.83 48.51 239.08C51.94 238.52 55.13 239.17 58.21 237.5C59.44 232.97 54.43 223.02 54.38 216.5C54.25 198.2 68.58 180.6 87.5 180.15C96.01 179.95 102.75 185.48 109.5 184.74C111.42 182.15 111.34 178.75 112.25 175.65C113.25 172.24 115.24 168.73 117.49 165.99C130.5 150.12 155.3 152.24 166.95 168.55C172.3 176.04 172.11 188.64 175.5 192.74ZM966.5 175.82C972.41 175.61 976.71 167.49 983.53 166.01C998.63 162.74 1012.85 173.87 1013.77 189.5C1014.07 194.6 1010.08 199.98 1012.37 204.5C1015.62 204.94 1018.22 203.49 1021.41 203.5C1028.05 203.51 1034.78 209.78 1035.11 216.5C1035.32 220.76 1032.63 224.43 1033.5 228.64C1036.76 230.47 1040.41 229.89 1043.79 231.67C1051.86 235.89 1053.99 245.42 1050.68 253.5C1022.29 258.48 993.89 263.46 965.5 268.45C964.86 265.46 964.22 262.48 963.58 259.5C966.85 255.57 970.65 252.48 973.49 248C978.23 240.51 981.08 233.34 987.83 227.34C991.84 223.77 999.06 219.15 997.5 213.25C992.29 213.84 989.87 221.4 984.5 223.08C984.99 218.17 988.42 207.94 982.5 206.06C979.79 208.97 980.73 217.05 979.87 221.49C978.05 230.81 971.16 248.72 962.5 253.58C960.31 249.63 960.57 243.99 960 239.5C958.99 231.51 957.82 223.53 956.68 215.56C956.06 211.24 957.06 203.8 952.5 202.36C949.43 205.27 951.62 209.68 951.99 213.5C952.63 220.17 953.33 226.85 954.21 233.49C954.65 236.72 956 240.43 954.97 243.5C946.44 242.24 936.71 230.22 932.25 223.27C929.93 219.65 928.64 212.5 923.5 215.36C924.14 220.68 929.35 224.36 929.5 229.48C925.45 229.45 921.07 228.61 917.2 227.39C915.62 226.9 913.2 225.12 911.54 225.36C910.52 225.51 910.44 226.01 909.62 226.5C909.53 230.77 916.94 232.31 920.49 233.15C924.52 234.1 931.4 233.02 934.3 234.09C937.08 235.12 939.66 239.61 942.02 241.51C946.4 245.04 951.53 247.4 956.5 249.87C957.71 256.41 958.92 262.96 960.13 269.5C955.29 273.01 943.81 273.79 937.58 275.26C920.51 279.28 903.38 283.27 886.5 287.99C881.22 289.47 875.84 290.62 870.59 292.18C868.03 292.95 865.36 294.68 862.61 293.91C861.13 293.5 859.88 291.7 858.92 290.6C853.01 283.79 854.31 273.37 861.27 267.77C864.83 264.91 869.44 265.21 872.94 262.5C873.13 256.57 867.64 255.12 865.68 249.77C862.65 241.48 866.54 232.42 874.77 229.34C877.3 228.39 879.94 228.26 882.5 227.48C883.19 222.51 879.78 219.37 879.11 214.49C877.64 203.8 885.67 194.71 896.5 194.87C901.43 194.94 904.59 198.32 909.5 197.59C911.2 194.55 910.22 191.18 911.41 187.87C913.65 181.61 919.8 177.22 926.48 177.41C929.34 177.49 931.6 178.78 934.5 178.37C937.49 174.5 936.09 169.54 938.85 165.35C944.45 156.84 956.39 157.52 962.01 165.52C964.27 168.74 963.99 172.94 966.5 175.82ZM389.5 258.22C393.54 257.28 395.31 253.94 399.12 252.59C405.55 250.31 413.76 253.64 416.45 260.05C417.79 263.25 417.58 266.49 419.41 269.5C424.76 270.51 429.57 266.7 435.31 267.4C448.93 269.04 457.76 282.01 455.61 295.29C454.66 301.11 449.37 306.51 450.5 312.16C453.71 313.47 456.9 312.55 460.2 313.37C466.7 314.99 469.37 322.51 468 328.47C467.34 331.37 465.65 333.38 465.5 336.43C469.4 340.64 474.33 340.24 478.34 346.17C482.68 352.58 482.77 360.38 478.21 366.72C476.79 368.68 474.25 371.67 471.62 371.63C467.35 371.57 453.33 365.82 448.35 364.25C433.67 359.62 419.02 354.9 404.35 350.24C398.43 348.36 390.24 347.19 385.26 343.5C386.14 340.8 386.74 336.31 388.66 334.16C390.29 332.34 397.06 330.71 399.73 329.25C402.2 327.89 404.78 326.29 406.86 324.37C408.96 322.45 411.22 318.52 413.97 317.54C416.15 316.76 419.68 317.76 422.08 317.51C425.98 317.11 437.33 316.27 436.13 310.5C430.82 309.24 424.36 313.49 418.08 312.5C418.64 305.82 425.54 301.17 423.5 294.07C418.14 294.85 417.11 302.63 414.5 307.02C409.5 315.43 401.23 325.71 391.03 327.5C389.68 323.52 391.73 318.14 392.49 313.96C393.59 307.81 393.87 301.74 393.87 295.5C393.87 291.64 394.59 287.21 391.5 284.48C386.58 286.25 389.22 294.09 389.12 298.5C388.92 307.28 387.51 327.34 382.5 334.33C377.41 331.5 365.64 318.53 365.54 312.5C365.45 306.84 377.35 296.69 371.5 289.79C366.91 292.68 366.12 300.6 363.5 305.37C358.61 300.81 360.95 290.92 355.5 287.25C351.24 290.18 355.21 297.8 356.45 302.09C359.14 311.39 363.07 320.75 369.05 328.43C370.92 330.83 372.97 333.23 375.23 335.27C376.57 336.48 379.45 337.63 380.36 339.11C380.97 340.1 380.64 340.45 380.85 341.5C377.55 344.12 366.37 339.63 361.99 338.51C348.43 335.02 334.89 331.59 321.27 328.35C317.6 327.47 306.64 326 304.09 324.37C301.66 322.82 300.5 318.1 299.93 315.5C297.78 305.86 302.94 294.74 312.09 290.6C315.46 289.07 319.63 287.91 323.35 288.33C327.4 288.79 330.37 291.25 334.5 290.22C335.57 286.62 334.53 284.13 334.14 280.49C333.68 276.35 334.32 272.01 335.53 268.04C340.36 252.24 357.24 242.24 373.33 247.22C382.33 250 383.03 254.12 389.5 258.22ZM1336.83 253.13C1336.83 341.11 1336.83 429.1 1336.83 517.08C1313.67 509.89 1290.52 502.69 1267.36 495.5C1277.13 488.83 1299.11 485.07 1292.85 467.59C1291.96 465.1 1289.74 463.61 1288.31 461.5C1295.85 452.3 1306.27 445.46 1309.72 433.31C1313.57 419.78 1306.84 407.21 1291.5 409.03C1283.36 409.99 1277.81 415.57 1270.5 417.88C1271.25 411.32 1274.34 404.9 1275.85 398.45C1279.19 384.24 1282.1 368.1 1280.8 353.5C1280.01 344.56 1277.19 333.19 1267.77 329.67C1259.89 326.73 1252.11 330.53 1246.76 336.26C1236.73 346.96 1232.3 362.56 1229.03 376.5C1227.87 381.45 1227.53 387.08 1225.5 391.66C1221.73 384.76 1219.47 377.61 1212.92 372.57C1201.53 363.78 1190.22 371.08 1187.09 383.53C1184.08 395.51 1186.52 408.51 1189.35 420.28C1190.1 423.39 1191.33 426.38 1191.67 429.5C1187.88 429.5 1184.24 427.95 1180.59 429.15C1163.18 434.87 1168.59 457.57 1174.48 470.05C1176.2 473.7 1178.79 476.81 1180.35 480.5C1171.96 479.83 1163.56 479.17 1155.17 478.5C1155.17 470.62 1158.88 462.95 1160.72 455.33C1165.32 436.23 1169.26 409.87 1154.51 394C1149.39 388.49 1143.24 385.96 1136.77 382.5C1138.68 379.55 1141.79 377.39 1144.46 374.95C1154.17 366.12 1167.27 356.11 1171.58 343.19C1176.16 329.44 1168.18 315.27 1152.49 317.71C1146.04 318.71 1141.3 323.37 1135.5 324.82C1135.78 321.02 1136.88 317.38 1137.02 313.5C1137.52 298.85 1135.21 268.72 1114.5 269.31C1095.44 269.86 1094.41 299.34 1095.66 312.52C1096 316.13 1096.48 319.79 1096.5 323.4C1090.38 321.16 1085.52 317.6 1078.5 318.11C1059.67 319.47 1060.71 339.61 1067.37 352.18C1071.61 360.19 1078.04 366.79 1084.69 372.82C1088.07 375.89 1092.67 378.8 1095.06 382.5C1090.24 384.45 1085.85 385.85 1081.59 389.05C1079.41 390.69 1077.81 392.75 1075.5 394.1C1069.63 388.08 1061.75 386.28 1053.73 389.28C1050.65 390.43 1048.14 393.02 1044.98 393.5C1043.91 389.83 1045.03 385.41 1044.85 381.5C1044.43 372.51 1042.74 363.01 1038.52 354.97C1026.55 332.18 1002.73 338.45 995.23 360.66C992.67 368.23 991.62 376.52 991.77 384.5C991.86 389.04 993.57 393.8 992.5 398.06C986.37 395.55 981.43 393.08 974.53 394.14C956.35 396.93 955.49 417.89 962.47 431.04C967.38 440.29 975.76 447.31 984.08 453.42C987.67 456.05 993.28 458.27 995.79 461.5C991.74 463.66 987.36 465.33 983.65 468.1C981.54 469.67 979.8 472.88 977.32 473.79C974.04 474.99 970.56 473.7 967.27 473.47C961.94 473.11 956.63 474.23 951.35 473.5C950 468.57 951.49 463.65 951.29 458.5C950.8 446.04 947.58 433.16 937.89 424.61C932.85 420.16 925.82 419.53 920.95 415.5C929.94 402.68 944.98 393.8 949.51 378.01C953.14 365.32 944.73 354.37 931.5 355C926.99 355.22 923.59 357.5 919.5 358.84C917.57 347.06 917.52 333.79 909.58 323.9C898.71 310.35 882.75 316.31 878.32 331.7C875.2 342.54 877.23 353.18 877.5 364.08C872.04 362.67 867.67 360.2 861.72 361.35C847.48 364.09 846.01 379.89 851.63 390.86C856.43 400.24 864.96 407.05 872.98 413.53C875.42 415.5 878.06 417.15 880.09 419.5C864.82 429.47 855.6 436.33 854.81 456.5C854.56 462.77 856.6 469.24 855.5 475.34C835.41 475.58 815.5 478.52 795.5 480.05C791.27 480.37 781.38 482.54 777.94 480.55C776.61 479.78 775.88 477.78 775.2 476.5C778.06 472.2 784.22 470 788.38 466.91C796.55 460.87 803.96 453.67 809.98 445.48C830.02 418.22 832.76 382.78 825.79 350.55C824.27 343.51 822.29 336.42 819.77 329.67C818.24 325.59 816.19 321.7 815.05 317.5C818.22 315.01 822.71 314.33 826.56 313.14C834.82 310.61 843.09 308.12 851.39 305.76C879.54 297.74 907.79 290.17 936.32 283.67C1022.27 264.09 1109.42 252.59 1197.5 249.18C1230.05 247.92 1262.99 248.41 1295.5 250.28C1304.16 250.78 1312.87 251.2 1321.5 252.04C1326.64 252.54 1331.66 253.64 1336.83 253.13ZM207.05 251.5C199.87 249.79 192.56 260.04 189.05 265.59C187.12 268.64 185.41 271.22 187.5 274.33C190.75 274.65 191.1 272.45 192.39 269.86C194.33 265.99 197.39 261.98 200.64 259.1C203.65 256.43 206.55 255.65 207.05 251.5ZM1125.34 346.5C1129.57 347.29 1130.98 344.97 1133.23 341.71C1134.98 339.16 1136.49 336.39 1138.58 334.09C1144.19 327.9 1157.95 319.31 1163.88 329.66C1166.75 334.68 1164.76 340.82 1161.96 345.41C1156.1 355.03 1146.1 361.86 1138.16 369.66C1134.61 373.14 1130.36 379.07 1125.5 379.72C1127.31 371.17 1133.9 362.52 1139.16 355.69C1141.93 352.11 1146.3 349.13 1146.55 344.5C1142.05 343.02 1139.1 347.73 1136.5 350.99C1131.89 356.79 1127.63 363.11 1124.17 369.67C1122.35 373.12 1122 377.3 1118.5 379.06C1118.83 362.55 1119.69 346.11 1119.11 329.5C1118.89 323.11 1119.81 313.95 1116.5 308.32C1115.52 308.52 1114.5 308.34 1113.76 309.19C1111.75 311.52 1113.32 322.39 1113.54 325.73C1114.39 338.6 1114.32 351.61 1114.04 364.5C1113.94 369.04 1114.96 375.73 1112.5 379.61C1109.81 377.22 1108.7 372.69 1107.15 369.37C1104.24 363.12 1101.26 356.91 1097.28 351.26C1094.64 347.51 1092.28 343.16 1087.5 343.45C1086.5 348.06 1091.09 351.33 1093.62 354.87C1097.65 360.51 1105.53 372.78 1105.5 379.61C1101.83 378.46 1098.54 374.54 1095.52 371.98C1086.52 364.31 1077.21 356.21 1072.43 345.1C1069.29 337.8 1068.84 327.78 1078.39 325.68C1091.09 322.89 1096.87 338.94 1104.5 341.24C1109.91 337.88 1106.14 331.64 1105.15 326.47C1102.83 314.44 1100.85 300.07 1104.62 288.17C1106.19 283.23 1109.51 276.83 1115.5 277.14C1122.29 277.49 1125.58 284.76 1127.23 290.37C1131.15 303.69 1129.22 317.87 1126.61 331.26C1125.69 336 1122.81 342.25 1125.34 346.5ZM0.17 593.11C0.17 497.76 0.17 402.42 0.17 307.08C8.24 307.73 16.42 306.69 24.5 306.25C32.94 305.8 41.43 305.73 49.87 305.49C76.05 304.77 102.37 305.67 128.5 307.21C221.76 312.73 313.25 331.65 402.8 357.6C428.46 365.04 453.78 373.58 478.95 382.52C488.56 385.94 499.08 388.85 508.15 393.5C510.61 399.45 510.5 406.99 512.26 413.35C515.57 425.34 521.18 436.85 528.77 446.74C534.35 454.02 541.06 460.55 548.4 466.06C552.86 469.41 559.63 472.03 562.79 476.5C559.93 480.86 554.21 495.59 551.3 497.81C548.4 500.03 542.88 498.92 539.5 499.01C530.49 499.26 521.49 500.48 512.5 501.03C479.44 503.08 446.49 507.07 413.5 510.02C317.93 518.57 222.16 533.65 128.71 555.34C100.51 561.88 72.21 569.22 44.7 578.27C34.68 581.56 24.63 584.76 14.68 588.26C9.92 589.93 5.16 592.53 0.17 593.11ZM914.5 375.78C920 372.49 922.06 365.59 928.76 363.35C940.32 359.48 945.04 368.87 940.92 378.46C936.54 388.63 927.86 396.02 920.41 403.9C917.46 407.03 915.16 411.23 911.5 413.33C911.38 406.07 918.11 394.8 922.04 388.59C924.31 385 928.41 381.47 925.88 377.5C922.03 377.75 919.61 383.1 917.65 386.2C913.79 392.3 910.6 398.76 907.98 405.5C906.69 408.84 906.52 412.44 904.5 415.34C901.97 410.78 903.12 403.73 903.08 398.5C903 388.08 902.53 377.69 901.41 367.32C900.92 362.71 901.71 353.49 896.5 352.27C893.19 355.85 895.62 363.89 896.21 368.49C897.65 379.8 897.5 391.14 898.19 402.5C898.43 406.59 900.03 411.94 897.5 415.07C892.33 406.4 888.85 397.2 882.02 389.47C879.4 386.5 876.35 381.77 872.28 384.5C872.9 388.3 876.02 390.2 878.41 393.13C883.51 399.36 891.39 408.2 891.56 416.5C888.13 416.06 884.66 412.61 881.86 410.6C873.16 404.38 863.44 396.8 858.37 387.17C855.36 381.46 853.98 371.85 861.7 369.23C874.18 364.98 877.97 379.86 886.5 380.91C890.08 377.23 887.03 371.96 886.13 367.49C883.98 356.81 882.14 344.72 885.58 334.14C886.91 330.07 889.64 324.57 894.53 324.17C899.32 323.78 902.71 327.87 904.97 331.57C910.71 341 911.43 351.74 911.02 362.5C910.81 368.1 907.9 373.95 914.5 375.78ZM1255.45 442.5C1261.07 443.62 1262.78 438.22 1266.01 434.51C1271.85 427.78 1278.94 421.08 1287.37 417.84C1291.81 416.14 1297.68 415.38 1301.28 419.21C1304.84 422.99 1303.72 429.05 1301.77 433.28C1297.48 442.56 1289.84 450.07 1282.15 456.63C1278.86 459.44 1273.18 461.53 1273.67 466.5C1276.98 469.21 1281.21 467.54 1285.08 469.5C1287.62 475.72 1281.93 479.74 1276.98 482.48C1268.33 487.26 1258.66 489.81 1249.97 494.5C1245.81 496.74 1242.15 499.92 1238.5 502.86C1238.23 498.7 1241.82 494.05 1243.9 490.38C1250.14 479.36 1257.62 468.94 1265.69 459.2C1267.85 456.58 1276.83 449.21 1277.12 446.46C1277.24 445.28 1276.75 444.89 1276.5 443.85C1271.04 444.31 1266.66 450.62 1263.17 454.71C1253.81 465.64 1245.58 477.41 1238.44 489.91C1236.27 493.7 1232.82 503.35 1229.5 504.86C1228.19 498.43 1231.52 487.19 1232.72 480.41C1236.39 459.64 1240.96 439.14 1246.35 418.74C1248.2 411.75 1250.28 404.84 1252.47 397.94C1253.6 394.41 1255.82 391.12 1253.5 387.92C1252.14 388.2 1251.56 387.89 1250.46 388.96C1248.73 390.62 1248.41 394.25 1247.82 396.45C1246.28 402.14 1244.46 407.74 1242.82 413.4C1236.7 434.45 1231.7 455.91 1227.8 477.48C1226.66 483.75 1225.64 490.03 1224.63 496.33C1224.19 499.14 1224.36 501.91 1222.5 503.77C1220.74 497.33 1221.38 489.28 1220.79 482.5C1219.49 467.47 1218.13 452.49 1215.69 437.6C1215.05 433.68 1213.87 420.64 1211.49 417.97C1210.59 416.95 1209.69 417.29 1208.5 417.09C1205.81 420.82 1210.17 433.49 1210.9 438.5C1212.71 450.79 1214 463.14 1215.21 475.5C1216.01 483.66 1217.63 492.44 1216.5 500.6C1214.17 498.3 1213.79 493.18 1212.6 489.85C1209.8 482.01 1206.43 474.44 1202.35 467.18C1199.99 462.97 1197.58 457.38 1192.5 457.31C1191.33 462.29 1196.21 466.66 1198.53 470.96C1202.96 479.2 1210.73 493.25 1210.5 502.59C1206.09 500.73 1202.46 495.82 1199.31 492.2C1190.58 482.18 1182.47 471.13 1178.14 458.42C1176.02 452.21 1174.35 442.59 1180.25 437.77C1189.07 430.56 1195.36 446.71 1202.86 444.5C1205.84 439.63 1201.55 433.59 1199.79 428.66C1195.62 416.92 1191.99 402.8 1193.58 390.29C1194.17 385.7 1195.51 378.78 1200.38 376.79C1204.88 374.95 1208.84 378.85 1211.55 381.95C1218.66 390.09 1220.44 401.87 1222.46 412.11C1223.39 416.84 1223.2 424.01 1229.63 422.5C1232 418.01 1231.68 406.69 1232.5 400.94C1234.82 384.58 1237.68 367.49 1245.01 352.52C1248.09 346.22 1255.86 333.41 1264.67 336.76C1272.29 339.66 1273.19 351.75 1273.32 358.5C1273.7 379 1268.33 399.97 1261.63 419.2C1259.97 423.95 1254.3 434.24 1254.06 438.51C1253.95 440.41 1254.55 441.03 1255.45 442.5ZM592.71 344.41C559.44 348.95 566.44 399.8 600.45 394.74C632.44 389.98 625.45 339.94 592.71 344.41ZM738.61 344.35C705.19 347.88 711.3 399.66 745.47 394.84C777.4 390.34 771.53 340.87 738.61 344.35ZM1022.5 450.91C1019.79 447.35 1021.6 440.42 1021.5 435.88C1021.23 423.4 1019.97 410.99 1020.04 398.5C1020.07 393.55 1023.33 382.94 1017.5 381.3C1014.24 385.07 1015.82 392.7 1015.82 397.5C1015.8 411.54 1015.48 425.46 1016.15 439.5C1016.29 442.37 1018.04 454.65 1017.02 456.35C1016.01 458.03 1016.85 455.88 1015.5 457.28C1012.28 455.06 1011.46 451.31 1009.53 447.96C1005.74 441.35 1001.37 434.91 996.41 429.12C993.71 425.98 990.19 420.51 985.9 423.5C986.98 428.33 991.47 431.14 994.57 434.91C999.85 441.33 1005.8 449.55 1008.19 457.5C1003.57 457.34 998.57 453.37 994.59 450.93C982.55 443.53 959.04 425.18 966.93 408.5C972.41 396.92 986.72 401.55 993.49 409.02C996.7 412.56 998.92 418.7 1004.23 415.5C1005.78 410.43 1002.33 404.38 1001.38 399.27C998.95 386.26 998.06 370.16 1004.65 358.19C1008.28 351.59 1014.4 346.1 1022.33 349.24C1031.37 352.81 1034.84 364.68 1036.38 373.27C1039.82 392.33 1034.67 412.74 1029.51 431.02C1027.79 437.11 1026.3 445.92 1022.5 450.91ZM749.47 352.51C759.88 353.07 759 369.38 748.5 368.99C737.84 368.59 738.74 351.94 749.47 352.51ZM600.64 353.21C610.66 349.9 616.7 364.57 606.93 368.44C596.76 372.46 590.58 356.53 600.64 353.21ZM671.94 407.5C677.84 403.31 688.29 399.23 686.6 389.78C686.15 387.29 684.26 385.44 681.99 384.52C674.89 381.62 649.55 380.11 651.01 392.5C651.96 400.58 660.15 403.41 665.6 407.5C666.46 417.68 656.26 427.4 646.04 421.45C643.11 419.74 638.01 411.41 637.32 411.22C636.18 410.9 635.58 411.39 634.51 411.5C632.52 418.62 639.37 424.7 645.42 427.14C654.5 430.8 662.73 427.68 668.5 420.31C670.16 421.46 671.32 423.18 673 424.52C677.63 428.2 684.79 429.57 690.49 428.08C696.48 426.5 707.62 417.83 702.5 411.07C696.9 411.65 697.98 417.11 693.66 420.16C683.46 427.39 671.07 419.35 671.94 407.5ZM1155.44 440.5C1148.73 444.19 1138.94 442.87 1131.5 442.59C1127.75 442.44 1123.73 441.37 1120.5 443.15C1120.39 447.77 1124.86 446.82 1128.5 447.09C1133.18 447.43 1137.8 447.81 1142.5 447.7C1146.46 447.61 1150.39 446.63 1154.18 447.5C1153.54 454.96 1149.4 472.9 1145.5 479.09C1141.38 480.14 1136.99 480.23 1132.78 481.38C1128.56 482.53 1124.7 484.66 1120.5 485.77C1113.08 480.58 1105.45 476.79 1096.49 475.09C1092.21 474.28 1087.65 474.2 1083.5 473.11C1079.47 462.21 1077.06 449.07 1075.93 437.5C1075.4 432.08 1074.74 426.55 1077.12 421.5C1082.62 420.59 1091.44 423.11 1097.49 423.42C1101.22 423.6 1104.58 424.13 1106.23 420.5C1104.08 417.34 1101.15 418.23 1097.5 418.21C1091.68 418.17 1086.18 417.52 1080.5 416.28C1079.33 412.13 1078.61 406.01 1080.29 401.75C1084.93 389.96 1108.92 386.47 1119.5 387.14C1150.28 389.09 1162.23 411.68 1155.44 440.5ZM681.33 391.5C679.77 395.53 675.02 401.02 670.39 401.72C664.68 402.58 656.83 396.24 656.5 390.71C661.87 386.33 676.63 386.26 681.33 391.5ZM1035.5 456.13C1035.5 449.42 1045.66 433.33 1049.68 427.21C1051.85 423.9 1055.61 420.67 1055.5 416.79C1051.47 415.25 1049.66 418.83 1047.37 421.88C1044.77 425.34 1042.28 428.87 1040.17 432.67C1038.26 436.11 1037.31 440.18 1034.5 442.93C1034.64 437.66 1037.4 432.46 1038.71 427.33C1041.17 417.66 1040.88 408.39 1048.99 401.49C1054.24 397.03 1061.44 392.41 1067.79 397.69C1074.05 402.9 1072.29 412.56 1069.65 419.21C1064.62 431.9 1047.67 450.03 1035.5 456.13ZM942.36 474.5C936.11 478.15 926.65 478.19 919.5 478.71C915.91 478.97 911.99 477.99 909.25 480.5C910.68 484.79 914.47 484.03 918.5 483.83C924.8 483.5 936.47 480.6 941.47 481.5C940.87 489.03 939.12 496.74 937.58 504.14C937.11 506.37 936.79 509.89 934.88 511.39C932.89 512.95 926.99 514.42 924.52 514.17C922.02 513.91 919.37 511.46 917.1 510.43C913.16 508.64 908.8 507.53 904.5 507.09C898.36 506.47 892.03 506.98 886.07 508.54C882.41 509.51 879.21 511.49 875.5 511.79C870.42 495.65 861.87 478.85 863.22 461.5C871.82 459.93 880.83 461.85 889.56 460.31C893.46 459.62 897.46 460.63 898.88 456.5C895.98 453.4 891.46 455.31 887.5 455.75C879.51 456.64 871.22 457.91 863.42 455.5C862.06 445.52 868.71 435.69 876.88 430.39C890.93 421.28 913.21 419.28 928.13 427.41C944.6 436.39 944.73 458.34 942.36 474.5ZM1067.5 437.61C1069.88 440.95 1069.49 446.28 1070.21 450.47C1071.64 458.86 1075.26 466.97 1075.7 475.46C1073.3 475.46 1070.9 475.46 1068.5 475.46C1065.04 472.55 1062.69 468.4 1058.86 465.61C1054.83 462.68 1049.36 461.7 1045.81 458.5C1053.04 451.54 1060.27 444.57 1067.5 437.61ZM1065.98 489.5C1058.87 494.4 1042.32 491.79 1037.86 496.5C1039.65 500.63 1042.44 499.14 1046.5 498.84C1053.2 498.36 1061.79 494.58 1067.92 495.5C1070.59 505.09 1069.45 515.78 1068.31 525.54C1067.8 529.93 1067.87 534.49 1065.5 538.29C1055.23 541.45 1045.27 543.09 1034.5 542.63C1029.83 542.43 1025.13 541.29 1023.57 546.5C1026.64 548.57 1030.68 547.9 1034.5 547.96C1040.85 548.08 1047.1 547.78 1053.37 546.67C1057.34 545.96 1061.07 544.24 1065.06 544.5C1062.87 553.62 1060.69 562.74 1058.5 571.86C1054.07 573.83 1048.6 572.91 1043.79 574.4C1040.61 575.38 1036.95 578.25 1033.54 577.87C1031.2 577.61 1029.19 575.44 1027.19 574.35C1023.46 572.31 1018.64 570.97 1014.45 570.26C1005.06 568.65 997.62 570.36 988.5 570.75C983.1 558.72 974.43 530.48 975.5 517.78C985.56 518.17 995.54 519.07 1005.69 518.46C1009.79 518.21 1014.98 518.82 1016.6 514.5C1013.4 511.21 1007.72 513.46 1003.5 513.71C994.93 514.2 982.68 515.84 974.93 511.5C969.7 477.82 999.45 462.98 1028.5 464.08C1043.86 464.66 1063.38 472.27 1065.98 489.5ZM1336.83 524.98C1336.81 583.24 1336.78 641.49 1336.75 699.75C1151.11 699.78 965.47 699.81 779.84 699.83C787.22 696.13 793.72 695.42 801.6 690.07C826.37 673.25 847.1 637.98 851.13 608.5C853.91 588.12 850.23 564.83 830.19 554.33C824.59 551.4 817.78 550.24 811.5 550.21C808.51 550.2 805.83 550.92 802.92 550.5C799.57 540.8 798.07 530.41 794.8 520.62C791.24 509.98 785.9 500.05 782.22 489.5C793.26 485.9 806 486.59 817.5 485.8C830.85 484.88 844.09 482.71 857.5 482.8C861.17 493.73 864.83 504.66 868.5 515.59C862.87 520.94 855.52 519.51 848.81 521.5C848.71 523.25 848.6 525 848.5 526.74C854.28 529.84 861.91 527.56 867.69 525.21C878.64 520.75 888.07 513.75 900.5 514.08C905.82 514.22 911.51 515.82 916.2 518.33C918.53 519.57 920.88 522.42 923.56 522.73C926.41 523.05 929.07 521.04 931.71 520.3C934.56 519.5 937.56 519.26 940.5 519.36C946.02 519.54 953.31 524.43 955.6 517.5C953.2 512.88 948.69 512.95 944.2 511.5C946.11 501.5 948.02 491.5 949.94 481.5C956.88 480.26 965.46 479.97 972.02 482.5C970.71 485.85 969.02 489.04 968.22 492.58C962.23 519.04 972.01 547.62 980.48 572.5C975.97 575.91 959.81 580.15 958.43 585.79C958.08 587.24 958.82 588.25 959.36 589.5C963.89 590.95 967.84 587.41 971.87 585.41C979.91 581.42 988.59 578.32 997.51 577.21C1005.58 576.2 1013.81 577.09 1021.36 580.16C1025.16 581.7 1029.41 586.25 1033.56 586.49C1036.46 586.66 1039.83 583.97 1042.49 582.98C1048.09 580.87 1054.1 579.77 1060.08 580.49C1064.31 581 1068.62 582.1 1072.42 584.05C1076.12 585.93 1079.22 589.32 1083.5 587.75C1087.87 579.4 1072.81 576.01 1067.41 573.5C1067.03 563.04 1072.23 551.88 1073.94 541.5C1076.33 527.07 1078.48 511.41 1076.52 496.83C1075.91 492.25 1074.2 487.99 1073.26 483.5C1084.16 478.68 1098.13 481.96 1108.36 487.13C1111.78 488.87 1115.81 493.2 1119.59 493.77C1122.42 494.19 1136.49 487.99 1141.54 487.22C1152.51 485.57 1163.58 486.39 1174.5 487.84C1178.19 488.33 1183.48 488.24 1186.88 489.64C1189.1 490.55 1196.63 500.95 1199.04 503.5C1196.2 505.75 1187.83 506.6 1183.64 508.17C1173.71 511.88 1164.86 518.48 1158.43 526.9C1140.7 550.13 1138.7 583.36 1140.42 611.43C1141 620.85 1141.96 630.14 1143.12 639.5C1143.54 642.85 1145.02 647.5 1143.86 650.5C1131.64 649.78 1120.9 651.53 1111.6 660.09C1109.17 662.33 1107.13 664.29 1106.3 667.5C1107.37 668.64 1108.43 669.78 1109.5 670.92C1115.81 669.46 1120.13 661.74 1127.66 659.23C1132.42 657.64 1137.53 656.96 1142.48 658.02C1145.46 658.66 1148.35 660.56 1151.5 660.27C1154.82 659.97 1157.49 656.38 1160.26 654.73C1165.16 651.83 1171 649.95 1176.67 649.39C1185.22 648.55 1194.44 650.27 1201.93 654.56C1206.69 657.29 1210.37 661.45 1215.49 663.5C1233.98 655.04 1244.19 649.32 1265.38 656.19C1271.62 658.21 1277.92 661.41 1283.12 665.41C1286.83 668.27 1289.59 672.4 1294.65 671.5C1297.53 666.81 1294.13 663.97 1290.43 661.04C1285.76 657.35 1280.41 654 1275 651.51C1272.03 650.14 1268.7 649.86 1266.38 647.5C1279.99 610.69 1302.05 553.86 1267.51 521.98C1260.96 515.94 1253.28 512.2 1245.3 508.5C1250.04 497.65 1262.02 502.69 1270.54 504.85C1284.94 508.5 1299.18 512.69 1313.31 517.26C1320.88 519.71 1329 523.89 1336.83 524.98ZM557.99 699.83C372.08 699.81 186.16 699.78 0.25 699.75C0.22 666.88 0.19 634.01 0.17 601.14C5.15 600.53 10.09 598.09 14.87 596.44C23.53 593.45 32.11 590.16 40.87 587.46C73.49 577.36 106.31 567.86 139.63 560.3C233.79 538.94 329.44 526.08 425.5 516.84C451.14 514.38 476.85 512.36 502.47 509.71C511.81 508.75 521.11 508.12 530.49 507.67C536.21 507.4 541.89 506.37 547.64 506.5C547.08 512.08 544.1 517.42 542.3 522.73C539.21 531.88 537.53 541.2 535.09 550.5C524.71 551.88 518.21 548.69 507.75 554.26C487.74 564.93 483.03 589 486.71 609.56C492.16 640.01 510.54 672.42 536.46 690.05C544.22 695.33 550.25 696.17 557.99 699.83ZM609.5 506.39C607.81 507.09 606.12 507.8 604.43 508.5C603.77 516.23 612.3 523.9 617.61 528.91C630.12 540.71 655.61 558.56 651.5 578.57C646.55 577.21 642.13 566.94 636.5 570.58C636.69 576.93 646.12 580.91 649.19 586.5C648.42 588.16 647.67 589.55 646.46 590.96C635.06 604.3 630.64 582.22 621.5 582.47C619.85 588.63 627.71 592.97 630.98 597.5C624.32 599.44 617.18 596.52 611.31 593.19C599.15 586.28 588.42 575.22 581.23 563.27C579.13 559.78 573 545.04 570.78 543.66C568.93 542.52 567.43 543.14 565.53 543.5C561.67 548.65 566.37 556.55 569.04 561.45C574.66 571.78 582.37 581.52 590.77 589.73C594 592.9 599.84 595.53 602.28 599.21C604.21 602.12 603.57 606.97 604.29 610.33C605.85 617.54 608.52 624.89 612.28 631.25C628.91 659.28 664.23 668.63 694.22 657.66C711.43 651.37 724.82 637.57 730.62 620.19C732.35 614.99 733.57 602.57 735.55 599.02C737.1 596.23 741.9 593.95 744.32 591.83C750.01 586.85 755.24 581.33 759.79 575.28C764.79 568.64 769.19 561.41 772.17 553.63C773.79 549.41 774.88 545.39 770.5 542.84C769.23 543 768.22 542.84 767.08 543.56C765.27 544.7 764.71 547.6 763.9 549.43C762.02 553.68 759.71 557.79 757.23 561.72C749.12 574.53 738.5 587.36 724.6 594.11C719.41 596.63 712.59 599.11 707.02 597.5C710.27 593.45 718.55 588.05 716.22 582.5C708.24 581.72 704 600.3 694.71 593.81C693.36 592.87 692.12 591.68 691.06 590.43C689.67 588.78 689.33 587.56 688.92 585.5C691.16 582.81 700.31 575.18 701.16 573.67C701.77 572.58 701.54 571.69 701.6 570.5C695.82 566.91 691.29 576.46 686.5 578.41C682.81 556.98 706.81 541.46 720.08 528.59C724.8 524.01 736.24 514.82 732.5 507.68C730.43 506.77 728.98 506.32 726.78 507.32C723.88 508.64 722.34 512.58 720.49 514.96C717.55 518.75 713.41 522.82 709.5 525.56C706.81 524.44 705.29 522.23 702.99 520.5C698.7 517.27 694.14 514.41 689.15 512.4C673.39 506.06 656.87 507.46 642.08 515.59C637.04 518.36 633.5 523.28 628.5 525.74C622.17 519.29 615.83 512.84 609.5 506.39ZM1274.92 594.5C1264.1 599.66 1246.75 598.85 1235.09 597.48C1230.78 596.98 1222.79 594.25 1221.47 599.5C1224.24 602.43 1230.6 601.87 1234.5 602.25C1242.12 602.98 1249.83 603.22 1257.48 602.65C1262.75 602.26 1268.24 601.15 1273.43 601.5C1271.66 611.83 1267.76 621.76 1264.04 631.52C1262.16 636.44 1260.83 642.31 1257.5 646.39C1251.86 646.67 1246.26 645.54 1240.5 646.2C1231.3 647.24 1223.74 651.11 1215.5 654.9C1200.43 644.56 1187.57 638.63 1168.54 643.14C1162.79 644.51 1158.05 648.67 1152.5 649.84C1151.5 640.53 1150.5 631.21 1149.5 621.9C1158.9 623.39 1167.86 626.97 1177.38 628.35C1181.24 628.91 1186.71 630.16 1189.75 627.5C1188.55 622.58 1182.94 624.05 1178.69 623.61C1169.08 622.61 1157.55 619.83 1148.92 615.5C1145.84 606.05 1147.8 587.67 1148.75 577.5C1149.23 572.35 1149.51 565.83 1152.5 561.64C1156.99 562.63 1161.12 564.65 1165.54 565.95C1174.74 568.65 1184.27 570.37 1193.78 571.56C1198.37 572.14 1206.61 573.87 1209.89 570.5C1209.65 569.58 1210.1 568.78 1209.26 568.04C1208.12 567.04 1197.28 566.75 1195.14 566.46C1184.66 565.07 1174.48 563.57 1164.45 560.12C1160.77 558.86 1156.2 558.13 1153.34 555.5C1154.08 548.42 1157.97 541.23 1161.95 535.42C1181.71 506.62 1223.97 504.49 1252.73 520.76C1272.07 531.69 1278.87 552.26 1278.16 573.5C1277.93 580.43 1277.21 587.93 1274.92 594.5ZM704.75 529.5C702.27 534.52 696.01 537.6 692.06 541.56C686.55 547.06 681.89 554.31 679.13 561.58C671.15 582.57 680.75 605.15 704.51 607.79C713.35 608.77 720.37 605.75 728.5 602.96C730.06 611.9 722.9 625.93 717.71 633.23C696.36 663.18 648.19 664.88 623.76 637.74C617.32 630.58 607.09 612.41 609.5 602.95C617.37 605.99 624.84 608.7 633.48 607.77C655.01 605.45 665.51 584.37 659.75 564.67C657.1 555.64 651.29 547.44 644.66 540.84C640.97 537.16 636.02 533.93 633.3 529.5C640.53 519.81 656.66 513.33 668.5 513.33C680.8 513.33 697.13 519.38 704.75 529.5ZM446.5 634.05C444.58 631.63 444.34 627.95 443.6 624.79C442.12 618.56 440.31 612.37 438.3 606.3C432.87 589.93 425.41 574.1 415.56 559.94C411.78 554.49 403.28 541.08 396.18 542.5C395.56 543.65 395.03 544.06 395.03 545.5C395.03 549.09 400.62 563 401.96 567.53C407.58 586.57 415.26 614 415.5 633.57C411.16 630.59 409.17 624.72 405.76 620.72C398.84 612.61 390.72 605.52 381.68 599.83C377.82 597.41 371.23 592.03 366.76 594.5C364.31 599.63 370.41 606 372.99 610.51C380.53 623.72 387.66 638.07 392.51 652.5C388.56 652.49 383.75 647.31 380.18 645.34C372.77 641.25 364.89 639 356.55 637.72C351.14 636.89 344.48 635.21 342.65 641.5C346.31 646.76 354.96 651.36 359.89 656.63C364.76 661.82 369.07 667.72 372.52 673.95C373.81 676.28 374.62 679.18 376.11 681.35C377.96 684.03 380.14 683.82 382.5 682.15C383.34 677.5 380.81 673.93 378.61 669.9C373.79 661.09 366.76 654.22 360.51 646.5C372.32 646.26 385.96 656.51 393.46 665.07C396.81 668.9 398.72 677.84 403.6 678.5C409.61 674.98 404.73 665.83 403.04 660.46C399.53 649.25 395.11 638.07 390.1 627.42C387.48 621.85 382.44 615.34 381.5 609.31C393.79 614.44 405.38 631.76 411.25 643.28C412.7 646.12 416.06 657 418.63 657.93C420.12 658.47 421.05 657.95 422.5 657.72C426.47 651.98 423.74 642.06 423.14 635.5C421.75 620.4 419.05 605.43 415.72 590.64C414.02 583.13 409.94 574.13 410.5 566.56C415.56 572.68 419.09 580.86 422.49 588.04C429.84 603.57 435.6 619.61 438.8 636.54C440.28 644.4 441.57 652.5 441.95 660.5C442.1 663.69 441.31 669.27 443.64 671.91C445.3 673.79 447.64 672.75 449.5 671.93C450.63 664.5 450.23 656.96 451.24 649.53C452.64 639.25 455.35 629.13 458.8 619.36C460.82 613.64 462.95 605.95 467.5 601.85C466.54 621.53 464.39 640.98 466.56 660.75C467.16 666.2 466.46 675.66 470.5 679.64C472.82 679.54 475.32 679.33 475.71 676.44C476.16 673.18 474.39 668.86 474.11 665.5C473.36 656.5 472.79 647.53 472.79 638.5C472.78 625.33 473.69 612.13 475.52 599.08C476.24 593.97 479.37 586 476.5 581.61C470.53 580.44 466.66 587.79 463.77 592.28C455.43 605.24 451.38 619.6 446.5 634.05ZM931.5 560.08C923.54 560.45 917.06 572.24 912.88 578.33C903.28 592.31 895.47 607.66 890.45 623.88C887.88 632.17 886.5 640.98 883.5 649.08C880.6 646.38 879.7 642.23 877.79 638.72C874.85 633.31 865.83 620.69 859.35 620.5C855.16 624.26 858.11 629.2 859.67 633.76C862.92 643.21 863.15 653.62 862.71 663.5C862.48 668.76 860.91 674.74 863.46 679.5C869.69 680.58 869.72 675.36 870.14 670.5C870.64 664.9 871.06 659.26 870.6 653.63C870.27 649.74 868.87 645.33 869.58 641.5C875.9 647.08 878.33 659.5 879.79 667.54C880.39 670.86 879.9 674.59 881.5 677.53C883.98 678.54 884.74 678.72 887.11 677.5C888.33 674.29 888 670.96 888.33 667.55C888.87 661.85 890.05 656.15 891.17 650.54C894.21 635.28 899.18 620.22 905.52 606.03C908.51 599.33 912.47 589.35 918.5 585.04C918.54 590.37 914.48 600.69 913.15 606.54C910.07 619.98 908.13 633.53 906.53 647.21C905.77 653.67 902.66 665.29 907.53 670.5C913.57 670.84 913.68 665.09 916.03 660.57C920.13 652.69 926.09 642.72 934.5 639C934.1 642.59 931.48 646.17 930.19 649.66C927.84 656.02 926 662.58 924.59 669.21C923.61 673.82 921.89 679.51 926.5 682.29C932.17 680.77 931.33 674.56 932.14 669.51C933.71 659.89 937.85 650.3 942.12 641.61C944.58 636.62 948.77 632.13 947.84 626.5C938.74 623.74 927.31 633.69 921.25 639.75C918.78 642.21 917.09 645.28 914.5 647.6C913.17 641.04 915.52 632.99 916.85 626.48C919.78 612.07 922.75 597.62 927.07 583.54C928.34 579.38 933.77 567.19 933.51 563.72C933.39 562.09 932.48 561.21 931.5 560.08ZM536.79 610.41C526.21 613.28 523.22 624.9 523.89 634.5C525.13 652.16 544.11 685.38 565.97 676.45C575.72 672.47 577.88 660.15 576.54 650.87C574.09 633.91 558.05 604.66 536.79 610.41ZM790.75 610.35C774.24 614.31 761.99 637.89 760.92 653.5C760.21 663.77 764.11 675.68 775.69 677.65C797.5 681.37 814.54 648.5 813.93 630.5C813.5 617.81 804.29 607.1 790.75 610.35ZM539.75 615.39C556.66 612.77 570 638.71 571.08 652.5C571.57 658.85 570.88 668.51 564.05 671.51C558.27 674.05 551.65 671.11 547 667.5C537.13 659.84 530.02 645.93 529.21 633.5C528.74 626.14 531.27 616.7 539.75 615.39ZM793.74 615.4C804.08 613.96 808.97 623.5 808.69 632.5C808.29 645.12 801.35 658.24 791.97 666.49C787.33 670.56 780.87 673.95 774.64 671.79C767.19 669.21 765.64 659.34 766.29 652.53C767.55 639.4 779.22 617.43 793.74 615.4ZM766.09 699.83C701.71 699.83 637.33 699.83 572.95 699.83C578.15 697.1 583.61 695.85 588.29 691.79C592.33 688.29 594.8 683.47 598.5 679.91C606.25 681.57 613.64 684.43 621.52 685.85C642.48 689.6 664.2 690.85 685.45 689.62C697.18 688.94 709.03 687.6 720.5 685.04C726.74 683.64 733.88 679.98 740.18 680.5C744.82 686.92 748.86 692.64 756.22 696.3C759.38 697.88 763.03 698.44 766.09 699.83Z" fill="#ffffff" fill-rule="evenodd" stroke="#ffffff" stroke-width="0.25" stroke-linejoin="round"/>
<path d="M340.84 0.17C348.18 0.17 355.53 0.17 362.87 0.17C368.34 3.08 380.16 4.37 387.28 7.26C407.89 15.65 423.6 29.69 434.43 49.08C439.59 58.3 442.79 69.06 444.28 79.46C452.47 136.45 408.9 186.64 351.5 187.24C304.44 187.73 262.45 149.46 258.11 102.5C256.43 84.32 260.25 66.23 268.54 50.01C278.35 30.82 295.55 15.06 315.48 6.94C320.41 4.93 325.51 3.36 330.74 2.37C334.07 1.74 337.79 1.62 340.84 0.17ZM350.08 7.51C337.36 7.96 325.25 10.81 313.76 16.29C304.52 20.7 296.05 27.06 289.03 34.51C281.69 42.28 275.8 51.46 271.83 61.38C248.67 119.27 292.86 180.91 354.5 179.26C366.29 178.95 377.91 176.13 388.57 171.08C444.27 144.72 454.65 67.95 407.43 28.03C399.2 21.08 389.66 15.58 379.46 12.12C370.11 8.96 359.97 7.16 350.08 7.51ZM1336.83 245.96C1336.83 248.35 1336.83 250.74 1336.83 253.13C1331.66 253.64 1326.64 252.54 1321.5 252.04C1312.87 251.2 1304.16 250.78 1295.5 250.28C1262.99 248.41 1230.05 247.92 1197.5 249.18C1109.42 252.59 1022.27 264.09 936.32 283.67C907.79 290.17 879.54 297.74 851.39 305.76C843.09 308.12 834.82 310.61 826.56 313.14C822.71 314.33 818.22 315.01 815.05 317.5C816.19 321.7 818.24 325.59 819.77 329.67C822.29 336.42 824.27 343.51 825.79 350.55C832.76 382.78 830.02 418.22 809.98 445.48C803.96 453.67 796.55 460.87 788.38 466.91C784.22 470 778.06 472.2 775.2 476.5C775.88 477.78 776.61 479.78 777.94 480.55C781.38 482.54 791.27 480.37 795.5 480.05C815.5 478.52 835.41 475.58 855.5 475.34C856.6 469.24 854.56 462.77 854.81 456.5C855.6 436.33 864.82 429.47 880.09 419.5C878.06 417.15 875.42 415.5 872.98 413.53C864.96 407.05 856.43 400.24 851.63 390.86C846.01 379.89 847.48 364.09 861.72 361.35C867.67 360.2 872.04 362.67 877.5 364.08C877.23 353.18 875.2 342.54 878.32 331.7C882.75 316.31 898.71 310.35 909.58 323.9C917.52 333.79 917.57 347.06 919.5 358.84C923.59 357.5 926.99 355.22 931.5 355C944.73 354.37 953.14 365.32 949.51 378.01C944.98 393.8 929.94 402.68 920.95 415.5C925.82 419.53 932.85 420.16 937.89 424.61C947.58 433.16 950.8 446.04 951.29 458.5C951.49 463.65 950 468.57 951.35 473.5C956.63 474.23 961.94 473.11 967.27 473.47C970.56 473.7 974.04 474.99 977.32 473.79C979.8 472.88 981.54 469.67 983.65 468.1C987.36 465.33 991.74 463.66 995.79 461.5C993.28 458.27 987.67 456.05 984.08 453.42C975.76 447.31 967.38 440.29 962.47 431.04C955.49 417.89 956.35 396.93 974.53 394.14C981.43 393.08 986.37 395.55 992.5 398.06C993.57 393.8 991.86 389.04 991.77 384.5C991.62 376.52 992.67 368.23 995.23 360.66C1002.73 338.45 1026.55 332.18 1038.52 354.97C1042.74 363.01 1044.43 372.51 1044.85 381.5C1045.03 385.41 1043.91 389.83 1044.98 393.5C1048.14 393.02 1050.65 390.43 1053.73 389.28C1061.75 386.28 1069.63 388.08 1075.5 394.1C1077.81 392.75 1079.41 390.69 1081.59 389.05C1085.85 385.85 1090.24 384.45 1095.06 382.5C1092.67 378.8 1088.07 375.89 1084.69 372.82C1078.04 366.79 1071.61 360.19 1067.37 352.18C1060.71 339.61 1059.67 319.47 1078.5 318.11C1085.52 317.6 1090.38 321.16 1096.5 323.4C1096.48 319.79 1096 316.13 1095.66 312.52C1094.41 299.34 1095.44 269.86 1114.5 269.31C1135.21 268.72 1137.52 298.85 1137.02 313.5C1136.88 317.38 1135.78 321.02 1135.5 324.82C1141.3 323.37 1146.04 318.71 1152.49 317.71C1168.18 315.27 1176.16 329.44 1171.58 343.19C1167.27 356.11 1154.17 366.12 1144.46 374.95C1141.79 377.39 1138.68 379.55 1136.77 382.5C1143.24 385.96 1149.39 388.49 1154.51 394C1169.26 409.87 1165.32 436.23 1160.72 455.33C1158.88 462.95 1155.17 470.62 1155.17 478.5C1163.56 479.17 1171.96 479.83 1180.35 480.5C1178.79 476.81 1176.2 473.7 1174.48 470.05C1168.59 457.57 1163.18 434.87 1180.59 429.15C1184.24 427.95 1187.88 429.5 1191.67 429.5C1191.33 426.38 1190.1 423.39 1189.35 420.28C1186.52 408.51 1184.08 395.51 1187.09 383.53C1190.22 371.08 1201.53 363.78 1212.92 372.57C1219.47 377.61 1221.73 384.76 1225.5 391.66C1227.53 387.08 1227.87 381.45 1229.03 376.5C1232.3 362.56 1236.73 346.96 1246.76 336.26C1252.11 330.53 1259.89 326.73 1267.77 329.67C1277.19 333.19 1280.01 344.56 1280.8 353.5C1282.1 368.1 1279.19 384.24 1275.85 398.45C1274.34 404.9 1271.25 411.32 1270.5 417.88C1277.81 415.57 1283.36 409.99 1291.5 409.03C1306.84 407.21 1313.57 419.78 1309.72 433.31C1306.27 445.46 1295.85 452.3 1288.31 461.5C1289.74 463.61 1291.96 465.1 1292.85 467.59C1299.11 485.07 1277.13 488.83 1267.36 495.5C1290.52 502.69 1313.67 509.89 1336.83 517.08C1336.83 519.72 1336.83 522.35 1336.83 524.98C1329 523.89 1320.88 519.71 1313.31 517.26C1299.18 512.69 1284.94 508.5 1270.54 504.85C1262.02 502.69 1250.04 497.65 1245.3 508.5C1253.28 512.2 1260.96 515.94 1267.51 521.98C1302.05 553.86 1279.99 610.69 1266.38 647.5C1268.7 649.86 1272.03 650.14 1275 651.51C1280.41 654 1285.76 657.35 1290.43 661.04C1294.13 663.97 1297.53 666.81 1294.65 671.5C1289.59 672.4 1286.83 668.27 1283.12 665.41C1277.92 661.41 1271.62 658.21 1265.38 656.19C1244.19 649.32 1233.98 655.04 1215.49 663.5C1210.37 661.45 1206.69 657.29 1201.93 654.56C1194.44 650.27 1185.22 648.55 1176.67 649.39C1171 649.95 1165.16 651.83 1160.26 654.73C1157.49 656.38 1154.82 659.97 1151.5 660.27C1148.35 660.56 1145.46 658.66 1142.48 658.02C1137.53 656.96 1132.42 657.64 1127.66 659.23C1120.13 661.74 1115.81 669.46 1109.5 670.92C1108.43 669.78 1107.37 668.64 1106.3 667.5C1107.13 664.29 1109.17 662.33 1111.6 660.09C1120.9 651.53 1131.64 649.78 1143.86 650.5C1145.02 647.5 1143.54 642.85 1143.12 639.5C1141.96 630.14 1141 620.85 1140.42 611.43C1138.7 583.36 1140.7 550.13 1158.43 526.9C1164.86 518.48 1173.71 511.88 1183.64 508.17C1187.83 506.6 1196.2 505.75 1199.04 503.5C1196.63 500.95 1189.1 490.55 1186.88 489.64C1183.48 488.24 1178.19 488.33 1174.5 487.84C1163.58 486.39 1152.51 485.57 1141.54 487.22C1136.49 487.99 1122.42 494.19 1119.59 493.77C1115.81 493.2 1111.78 488.87 1108.36 487.13C1098.13 481.96 1084.16 478.68 1073.26 483.5C1074.2 487.99 1075.91 492.25 1076.52 496.83C1078.48 511.41 1076.33 527.07 1073.94 541.5C1072.23 551.88 1067.03 563.04 1067.41 573.5C1072.81 576.01 1087.87 579.4 1083.5 587.75C1079.22 589.32 1076.12 585.93 1072.42 584.05C1068.62 582.1 1064.31 581 1060.08 580.49C1054.1 579.77 1048.09 580.87 1042.49 582.98C1039.83 583.97 1036.46 586.66 1033.56 586.49C1029.41 586.25 1025.16 581.7 1021.36 580.16C1013.81 577.09 1005.58 576.2 997.51 577.21C988.59 578.32 979.91 581.42 971.87 585.41C967.84 587.41 963.89 590.95 959.36 589.5C958.82 588.25 958.08 587.24 958.43 585.79C959.81 580.15 975.97 575.91 980.48 572.5C972.01 547.62 962.23 519.04 968.22 492.58C969.02 489.04 970.71 485.85 972.02 482.5C965.46 479.97 956.88 480.26 949.94 481.5C948.02 491.5 946.11 501.5 944.2 511.5C948.69 512.95 953.2 512.88 955.6 517.5C953.31 524.43 946.02 519.54 940.5 519.36C937.56 519.26 934.56 519.5 931.71 520.3C929.07 521.04 926.41 523.05 923.56 522.73C920.88 522.42 918.53 519.57 916.2 518.33C911.51 515.82 905.82 514.22 900.5 514.08C888.07 513.75 878.64 520.75 867.69 525.21C861.91 527.56 854.28 529.84 848.5 526.74C848.6 525 848.71 523.25 848.81 521.5C855.52 519.51 862.87 520.94 868.5 515.59C864.83 504.66 861.17 493.73 857.5 482.8C844.09 482.71 830.85 484.88 817.5 485.8C806 486.59 793.26 485.9 782.22 489.5C785.9 500.05 791.24 509.98 794.8 520.62C798.07 530.41 799.57 540.8 802.92 550.5C805.83 550.92 808.51 550.2 811.5 550.21C817.78 550.24 824.59 551.4 830.19 554.33C850.23 564.83 853.91 588.12 851.13 608.5C847.1 637.98 826.37 673.25 801.6 690.07C793.72 695.42 787.22 696.13 779.84 699.83C775.25 699.83 770.67 699.83 766.09 699.83C763.03 698.44 759.38 697.88 756.22 696.3C748.86 692.64 744.82 686.92 740.18 680.5C733.88 679.98 726.74 683.64 720.5 685.04C709.03 687.6 697.18 688.94 685.45 689.62C664.2 690.85 642.48 689.6 621.52 685.85C613.64 684.43 606.25 681.57 598.5 679.91C594.8 683.47 592.33 688.29 588.29 691.79C583.61 695.85 578.15 697.1 572.95 699.83C567.96 699.83 562.98 699.83 557.99 699.83C550.25 696.17 544.22 695.33 536.46 690.05C510.54 672.42 492.16 640.01 486.71 609.56C483.03 589 487.74 564.93 507.75 554.26C518.21 548.69 524.71 551.88 535.09 550.5C537.53 541.2 539.21 531.88 542.3 522.73C544.1 517.42 547.08 512.08 547.64 506.5C541.89 506.37 536.21 507.4 530.49 507.67C521.11 508.12 511.81 508.75 502.47 509.71C476.85 512.36 451.14 514.38 425.5 516.84C329.44 526.08 233.79 538.94 139.63 560.3C106.31 567.86 73.49 577.36 40.87 587.46C32.11 590.16 23.53 593.45 14.87 596.44C10.09 598.09 5.15 600.53 0.17 601.14C0.17 598.46 0.17 595.78 0.17 593.11C5.16 592.53 9.92 589.93 14.68 588.26C24.63 584.76 34.68 581.56 44.7 578.27C72.21 569.22 100.51 561.88 128.71 555.34C222.16 533.65 317.93 518.57 413.5 510.02C446.49 507.07 479.44 503.08 512.5 501.03C521.49 500.48 530.49 499.26 539.5 499.01C542.88 498.92 548.4 500.03 551.3 497.81C554.21 495.59 559.93 480.86 562.79 476.5C559.63 472.03 552.86 469.41 548.4 466.06C541.06 460.55 534.35 454.02 528.77 446.74C521.18 436.85 515.57 425.34 512.26 413.35C510.5 406.99 510.61 399.45 508.15 393.5C499.08 388.85 488.56 385.94 478.95 382.52C453.78 373.58 428.46 365.04 402.8 357.6C313.25 331.65 221.76 312.73 128.5 307.21C102.37 305.67 76.05 304.77 49.87 305.49C41.43 305.73 32.94 305.8 24.5 306.25C16.42 306.69 8.24 307.73 0.17 307.08C0.17 304.71 0.17 302.34 0.17 299.98C8.4 299.49 16.64 298.99 24.87 298.5C24.18 295.23 22 293.07 20.46 290.08C18.41 286.11 17.06 281.67 16.4 277.25C14 261.25 21.62 244.37 35.73 236.24C39.89 233.83 44.38 232.83 48.92 231.5C47.92 224.03 46.13 217.29 47.22 209.53C49.75 191.51 64.12 175.62 82.52 173.21C90 172.24 96.28 173.98 103.5 175.27C105.72 172.52 106.36 168.85 108.24 165.72C111.77 159.84 116.93 154.68 123.1 151.59C148.62 138.8 175.57 155.37 180.5 181.98C187.93 181.13 193.75 176.8 202.45 177.32C226.51 178.74 243.34 198.14 244.52 221.76C244.93 229.95 242.2 236.75 240.79 244.5C248.11 246.14 254.99 246.98 261.76 250.72C277.95 259.67 284.95 278.77 281.81 296.46C280.4 304.41 275.85 310.38 272.85 317.5C279.73 318.89 286.62 320.28 293.5 321.68C293.21 317.92 291.74 314.53 291.88 310.5C292.31 298.2 299.57 287.1 311.24 282.68C316.27 280.78 321.72 282.09 326.5 280.18C328.07 271.35 326.7 266.46 331.44 257.92C339.61 243.22 357.13 235.58 373.43 239.22C380.03 240.69 385.02 244.66 390.5 248.31C406.44 242.15 417.62 242.85 424.5 260.39C430.13 261.3 435.78 259.31 441.49 260.97C454.94 264.88 463.36 276.73 463.51 290.65C463.57 295.84 461.68 300.56 461.12 305.5C473.49 310.77 478.43 319.01 474.83 332.5C477.77 334.99 481.08 336.73 483.57 339.9C492.88 351.74 489.27 363.11 482.15 374.5C490.6 377.75 499.05 381 507.5 384.25C509.49 379.4 508.51 371.14 509.23 365.52C510.83 353.03 513.86 340.52 518.28 328.73C523.42 315.04 530.01 301.93 538.51 290.01C542.56 284.34 550.82 276.78 553.5 271.56C550.99 266.32 545.51 262.18 541.83 257.71C535.01 249.43 528.58 240.78 522.64 231.86C498.55 195.66 477.82 151.82 478.07 107.5C478.21 82.38 485.6 50.52 511.68 40.19C534.44 31.18 558.67 43.71 574.69 59.81C606.81 92.09 622.57 138.77 630.65 182.68C632.41 192.22 633.82 201.84 634.76 211.5C635.25 216.45 634.45 221.74 635.9 226.5C640.45 227.42 644.87 225.6 649.5 225.03C654.43 224.43 659.54 224.46 664.5 224.24C673.04 223.87 681.98 224.19 690.47 225.28C694.21 225.76 697.73 226.87 701.5 227.06C702.68 221.77 702.58 215.95 703.19 210.5C704.19 201.49 705.59 192.46 707.18 183.53C714.41 142.95 727.62 98.56 755.65 67.18C772.73 48.06 799.42 29.28 826.12 40.42C853.22 51.73 860.49 85.2 859.46 111.55C857.53 160.95 832.81 208.3 803.82 247.31C797.57 255.72 790.38 263.29 783.93 271.5C787.73 277.13 793.01 281.88 797.05 287.42C802.2 294.46 805.98 302.66 811.16 309.5C825.18 305.17 839.21 300.83 853.23 296.5C851.8 293.27 849.43 290.63 848.46 287.1C846.09 278.52 848.71 269.72 854.94 263.44C856.84 261.52 859.25 260.31 861.13 258.5C856.06 248.11 854.87 235.32 864.35 226.84C866.83 224.62 870.13 223.52 872.78 221.5C872.19 218.8 871.1 216.33 871 213.5C870.6 202.5 877.2 191.68 888.03 188.53C893.14 187.04 898.46 188.25 903.5 187.62C908.64 176.16 914.68 169.11 928.54 170.5C929.95 166.9 931.12 163.09 933.46 159.94C939.49 151.8 951.49 149.48 960.31 154.19C964.7 156.53 967.3 160.18 970.5 163.79C976.34 161.5 980.84 158.24 987.5 157.81C1003.28 156.8 1017.17 168.52 1020.69 183.68C1021.64 187.78 1021.16 191.45 1021.41 195.5C1036.3 200.2 1043.73 205.21 1042.04 222.5C1049.44 226.49 1057.17 230.35 1059.16 239.52C1060.09 243.77 1058.97 248.27 1059.89 252.5C1064.37 251.83 1068.84 251.17 1073.32 250.5C1071.97 246.95 1069.67 243.82 1068.42 240.14C1064.41 228.37 1066.1 214.64 1075 205.5C1079.32 201.07 1084.46 199.97 1088.74 196.5C1085.28 192.22 1081.74 188.03 1079.56 182.91C1072.61 166.55 1076.68 144.84 1093.04 135.57C1102.11 130.43 1107.93 132.28 1117.23 130.5C1117.72 123.05 1117.71 116.27 1120.7 109.25C1128.45 91.09 1148.34 81.57 1167.44 86.19C1175.42 88.13 1180.93 93.04 1187.5 97.35C1191.76 92.88 1194.38 87.76 1199.8 84.33C1214.46 75.04 1235.87 77.97 1247.38 91.13C1254.25 98.97 1254.14 106.18 1258.35 114.5C1264.26 113.76 1270.31 113.15 1276.22 114.41C1297 118.85 1308.5 140.37 1305.74 160.45C1304.57 168.95 1300.68 175.3 1296.52 182.5C1300.12 184.43 1303.8 185.86 1307.02 188.48C1317.68 197.16 1322.12 211.98 1320.63 225.34C1319.74 233.24 1315.83 237.34 1314.5 243.59C1321.94 244.38 1329.39 245.17 1336.83 245.96ZM710.5 238.68C703.38 240.24 694.79 236.98 687.5 236.22C674.22 234.82 660.79 234.57 647.52 236.23C642.48 236.85 630.33 241.88 626.76 237.75C623.46 233.93 625.04 227.1 624.72 222.5C623.92 210.75 622.08 199.09 620.11 187.5C612.99 145.53 596.89 94.52 564.31 65.16C547.88 50.35 522.84 39.39 504.59 58.08C491.15 71.85 488.64 94.21 489.29 112.5C490.81 155.42 512.04 197.6 536.46 232.05C542.34 240.34 548.35 248.78 555.27 256.25C559.07 260.34 565.4 264.85 567.27 270.29C568.97 275.22 563.42 278.08 560.5 281C552.21 289.29 545.64 299.2 539.74 309.27C523.7 336.59 515.5 370.95 521.31 402.36C526.59 430.88 544.98 453.78 570.51 467.02C582.64 473.31 595.47 476.3 608.46 480.11C612.15 481.19 615.05 484.01 613.61 488.18C612 492.8 605.86 490.84 602.5 490.01C597.23 488.7 591.91 487.45 586.78 485.64C582.35 484.08 578.1 481.79 573.5 480.99C569.24 486.07 566.44 493.09 563.53 499.06C555.05 516.47 549.19 535.46 545.77 554.5C549.48 558.5 554.96 560.7 559.1 564.41C568.47 572.84 575.57 583.12 581.22 594.3C584.25 600.28 587.45 606.7 587.16 613.5C580.98 618.37 577.77 611.24 575.48 606.04C567.32 587.52 554.01 568.16 533.5 562.55C531.28 568.09 532.89 574.93 535.16 580.35C536.62 583.82 540.06 586.58 537.5 590.01C526.72 589.25 528.23 568.17 526.5 561.11C523.42 561.03 520.54 561.3 517.56 562.17C502.03 566.75 504.14 577.22 510.25 589.28C511.87 592.48 515.81 595.94 515.18 599.5C507.58 604.55 502.1 583.57 500.5 578.59C493.21 587.6 496.77 606.33 499.62 616.78C505.55 638.52 518.14 659.52 534.74 674.77C542.83 682.21 553.13 688.98 564.5 689.12C577.17 689.27 586.38 681.29 590.01 669.49C591.16 665.77 591.41 656.49 592.73 654.22C593.51 652.87 595.2 652.31 596.5 651.65C604.91 653.85 601.62 662.08 601.5 668.64C613.19 675.19 629.42 675.97 642.5 677.22C675.67 680.41 703.62 677.94 735.7 669.5C736.51 663.85 733.9 657.27 737.91 652.5C746.78 650.43 745.51 657.45 746.11 663.5C746.39 666.38 747.35 669.39 748.48 672.04C754.36 685.9 767.71 692.05 782.1 687.56C810.36 678.73 832.59 640.7 839.16 613.54C841.71 603.01 844.11 587.29 837.5 577.81C834.7 584.03 832.39 600.19 823.65 600.5C821.72 595.84 826.43 592.02 828.37 587.85C833.92 575.88 834.56 565.35 819.5 562.02C816.43 561.35 813.73 561.01 810.68 561.5C810.43 565.15 810.94 568.81 810.65 572.44C810.39 575.67 806.37 588.49 803.26 589.77C802.27 590.18 801.51 589.92 800.5 590.01C797.94 586.32 801.24 583.85 802.72 580.26C804.97 574.78 806.54 568.58 804.5 562.91C789.45 564.17 773.53 583.87 766.83 596.34C763.6 602.35 761.58 613.33 754.5 615.41C746.01 612.05 752.82 601.79 755.56 596.05C761.49 583.67 770.05 571.92 780.52 563C783.96 560.07 788.22 558.41 791.61 555.5C792.11 548.1 789.45 540.4 787.19 533.39C783.27 521.25 779.04 509.44 773.58 497.9C770.95 492.35 768.57 485.42 764.5 480.84C755.55 482.51 746.66 486.92 737.79 489.38C733.39 490.6 728.78 492.27 724.78 489.5C723.6 486.41 723.39 483.02 726.61 481.07C729.38 479.39 733.89 479.41 737.06 478.52C746.01 476.02 754.83 472.65 763.25 468.71C785.96 458.07 805.13 439.68 813.11 415.54C824.21 382.01 816.47 342.28 799.49 311.99C793.74 301.75 786.96 292.11 779.14 283.35C776.36 280.24 769.99 276.03 770.18 271.52C770.37 267.01 776.57 263.02 779.3 259.81C787.47 250.21 795.27 240.28 802.44 229.92C826.26 195.49 846.31 155.05 848.09 112.5C848.92 92.89 846.59 70.45 831 56.5C812.43 39.9 787.35 51.65 771.84 66.35C739.75 96.74 724.7 146.27 717.14 188.51C715.13 199.69 713.34 211.12 712.86 222.5C712.63 227.85 714.19 234.29 710.5 238.68ZM1251.5 123.32C1248.16 118.17 1249.71 110.4 1246.96 104.53C1239.02 87.65 1218.05 80.53 1202.63 92.09C1199.21 94.66 1196.25 97.94 1194.22 101.72C1192.53 104.88 1192.56 107.95 1189.5 110.09C1184.12 108.8 1178.6 98.61 1170.36 95.12C1151.92 87.32 1130.55 98.18 1126.28 117.63C1125.51 121.15 1124.98 124.9 1125.18 128.5C1125.41 132.55 1126.96 135.76 1125.5 139.73C1118.13 140.72 1112.54 136.92 1104.55 139.12C1086.5 144.09 1078.52 164.93 1087.42 181.1C1091.38 188.31 1099.89 193.94 1102.46 199.5C1099.86 203.76 1094.57 203 1090.15 204.62C1082.33 207.5 1075.91 214.4 1074.33 222.7C1073.12 229.1 1076.18 247.29 1083.76 249.65C1089.33 251.39 1109.5 247.67 1116.5 247.07C1136.5 245.36 1156.45 243.45 1176.5 242.28C1184.28 241.83 1193.06 243.39 1200.59 241.47C1200.59 238.48 1200.59 235.49 1200.59 232.5C1193.82 229.52 1186.56 227.9 1179.85 224.62C1166.99 218.31 1155.67 208.93 1146.78 197.72C1143.2 193.21 1136.24 185.96 1137.5 180.09C1141.94 180.24 1143.25 184.25 1145.63 187.84C1149.5 193.69 1154.73 202.9 1161.5 205.33C1163.36 198.51 1162.91 191.06 1161.42 184.15C1160.58 180.25 1157.46 176.27 1160.5 173.05C1164.26 175.2 1165.09 179.45 1165.99 183.5C1168.55 195.01 1166.16 199.87 1165.98 210.5C1176.29 217.24 1186 224.25 1198.5 226.3C1200.8 217.43 1198.23 206.67 1197.92 197.5C1197.42 182.51 1198.53 167.41 1199.97 152.5C1200.45 147.46 1201.37 142.51 1202.08 137.5C1202.32 135.78 1202.15 132.18 1203.33 130.81C1204.24 129.76 1205.3 130.23 1206.5 130.13C1208.73 133.42 1205.25 144.94 1204.74 149.5C1203.38 161.53 1202.84 173.4 1202.94 185.5C1202.98 190.21 1202.58 195.23 1203.5 199.81C1216.66 192.07 1225.75 176.39 1230.91 162.46C1232.65 157.75 1234.17 144.17 1239.58 143.5C1242.89 149.42 1234.43 163.6 1233.19 170.5C1238.82 171.75 1244.51 169.75 1249.52 167.03C1252.96 165.17 1254.68 162.45 1258.77 163.5C1258.19 170.54 1245.78 174.65 1239.5 175.3C1236.81 175.58 1232.94 174.45 1230.54 175.93C1228.08 177.46 1222.97 187.65 1220.34 190.82C1217.21 194.58 1213.76 198.4 1209.85 201.37C1208.06 202.72 1204.67 204.01 1203.54 206C1202.07 208.58 1203.01 212.7 1203.29 215.49C1204.06 223.17 1204.01 234.09 1206.5 241.09C1215.07 242.08 1223.88 241.34 1232.5 241.29C1247.21 241.21 1261.81 241.32 1276.5 242.15C1282.4 242.48 1299.73 245.18 1304.35 242.97C1307.2 241.62 1308.94 237.27 1310.11 234.57C1314.31 224.88 1314.46 213.31 1309.65 203.81C1306.81 198.21 1301.79 193.05 1295.93 190.57C1292.18 188.99 1287.81 188.92 1285.26 185.5C1286.35 179.88 1293.42 174.08 1296.01 167.49C1302.88 150.03 1294.78 127 1275.44 122.22C1271.37 121.22 1266.88 120.68 1262.71 121.37C1258.63 122.05 1255.71 124.48 1251.5 123.32ZM610.63 244.5C601.25 249.99 591.88 255.47 582.5 260.96C574.27 259.14 562.85 241.65 557.88 234.64C538.86 207.81 521.26 175.79 518.02 142.5C516.7 128.96 517.41 106.42 531.97 99.49C549.34 91.23 566.45 110.89 575.2 123.31C597.75 155.28 609.57 205.94 610.63 244.5ZM756.5 261.05C746.83 255.77 737.17 250.49 727.5 245.21C725.23 236.67 728.96 217.58 730.68 208.38C736.25 178.56 745.56 146.85 763.49 121.96C772.34 109.67 787.93 91.69 805.11 99.44C821.76 106.96 820.93 131.66 818.89 146.5C814.42 179.01 797.65 209.9 778.54 236.05C773.7 242.68 763.31 257.37 756.5 261.05ZM605.1 241.5C605.59 228.84 602.86 215.78 600.25 203.44C594.73 177.33 586.66 150.2 571.68 127.82C565.23 118.2 549.64 98.94 536.2 103.68C520.71 109.14 522.21 136.36 524.55 148.9C529.99 178.05 543.99 205.52 560.89 229.65C566.89 238.21 573.65 247.4 581.5 254.32C589.37 250.05 597.23 245.77 605.1 241.5ZM755.51 254.5C763.88 249.12 770.29 238.56 776.03 230.56C793.5 206.2 808.31 177.33 813.07 147.5C815.03 135.24 816.62 110.33 802.41 104.08C788.66 98.03 773.27 117.36 766.6 127.11C749.5 152.1 740.65 182.91 735.91 212.5C734.53 221.13 732.13 232.1 732.5 240.69C740.17 245.29 747.84 249.9 755.51 254.5ZM175.5 192.74C172.11 188.64 172.3 176.04 166.95 168.55C155.3 152.24 130.5 150.12 117.49 165.99C115.24 168.73 113.25 172.24 112.25 175.65C111.34 178.75 111.42 182.15 109.5 184.74C102.75 185.48 96.01 179.95 87.5 180.15C68.58 180.6 54.25 198.2 54.38 216.5C54.43 223.02 59.44 232.97 58.21 237.5C55.13 239.17 51.94 238.52 48.51 239.08C43.91 239.83 39.28 242.27 35.73 245.23C23.84 255.18 20.25 273.3 27.47 287.03C29.18 290.3 32.95 296.56 36.65 297.82C39.8 298.9 44.2 298.16 47.5 298.2C56.5 298.29 65.5 298.09 74.5 298.01C89.18 297.88 103.85 298.14 118.5 299.16C126.14 299.69 134.51 301.51 142.06 300.5C142.06 295.72 142.06 290.94 142.06 286.16C136.08 283.04 129.55 281.21 123.7 277.8C112.7 271.39 103 262.39 94.88 252.65C91.3 248.35 85.59 242.71 84.5 237.15C88.43 234.56 89.78 238.27 92.09 241.38C95.69 246.23 99.91 253.36 105.5 255.87C105.72 252.37 104.06 244.15 103.25 240.44C102.9 238.88 101.7 235.69 102.67 234.16C103.18 233.36 103.78 233.5 104.5 233.07C105.22 233.45 105.84 233.35 106.4 234.06C108.27 236.42 109.45 251.16 110.39 255.23C111.05 258.08 111.83 261.56 113.54 263.98C117.46 269.53 134.55 279.74 141.11 279.5C141.17 262.81 141.27 246.21 141.87 229.5C142.1 223.35 140.89 213.78 144.5 208.72C149.52 210.35 147.4 214 147.06 218.5C146.37 227.63 144.68 238.13 146.5 247.03C154.41 244.64 162.18 238.3 167.67 232.19C170.45 229.09 171.79 223.94 176.5 226C176.18 233.87 161.24 244.63 154.76 248.3C152.48 249.59 147.96 250.81 146.4 252.88C144.13 255.93 145.75 262.05 145.89 265.5C146.19 272.83 146.66 280.17 146.84 287.5C146.96 291.92 146.51 296.16 147.4 300.5C151.72 302.08 156.85 301.88 161.45 302.36C171.11 303.37 180.81 304.1 190.46 305.29C207.43 307.4 224.4 309.67 241.29 312.39C248.33 313.53 255.46 315.36 262.5 316.08C280.31 298.09 280.21 267.85 255.5 255.96C250.85 253.72 245.66 252.46 240.5 252.3C236.96 252.19 233.73 253.44 230.5 252C228.37 247.67 231.87 245.05 233.5 241.02C235.73 235.48 237.03 229.48 236.96 223.5C236.7 202.85 220.99 184.53 199.5 185.28C194.61 185.45 189.73 186.68 185.34 188.81C181.87 190.5 179.43 192.53 175.5 192.74ZM966.5 175.82C963.99 172.94 964.27 168.74 962.01 165.52C956.39 157.52 944.45 156.84 938.85 165.35C936.09 169.54 937.49 174.5 934.5 178.37C931.6 178.78 929.34 177.49 926.48 177.41C919.8 177.22 913.65 181.61 911.41 187.87C910.22 191.18 911.2 194.55 909.5 197.59C904.59 198.32 901.43 194.94 896.5 194.87C885.67 194.71 877.64 203.8 879.11 214.49C879.78 219.37 883.19 222.51 882.5 227.48C879.94 228.26 877.3 228.39 874.77 229.34C866.54 232.42 862.65 241.48 865.68 249.77C867.64 255.12 873.13 256.57 872.94 262.5C869.44 265.21 864.83 264.91 861.27 267.77C854.31 273.37 853.01 283.79 858.92 290.6C859.88 291.7 861.13 293.5 862.61 293.91C865.36 294.68 868.03 292.95 870.59 292.18C875.84 290.62 881.22 289.47 886.5 287.99C903.38 283.27 920.51 279.28 937.58 275.26C943.81 273.79 955.29 273.01 960.13 269.5C958.92 262.96 957.71 256.41 956.5 249.87C951.53 247.4 946.4 245.04 942.02 241.51C939.66 239.61 937.08 235.12 934.3 234.09C931.4 233.02 924.52 234.1 920.49 233.15C916.94 232.31 909.53 230.77 909.62 226.5C910.44 226.01 910.52 225.51 911.54 225.36C913.2 225.12 915.62 226.9 917.2 227.39C921.07 228.61 925.45 229.45 929.5 229.48C929.35 224.36 924.14 220.68 923.5 215.36C928.64 212.5 929.93 219.65 932.25 223.27C936.71 230.22 946.44 242.24 954.97 243.5C956 240.43 954.65 236.72 954.21 233.49C953.33 226.85 952.63 220.17 951.99 213.5C951.62 209.68 949.43 205.27 952.5 202.36C957.06 203.8 956.06 211.24 956.68 215.56C957.82 223.53 958.99 231.51 960 239.5C960.57 243.99 960.31 249.63 962.5 253.58C971.16 248.72 978.05 230.81 979.87 221.49C980.73 217.05 979.79 208.97 982.5 206.06C988.42 207.94 984.99 218.17 984.5 223.08C989.87 221.4 992.29 213.84 997.5 213.25C999.06 219.15 991.84 223.77 987.83 227.34C981.08 233.34 978.23 240.51 973.49 248C970.65 252.48 966.85 255.57 963.58 259.5C964.22 262.48 964.86 265.46 965.5 268.45C993.89 263.46 1022.29 258.48 1050.68 253.5C1053.99 245.42 1051.86 235.89 1043.79 231.67C1040.41 229.89 1036.76 230.47 1033.5 228.64C1032.63 224.43 1035.32 220.76 1035.11 216.5C1034.78 209.78 1028.05 203.51 1021.41 203.5C1018.22 203.49 1015.62 204.94 1012.37 204.5C1010.08 199.98 1014.07 194.6 1013.77 189.5C1012.85 173.87 998.63 162.74 983.53 166.01C976.71 167.49 972.41 175.61 966.5 175.82ZM389.5 258.22C383.03 254.12 382.33 250 373.33 247.22C357.24 242.24 340.36 252.24 335.53 268.04C334.32 272.01 333.68 276.35 334.14 280.49C334.53 284.13 335.57 286.62 334.5 290.22C330.37 291.25 327.4 288.79 323.35 288.33C319.63 287.91 315.46 289.07 312.09 290.6C302.94 294.74 297.78 305.86 299.93 315.5C300.5 318.1 301.66 322.82 304.09 324.37C306.64 326 317.6 327.47 321.27 328.35C334.89 331.59 348.43 335.02 361.99 338.51C366.37 339.63 377.55 344.12 380.85 341.5C380.64 340.45 380.97 340.1 380.36 339.11C379.45 337.63 376.57 336.48 375.23 335.27C372.97 333.23 370.92 330.83 369.05 328.43C363.07 320.75 359.14 311.39 356.45 302.09C355.21 297.8 351.24 290.18 355.5 287.25C360.95 290.92 358.61 300.81 363.5 305.37C366.12 300.6 366.91 292.68 371.5 289.79C377.35 296.69 365.45 306.84 365.54 312.5C365.64 318.53 377.41 331.5 382.5 334.33C387.51 327.34 388.92 307.28 389.12 298.5C389.22 294.09 386.58 286.25 391.5 284.48C394.59 287.21 393.87 291.64 393.87 295.5C393.87 301.74 393.59 307.81 392.49 313.96C391.73 318.14 389.68 323.52 391.03 327.5C401.23 325.71 409.5 315.43 414.5 307.02C417.11 302.63 418.14 294.85 423.5 294.07C425.54 301.17 418.64 305.82 418.08 312.5C424.36 313.49 430.82 309.24 436.13 310.5C437.33 316.27 425.98 317.11 422.08 317.51C419.68 317.76 416.15 316.76 413.97 317.54C411.22 318.52 408.96 322.45 406.86 324.37C404.78 326.29 402.2 327.89 399.73 329.25C397.06 330.71 390.29 332.34 388.66 334.16C386.74 336.31 386.14 340.8 385.26 343.5C390.24 347.19 398.43 348.36 404.35 350.24C419.02 354.9 433.67 359.62 448.35 364.25C453.33 365.82 467.35 371.57 471.62 371.63C474.25 371.67 476.79 368.68 478.21 366.72C482.77 360.38 482.68 352.58 478.34 346.17C474.33 340.24 469.4 340.64 465.5 336.43C465.65 333.38 467.34 331.37 468 328.47C469.37 322.51 466.7 314.99 460.2 313.37C456.9 312.55 453.71 313.47 450.5 312.16C449.37 306.51 454.66 301.11 455.61 295.29C457.76 282.01 448.93 269.04 435.31 267.4C429.57 266.7 424.76 270.51 419.41 269.5C417.58 266.49 417.79 263.25 416.45 260.05C413.76 253.64 405.55 250.31 399.12 252.59C395.31 253.94 393.54 257.28 389.5 258.22ZM207.05 251.5C206.55 255.65 203.65 256.43 200.64 259.1C197.39 261.98 194.33 265.99 192.39 269.86C191.1 272.45 190.75 274.65 187.5 274.33C185.41 271.22 187.12 268.64 189.05 265.59C192.56 260.04 199.87 249.79 207.05 251.5ZM1125.34 346.5C1122.81 342.25 1125.69 336 1126.61 331.26C1129.22 317.87 1131.15 303.69 1127.23 290.37C1125.58 284.76 1122.29 277.49 1115.5 277.14C1109.51 276.83 1106.19 283.23 1104.62 288.17C1100.85 300.07 1102.83 314.44 1105.15 326.47C1106.14 331.64 1109.91 337.88 1104.5 341.24C1096.87 338.94 1091.09 322.89 1078.39 325.68C1068.84 327.78 1069.29 337.8 1072.43 345.1C1077.21 356.21 1086.52 364.31 1095.52 371.98C1098.54 374.54 1101.83 378.46 1105.5 379.61C1105.53 372.78 1097.65 360.51 1093.62 354.87C1091.09 351.33 1086.5 348.06 1087.5 343.45C1092.28 343.16 1094.64 347.51 1097.28 351.26C1101.26 356.91 1104.24 363.12 1107.15 369.37C1108.7 372.69 1109.81 377.22 1112.5 379.61C1114.96 375.73 1113.94 369.04 1114.04 364.5C1114.32 351.61 1114.39 338.6 1113.54 325.73C1113.32 322.39 1111.75 311.52 1113.76 309.19C1114.5 308.34 1115.52 308.52 1116.5 308.32C1119.81 313.95 1118.89 323.11 1119.11 329.5C1119.69 346.11 1118.83 362.55 1118.5 379.06C1122 377.3 1122.35 373.12 1124.17 369.67C1127.63 363.11 1131.89 356.79 1136.5 350.99C1139.1 347.73 1142.05 343.02 1146.55 344.5C1146.3 349.13 1141.93 352.11 1139.16 355.69C1133.9 362.52 1127.31 371.17 1125.5 379.72C1130.36 379.07 1134.61 373.14 1138.16 369.66C1146.1 361.86 1156.1 355.03 1161.96 345.41C1164.76 340.82 1166.75 334.68 1163.88 329.66C1157.95 319.31 1144.19 327.9 1138.58 334.09C1136.49 336.39 1134.98 339.16 1133.23 341.71C1130.98 344.97 1129.57 347.29 1125.34 346.5ZM914.5 375.78C907.9 373.95 910.81 368.1 911.02 362.5C911.43 351.74 910.71 341 904.97 331.57C902.71 327.87 899.32 323.78 894.53 324.17C889.64 324.57 886.91 330.07 885.58 334.14C882.14 344.72 883.98 356.81 886.13 367.49C887.03 371.96 890.08 377.23 886.5 380.91C877.97 379.86 874.18 364.98 861.7 369.23C853.98 371.85 855.36 381.46 858.37 387.17C863.44 396.8 873.16 404.38 881.86 410.6C884.66 412.61 888.13 416.06 891.56 416.5C891.39 408.2 883.51 399.36 878.41 393.13C876.02 390.2 872.9 388.3 872.28 384.5C876.35 381.77 879.4 386.5 882.02 389.47C888.85 397.2 892.33 406.4 897.5 415.07C900.03 411.94 898.43 406.59 898.19 402.5C897.5 391.14 897.65 379.8 896.21 368.49C895.62 363.89 893.19 355.85 896.5 352.27C901.71 353.49 900.92 362.71 901.41 367.32C902.53 377.69 903 388.08 903.08 398.5C903.12 403.73 901.97 410.78 904.5 415.34C906.52 412.44 906.69 408.84 907.98 405.5C910.6 398.76 913.79 392.3 917.65 386.2C919.61 383.1 922.03 377.75 925.88 377.5C928.41 381.47 924.31 385 922.04 388.59C918.11 394.8 911.38 406.07 911.5 413.33C915.16 411.23 917.46 407.03 920.41 403.9C927.86 396.02 936.54 388.63 940.92 378.46C945.04 368.87 940.32 359.48 928.76 363.35C922.06 365.59 920 372.49 914.5 375.78ZM1255.45 442.5C1254.55 441.03 1253.95 440.41 1254.06 438.51C1254.3 434.24 1259.97 423.95 1261.63 419.2C1268.33 399.97 1273.7 379 1273.32 358.5C1273.19 351.75 1272.29 339.66 1264.67 336.76C1255.86 333.41 1248.09 346.22 1245.01 352.52C1237.68 367.49 1234.82 384.58 1232.5 400.94C1231.68 406.69 1232 418.01 1229.63 422.5C1223.2 424.01 1223.39 416.84 1222.46 412.11C1220.44 401.87 1218.66 390.09 1211.55 381.95C1208.84 378.85 1204.88 374.95 1200.38 376.79C1195.51 378.78 1194.17 385.7 1193.58 390.29C1191.99 402.8 1195.62 416.92 1199.79 428.66C1201.55 433.59 1205.84 439.63 1202.86 444.5C1195.36 446.71 1189.07 430.56 1180.25 437.77C1174.35 442.59 1176.02 452.21 1178.14 458.42C1182.47 471.13 1190.58 482.18 1199.31 492.2C1202.46 495.82 1206.09 500.73 1210.5 502.59C1210.73 493.25 1202.96 479.2 1198.53 470.96C1196.21 466.66 1191.33 462.29 1192.5 457.31C1197.58 457.38 1199.99 462.97 1202.35 467.18C1206.43 474.44 1209.8 482.01 1212.6 489.85C1213.79 493.18 1214.17 498.3 1216.5 500.6C1217.63 492.44 1216.01 483.66 1215.21 475.5C1214 463.14 1212.71 450.79 1210.9 438.5C1210.17 433.49 1205.81 420.82 1208.5 417.09C1209.69 417.29 1210.59 416.95 1211.49 417.97C1213.87 420.64 1215.05 433.68 1215.69 437.6C1218.13 452.49 1219.49 467.47 1220.79 482.5C1221.38 489.28 1220.74 497.33 1222.5 503.77C1224.36 501.91 1224.19 499.14 1224.63 496.33C1225.64 490.03 1226.66 483.75 1227.8 477.48C1231.7 455.91 1236.7 434.45 1242.82 413.4C1244.46 407.74 1246.28 402.14 1247.82 396.45C1248.41 394.25 1248.73 390.62 1250.46 388.96C1251.56 387.89 1252.14 388.2 1253.5 387.92C1255.82 391.12 1253.6 394.41 1252.47 397.94C1250.28 404.84 1248.2 411.75 1246.35 418.74C1240.96 439.14 1236.39 459.64 1232.72 480.41C1231.52 487.19 1228.19 498.43 1229.5 504.86C1232.82 503.35 1236.27 493.7 1238.44 489.91C1245.58 477.41 1253.81 465.64 1263.17 454.71C1266.66 450.62 1271.04 444.31 1276.5 443.85C1276.75 444.89 1277.24 445.28 1277.12 446.46C1276.83 449.21 1267.85 456.58 1265.69 459.2C1257.62 468.94 1250.14 479.36 1243.9 490.38C1241.82 494.05 1238.23 498.7 1238.5 502.86C1242.15 499.92 1245.81 496.74 1249.97 494.5C1258.66 489.81 1268.33 487.26 1276.98 482.48C1281.93 479.74 1287.62 475.72 1285.08 469.5C1281.21 467.54 1276.98 469.21 1273.67 466.5C1273.18 461.53 1278.86 459.44 1282.15 456.63C1289.84 450.07 1297.48 442.56 1301.77 433.28C1303.72 429.05 1304.84 422.99 1301.28 419.21C1297.68 415.38 1291.81 416.14 1287.37 417.84C1278.94 421.08 1271.85 427.78 1266.01 434.51C1262.78 438.22 1261.07 443.62 1255.45 442.5ZM592.71 344.41C625.45 339.94 632.44 389.98 600.45 394.74C566.44 399.8 559.44 348.95 592.71 344.41ZM738.61 344.35C771.53 340.87 777.4 390.34 745.47 394.84C711.3 399.66 705.19 347.88 738.61 344.35ZM1022.5 450.91C1026.3 445.92 1027.79 437.11 1029.51 431.02C1034.67 412.74 1039.82 392.33 1036.38 373.27C1034.84 364.68 1031.37 352.81 1022.33 349.24C1014.4 346.1 1008.28 351.59 1004.65 358.19C998.06 370.16 998.95 386.26 1001.38 399.27C1002.33 404.38 1005.78 410.43 1004.23 415.5C998.92 418.7 996.7 412.56 993.49 409.02C986.72 401.55 972.41 396.92 966.93 408.5C959.04 425.18 982.55 443.53 994.59 450.93C998.57 453.37 1003.57 457.34 1008.19 457.5C1005.8 449.55 999.85 441.33 994.57 434.91C991.47 431.14 986.98 428.33 985.9 423.5C990.19 420.51 993.71 425.98 996.41 429.12C1001.37 434.91 1005.74 441.35 1009.53 447.96C1011.46 451.31 1012.28 455.06 1015.5 457.28C1016.85 455.88 1016.01 458.03 1017.02 456.35C1018.04 454.65 1016.29 442.37 1016.15 439.5C1015.48 425.46 1015.8 411.54 1015.82 397.5C1015.82 392.7 1014.24 385.07 1017.5 381.3C1023.33 382.94 1020.07 393.55 1020.04 398.5C1019.97 410.99 1021.23 423.4 1021.5 435.88C1021.6 440.42 1019.79 447.35 1022.5 450.91ZM749.47 352.51C738.74 351.94 737.84 368.59 748.5 368.99C759 369.38 759.88 353.07 749.47 352.51ZM600.64 353.21C590.58 356.53 596.76 372.46 606.93 368.44C616.7 364.57 610.66 349.9 600.64 353.21ZM671.94 407.5C671.07 419.35 683.46 427.39 693.66 420.16C697.98 417.11 696.9 411.65 702.5 411.07C707.62 417.83 696.48 426.5 690.49 428.08C684.79 429.57 677.63 428.2 673 424.52C671.32 423.18 670.16 421.46 668.5 420.31C662.73 427.68 654.5 430.8 645.42 427.14C639.37 424.7 632.52 418.62 634.51 411.5C635.58 411.39 636.18 410.9 637.32 411.22C638.01 411.41 643.11 419.74 646.04 421.45C656.26 427.4 666.46 417.68 665.6 407.5C660.15 403.41 651.96 400.58 651.01 392.5C649.55 380.11 674.89 381.62 681.99 384.52C684.26 385.44 686.15 387.29 686.6 389.78C688.29 399.23 677.84 403.31 671.94 407.5ZM1155.44 440.5C1162.23 411.68 1150.28 389.09 1119.5 387.14C1108.92 386.47 1084.93 389.96 1080.29 401.75C1078.61 406.01 1079.33 412.13 1080.5 416.28C1086.18 417.52 1091.68 418.17 1097.5 418.21C1101.15 418.23 1104.08 417.34 1106.23 420.5C1104.58 424.13 1101.22 423.6 1097.49 423.42C1091.44 423.11 1082.62 420.59 1077.12 421.5C1074.74 426.55 1075.4 432.08 1075.93 437.5C1077.06 449.07 1079.47 462.21 1083.5 473.11C1087.65 474.2 1092.21 474.28 1096.49 475.09C1105.45 476.79 1113.08 480.58 1120.5 485.77C1124.7 484.66 1128.56 482.53 1132.78 481.38C1136.99 480.23 1141.38 480.14 1145.5 479.09C1149.4 472.9 1153.54 454.96 1154.18 447.5C1150.39 446.63 1146.46 447.61 1142.5 447.7C1137.8 447.81 1133.18 447.43 1128.5 447.09C1124.86 446.82 1120.39 447.77 1120.5 443.15C1123.73 441.37 1127.75 442.44 1131.5 442.59C1138.94 442.87 1148.73 444.19 1155.44 440.5ZM681.33 391.5C676.63 386.26 661.87 386.33 656.5 390.71C656.83 396.24 664.68 402.58 670.39 401.72C675.02 401.02 679.77 395.53 681.33 391.5ZM1035.5 456.13C1047.67 450.03 1064.62 431.9 1069.65 419.21C1072.29 412.56 1074.05 402.9 1067.79 397.69C1061.44 392.41 1054.24 397.03 1048.99 401.49C1040.88 408.39 1041.17 417.66 1038.71 427.33C1037.4 432.46 1034.64 437.66 1034.5 442.93C1037.31 440.18 1038.26 436.11 1040.17 432.67C1042.28 428.87 1044.77 425.34 1047.37 421.88C1049.66 418.83 1051.47 415.25 1055.5 416.79C1055.61 420.67 1051.85 423.9 1049.68 427.21C1045.66 433.33 1035.5 449.42 1035.5 456.13ZM942.36 474.5C944.73 458.34 944.6 436.39 928.13 427.41C913.21 419.28 890.93 421.28 876.88 430.39C868.71 435.69 862.06 445.52 863.42 455.5C871.22 457.91 879.51 456.64 887.5 455.75C891.46 455.31 895.98 453.4 898.88 456.5C897.46 460.63 893.46 459.62 889.56 460.31C880.83 461.85 871.82 459.93 863.22 461.5C861.87 478.85 870.42 495.65 875.5 511.79C879.21 511.49 882.41 509.51 886.07 508.54C892.03 506.98 898.36 506.47 904.5 507.09C908.8 507.53 913.16 508.64 917.1 510.43C919.37 511.46 922.02 513.91 924.52 514.17C926.99 514.42 932.89 512.95 934.88 511.39C936.79 509.89 937.11 506.37 937.58 504.14C939.12 496.74 940.87 489.03 941.47 481.5C936.47 480.6 924.8 483.5 918.5 483.83C914.47 484.03 910.68 484.79 909.25 480.5C911.99 477.99 915.91 478.97 919.5 478.71C926.65 478.19 936.11 478.15 942.36 474.5ZM1067.5 437.61C1060.27 444.57 1053.04 451.54 1045.81 458.5C1049.36 461.7 1054.83 462.68 1058.86 465.61C1062.69 468.4 1065.04 472.55 1068.5 475.46C1070.9 475.46 1073.3 475.46 1075.7 475.46C1075.26 466.97 1071.64 458.86 1070.21 450.47C1069.49 446.28 1069.88 440.95 1067.5 437.61ZM1065.98 489.5C1063.38 472.27 1043.86 464.66 1028.5 464.08C999.45 462.98 969.7 477.82 974.93 511.5C982.68 515.84 994.93 514.2 1003.5 513.71C1007.72 513.46 1013.4 511.21 1016.6 514.5C1014.98 518.82 1009.79 518.21 1005.69 518.46C995.54 519.07 985.56 518.17 975.5 517.78C974.43 530.48 983.1 558.72 988.5 570.75C997.62 570.36 1005.06 568.65 1014.45 570.26C1018.64 570.97 1023.46 572.31 1027.19 574.35C1029.19 575.44 1031.2 577.61 1033.54 577.87C1036.95 578.25 1040.61 575.38 1043.79 574.4C1048.6 572.91 1054.07 573.83 1058.5 571.86C1060.69 562.74 1062.87 553.62 1065.06 544.5C1061.07 544.24 1057.34 545.96 1053.37 546.67C1047.1 547.78 1040.85 548.08 1034.5 547.96C1030.68 547.9 1026.64 548.57 1023.57 546.5C1025.13 541.29 1029.83 542.43 1034.5 542.63C1045.27 543.09 1055.23 541.45 1065.5 538.29C1067.87 534.49 1067.8 529.93 1068.31 525.54C1069.45 515.78 1070.59 505.09 1067.92 495.5C1061.79 494.58 1053.2 498.36 1046.5 498.84C1042.44 499.14 1039.65 500.63 1037.86 496.5C1042.32 491.79 1058.87 494.4 1065.98 489.5ZM609.5 506.39C615.83 512.84 622.17 519.29 628.5 525.74C633.5 523.28 637.04 518.36 642.08 515.59C656.87 507.46 673.39 506.06 689.15 512.4C694.14 514.41 698.7 517.27 702.99 520.5C705.29 522.23 706.81 524.44 709.5 525.56C713.41 522.82 717.55 518.75 720.49 514.96C722.34 512.58 723.88 508.64 726.78 507.32C728.98 506.32 730.43 506.77 732.5 507.68C736.24 514.82 724.8 524.01 720.08 528.59C706.81 541.46 682.81 556.98 686.5 578.41C691.29 576.46 695.82 566.91 701.6 570.5C701.54 571.69 701.77 572.58 701.16 573.67C700.31 575.18 691.16 582.81 688.92 585.5C689.33 587.56 689.67 588.78 691.06 590.43C692.12 591.68 693.36 592.87 694.71 593.81C704 600.3 708.24 581.72 716.22 582.5C718.55 588.05 710.27 593.45 707.02 597.5C712.59 599.11 719.41 596.63 724.6 594.11C738.5 587.36 749.12 574.53 757.23 561.72C759.71 557.79 762.02 553.68 763.9 549.43C764.71 547.6 765.27 544.7 767.08 543.56C768.22 542.84 769.23 543 770.5 542.84C774.88 545.39 773.79 549.41 772.17 553.63C769.19 561.41 764.79 568.64 759.79 575.28C755.24 581.33 750.01 586.85 744.32 591.83C741.9 593.95 737.1 596.23 735.55 599.02C733.57 602.57 732.35 614.99 730.62 620.19C724.82 637.57 711.43 651.37 694.22 657.66C664.23 668.63 628.91 659.28 612.28 631.25C608.52 624.89 605.85 617.54 604.29 610.33C603.57 606.97 604.21 602.12 602.28 599.21C599.84 595.53 594 592.9 590.77 589.73C582.37 581.52 574.66 571.78 569.04 561.45C566.37 556.55 561.67 548.65 565.53 543.5C567.43 543.14 568.93 542.52 570.78 543.66C573 545.04 579.13 559.78 581.23 563.27C588.42 575.22 599.15 586.28 611.31 593.19C617.18 596.52 624.32 599.44 630.98 597.5C627.71 592.97 619.85 588.63 621.5 582.47C630.64 582.22 635.06 604.3 646.46 590.96C647.67 589.55 648.42 588.16 649.19 586.5C646.12 580.91 636.69 576.93 636.5 570.58C642.13 566.94 646.55 577.21 651.5 578.57C655.61 558.56 630.12 540.71 617.61 528.91C612.3 523.9 603.77 516.23 604.43 508.5C606.12 507.8 607.81 507.09 609.5 506.39ZM1274.92 594.5C1277.21 587.93 1277.93 580.43 1278.16 573.5C1278.87 552.26 1272.07 531.69 1252.73 520.76C1223.97 504.49 1181.71 506.62 1161.95 535.42C1157.97 541.23 1154.08 548.42 1153.34 555.5C1156.2 558.13 1160.77 558.86 1164.45 560.12C1174.48 563.57 1184.66 565.07 1195.14 566.46C1197.28 566.75 1208.12 567.04 1209.26 568.04C1210.1 568.78 1209.65 569.58 1209.89 570.5C1206.61 573.87 1198.37 572.14 1193.78 571.56C1184.27 570.37 1174.74 568.65 1165.54 565.95C1161.12 564.65 1156.99 562.63 1152.5 561.64C1149.51 565.83 1149.23 572.35 1148.75 577.5C1147.8 587.67 1145.84 606.05 1148.92 615.5C1157.55 619.83 1169.08 622.61 1178.69 623.61C1182.94 624.05 1188.55 622.58 1189.75 627.5C1186.71 630.16 1181.24 628.91 1177.38 628.35C1167.86 626.97 1158.9 623.39 1149.5 621.9C1150.5 631.21 1151.5 640.53 1152.5 649.84C1158.05 648.67 1162.79 644.51 1168.54 643.14C1187.57 638.63 1200.43 644.56 1215.5 654.9C1223.74 651.11 1231.3 647.24 1240.5 646.2C1246.26 645.54 1251.86 646.67 1257.5 646.39C1260.83 642.31 1262.16 636.44 1264.04 631.52C1267.76 621.76 1271.66 611.83 1273.43 601.5C1268.24 601.15 1262.75 602.26 1257.48 602.65C1249.83 603.22 1242.12 602.98 1234.5 602.25C1230.6 601.87 1224.24 602.43 1221.47 599.5C1222.79 594.25 1230.78 596.98 1235.09 597.48C1246.75 598.85 1264.1 599.66 1274.92 594.5ZM704.75 529.5C697.13 519.38 680.8 513.33 668.5 513.33C656.66 513.33 640.53 519.81 633.3 529.5C636.02 533.93 640.97 537.16 644.66 540.84C651.29 547.44 657.1 555.64 659.75 564.67C665.51 584.37 655.01 605.45 633.48 607.77C624.84 608.7 617.37 605.99 609.5 602.95C607.09 612.41 617.32 630.58 623.76 637.74C648.19 664.88 696.36 663.18 717.71 633.23C722.9 625.93 730.06 611.9 728.5 602.96C720.37 605.75 713.35 608.77 704.51 607.79C680.75 605.15 671.15 582.57 679.13 561.58C681.89 554.31 686.55 547.06 692.06 541.56C696.01 537.6 702.27 534.52 704.75 529.5ZM446.5 634.05C451.38 619.6 455.43 605.24 463.77 592.28C466.66 587.79 470.53 580.44 476.5 581.61C479.37 586 476.24 593.97 475.52 599.08C473.69 612.13 472.78 625.33 472.79 638.5C472.79 647.53 473.36 656.5 474.11 665.5C474.39 668.86 476.16 673.18 475.71 676.44C475.32 679.33 472.82 679.54 470.5 679.64C466.46 675.66 467.16 666.2 466.56 660.75C464.39 640.98 466.54 621.53 467.5 601.85C462.95 605.95 460.82 613.64 458.8 619.36C455.35 629.13 452.64 639.25 451.24 649.53C450.23 656.96 450.63 664.5 449.5 671.93C447.64 672.75 445.3 673.79 443.64 671.91C441.31 669.27 442.1 663.69 441.95 660.5C441.57 652.5 440.28 644.4 438.8 636.54C435.6 619.61 429.84 603.57 422.49 588.04C419.09 580.86 415.56 572.68 410.5 566.56C409.94 574.13 414.02 583.13 415.72 590.64C419.05 605.43 421.75 620.4 423.14 635.5C423.74 642.06 426.47 651.98 422.5 657.72C421.05 657.95 420.12 658.47 418.63 657.93C416.06 657 412.7 646.12 411.25 643.28C405.38 631.76 393.79 614.44 381.5 609.31C382.44 615.34 387.48 621.85 390.1 627.42C395.11 638.07 399.53 649.25 403.04 660.46C404.73 665.83 409.61 674.98 403.6 678.5C398.72 677.84 396.81 668.9 393.46 665.07C385.96 656.51 372.32 646.26 360.51 646.5C366.76 654.22 373.79 661.09 378.61 669.9C380.81 673.93 383.34 677.5 382.5 682.15C380.14 683.82 377.96 684.03 376.11 681.35C374.62 679.18 373.81 676.28 372.52 673.95C369.07 667.72 364.76 661.82 359.89 656.63C354.96 651.36 346.31 646.76 342.65 641.5C344.48 635.21 351.14 636.89 356.55 637.72C364.89 639 372.77 641.25 380.18 645.34C383.75 647.31 388.56 652.49 392.51 652.5C387.66 638.07 380.53 623.72 372.99 610.51C370.41 606 364.31 599.63 366.76 594.5C371.23 592.03 377.82 597.41 381.68 599.83C390.72 605.52 398.84 612.61 405.76 620.72C409.17 624.72 411.16 630.59 415.5 633.57C415.26 614 407.58 586.57 401.96 567.53C400.62 563 395.03 549.09 395.03 545.5C395.03 544.06 395.56 543.65 396.18 542.5C403.28 541.08 411.78 554.49 415.56 559.94C425.41 574.1 432.87 589.93 438.3 606.3C440.31 612.37 442.12 618.56 443.6 624.79C444.34 627.95 444.58 631.63 446.5 634.05ZM931.5 560.08C932.48 561.21 933.39 562.09 933.51 563.72C933.77 567.19 928.34 579.38 927.07 583.54C922.75 597.62 919.78 612.07 916.85 626.48C915.52 632.99 913.17 641.04 914.5 647.6C917.09 645.28 918.78 642.21 921.25 639.75C927.31 633.69 938.74 623.74 947.84 626.5C948.77 632.13 944.58 636.62 942.12 641.61C937.85 650.3 933.71 659.89 932.14 669.51C931.33 674.56 932.17 680.77 926.5 682.29C921.89 679.51 923.61 673.82 924.59 669.21C926 662.58 927.84 656.02 930.19 649.66C931.48 646.17 934.1 642.59 934.5 639C926.09 642.72 920.13 652.69 916.03 660.57C913.68 665.09 913.57 670.84 907.53 670.5C902.66 665.29 905.77 653.67 906.53 647.21C908.13 633.53 910.07 619.98 913.15 606.54C914.48 600.69 918.54 590.37 918.5 585.04C912.47 589.35 908.51 599.33 905.52 606.03C899.18 620.22 894.21 635.28 891.17 650.54C890.05 656.15 888.87 661.85 888.33 667.55C888 670.96 888.33 674.29 887.11 677.5C884.74 678.72 883.98 678.54 881.5 677.53C879.9 674.59 880.39 670.86 879.79 667.54C878.33 659.5 875.9 647.08 869.58 641.5C868.87 645.33 870.27 649.74 870.6 653.63C871.06 659.26 870.64 664.9 870.14 670.5C869.72 675.36 869.69 680.58 863.46 679.5C860.91 674.74 862.48 668.76 862.71 663.5C863.15 653.62 862.92 643.21 859.67 633.76C858.11 629.2 855.16 624.26 859.35 620.5C865.83 620.69 874.85 633.31 877.79 638.72C879.7 642.23 880.6 646.38 883.5 649.08C886.5 640.98 887.88 632.17 890.45 623.88C895.47 607.66 903.28 592.31 912.88 578.33C917.06 572.24 923.54 560.45 931.5 560.08ZM536.79 610.41C558.05 604.66 574.09 633.91 576.54 650.87C577.88 660.15 575.72 672.47 565.97 676.45C544.11 685.38 525.13 652.16 523.89 634.5C523.22 624.9 526.21 613.28 536.79 610.41ZM790.75 610.35C804.29 607.1 813.5 617.81 813.93 630.5C814.54 648.5 797.5 681.37 775.69 677.65C764.11 675.68 760.21 663.77 760.92 653.5C761.99 637.89 774.24 614.31 790.75 610.35ZM539.75 615.39C531.27 616.7 528.74 626.14 529.21 633.5C530.02 645.93 537.13 659.84 547 667.5C551.65 671.11 558.27 674.05 564.05 671.51C570.88 668.51 571.57 658.85 571.08 652.5C570 638.71 556.66 612.77 539.75 615.39ZM793.74 615.4C779.22 617.43 767.55 639.4 766.29 652.53C765.64 659.34 767.19 669.21 774.64 671.79C780.87 673.95 787.33 670.56 791.97 666.49C801.35 658.24 808.29 645.12 808.69 632.5C808.97 623.5 804.08 613.96 793.74 615.4Z" fill="#000000" fill-rule="evenodd" stroke="#000000" stroke-width="0.25" stroke-linejoin="round"/>
</svg>